<?xml version="1.0" encoding="utf-8"?>
<!-- Generator: Adobe Illustrator 16.0.0, SVG Export Plug-In . SVG Version: 6.00 Build 0)  -->
<!DOCTYPE svg PUBLIC "-//W3C//DTD SVG 1.1//EN" "http://www.w3.org/Graphics/SVG/1.1/DTD/svg11.dtd">
<svg version="1.1" id="圖層_1" xmlns="http://www.w3.org/2000/svg" xmlns:xlink="http://www.w3.org/1999/xlink" x="0px" y="0px"
	 width="446.468px" height="341.29px" viewBox="0 0 446.468 341.29" enable-background="new 0 0 446.468 341.29"
	 xml:space="preserve">
<g>
	<path fill="#14A3C3" d="M9.042,177.393C9.057,177.471,9.053,177.469,9.042,177.393L9.042,177.393z"/>
	<path fill="#14A3C3" d="M9.011,177.267c0.013,0.051,0.021,0.093,0.031,0.126C9.032,177.359,9.024,177.32,9.011,177.267z"/>
	<path fill="#14A3C3" d="M7.724,170.751c-0.005-0.03-0.007-0.052-0.01-0.07C7.717,170.702,7.719,170.721,7.724,170.751z"/>
	<path fill="#14A3C3" d="M7.714,170.681C7.7,170.619,7.7,170.618,7.714,170.681L7.714,170.681z"/>
	<path fill="#F5AE8D" d="M438.847,222.747C499.967,88.719,176.747,70.004,63.746,0c22.197,36.206,6.188,64.577-4.766,76.738
		C-172.578,361.538,346.079,426.176,438.847,222.747z"/>
</g>
<g>
	<g opacity="0.3">
		<path fill="#4C4C4C" d="M125.686,132.261v10.798c0,1.72-0.32,2.68-1.28,3.2c-1,0.6-2.36,0.72-4.479,0.72
			c-0.12-0.92-0.56-2.4-0.959-3.319c1.2,0.04,2.319,0,2.679,0c0.44,0,0.6-0.12,0.6-0.601v-9.558c-1.28,0.479-2.56,0.96-3.68,1.359
			l-0.919-3.56c1.32-0.359,2.879-0.88,4.599-1.479v-7.999h-4.199v-3.439h4.199v-7.798h3.439v7.798h3.359v3.439h-3.359v6.839
			l3.159-1.079l0.6,3.279L125.686,132.261z M154.601,143.66v2.919h-26.675v-2.919H154.601z M154.161,116.704h-25.236v-2.919h10.558
			c-0.32-0.92-0.76-1.88-1.2-2.68l3.52-0.8c0.72,1.04,1.36,2.399,1.68,3.479h10.678V116.704z M152.761,130.662h-21.916v-12.558
			h21.916V130.662z M131.964,142.139v-9.958h19.157v9.958H131.964z M149.441,120.343h-15.438v8.039h15.438V120.343z
			 M135.444,136.141h12.078v-1.84h-12.078V136.141z M135.444,140.02h12.078v-1.88h-12.078V140.02z M147.042,126.982h-10.798v-5.159
			h10.798V126.982z M144.442,123.542h-5.679v1.72h5.679V123.542z"/>
		<path fill="#4C4C4C" d="M192.481,134.941c-2.36,1.72-5.319,3.52-7.918,4.839c2.799,1.92,6.279,3.239,10.358,3.959
			c-0.8,0.84-1.879,2.36-2.319,3.36c-9.039-2-14.877-6.76-18.277-14.198h-6.039v9.679l9.878-2.16c-0.16,0.96-0.28,2.479-0.28,3.24
			c-10.158,2.52-12.358,3.039-13.358,3.519l-0.28,0.24c-0.24-0.96-0.96-2.84-1.6-3.759c0.84-0.36,1.959-1.28,1.959-2.88v-7.879
			h-6.199v-3.279h6.879v-17.517h24.716v3.079h-20.957v2.88h19.797v2.959h-19.797v2.8h19.797v2.92h-19.797v2.879H194v3.279h-4.479
			L192.481,134.941z M178.203,132.901c1.04,1.84,2.28,3.479,3.839,4.919c2.6-1.479,5.519-3.358,7.399-4.919H178.203z"/>
		<path fill="#4C4C4C" d="M211.444,141.7c-0.959-1.64-3.04-4.479-4.759-6.679c-0.959,4.279-2.799,8.479-6.319,11.678
			c-0.56-0.76-1.76-1.96-2.679-2.56c4.479-3.8,5.919-9.438,6.399-14.598h-5.999v-3.399h6.159c0.04-0.88,0.04-1.68,0.04-2.479v-3.399
			h-5.439v-3.319h5.439v-5.919h3.479v5.919h5.359v3.319h-5.359v3.399c0,0.8,0,1.6-0.04,2.479h6.119v3.399h-6.319
			c-0.04,0.561-0.08,1.08-0.16,1.64c1.56,1.601,5.679,6.559,6.639,7.799L211.444,141.7z M230.841,143.299
			c0.64,0,0.84-0.36,0.92-2.999c0.64,0.56,2.08,1.119,3.04,1.359c-0.36,3.919-1.28,4.919-3.56,4.919h-3.08c-3,0-3.719-1-3.719-4.319
			v-7.798h-2.32c-0.68,5.918-2.6,10.317-9.479,12.837c-0.4-0.84-1.319-2.159-2.08-2.799c5.959-1.96,7.439-5.399,8.039-10.038h-3.439
			v-22.356h17.237v22.356h-4.519v7.798c0,0.96,0.12,1.04,0.84,1.04H230.841z M218.643,118.624h10.199v-3.199h-10.199V118.624z
			 M218.643,124.863h10.199v-3.239h-10.199V124.863z M218.643,131.141h10.199v-3.279h-10.199V131.141z"/>
		<path fill="#4C4C4C" d="M258.403,116.784h2.279v2.399h-2.279v4.04h-7.599v1.479h8.118v2.199h-8.118v1.561h9.679v2.479h-22.317
			v-2.479h9.239v-1.561h-7.399v-2.199h7.399v-1.479h-7.199v-2.2h7.199v-1.84h-9.479v-2.399h9.479v-1.64h-7.079v-2.159h7.079v-2.399
			h3.399v2.399h7.599V116.784z M237.927,143.379c5.559-0.16,14.357-0.521,22.716-0.92l-0.119,2.84
			c-8.079,0.399-16.678,0.84-22.357,1.079L237.927,143.379z M258.443,132.381v8.918h-18.117v-8.918H258.443z M243.326,135.901h4.439
			v-1.6h-4.439V135.901z M243.326,139.42h4.439v-1.681h-4.439V139.42z M250.805,116.784h4.399v-1.64h-4.399V116.784z
			 M255.204,119.183h-4.399v1.84h4.399V119.183z M255.364,134.301h-4.4v1.6h4.4V134.301z M255.364,137.74h-4.4v1.681h4.4V137.74z
			 M265.402,137.46h-3.399v-22.076h3.399V137.46z M273.041,111.385v31.435c0,2.079-0.44,3.119-1.72,3.759
			c-1.24,0.56-3.279,0.68-6.399,0.68c-0.159-0.999-0.68-2.6-1.159-3.639c2.199,0.04,4.239,0.04,4.879,0.04c0.6,0,0.88-0.2,0.88-0.84
			v-31.435H273.041z"/>
		<path fill="#4C4C4C" d="M298.325,121.103c0-2.199-1.4-3.879-3.92-3.879c-1.88,0-3.52,0.96-4.839,2.439l-2.6-2.359
			c1.96-2.24,4.639-3.84,7.959-3.84c4.639,0,7.878,2.64,7.878,7.319c0,5.839-7.118,7.998-6.438,13.957h-4.039
			C291.366,128.022,298.325,125.462,298.325,121.103z M291.326,141.459c0-1.88,1.319-3.279,3.079-3.279
			c1.72,0,3.08,1.399,3.08,3.279s-1.36,3.199-3.08,3.199C292.646,144.659,291.326,143.339,291.326,141.459z"/>
		<path fill="#4C4C4C" d="M72.324,175.063c-0.68,1.36-1.36,2.72-2.12,4h18.917v19.916c0,2-0.4,3.12-1.84,3.68
			c-1.4,0.6-3.639,0.6-6.959,0.6c-0.12-0.999-0.68-2.6-1.16-3.599c2.36,0.119,4.759,0.119,5.439,0.079c0.68,0,0.88-0.199,0.88-0.8
			V195.5H69.365c-0.6,3-1.84,5.92-4.199,8.079c-0.48-0.84-1.959-2.399-2.68-2.92c3.359-3.079,3.68-7.438,3.68-11.158v-4.719
			c-1.72,2.04-3.64,3.839-5.799,5.359c-0.56-0.84-1.68-2.16-2.439-2.88c4.399-2.959,7.799-7.398,10.278-12.198h-9.398v-3.479h10.958
			c0.68-1.68,1.24-3.359,1.68-4.999l3.799,0.88c-0.44,1.36-0.88,2.76-1.439,4.119h19.917v3.479H72.324z M85.482,192.38v-3.479
			H69.885v0.68c0,0.88-0.04,1.84-0.12,2.8H85.482z M85.482,182.342H69.885v3.439h15.597V182.342z"/>
		<path fill="#4C4C4C" d="M114.884,199.58c0,1.68-0.36,2.52-1.479,3.039c-1.16,0.48-2.919,0.52-5.399,0.52
			c-0.16-0.84-0.68-2.159-1.16-2.959c1.68,0.08,3.319,0.08,3.839,0.04c0.52,0,0.68-0.16,0.68-0.64v-5.319
			c-2.399,1.56-4.759,3.039-6.839,4.319l-1.04-2.64c-0.44,2.68-1.24,5.399-2.839,7.479c-0.48-0.72-1.88-2.079-2.6-2.56
			c2.239-3.039,2.439-7.318,2.439-10.718v-9.398h14.397V199.58z M112.444,169.504c1.84,2.8,4.039,6.559,4.999,8.918l-3.199,1.36
			c-0.24-0.72-0.64-1.64-1.16-2.6c-10.478,0.96-11.998,1.199-13.038,1.6c-0.2-0.76-0.76-2.479-1.16-3.399
			c0.64-0.16,1.32-0.76,2.12-1.6c0.76-0.84,3.319-3.999,4.919-7.159l3.799,1.12c-1.56,2.479-3.479,4.959-5.319,6.999l7.159-0.521
			c-0.72-1.239-1.44-2.52-2.12-3.599L112.444,169.504z M103.926,190.181c0,1.56-0.08,3.279-0.32,5.039
			c2.08-0.92,4.879-2.359,7.758-3.8v-1.479l-1.759,1.76c-1.28-1.16-3.799-3-5.679-4.279l1.919-1.76c1.8,1.12,4.16,2.76,5.519,3.839
			v-5.639h-7.438V190.181z M123.322,183.862c-4.079,0-5.159-1.399-5.159-5.239v-11.958h3.679v5.159h10.318v3.199h-10.318v3.68
			c0,1.439,0.28,1.96,1.56,1.96h6.719c1,0,2.6-0.08,3.439-0.24c0.08,0.96,0.2,2.359,0.36,3.159c-0.76,0.24-2.28,0.28-3.72,0.28
			H123.322z M129.602,199.739c1.479,0,1.8-0.72,1.959-4.759c0.76,0.6,2.24,1.2,3.279,1.359c-0.44,5.239-1.439,6.64-4.919,6.64
			h-6.479c-4.199,0-5.279-1.08-5.279-4.8v-13.037h3.679v4.398h10.678v3.32h-10.678v5.278c0,1.36,0.32,1.6,2.08,1.6H129.602z"/>
		<path fill="#4C4C4C" d="M172.481,175.063c0,0-0.04,1.32-0.08,1.84c-0.88,16.197-1.64,22.116-3.399,24.156
			c-1.08,1.279-2.12,1.68-3.679,1.84c-1.44,0.16-4,0.12-6.359,0c-0.08-1.08-0.6-2.72-1.32-3.84c2.64,0.24,5.079,0.24,6.079,0.24
			c0.879,0,1.359-0.12,1.839-0.6c1.36-1.28,2.2-6.759,2.879-19.837h-12.518c-0.6,8.238-3.319,17.917-14.678,24.636
			c-0.6-0.92-2-2.319-2.879-2.999c10.398-5.959,12.998-14.438,13.598-21.637h-12.398v-3.8h12.598v-0.999v-7.399h3.919v7.399v0.999
			H172.481z"/>
		<path fill="#4C4C4C" d="M214.241,177.703v2.72h-6.879l-0.32,3.359h-22.876l0.44-3.359h-6.319v-2.72h6.679l0.4-3.199h22.556
			l-0.32,3.199H214.241z M202.003,197.86c4.079,1.039,8.238,2.319,10.958,3.239l-2.52,2.359c-2.8-1.08-7.519-2.64-12.078-3.879
			l1.56-1.72h-8.119l2.36,1.6c-3.279,1.76-8.719,3.279-13.198,3.959c-0.44-0.68-1.36-1.84-2-2.56c3.879-0.52,8.678-1.8,11.438-2.999
			h-6.839v-12.639h25.516v12.639H202.003z M182.886,176.543h-3.359v-6.6h14.958c-0.44-0.959-1-1.919-1.479-2.719l3.199-0.92
			c0.84,1.039,1.64,2.479,2.16,3.639h14.598v6.6h-3.52v-3.64h-26.556V176.543z M187.165,188.781h18.157v-1.52h-18.157V188.781z
			 M187.165,192.26h18.157v-1.56h-18.157V192.26z M187.165,195.82h18.157v-1.6h-18.157V195.82z M187.725,181.783h6.519
			c0.08-0.561,0.16-1.12,0.2-1.72h-6.519L187.725,181.783z M188.405,176.543l-0.2,1.52h6.479l0.12-1.52H188.405z M203.842,181.783
			l0.16-1.72h-6.439c-0.08,0.6-0.16,1.159-0.2,1.72H203.842z M204.282,176.543h-6.359l-0.16,1.52h6.399L204.282,176.543z"/>
		<path fill="#4C4C4C" d="M232.684,193.14c-4.999,1.52-10.318,3.04-14.317,4.199l-0.92-3.56c1.68-0.359,3.759-0.919,5.999-1.52
			v-8.958h-4.799v-3.439h4.799v-7.799h-5.199v-3.439h13.718v3.439h-4.919v7.799h4.519v3.439h-4.519v7.958l5.119-1.439
			L232.684,193.14z M250.881,199.819c0.84,0,1-0.6,1.12-4.639c0.72,0.6,2.2,1.159,3.12,1.399c-0.32,5.119-1.2,6.439-3.799,6.439
			h-3.479c-3.2,0-3.959-1.04-3.959-4.359v-8.438h-3.279c-0.72,6.398-2.72,10.838-10.838,13.317c-0.36-0.88-1.32-2.359-2.08-3.039
			c7.159-1.88,8.679-5.279,9.278-10.278h-3.279v-21.997h18.997v21.997h-5.239v8.398c0,1.08,0.16,1.199,1,1.199H250.881z
			 M237.164,174.624h11.838v-3.319h-11.838V174.624z M237.164,180.863h11.838v-3.359h-11.838V180.863z M237.164,187.101h11.838
			v-3.359h-11.838V187.101z"/>
		<path fill="#4C4C4C" d="M272.084,189.5v10.519c0,1.4-0.199,2.24-1.159,2.72s-2.28,0.52-4.199,0.52c-0.12-0.8-0.561-2.079-1-2.839
			c1.319,0.04,2.439,0.04,2.84,0.04c0.359-0.04,0.479-0.16,0.479-0.521V189.5h-4.359v-14.357h3.64c0.2-1.159,0.399-2.479,0.56-3.639
			h-5.999v11.678c0,5.879-0.399,14.157-2.879,19.557c-0.521-0.6-1.96-1.64-2.68-1.96c2.199-4.959,2.359-12.118,2.359-17.557v-14.918
			h16.957v3.2h-4.159l-1.04,3.639h5.119V189.5H272.084z M267.845,191.861c-0.56,3.039-1.6,6.198-2.799,8.238
			c-0.601-0.439-1.84-1.12-2.6-1.359c1.199-1.96,2.039-4.76,2.56-7.439L267.845,191.861z M267.565,181.022h5.959v-3.239h-5.959
			V181.022z M267.565,186.862h5.959v-3.32h-5.959V186.862z M275.284,198.54c-0.32-1.68-1.32-4.439-2.2-6.479l2.399-0.879
			c1,2.039,2,4.679,2.44,6.318L275.284,198.54z M284.802,198.059c-1.839,2-4.879,4.12-7.398,5.279
			c-0.479-0.64-1.56-1.68-2.279-2.319c2.439-1.08,5.279-3.119,6.679-4.759L284.802,198.059z M283.442,174.864
			c0.16-1.08,0.36-2.28,0.52-3.399h-6.559v-3.16h16.877v3.16h-6.679c-0.279,1.159-0.6,2.359-0.88,3.399h6.56V195.7h-14.638v-20.836
			H283.442z M290.001,177.623h-8.198v3.32h8.198V177.623z M290.001,183.582h-8.198v3.32h8.198V183.582z M290.001,189.541h-8.198
			v3.359h8.198V189.541z M289.602,196.3c1.88,1.479,4.359,3.639,5.559,5.039l-2.799,1.959c-1.16-1.439-3.52-3.719-5.439-5.279
			L289.602,196.3z"/>
		<path fill="#4C4C4C" d="M301.406,173.784h-3.279v-3.159h8.038c-0.399-1.04-0.84-2.24-1.279-3.16l3.319-0.92
			c0.64,1.24,1.319,2.84,1.8,4.08h5.919v3.159h-11.118v6.519c0,1.2,0.24,1.64,1.239,1.64h5.72c0.92,0,2.279-0.08,3.039-0.239
			c0.04,0.92,0.2,2.319,0.32,3.079c-0.68,0.24-2,0.28-3.279,0.28h-5.8c-3.679,0-4.639-1.24-4.639-4.84V173.784z M318.003,199.419
			h15.798v3.079h-35.194v-3.079h15.678v-3.04h-13.358v-2.999h13.358v-2.88c-4.199,0.24-8.479,0.4-12.398,0.44
			c-0.08-0.92-0.479-2.2-0.8-3.04c9.879-0.199,21.677-0.96,28.635-2.239l1.68,2.999c-3.76,0.681-8.438,1.2-13.398,1.601v3.119
			h13.718v2.999h-13.718V199.419z M334.64,169.944c-2.279,10.119-8.479,14.438-17.037,16.518c-0.4-0.84-1.12-2.119-1.8-2.8
			c2-0.399,3.919-0.96,5.598-1.76c-1.039-1.359-2.639-3.119-4.199-4.679c-0.359,0.359-0.8,0.68-1.279,1.04
			c-0.6-0.76-1.76-1.84-2.6-2.32c3.879-2.64,6.558-6.238,7.919-9.318l3.599,0.601c-0.319,0.72-0.72,1.359-1.079,2.079h7.958
			l0.681-0.16L334.64,169.944z M323.923,180.542c0.919-0.64,1.799-1.319,2.599-2.08c-1.6-1.319-3.879-3.079-6.038-4.479
			c-0.44,0.52-0.88,1.039-1.36,1.479C320.762,177.063,322.682,179.023,323.923,180.542z M322.003,172.184
			c2.039,1.279,4.479,2.919,6.198,4.319c0.88-1.28,1.641-2.72,2.2-4.319H322.003z"/>
		<path fill="#4C4C4C" d="M358.325,177.103c0-2.199-1.4-3.879-3.92-3.879c-1.88,0-3.52,0.959-4.839,2.439l-2.6-2.36
			c1.96-2.239,4.639-3.839,7.959-3.839c4.639,0,7.878,2.64,7.878,7.318c0,5.84-7.118,7.999-6.438,13.958h-4.039
			C351.366,184.022,358.325,181.462,358.325,177.103z M351.326,197.459c0-1.88,1.319-3.279,3.079-3.279
			c1.72,0,3.08,1.399,3.08,3.279s-1.36,3.199-3.08,3.199C352.645,200.659,351.326,199.339,351.326,197.459z"/>
		<path fill="#4C4C4C" d="M72.962,241.902c-0.8,3.759-2.08,6.759-3.879,9.158c3.159,1.84,6.079,3.64,8.079,5.119l-2.479,2.999
			c-1.92-1.56-4.839-3.479-8.119-5.398c-3,2.6-6.999,4.319-12.318,5.559c-0.24-0.88-1.16-2.56-1.84-3.399
			c4.639-0.88,8.119-2.159,10.758-4.119c-2.56-1.439-5.159-2.8-7.519-3.919c0.96-1.64,2-3.76,3-5.999h-4.639l0.32,2.239
			c-1.56,0.52-3.159,1-4.719,1.479v9.599c0,1.88-0.4,2.84-1.52,3.399c-1.16,0.56-2.879,0.68-5.559,0.64
			c-0.12-0.88-0.64-2.399-1.08-3.359c1.68,0.08,3.359,0.08,3.839,0.04c0.52,0,0.76-0.16,0.76-0.76v-8.438l-4.799,1.439l-0.8-3.599
			c1.56-0.4,3.52-0.96,5.599-1.561v-9.198h-5.079v-3.439h5.079v-7.759h3.56v7.759h4.039v3.439h-4.039v8.199l3.719-1.04v-2.439h6.719
			c0.88-2.2,1.6-4.399,2.16-6.399l3.839,0.521c-0.48,1.879-1.2,3.879-1.959,5.879h5.559c0.12-0.96,0.2-1.92,0.28-2.96l4.039,0.08
			c-0.12,1-0.2,1.96-0.36,2.88h4v3.359H72.962z M58.044,235.502h-3.479v-8.038h9.238c-0.32-1.44-0.8-3.04-1.2-4.399l3.679-0.601
			c0.56,1.521,1.2,3.439,1.56,5h9.078v7.998h-3.599v-4.719H58.044V235.502z M62.724,241.902c-0.76,1.68-1.48,3.279-2.2,4.719
			c1.68,0.8,3.439,1.72,5.199,2.64c1.6-1.96,2.64-4.359,3.319-7.358H62.724z"/>
		<path fill="#4C4C4C" d="M91.805,241.742c-0.64,3.56-1.959,7.198-3.639,10.078c0.68,0.36,1.479,1,2.72,1.68
			c2.759,1.6,6.479,1.84,11.078,1.84c4.759,0,11.598-0.36,16.117-0.92c-0.48,1-1.12,2.88-1.16,3.919
			c-3.039,0.2-10.398,0.44-15.117,0.44c-5.159,0-8.599-0.4-11.558-2.08c-1.6-0.88-3.04-2.159-3.919-2.159s-2.319,2.52-3.439,4.839
			l-2.479-3.52c1.16-1.52,2.399-2.799,3.52-3.639l-0.04-0.04c1.72-2.08,3.08-5.119,3.879-8.039h-5.639
			c1.12-2.359,2.439-5.639,3.6-8.719h-4.6v-3.359h9.438c-1.04,2.84-2.319,6.119-3.479,8.879h2l0.52-0.12L91.805,241.742z
			 M86.046,230.383c-0.64-1.72-2.08-4.559-3.04-6.679l3.199-1.16c1.04,2.08,2.44,4.76,3.2,6.439L86.046,230.383z M116.961,230.064
			H91.805v-2.92h11.198c-0.56-1.12-1.4-2.64-2.24-3.76l3.56-1.159c1.04,1.319,2.2,3.119,2.76,4.279l-1.84,0.64h11.718V230.064z
			 M94.405,242.702h19.437v9.718H94.405V242.702z M113.562,235.063H94.845v-2.76h18.717V235.063z M94.845,237.502h18.717v2.76
			H94.845V237.502z M97.924,249.661h12.278v-4.199H97.924V249.661z"/>
		<path fill="#4C4C4C" d="M131.726,248.38h6.799v3.159h-6.799v7.599h-3.439v-7.599h-7.159v-3.159h7.159v-3.839h-6.319v-3.16h3.36
			c-0.28-1.279-1-3.079-1.72-4.438l2.479-0.761h-4.959v-3.159h7.159v-3.439h-5.999v-3.119h5.999v-3.76h3.439v3.76h5.799v3.119
			h-5.799v3.439h6.759v3.159h-4.399l2.6,0.681c-0.76,1.479-1.6,3.159-2.36,4.519h3.4v3.16h-5.999V248.38z M126.406,236.182
			c0.84,1.44,1.6,3.359,1.88,4.56l-1.92,0.64h4.719c0.88-1.6,1.8-3.679,2.36-5.199H126.406z M156.561,238.583
			c-0.84,4.639-2.319,8.998-4.559,12.758c1.76,1.959,3.719,3.599,5.959,4.719c-0.84,0.64-1.919,2.04-2.479,2.96
			c-2.04-1.16-3.879-2.76-5.519-4.68c-1.48,1.96-3.24,3.64-5.239,4.999c-0.36-0.56-0.92-1.159-1.52-1.72v1.6h-3.399v-34.834h15.797
			v7.559c0,1.72-0.36,2.68-1.72,3.16c-1.32,0.56-3.359,0.56-6.359,0.56c-0.16-0.96-0.64-2.319-1.12-3.199
			c2.28,0.08,4.399,0.08,4.959,0.04c0.64-0.04,0.8-0.16,0.8-0.601v-4.239h-8.958v10.238h10.438l0.64-0.159L156.561,238.583z
			 M143.204,256.179c1.76-1.32,3.319-2.92,4.639-4.759c-1.96-3-3.52-6.52-4.639-10.318V256.179z M146.243,240.902
			c0.879,2.68,2.08,5.199,3.519,7.438c1.28-2.319,2.2-4.839,2.8-7.438H146.243z"/>
		<path fill="#4C4C4C" d="M193.162,259.258h-3.839v-1.919h-16.477v1.919h-3.719V246.5c-2.08,0.681-4.199,1.28-6.279,1.8
			c-0.4-1.04-1.24-2.6-1.919-3.439c4.959-1,9.998-2.72,14.518-5.079c-1.8-1.8-4.599-4.079-6.999-5.879
			c-1.28,0.84-2.64,1.64-4.119,2.399c-0.52-0.92-1.72-2.319-2.56-2.959c6.439-2.92,10.918-7.159,13.278-10.918l4.239,0.879
			c-0.76,1.08-1.56,2.16-2.439,3.2h12.998l0.6-0.2l2.56,1.52c-3.04,6.079-8.239,10.838-14.358,14.357h14.518V259.258z
			 M173.565,229.904c-0.72,0.64-1.439,1.239-2.16,1.84c2.52,1.799,5.599,4.199,7.479,5.999c3.399-2.2,6.359-4.8,8.519-7.839H173.565
			z M189.322,253.94v-8.399h-16.477v8.399H189.322z"/>
		<path fill="#4C4C4C" d="M237.201,233.703v2.72h-6.879l-0.32,3.359h-22.876l0.44-3.359h-6.319v-2.72h6.679l0.4-3.199h22.556
			l-0.32,3.199H237.201z M224.963,253.86c4.079,1.039,8.238,2.319,10.958,3.239l-2.52,2.359c-2.8-1.08-7.519-2.64-12.078-3.879
			l1.56-1.72h-8.119l2.36,1.6c-3.279,1.76-8.719,3.279-13.198,3.959c-0.44-0.68-1.36-1.84-2-2.56c3.879-0.52,8.678-1.8,11.438-2.999
			h-6.839v-12.639h25.516v12.639H224.963z M205.846,232.543h-3.359v-6.6h14.958c-0.44-0.959-1-1.919-1.479-2.719l3.199-0.92
			c0.84,1.039,1.64,2.479,2.16,3.639h14.598v6.6h-3.52v-3.64h-26.556V232.543z M210.125,244.781h18.157v-1.52h-18.157V244.781z
			 M210.125,248.26h18.157v-1.56h-18.157V248.26z M210.125,251.82h18.157v-1.6h-18.157V251.82z M210.686,237.783h6.519
			c0.08-0.561,0.16-1.12,0.2-1.72h-6.519L210.686,237.783z M211.365,232.543l-0.2,1.52h6.479l0.12-1.52H211.365z M226.803,237.783
			l0.16-1.72h-6.439c-0.08,0.6-0.16,1.159-0.2,1.72H226.803z M227.243,232.543h-6.359l-0.16,1.52h6.399L227.243,232.543z"/>
		<path fill="#4C4C4C" d="M255.645,249.14c-4.999,1.52-10.318,3.04-14.317,4.199l-0.92-3.56c1.68-0.359,3.759-0.919,5.999-1.52
			v-8.958h-4.799v-3.439h4.799v-7.799h-5.199v-3.439h13.718v3.439h-4.919v7.799h4.519v3.439h-4.519v7.958l5.119-1.439
			L255.645,249.14z M273.842,255.819c0.84,0,1-0.6,1.12-4.639c0.72,0.6,2.199,1.159,3.119,1.399c-0.32,5.119-1.2,6.439-3.8,6.439
			h-3.479c-3.199,0-3.959-1.04-3.959-4.359v-8.438h-3.279c-0.72,6.398-2.72,10.838-10.838,13.317c-0.36-0.88-1.32-2.359-2.08-3.039
			c7.159-1.88,8.679-5.279,9.278-10.278h-3.279v-21.997h18.997v21.997h-5.239v8.398c0,1.08,0.16,1.199,1,1.199H273.842z
			 M260.124,230.624h11.838v-3.319h-11.838V230.624z M260.124,236.863h11.838v-3.359h-11.838V236.863z M260.124,243.101h11.838
			v-3.359h-11.838V243.101z"/>
		<path fill="#4C4C4C" d="M295.045,245.5v10.519c0,1.4-0.199,2.24-1.159,2.72s-2.28,0.52-4.199,0.52c-0.12-0.8-0.561-2.079-1-2.839
			c1.319,0.04,2.439,0.04,2.84,0.04c0.359-0.04,0.479-0.16,0.479-0.521V245.5h-4.359v-14.357h3.64c0.2-1.159,0.399-2.479,0.56-3.639
			h-5.999v11.678c0,5.879-0.399,14.157-2.879,19.557c-0.521-0.6-1.96-1.64-2.68-1.96c2.199-4.959,2.359-12.118,2.359-17.557v-14.918
			h16.957v3.2h-4.159l-1.04,3.639h5.119V245.5H295.045z M290.806,247.861c-0.56,3.039-1.6,6.198-2.799,8.238
			c-0.601-0.439-1.84-1.12-2.6-1.359c1.199-1.96,2.039-4.76,2.56-7.439L290.806,247.861z M290.526,237.022h5.959v-3.239h-5.959
			V237.022z M290.526,242.862h5.959v-3.32h-5.959V242.862z M298.245,254.54c-0.32-1.68-1.32-4.439-2.2-6.479l2.399-0.879
			c1,2.039,2,4.679,2.44,6.318L298.245,254.54z M307.763,254.059c-1.839,2-4.879,4.12-7.398,5.279
			c-0.479-0.64-1.56-1.68-2.279-2.319c2.439-1.08,5.279-3.119,6.679-4.759L307.763,254.059z M306.403,230.864
			c0.16-1.08,0.36-2.28,0.52-3.399h-6.559v-3.16h16.877v3.16h-6.679c-0.279,1.159-0.6,2.359-0.88,3.399h6.56V251.7h-14.638v-20.836
			H306.403z M312.962,233.623h-8.198v3.32h8.198V233.623z M312.962,239.582h-8.198v3.32h8.198V239.582z M312.962,245.541h-8.198
			v3.359h8.198V245.541z M312.563,252.3c1.88,1.479,4.359,3.639,5.558,5.039l-2.799,1.959c-1.16-1.439-3.52-3.719-5.439-5.279
			L312.563,252.3z"/>
		<path fill="#4C4C4C" d="M324.367,229.784h-3.279v-3.159h8.038c-0.399-1.04-0.84-2.24-1.279-3.16l3.319-0.92
			c0.64,1.24,1.319,2.84,1.8,4.08h5.919v3.159h-11.118v6.519c0,1.2,0.24,1.64,1.239,1.64h5.72c0.92,0,2.279-0.08,3.039-0.239
			c0.04,0.92,0.2,2.319,0.32,3.079c-0.68,0.24-2,0.28-3.279,0.28h-5.8c-3.679,0-4.639-1.24-4.639-4.84V229.784z M340.964,255.419
			h15.798v3.079h-35.194v-3.079h15.678v-3.04h-13.358v-2.999h13.358v-2.88c-4.199,0.24-8.479,0.4-12.398,0.44
			c-0.08-0.92-0.479-2.2-0.8-3.04c9.879-0.199,21.677-0.96,28.636-2.239l1.68,2.999c-3.76,0.681-8.438,1.2-13.398,1.601v3.119
			h13.718v2.999h-13.718V255.419z M357.601,225.944c-2.279,10.119-8.479,14.438-17.037,16.518c-0.4-0.84-1.12-2.119-1.8-2.8
			c2-0.399,3.919-0.96,5.599-1.76c-1.039-1.359-2.639-3.119-4.199-4.679c-0.359,0.359-0.8,0.68-1.279,1.04
			c-0.6-0.76-1.76-1.84-2.6-2.32c3.879-2.64,6.559-6.238,7.919-9.318l3.599,0.601c-0.319,0.72-0.72,1.359-1.079,2.079h7.958
			l0.681-0.16L357.601,225.944z M346.884,236.542c0.919-0.64,1.799-1.319,2.599-2.08c-1.6-1.319-3.879-3.079-6.038-4.479
			c-0.44,0.52-0.88,1.039-1.36,1.479C343.723,233.063,345.643,235.023,346.884,236.542z M344.964,228.184
			c2.039,1.279,4.479,2.919,6.198,4.319c0.88-1.28,1.641-2.72,2.2-4.319H344.964z"/>
		<path fill="#4C4C4C" d="M371.967,253.459c0-1.88,1.319-3.279,3.039-3.279c1.76,0,3.119,1.399,3.119,3.279
			s-1.359,3.199-3.119,3.199C373.286,256.659,371.967,255.339,371.967,253.459z M372.846,230.744l-0.12-4.72h4.639l-0.16,4.72
			l-0.64,15.997h-3.079L372.846,230.744z"/>
	</g>
	<g>
		<g>
			<path fill="#FFFFFF" d="M125.402,131.978v10.798c0,1.72-0.32,2.68-1.28,3.2c-1,0.6-2.36,0.72-4.479,0.72
				c-0.12-0.92-0.56-2.4-0.959-3.319c1.2,0.04,2.319,0,2.679,0c0.44,0,0.6-0.12,0.6-0.601v-9.558c-1.28,0.48-2.56,0.96-3.68,1.36
				l-0.919-3.56c1.32-0.36,2.879-0.88,4.599-1.479v-7.999h-4.199V118.1h4.199v-7.798h3.439v7.798h3.359v3.439h-3.359v6.839
				l3.159-1.08l0.6,3.279L125.402,131.978z M154.317,143.376v2.919h-26.675v-2.919H154.317z M153.877,116.42h-25.236v-2.919h10.558
				c-0.32-0.92-0.76-1.879-1.2-2.68l3.52-0.8c0.72,1.04,1.36,2.4,1.68,3.479h10.678V116.42z M152.477,130.378h-21.916V117.82h21.916
				V130.378z M131.681,141.856v-9.958h19.157v9.958H131.681z M149.158,120.06H133.72v8.039h15.438V120.06z M135.16,135.857h12.078
				v-1.84H135.16V135.857z M135.16,139.737h12.078v-1.88H135.16V139.737z M146.758,126.699H135.96v-5.159h10.798V126.699z
				 M144.159,123.259h-5.679v1.72h5.679V123.259z"/>
			<path fill="#FFFFFF" d="M192.197,134.658c-2.36,1.72-5.319,3.52-7.918,4.839c2.799,1.92,6.279,3.239,10.358,3.959
				c-0.8,0.84-1.879,2.36-2.319,3.36c-9.039-2-14.877-6.76-18.277-14.198h-6.039v9.679l9.878-2.16c-0.16,0.96-0.28,2.479-0.28,3.24
				c-10.158,2.52-12.358,3.039-13.358,3.519l-0.28,0.24c-0.24-0.96-0.96-2.84-1.6-3.759c0.84-0.36,1.959-1.28,1.959-2.88v-7.879
				h-6.199v-3.279h6.879v-17.517h24.716v3.08h-20.957v2.879h19.797v2.959h-19.797v2.8h19.797v2.919h-19.797v2.879h24.956v3.279
				h-4.479L192.197,134.658z M177.919,132.618c1.04,1.84,2.28,3.479,3.839,4.919c2.6-1.479,5.519-3.359,7.399-4.919H177.919z"/>
			<path fill="#FFFFFF" d="M211.161,141.417c-0.959-1.64-3.04-4.479-4.759-6.679c-0.959,4.28-2.799,8.479-6.319,11.678
				c-0.56-0.76-1.76-1.96-2.679-2.56c4.479-3.8,5.919-9.438,6.399-14.598h-5.999v-3.399h6.159c0.04-0.88,0.04-1.68,0.04-2.479
				v-3.399h-5.439v-3.319h5.439v-5.919h3.479v5.919h5.359v3.319h-5.359v3.399c0,0.8,0,1.6-0.04,2.479h6.119v3.399h-6.319
				c-0.04,0.56-0.08,1.08-0.16,1.64c1.56,1.6,5.679,6.559,6.639,7.799L211.161,141.417z M230.558,143.016
				c0.64,0,0.84-0.36,0.92-2.999c0.64,0.56,2.08,1.119,3.04,1.359c-0.36,3.919-1.28,4.919-3.56,4.919h-3.08
				c-3,0-3.719-1-3.719-4.319v-7.798h-2.32c-0.68,5.918-2.6,10.318-9.479,12.837c-0.4-0.84-1.319-2.159-2.08-2.799
				c5.959-1.96,7.439-5.399,8.039-10.039h-3.439v-22.356h17.237v22.356h-4.519v7.798c0,0.96,0.12,1.04,0.84,1.04H230.558z
				 M218.359,118.34h10.199v-3.2h-10.199V118.34z M218.359,124.579h10.199v-3.239h-10.199V124.579z M218.359,130.858h10.199v-3.279
				h-10.199V130.858z"/>
			<path fill="#FFFFFF" d="M258.12,116.5h2.279v2.399h-2.279v4.04h-7.599v1.48h8.118v2.199h-8.118v1.56h9.679v2.479h-22.317v-2.479
				h9.239v-1.56h-7.399v-2.199h7.399v-1.48h-7.199v-2.2h7.199v-1.84h-9.479V116.5h9.479v-1.64h-7.079v-2.16h7.079v-2.399h3.399
				v2.399h7.599V116.5z M237.643,143.096c5.559-0.16,14.357-0.521,22.716-0.92l-0.119,2.84c-8.079,0.399-16.678,0.84-22.357,1.079
				L237.643,143.096z M258.16,132.098v8.918h-18.117v-8.918H258.16z M243.042,135.617h4.439v-1.6h-4.439V135.617z M243.042,139.137
				h4.439v-1.681h-4.439V139.137z M250.521,116.5h4.399v-1.64h-4.399V116.5z M254.92,118.9h-4.399v1.84h4.399V118.9z
				 M255.081,134.018h-4.4v1.6h4.4V134.018z M255.081,137.457h-4.4v1.681h4.4V137.457z M265.119,137.177h-3.399v-22.077h3.399
				V137.177z M272.757,111.102v31.435c0,2.079-0.44,3.119-1.72,3.759c-1.24,0.56-3.279,0.68-6.399,0.68
				c-0.159-0.999-0.68-2.6-1.159-3.639c2.199,0.04,4.239,0.04,4.879,0.04c0.6,0,0.88-0.2,0.88-0.84v-31.435H272.757z"/>
			<path fill="#FFFFFF" d="M298.042,120.82c0-2.2-1.4-3.879-3.92-3.879c-1.88,0-3.52,0.96-4.839,2.439l-2.6-2.359
				c1.96-2.24,4.639-3.839,7.959-3.839c4.639,0,7.878,2.64,7.878,7.319c0,5.839-7.118,7.999-6.438,13.958h-4.039
				C291.083,127.739,298.042,125.179,298.042,120.82z M291.042,141.176c0-1.88,1.319-3.279,3.079-3.279
				c1.72,0,3.08,1.399,3.08,3.279s-1.36,3.199-3.08,3.199C292.362,144.375,291.042,143.056,291.042,141.176z"/>
			<path fill="#FFFFFF" d="M72.041,174.78c-0.68,1.36-1.36,2.72-2.12,4h18.917v19.916c0,2-0.4,3.12-1.84,3.68
				c-1.4,0.6-3.639,0.6-6.959,0.6c-0.12-0.999-0.68-2.6-1.16-3.599c2.36,0.119,4.759,0.119,5.439,0.079c0.68,0,0.88-0.199,0.88-0.8
				v-3.439H69.081c-0.6,3-1.84,5.92-4.199,8.079c-0.48-0.84-1.959-2.399-2.68-2.92c3.359-3.079,3.68-7.438,3.68-11.158v-4.719
				c-1.72,2.04-3.64,3.839-5.799,5.359c-0.56-0.84-1.68-2.16-2.439-2.88c4.399-2.959,7.799-7.398,10.278-12.198h-9.398V171.3h10.958
				c0.68-1.68,1.24-3.359,1.68-4.999l3.799,0.88c-0.44,1.36-0.88,2.76-1.439,4.119h19.917v3.479H72.041z M85.198,192.097v-3.479
				H69.601v0.68c0,0.88-0.04,1.84-0.12,2.8H85.198z M85.198,182.059H69.601v3.439h15.597V182.059z"/>
			<path fill="#FFFFFF" d="M114.6,199.296c0,1.68-0.36,2.52-1.479,3.039c-1.16,0.48-2.919,0.52-5.399,0.52
				c-0.16-0.84-0.68-2.159-1.16-2.959c1.68,0.08,3.319,0.08,3.839,0.04c0.52,0,0.68-0.16,0.68-0.64v-5.319
				c-2.399,1.56-4.759,3.039-6.839,4.319l-1.04-2.64c-0.44,2.68-1.24,5.399-2.839,7.479c-0.48-0.72-1.88-2.079-2.6-2.56
				c2.239-3.039,2.439-7.318,2.439-10.718v-9.398H114.6V199.296z M112.161,169.221c1.84,2.8,4.039,6.559,4.999,8.918l-3.199,1.36
				c-0.24-0.72-0.64-1.64-1.16-2.6c-10.478,0.96-11.998,1.199-13.038,1.6c-0.2-0.76-0.76-2.479-1.16-3.399
				c0.64-0.16,1.32-0.76,2.12-1.6c0.76-0.84,3.319-3.999,4.919-7.159l3.799,1.12c-1.56,2.479-3.479,4.959-5.319,6.999l7.159-0.521
				c-0.72-1.239-1.44-2.52-2.12-3.599L112.161,169.221z M103.642,189.898c0,1.56-0.08,3.279-0.32,5.039
				c2.08-0.92,4.879-2.359,7.758-3.8v-1.479l-1.759,1.76c-1.28-1.16-3.799-3-5.679-4.279l1.919-1.76c1.8,1.12,4.16,2.76,5.519,3.839
				v-5.639h-7.438V189.898z M123.039,183.579c-4.079,0-5.159-1.399-5.159-5.239v-11.958h3.679v5.159h10.318v3.199h-10.318v3.68
				c0,1.439,0.28,1.96,1.56,1.96h6.719c1,0,2.6-0.08,3.439-0.24c0.08,0.96,0.2,2.359,0.36,3.159c-0.76,0.24-2.28,0.28-3.72,0.28
				H123.039z M129.318,199.456c1.479,0,1.8-0.72,1.959-4.759c0.76,0.6,2.24,1.2,3.279,1.359c-0.44,5.239-1.439,6.64-4.919,6.64
				h-6.479c-4.199,0-5.279-1.08-5.279-4.8v-13.037h3.679v4.398h10.678v3.32h-10.678v5.278c0,1.36,0.32,1.6,2.08,1.6H129.318z"/>
			<path fill="#FFFFFF" d="M172.197,174.78c0,0-0.04,1.32-0.08,1.84c-0.88,16.197-1.64,22.116-3.399,24.156
				c-1.08,1.279-2.12,1.68-3.679,1.84c-1.44,0.16-4,0.12-6.359,0c-0.08-1.08-0.6-2.72-1.32-3.84c2.64,0.24,5.079,0.24,6.079,0.24
				c0.879,0,1.359-0.12,1.839-0.6c1.36-1.28,2.2-6.759,2.879-19.837H155.64c-0.6,8.238-3.319,17.917-14.678,24.636
				c-0.6-0.92-2-2.319-2.879-2.999c10.398-5.959,12.998-14.438,13.598-21.637h-12.398v-3.8h12.598v-0.999v-7.399h3.919v7.399v0.999
				H172.197z"/>
			<path fill="#FFFFFF" d="M213.957,177.419v2.72h-6.879l-0.32,3.359h-22.876l0.44-3.359h-6.319v-2.72h6.679l0.4-3.199h22.556
				l-0.32,3.199H213.957z M201.719,197.577c4.079,1.039,8.238,2.319,10.958,3.239l-2.52,2.359c-2.8-1.08-7.519-2.64-12.078-3.879
				l1.56-1.72h-8.119l2.36,1.6c-3.279,1.76-8.719,3.279-13.198,3.959c-0.44-0.68-1.36-1.84-2-2.56
				c3.879-0.52,8.678-1.8,11.438-2.999h-6.839v-12.639h25.516v12.639H201.719z M182.602,176.26h-3.359v-6.6H194.2
				c-0.44-0.959-1-1.919-1.479-2.719l3.199-0.92c0.84,1.039,1.64,2.479,2.16,3.639h14.598v6.6h-3.52v-3.64h-26.556V176.26z
				 M186.881,188.498h18.157v-1.52h-18.157V188.498z M186.881,191.977h18.157v-1.56h-18.157V191.977z M186.881,195.537h18.157v-1.6
				h-18.157V195.537z M187.441,181.5h6.519c0.08-0.561,0.16-1.12,0.2-1.72h-6.519L187.441,181.5z M188.121,176.26l-0.2,1.52h6.479
				l0.12-1.52H188.121z M203.559,181.5l0.16-1.72h-6.439c-0.08,0.6-0.16,1.159-0.2,1.72H203.559z M203.999,176.26h-6.359l-0.16,1.52
				h6.399L203.999,176.26z"/>
			<path fill="#FFFFFF" d="M232.4,192.857c-4.999,1.52-10.318,3.04-14.317,4.199l-0.92-3.56c1.68-0.359,3.759-0.919,5.999-1.52
				v-8.958h-4.799v-3.439h4.799v-7.799h-5.199v-3.439h13.718v3.439h-4.919v7.799h4.519v3.439h-4.519v7.958l5.119-1.439
				L232.4,192.857z M250.598,199.536c0.84,0,1-0.6,1.12-4.639c0.72,0.6,2.2,1.159,3.12,1.399c-0.32,5.119-1.2,6.439-3.799,6.439
				h-3.479c-3.2,0-3.959-1.04-3.959-4.359v-8.438h-3.279c-0.72,6.398-2.72,10.838-10.838,13.317c-0.36-0.88-1.32-2.359-2.08-3.039
				c7.159-1.88,8.679-5.279,9.278-10.278H233.4v-21.997h18.997v21.997h-5.239v8.398c0,1.08,0.16,1.199,1,1.199H250.598z
				 M236.88,174.34h11.838v-3.319H236.88V174.34z M236.88,180.58h11.838v-3.359H236.88V180.58z M236.88,186.818h11.838v-3.359
				H236.88V186.818z"/>
			<path fill="#FFFFFF" d="M271.8,189.217v10.519c0,1.4-0.199,2.24-1.159,2.72s-2.28,0.52-4.199,0.52c-0.12-0.8-0.561-2.079-1-2.839
				c1.319,0.04,2.439,0.04,2.84,0.04c0.359-0.04,0.479-0.16,0.479-0.521v-10.438h-4.359V174.86h3.64
				c0.2-1.159,0.399-2.479,0.56-3.639h-5.999v11.678c0,5.879-0.399,14.157-2.879,19.557c-0.521-0.6-1.96-1.64-2.68-1.96
				c2.199-4.959,2.359-12.118,2.359-17.557v-14.918h16.957v3.2h-4.159l-1.04,3.639h5.119v14.357H271.8z M267.561,191.578
				c-0.56,3.039-1.6,6.198-2.799,8.238c-0.601-0.439-1.84-1.12-2.6-1.359c1.199-1.96,2.039-4.76,2.56-7.439L267.561,191.578z
				 M267.282,180.739h5.959V177.5h-5.959V180.739z M267.282,186.579h5.959v-3.32h-5.959V186.579z M275,198.256
				c-0.32-1.68-1.32-4.439-2.2-6.479l2.399-0.879c1,2.039,2,4.679,2.44,6.318L275,198.256z M284.518,197.776
				c-1.839,2-4.879,4.12-7.398,5.279c-0.479-0.64-1.56-1.68-2.279-2.319c2.439-1.08,5.279-3.119,6.679-4.759L284.518,197.776z
				 M283.159,174.581c0.16-1.08,0.36-2.28,0.52-3.399h-6.559v-3.16h16.877v3.16h-6.679c-0.279,1.159-0.6,2.359-0.88,3.399h6.56
				v20.836H278.36v-20.836H283.159z M289.717,177.339h-8.198v3.32h8.198V177.339z M289.717,183.298h-8.198v3.32h8.198V183.298z
				 M289.717,189.257h-8.198v3.359h8.198V189.257z M289.318,196.017c1.88,1.479,4.359,3.639,5.559,5.039l-2.799,1.959
				c-1.16-1.439-3.52-3.719-5.439-5.279L289.318,196.017z"/>
			<path fill="#FFFFFF" d="M301.123,173.5h-3.279v-3.159h8.038c-0.399-1.04-0.84-2.24-1.279-3.16l3.319-0.92
				c0.64,1.24,1.319,2.84,1.8,4.08h5.919v3.159h-11.118v6.519c0,1.2,0.24,1.64,1.239,1.64h5.72c0.92,0,2.279-0.08,3.039-0.239
				c0.04,0.92,0.2,2.319,0.32,3.079c-0.68,0.24-2,0.28-3.279,0.28h-5.8c-3.679,0-4.639-1.24-4.639-4.84V173.5z M317.719,199.136
				h15.798v3.079h-35.194v-3.079H314v-3.04h-13.358v-2.999H314v-2.88c-4.199,0.24-8.479,0.4-12.398,0.44
				c-0.08-0.92-0.479-2.2-0.8-3.04c9.879-0.199,21.677-0.96,28.636-2.239l1.68,2.999c-3.76,0.681-8.438,1.2-13.398,1.601v3.119
				h13.718v2.999h-13.718V199.136z M334.357,169.661c-2.279,10.119-8.479,14.438-17.037,16.518c-0.4-0.84-1.12-2.119-1.8-2.8
				c2-0.399,3.919-0.96,5.599-1.76c-1.039-1.359-2.639-3.119-4.199-4.679c-0.359,0.359-0.8,0.68-1.279,1.04
				c-0.6-0.76-1.76-1.84-2.6-2.32c3.879-2.64,6.559-6.238,7.919-9.318l3.599,0.601c-0.319,0.72-0.72,1.359-1.079,2.079h7.958
				l0.681-0.16L334.357,169.661z M323.639,180.259c0.919-0.64,1.799-1.319,2.599-2.08c-1.6-1.319-3.879-3.079-6.038-4.479
				c-0.44,0.52-0.88,1.039-1.36,1.479C320.479,176.78,322.399,178.74,323.639,180.259z M321.719,171.901
				c2.039,1.279,4.479,2.919,6.198,4.319c0.88-1.28,1.641-2.72,2.2-4.319H321.719z"/>
			<path fill="#FFFFFF" d="M358.042,176.82c0-2.199-1.4-3.879-3.92-3.879c-1.88,0-3.52,0.959-4.839,2.439l-2.6-2.36
				c1.96-2.239,4.639-3.839,7.959-3.839c4.639,0,7.878,2.64,7.878,7.318c0,5.84-7.118,7.999-6.438,13.958h-4.039
				C351.083,183.739,358.042,181.179,358.042,176.82z M351.042,197.176c0-1.88,1.319-3.279,3.079-3.279
				c1.72,0,3.08,1.399,3.08,3.279s-1.36,3.199-3.08,3.199C352.362,200.375,351.042,199.056,351.042,197.176z"/>
			<path fill="#FFFFFF" d="M72.678,241.619c-0.8,3.759-2.08,6.759-3.879,9.158c3.159,1.84,6.079,3.64,8.079,5.119l-2.479,2.999
				c-1.92-1.56-4.839-3.479-8.119-5.398c-3,2.6-6.999,4.319-12.318,5.559c-0.24-0.88-1.16-2.56-1.84-3.399
				c4.639-0.88,8.119-2.159,10.758-4.119c-2.56-1.439-5.159-2.8-7.519-3.919c0.96-1.64,2-3.76,3-5.999h-4.639l0.32,2.239
				c-1.56,0.52-3.159,1-4.719,1.479v9.599c0,1.88-0.4,2.84-1.52,3.399c-1.16,0.56-2.879,0.68-5.559,0.64
				c-0.12-0.88-0.64-2.399-1.08-3.359c1.68,0.08,3.359,0.08,3.839,0.04c0.52,0,0.76-0.16,0.76-0.76v-8.438l-4.799,1.439l-0.8-3.599
				c1.56-0.4,3.52-0.96,5.599-1.561v-9.198h-5.079V230.1h5.079v-7.759h3.56v7.759h4.039v3.439h-4.039v8.199l3.719-1.04v-2.439h6.719
				c0.88-2.2,1.6-4.399,2.16-6.399l3.839,0.521c-0.48,1.879-1.2,3.879-1.959,5.879h5.559c0.12-0.96,0.2-1.92,0.28-2.96l4.039,0.08
				c-0.12,1-0.2,1.96-0.36,2.88h4v3.359H72.678z M57.761,235.219h-3.479v-8.038h9.238c-0.32-1.44-0.8-3.04-1.2-4.399l3.679-0.601
				c0.56,1.521,1.2,3.439,1.56,5h9.078v7.998h-3.599v-4.719H57.761V235.219z M62.44,241.619c-0.76,1.68-1.48,3.279-2.2,4.719
				c1.68,0.8,3.439,1.72,5.199,2.64c1.6-1.96,2.64-4.359,3.319-7.358H62.44z"/>
			<path fill="#FFFFFF" d="M91.521,241.458c-0.64,3.56-1.959,7.198-3.639,10.078c0.68,0.36,1.479,1,2.72,1.68
				c2.759,1.6,6.479,1.84,11.078,1.84c4.759,0,11.598-0.36,16.117-0.92c-0.48,1-1.12,2.88-1.16,3.919
				c-3.039,0.2-10.398,0.44-15.117,0.44c-5.159,0-8.599-0.4-11.558-2.08c-1.6-0.88-3.04-2.159-3.919-2.159s-2.319,2.52-3.439,4.839
				l-2.479-3.52c1.16-1.52,2.399-2.799,3.52-3.639l-0.04-0.04c1.72-2.08,3.08-5.119,3.879-8.039h-5.639
				c1.12-2.359,2.439-5.639,3.6-8.719h-4.6v-3.359h9.438c-1.04,2.84-2.319,6.119-3.479,8.879h2l0.52-0.12L91.521,241.458z
				 M85.763,230.1c-0.64-1.72-2.08-4.559-3.04-6.679l3.199-1.16c1.04,2.08,2.44,4.76,3.2,6.439L85.763,230.1z M116.677,229.781
				H91.521v-2.92h11.198c-0.56-1.12-1.4-2.64-2.24-3.76l3.56-1.159c1.04,1.319,2.2,3.119,2.76,4.279l-1.84,0.64h11.718V229.781z
				 M94.121,242.418h19.437v9.718H94.121V242.418z M113.278,234.78H94.561v-2.76h18.717V234.78z M94.561,237.219h18.717v2.76H94.561
				V237.219z M97.641,249.377h12.278v-4.199H97.641V249.377z"/>
			<path fill="#FFFFFF" d="M131.442,248.097h6.799v3.159h-6.799v7.599h-3.439v-7.599h-7.159v-3.159h7.159v-3.839h-6.319v-3.16h3.36
				c-0.28-1.279-1-3.079-1.72-4.438l2.479-0.761h-4.959v-3.159h7.159V229.3h-5.999v-3.119h5.999v-3.76h3.439v3.76h5.799v3.119
				h-5.799v3.439h6.759v3.159h-4.399l2.6,0.681c-0.76,1.479-1.6,3.159-2.36,4.519h3.4v3.16h-5.999V248.097z M126.123,235.899
				c0.84,1.44,1.6,3.359,1.88,4.56l-1.92,0.64h4.719c0.88-1.6,1.8-3.679,2.36-5.199H126.123z M156.277,238.299
				c-0.84,4.639-2.319,8.998-4.559,12.758c1.76,1.959,3.719,3.599,5.959,4.719c-0.84,0.64-1.919,2.04-2.479,2.96
				c-2.04-1.16-3.879-2.76-5.519-4.68c-1.48,1.96-3.24,3.64-5.239,4.999c-0.36-0.56-0.92-1.159-1.52-1.72v1.6h-3.399v-34.834h15.797
				v7.559c0,1.72-0.36,2.68-1.72,3.16c-1.32,0.56-3.359,0.56-6.359,0.56c-0.16-0.96-0.64-2.319-1.12-3.199
				c2.28,0.08,4.399,0.08,4.959,0.04c0.64-0.04,0.8-0.16,0.8-0.601v-4.239h-8.958v10.238h10.438l0.64-0.159L156.277,238.299z
				 M142.92,255.896c1.76-1.32,3.319-2.92,4.639-4.759c-1.96-3-3.52-6.52-4.639-10.318V255.896z M145.959,240.619
				c0.879,2.68,2.08,5.199,3.519,7.438c1.28-2.319,2.2-4.839,2.8-7.438H145.959z"/>
			<path fill="#FFFFFF" d="M192.878,258.975h-3.839v-1.919h-16.477v1.919h-3.719v-12.758c-2.08,0.681-4.199,1.28-6.279,1.8
				c-0.4-1.04-1.24-2.6-1.919-3.439c4.959-1,9.998-2.72,14.518-5.079c-1.8-1.8-4.599-4.079-6.999-5.879
				c-1.28,0.84-2.64,1.64-4.119,2.399c-0.52-0.92-1.72-2.319-2.56-2.959c6.439-2.92,10.918-7.159,13.278-10.918l4.239,0.879
				c-0.76,1.08-1.56,2.16-2.439,3.2h12.998l0.6-0.2l2.56,1.52c-3.04,6.079-8.239,10.838-14.358,14.357h14.518V258.975z
				 M173.281,229.621c-0.72,0.64-1.439,1.239-2.16,1.84c2.52,1.799,5.599,4.199,7.479,5.999c3.399-2.2,6.359-4.8,8.519-7.839
				H173.281z M189.039,253.657v-8.399h-16.477v8.399H189.039z"/>
			<path fill="#FFFFFF" d="M236.917,233.419v2.72h-6.879l-0.32,3.359h-22.876l0.44-3.359h-6.319v-2.72h6.679l0.4-3.199h22.556
				l-0.32,3.199H236.917z M224.68,253.577c4.079,1.039,8.238,2.319,10.958,3.239l-2.52,2.359c-2.8-1.08-7.519-2.64-12.078-3.879
				l1.56-1.72h-8.119l2.36,1.6c-3.279,1.76-8.719,3.279-13.198,3.959c-0.44-0.68-1.36-1.84-2-2.56
				c3.879-0.52,8.678-1.8,11.438-2.999h-6.839v-12.639h25.516v12.639H224.68z M205.563,232.26h-3.359v-6.6h14.958
				c-0.44-0.959-1-1.919-1.479-2.719l3.199-0.92c0.84,1.039,1.64,2.479,2.16,3.639h14.598v6.6h-3.52v-3.64h-26.556V232.26z
				 M209.842,244.498h18.157v-1.52h-18.157V244.498z M209.842,247.977h18.157v-1.56h-18.157V247.977z M209.842,251.537h18.157v-1.6
				h-18.157V251.537z M210.402,237.5h6.519c0.08-0.561,0.16-1.12,0.2-1.72h-6.519L210.402,237.5z M211.082,232.26l-0.2,1.52h6.479
				l0.12-1.52H211.082z M226.519,237.5l0.16-1.72h-6.439c-0.08,0.6-0.16,1.159-0.2,1.72H226.519z M226.959,232.26H220.6l-0.16,1.52
				h6.399L226.959,232.26z"/>
			<path fill="#FFFFFF" d="M255.361,248.857c-4.999,1.52-10.318,3.04-14.317,4.199l-0.92-3.56c1.68-0.359,3.759-0.919,5.999-1.52
				v-8.958h-4.799v-3.439h4.799v-7.799h-5.199v-3.439h13.718v3.439h-4.919v7.799h4.519v3.439h-4.519v7.958l5.119-1.439
				L255.361,248.857z M273.558,255.536c0.84,0,1-0.6,1.12-4.639c0.72,0.6,2.199,1.159,3.119,1.399c-0.32,5.119-1.2,6.439-3.8,6.439
				h-3.479c-3.199,0-3.959-1.04-3.959-4.359v-8.438h-3.279c-0.72,6.398-2.72,10.838-10.838,13.317c-0.36-0.88-1.32-2.359-2.08-3.039
				c7.159-1.88,8.679-5.279,9.278-10.278h-3.279v-21.997h18.997v21.997h-5.239v8.398c0,1.08,0.16,1.199,1,1.199H273.558z
				 M259.84,230.34h11.838v-3.319H259.84V230.34z M259.84,236.58h11.838v-3.359H259.84V236.58z M259.84,242.818h11.838v-3.359
				H259.84V242.818z"/>
			<path fill="#FFFFFF" d="M294.761,245.217v10.519c0,1.4-0.199,2.24-1.159,2.72s-2.28,0.52-4.199,0.52
				c-0.12-0.8-0.561-2.079-1-2.839c1.319,0.04,2.439,0.04,2.84,0.04c0.359-0.04,0.479-0.16,0.479-0.521v-10.438h-4.359V230.86h3.64
				c0.2-1.159,0.399-2.479,0.56-3.639h-5.999v11.678c0,5.879-0.399,14.157-2.879,19.557c-0.521-0.6-1.96-1.64-2.68-1.96
				c2.199-4.959,2.359-12.118,2.359-17.557v-14.918h16.957v3.2h-4.159l-1.04,3.639h5.119v14.357H294.761z M290.522,247.578
				c-0.56,3.039-1.6,6.198-2.799,8.238c-0.601-0.439-1.84-1.12-2.6-1.359c1.199-1.96,2.039-4.76,2.56-7.439L290.522,247.578z
				 M290.243,236.739h5.959V233.5h-5.959V236.739z M290.243,242.579h5.959v-3.32h-5.959V242.579z M297.961,254.256
				c-0.32-1.68-1.32-4.439-2.2-6.479l2.399-0.879c1,2.039,2,4.679,2.44,6.318L297.961,254.256z M307.479,253.776
				c-1.839,2-4.879,4.12-7.398,5.279c-0.479-0.64-1.56-1.68-2.279-2.319c2.439-1.08,5.279-3.119,6.679-4.759L307.479,253.776z
				 M306.12,230.581c0.16-1.08,0.36-2.28,0.52-3.399h-6.559v-3.16h16.877v3.16h-6.679c-0.279,1.159-0.6,2.359-0.88,3.399h6.56
				v20.836h-14.638v-20.836H306.12z M312.678,233.339h-8.198v3.32h8.198V233.339z M312.678,239.298h-8.198v3.32h8.198V239.298z
				 M312.678,245.257h-8.198v3.359h8.198V245.257z M312.279,252.017c1.88,1.479,4.359,3.639,5.559,5.039l-2.799,1.959
				c-1.16-1.439-3.52-3.719-5.439-5.279L312.279,252.017z"/>
			<path fill="#FFFFFF" d="M324.083,229.5h-3.279v-3.159h8.038c-0.399-1.04-0.84-2.24-1.279-3.16l3.319-0.92
				c0.64,1.24,1.319,2.84,1.8,4.08h5.919v3.159h-11.118v6.519c0,1.2,0.24,1.64,1.239,1.64h5.72c0.92,0,2.279-0.08,3.039-0.239
				c0.04,0.92,0.2,2.319,0.32,3.079c-0.68,0.24-2,0.28-3.279,0.28h-5.8c-3.679,0-4.639-1.24-4.639-4.84V229.5z M340.68,255.136
				h15.798v3.079h-35.194v-3.079h15.678v-3.04h-13.358v-2.999h13.358v-2.88c-4.199,0.24-8.479,0.4-12.398,0.44
				c-0.08-0.92-0.479-2.2-0.8-3.04c9.879-0.199,21.677-0.96,28.636-2.239l1.68,2.999c-3.76,0.681-8.438,1.2-13.398,1.601v3.119
				h13.718v2.999H340.68V255.136z M357.318,225.661c-2.279,10.119-8.479,14.438-17.037,16.518c-0.4-0.84-1.12-2.119-1.8-2.8
				c2-0.399,3.919-0.96,5.599-1.76c-1.039-1.359-2.639-3.119-4.199-4.679c-0.359,0.359-0.8,0.68-1.279,1.04
				c-0.6-0.76-1.76-1.84-2.6-2.32c3.879-2.64,6.559-6.238,7.919-9.318l3.599,0.601c-0.319,0.72-0.72,1.359-1.079,2.079h7.958
				l0.681-0.16L357.318,225.661z M346.6,236.259c0.919-0.64,1.799-1.319,2.599-2.08c-1.6-1.319-3.879-3.079-6.038-4.479
				c-0.44,0.52-0.88,1.039-1.36,1.479C343.44,232.78,345.36,234.74,346.6,236.259z M344.68,227.901
				c2.039,1.279,4.479,2.919,6.198,4.319c0.88-1.28,1.641-2.72,2.2-4.319H344.68z"/>
			<path fill="#FFFFFF" d="M371.683,253.176c0-1.88,1.319-3.279,3.039-3.279c1.76,0,3.119,1.399,3.119,3.279
				s-1.359,3.199-3.119,3.199C373.002,256.375,371.683,255.056,371.683,253.176z M372.563,230.46l-0.12-4.72h4.639l-0.16,4.72
				l-0.64,15.997h-3.079L372.563,230.46z"/>
		</g>
	</g>
</g>
</svg>
