<?xml version="1.0" encoding="utf-8"?>
<!-- Generator: Adobe Illustrator 16.0.0, SVG Export Plug-In . SVG Version: 6.00 Build 0)  -->
<!DOCTYPE svg PUBLIC "-//W3C//DTD SVG 1.1//EN" "http://www.w3.org/Graphics/SVG/1.1/DTD/svg11.dtd">
<svg version="1.1" id="圖層_1" xmlns="http://www.w3.org/2000/svg" xmlns:xlink="http://www.w3.org/1999/xlink" x="0px" y="0px"
	 width="92.667px" height="94px" viewBox="0 0 92.667 94" enable-background="new 0 0 92.667 94" xml:space="preserve">
<g>
	<path fill="#835186" d="M74.522,18.294C69.827,12.427,61.766,7.106,53.809,7.125l-9.018,0.017L39.934,7.15
		C27.65,13.24,18.997,28.815,19.136,47.055c0.133,18.242,9.026,33.782,21.394,39.82l4.86-0.012l8.237-0.016
		c9.061-0.018,18.643-5.989,23.456-12.951c5.242-7.581,7.241-15.905,7.164-26.973C84.154,34.897,80.709,26.023,74.522,18.294z"/>
	<path fill="#B681B7" d="M73.532,46.945c0.165,22.013-14.278,39.893-32.258,39.928C23.298,86.914,8.59,69.091,8.42,47.079
		C8.257,25.064,22.701,7.184,40.679,7.149C58.658,7.113,73.366,24.929,73.532,46.945z"/>
	<path fill="#835186" d="M40.716,12.053c-15.12,0.029-27.26,15.707-27.117,35.014c0.146,19.308,12.52,34.935,27.64,34.904
		c15.119-0.031,27.259-15.709,27.114-35.015C68.207,27.647,55.834,12.021,40.716,12.053z M41.211,78.359
		c-13.556,0.027-24.653-13.984-24.779-31.298C16.301,29.75,27.185,15.692,40.745,15.664c13.555-0.03,24.652,13.985,24.779,31.296
		C65.652,64.272,54.767,78.333,41.211,78.359z"/>
	<g>
		<path fill="#835186" d="M26.41,32.824l11.997-0.014l-0.325,4.112l-8.77,0.015l-0.276,7.862c1.053-1.764,2.463-2.651,4.234-2.652
			c1.926-0.002,3.474,0.827,4.645,2.489c1.171,1.663,1.769,3.987,1.787,6.972c0.027,3.188-0.656,5.671-2.034,7.439
			c-1.378,1.774-3.21,2.659-5.497,2.663c-1.817,0.003-3.386-0.612-4.712-1.844c-1.325-1.231-2.17-3.052-2.537-5.463l3.389-1.023
			c0.552,2.966,1.868,4.443,3.943,4.442c2.529-0.004,3.78-2.017,3.751-6.034c-0.012-1.817-0.338-3.229-0.968-4.238
			c-0.636-1.014-1.557-1.518-2.765-1.515c-1.702,0.003-2.902,1.045-3.602,3.123l-2.879-0.742L26.41,32.824z"/>
		<path fill="#835186" d="M57.459,46.618c0.034,5.298-0.576,9.13-1.838,11.5c-1.263,2.372-3.124,3.559-5.574,3.563
			c-5.013,0.01-7.554-4.775-7.616-14.351c-0.038-5.308,0.575-9.147,1.843-11.509c1.267-2.364,3.123-3.55,5.566-3.554
			C54.853,32.26,57.393,37.045,57.459,46.618z M53.527,46.949c-0.033-4.161-0.352-7.074-0.967-8.738
			c-0.612-1.662-1.511-2.492-2.694-2.492c-1.174,0.003-2.058,0.826-2.653,2.473c-0.596,1.644-0.881,4.565-0.852,8.769
			c0.033,4.521,0.385,7.524,1.055,9.007c0.68,1.484,1.542,2.223,2.604,2.222c1.206,0.001,2.1-0.843,2.677-2.529
			C53.28,53.975,53.553,51.066,53.527,46.949z"/>
	</g>
</g>
</svg>
