<?xml version="1.0" encoding="utf-8"?>
<!-- Generator: Adobe Illustrator 16.0.0, SVG Export Plug-In . SVG Version: 6.00 Build 0)  -->
<!DOCTYPE svg PUBLIC "-//W3C//DTD SVG 1.1//EN" "http://www.w3.org/Graphics/SVG/1.1/DTD/svg11.dtd">
<svg version="1.1" id="圖層_1" xmlns="http://www.w3.org/2000/svg" xmlns:xlink="http://www.w3.org/1999/xlink" x="0px" y="0px"
	 width="94px" height="92.668px" viewBox="0 0 94 92.668" enable-background="new 0 0 94 92.668" xml:space="preserve">
<g>
	<path fill="#658F65" d="M74.522,17.629C69.827,11.762,61.766,6.44,53.809,6.46l-9.018,0.017l-4.857,0.008
		c-12.283,6.09-20.938,21.665-20.797,39.905c0.133,18.242,9.025,33.782,21.393,39.819l4.861-0.011l8.236-0.017
		c9.061-0.018,18.645-5.988,23.457-12.95c5.24-7.581,7.24-15.905,7.162-26.973C84.155,34.231,80.709,25.357,74.522,17.629z"/>
	<path fill="#95C395" d="M73.534,46.279c0.164,22.013-14.279,39.894-32.26,39.928C23.299,86.249,8.59,68.426,8.42,46.413
		C8.258,24.398,22.702,6.519,40.68,6.483C58.659,6.447,73.368,24.264,73.534,46.279z"/>
	<path fill="#658F65" d="M40.717,11.388C25.596,11.417,13.458,27.095,13.6,46.401c0.145,19.308,12.52,34.936,27.639,34.904
		s27.26-15.709,27.115-35.015C68.208,26.981,55.834,11.355,40.717,11.388z M41.211,77.693
		c-13.557,0.027-24.652-13.984-24.779-31.298c-0.131-17.312,10.754-31.369,24.313-31.397c13.557-0.03,24.652,13.985,24.779,31.296
		C65.653,63.606,54.768,77.668,41.211,77.693z"/>
	<g>
		<g>
			<path fill="#658F65" d="M26.411,32.158l11.998-0.014l-0.326,4.112l-8.77,0.015l-0.275,7.862c1.053-1.764,2.463-2.651,4.232-2.652
				c1.928-0.002,3.475,0.827,4.645,2.489c1.172,1.663,1.77,3.987,1.787,6.972c0.029,3.188-0.654,5.671-2.033,7.439
				c-1.379,1.774-3.209,2.659-5.496,2.663c-1.816,0.003-3.387-0.612-4.713-1.844c-1.324-1.231-2.17-3.052-2.537-5.463l3.391-1.023
				c0.551,2.966,1.867,4.443,3.941,4.442c2.529-0.004,3.781-2.017,3.752-6.034c-0.012-1.817-0.338-3.229-0.969-4.238
				c-0.635-1.014-1.557-1.518-2.766-1.515c-1.701,0.003-2.902,1.045-3.602,3.123l-2.879-0.742L26.411,32.158z"/>
			<path fill="#658F65" d="M57.459,45.952c0.035,5.298-0.576,9.13-1.838,11.5c-1.264,2.372-3.123,3.559-5.574,3.563
				c-5.012,0.01-7.553-4.775-7.615-14.351c-0.039-5.308,0.574-9.147,1.842-11.509c1.268-2.364,3.123-3.55,5.566-3.554
				C54.854,31.595,57.393,36.38,57.459,45.952z M53.528,46.283c-0.033-4.161-0.352-7.074-0.967-8.738
				c-0.613-1.662-1.512-2.492-2.693-2.492c-1.176,0.003-2.059,0.826-2.654,2.473c-0.596,1.644-0.881,4.565-0.852,8.769
				c0.033,4.521,0.385,7.524,1.057,9.007c0.68,1.484,1.541,2.223,2.604,2.222c1.205,0.001,2.1-0.843,2.676-2.529
				C53.28,53.31,53.553,50.4,53.528,46.283z"/>
		</g>
	</g>
</g>
</svg>
