<?xml version="1.0" encoding="utf-8"?>
<!-- Generator: Adobe Illustrator 16.0.0, SVG Export Plug-In . SVG Version: 6.00 Build 0)  -->
<!DOCTYPE svg PUBLIC "-//W3C//DTD SVG 1.1//EN" "http://www.w3.org/Graphics/SVG/1.1/DTD/svg11.dtd">
<svg version="1.1" id="圖層_1" xmlns="http://www.w3.org/2000/svg" xmlns:xlink="http://www.w3.org/1999/xlink" x="0px" y="0px"
	 width="92.667px" height="94px" viewBox="0 0 92.667 94" enable-background="new 0 0 92.667 94" xml:space="preserve">
<g>
	<g>
		<path fill="#F1F0CE" stroke="#EEC957" stroke-width="6" stroke-miterlimit="10" d="M1036.29-211.102
			c0,21.79-20.558,39.461-45.917,39.461H318.217c-25.359,0-45.927-17.671-45.927-39.461v-163.63c0-21.792,20.568-39.46,45.927-39.46
			h672.156c25.359,0,45.917,17.668,45.917,39.46V-211.102z"/>
	</g>
	<g>
		<path fill="#CA7496" d="M75.975,17.223C71.279,11.355,63.219,6.034,55.262,6.054L46.244,6.07l-4.858,0.008
			c-12.283,6.09-20.937,21.665-20.798,39.905c0.133,18.242,9.026,33.782,21.394,39.819l4.86-0.011l8.237-0.017
			c9.061-0.018,18.644-5.988,23.457-12.95c5.241-7.581,7.241-15.905,7.163-26.973C85.606,33.825,82.162,24.951,75.975,17.223z"/>
		<path fill="#E5ACBF" d="M74.985,45.873c0.165,22.013-14.278,39.894-32.258,39.928C24.75,85.843,10.042,68.02,9.873,46.007
			C9.71,23.992,24.153,6.112,42.132,6.077C60.11,6.041,74.819,23.857,74.985,45.873z"/>
		<path fill="#CA7496" d="M42.168,10.981c-15.12,0.029-27.26,15.707-27.117,35.014c0.146,19.308,12.52,34.936,27.64,34.904
			C57.81,80.868,69.95,65.19,69.806,45.885C69.66,26.575,57.287,10.949,42.168,10.981z M42.664,77.287
			c-13.556,0.027-24.653-13.984-24.779-31.298C17.754,28.678,28.637,14.62,42.197,14.592c13.555-0.03,24.652,13.985,24.779,31.296
			C67.104,63.2,56.219,77.262,42.664,77.287z"/>
		<g>
			<g>
				<path fill="#CA7496" d="M27.863,31.752l11.997-0.014l-0.325,4.112l-8.771,0.015l-0.276,7.862
					c1.053-1.764,2.463-2.651,4.234-2.652c1.926-0.002,3.473,0.827,4.645,2.489c1.171,1.663,1.769,3.987,1.787,6.972
					c0.028,3.188-0.655,5.671-2.033,7.439c-1.379,1.774-3.21,2.659-5.498,2.663c-1.816,0.003-3.387-0.612-4.712-1.844
					s-2.17-3.052-2.537-5.463l3.39-1.023c0.551,2.966,1.868,4.443,3.942,4.442c2.528-0.004,3.78-2.017,3.751-6.034
					c-0.012-1.817-0.338-3.229-0.968-4.238c-0.636-1.014-1.557-1.518-2.765-1.515c-1.702,0.003-2.902,1.045-3.602,3.123
					l-2.878-0.742L27.863,31.752z"/>
				<path fill="#CA7496" d="M58.912,45.546c0.034,5.298-0.576,9.13-1.838,11.5c-1.263,2.372-3.124,3.559-5.574,3.563
					c-5.013,0.01-7.554-4.775-7.617-14.351c-0.038-5.308,0.576-9.147,1.844-11.509c1.267-2.364,3.124-3.55,5.566-3.554
					C56.306,31.188,58.846,35.974,58.912,45.546z M54.979,45.877c-0.033-4.161-0.352-7.074-0.967-8.738
					c-0.612-1.662-1.511-2.492-2.694-2.492c-1.174,0.003-2.058,0.826-2.653,2.473c-0.596,1.644-0.881,4.565-0.852,8.769
					c0.033,4.521,0.385,7.524,1.055,9.007c0.68,1.484,1.542,2.223,2.604,2.222c1.206,0.001,2.099-0.843,2.676-2.529
					C54.732,52.903,55.006,49.994,54.979,45.877z"/>
			</g>
		</g>
	</g>
	<g>
		<path d="M335.635-200.19h-24.391v-2.406h7.875v-4.348h-6.521v-10.391h6.576v-3.828h-7.26v-2.406h23.133v2.406h-7.109v3.828h6.412
			v10.391h-6.439v4.348h7.725V-200.19z M331.821-214.874h-6.398v-6.289h-3.76v6.289h-6.521v5.496h6.494v6.781h3.746v-6.781h6.439
			V-214.874z"/>
		<path d="M345.356-208.845c-1.039,3.464-2.42,6.571-4.143,9.324l-2.105-1.572c1.567-2.36,2.912-5.364,4.033-9.01L345.356-208.845z
			 M345.096-213.89l-1.531,2.051c-1.541-1.413-2.999-2.534-4.375-3.363l1.627-1.928C342.439-216.118,343.866-215.038,345.096-213.89
			z M345.971-220.274l-1.736,1.846c-1.267-1.477-2.78-2.839-4.539-4.088l1.764-1.873
			C343.374-222.977,344.877-221.605,345.971-220.274z M351.098-212.235c0,3.063-0.333,5.498-0.998,7.308
			c-0.666,1.81-1.837,3.63-3.514,5.462l-1.9-1.572c1.704-1.786,2.8-3.527,3.288-5.223c0.487-1.695,0.731-4.124,0.731-7.287v-10.609
			h2.393V-212.235z M347.981-209.966l-2.119,0.561c-0.037-2.516-0.273-5.187-0.711-8.012l2.133-0.533
			C347.721-215.016,347.954-212.354,347.981-209.966z M353.833-210.253l-1.818,0.848c-0.064-3.09-0.232-5.628-0.506-7.615
			l1.736-0.793C353.609-215.563,353.805-213.042,353.833-210.253z M356.799-200.724h-2.324v-22.627h2.324V-200.724z
			 M359.944-210.308l-1.914,0.82c-0.037-2.251-0.242-4.949-0.615-8.094l1.764-0.643
			C359.561-215.891,359.816-213.252,359.944-210.308z M362.774-199.78h-2.324v-24.35h2.324V-199.78z"/>
	</g>
	<g>
		<path fill="#835186" d="M469.508-311.866c-4.695-5.867-12.756-11.188-20.713-11.169l-9.018,0.017l-4.857,0.008
			c-12.283,6.09-20.937,21.665-20.798,39.905c0.133,18.242,9.026,33.782,21.394,39.819l4.86-0.011l8.237-0.017
			c9.061-0.018,18.643-5.988,23.456-12.95c5.242-7.581,7.241-15.905,7.164-26.973C479.14-295.264,475.695-304.138,469.508-311.866z"
			/>
		<path fill="#B681B7" d="M468.518-283.216c0.165,22.013-14.278,39.894-32.258,39.928c-17.976,0.042-32.684-17.781-32.854-39.794
			c-0.163-22.015,14.28-39.895,32.259-39.93C453.644-323.048,468.352-305.231,468.518-283.216z"/>
		<path fill="#835186" d="M435.702-318.107c-15.12,0.029-27.26,15.707-27.117,35.014c0.146,19.308,12.52,34.936,27.64,34.904
			c15.119-0.031,27.259-15.709,27.114-35.015C463.193-302.514,450.82-318.14,435.702-318.107z M436.197-251.802
			c-13.556,0.027-24.653-13.984-24.779-31.298c-0.131-17.312,10.752-31.369,24.313-31.397c13.555-0.03,24.652,13.985,24.779,31.296
			C460.638-265.889,449.752-251.827,436.197-251.802z"/>
		<g>
			<path fill="#835186" d="M421.396-297.337l11.997-0.014l-0.325,4.112l-8.77,0.015l-0.276,7.862
				c1.053-1.764,2.463-2.651,4.234-2.652c1.926-0.002,3.474,0.827,4.645,2.489c1.171,1.663,1.769,3.987,1.787,6.972
				c0.027,3.188-0.656,5.671-2.034,7.439c-1.378,1.774-3.21,2.659-5.497,2.663c-1.817,0.003-3.386-0.612-4.712-1.844
				c-1.325-1.231-2.17-3.052-2.537-5.463l3.389-1.023c0.552,2.966,1.868,4.443,3.943,4.442c2.529-0.004,3.78-2.017,3.751-6.034
				c-0.012-1.817-0.338-3.229-0.968-4.238c-0.636-1.014-1.557-1.518-2.765-1.515c-1.702,0.003-2.902,1.045-3.602,3.123l-2.879-0.742
				L421.396-297.337z"/>
			<path fill="#835186" d="M452.445-283.543c0.034,5.298-0.576,9.13-1.838,11.5c-1.263,2.372-3.124,3.559-5.574,3.563
				c-5.013,0.01-7.554-4.775-7.616-14.351c-0.038-5.308,0.575-9.147,1.843-11.509c1.267-2.364,3.123-3.55,5.566-3.554
				C449.839-297.9,452.379-293.115,452.445-283.543z M448.513-283.212c-0.033-4.161-0.352-7.074-0.967-8.738
				c-0.612-1.662-1.511-2.492-2.694-2.492c-1.174,0.003-2.058,0.826-2.653,2.473c-0.596,1.644-0.881,4.565-0.852,8.769
				c0.033,4.521,0.385,7.524,1.055,9.007c0.68,1.484,1.542,2.223,2.604,2.222c1.206,0.001,2.1-0.843,2.677-2.529
				C448.266-276.186,448.539-279.095,448.513-283.212z"/>
		</g>
	</g>
	<g>
		<path fill="#C55823" d="M573.325-312.246c-4.696-5.867-12.756-11.188-20.713-11.169l-9.018,0.017l-4.858,0.008
			c-12.283,6.09-20.937,21.665-20.797,39.905c0.133,18.242,9.026,33.782,21.394,39.819l4.86-0.011l8.237-0.017
			c9.061-0.018,18.644-5.988,23.457-12.95c5.241-7.581,7.241-15.905,7.163-26.973C582.957-295.644,579.512-304.518,573.325-312.246z
			"/>
		<path fill="#EE9C64" d="M572.335-283.596c0.165,22.013-14.278,39.894-32.258,39.928c-17.976,0.042-32.684-17.781-32.854-39.794
			c-0.163-22.015,14.28-39.895,32.259-39.93C557.46-323.428,572.169-305.611,572.335-283.596z"/>
		<path fill="#C55823" d="M539.519-318.487c-15.12,0.029-27.26,15.707-27.117,35.014c0.145,19.308,12.52,34.936,27.64,34.904
			c15.119-0.031,27.258-15.709,27.115-35.015C567.01-302.894,554.637-318.52,539.519-318.487z M540.014-252.182
			c-13.556,0.027-24.653-13.984-24.779-31.298c-0.131-17.312,10.752-31.369,24.312-31.397c13.556-0.03,24.652,13.985,24.78,31.296
			C564.455-266.269,553.569-252.207,540.014-252.182z"/>
		<g>
			<path fill="#C55823" d="M525.213-297.717l11.997-0.014l-0.325,4.112l-8.771,0.015l-0.276,7.862
				c1.053-1.764,2.463-2.651,4.234-2.652c1.926-0.002,3.474,0.827,4.644,2.489c1.172,1.663,1.769,3.987,1.788,6.972
				c0.028,3.188-0.656,5.671-2.033,7.439c-1.379,1.774-3.21,2.659-5.498,2.663c-1.816,0.003-3.386-0.612-4.712-1.844
				c-1.325-1.231-2.17-3.052-2.537-5.463l3.39-1.023c0.551,2.966,1.868,4.443,3.942,4.442c2.529-0.004,3.78-2.017,3.751-6.034
				c-0.012-1.817-0.338-3.229-0.968-4.238c-0.636-1.014-1.557-1.518-2.765-1.515c-1.702,0.003-2.902,1.045-3.602,3.123l-2.878-0.742
				L525.213-297.717z"/>
			<path fill="#C55823" d="M556.262-283.923c0.034,5.298-0.576,9.13-1.839,11.5c-1.263,2.372-3.123,3.559-5.573,3.563
				c-5.013,0.01-7.554-4.775-7.616-14.351c-0.039-5.308,0.575-9.147,1.843-11.509c1.267-2.364,3.124-3.55,5.566-3.554
				C553.656-298.28,556.196-293.495,556.262-283.923z M552.33-283.592c-0.033-4.161-0.352-7.074-0.967-8.738
				c-0.612-1.662-1.511-2.492-2.694-2.492c-1.174,0.003-2.058,0.826-2.653,2.473c-0.596,1.644-0.881,4.565-0.852,8.769
				c0.033,4.521,0.384,7.524,1.055,9.007c0.68,1.484,1.542,2.223,2.604,2.222c1.206,0.001,2.099-0.843,2.676-2.529
				C552.083-276.565,552.356-279.475,552.33-283.592z"/>
		</g>
	</g>
	<g>
		<path fill="#456FAC" d="M674.453-311.927c-4.697-5.867-12.757-11.188-20.714-11.169l-9.018,0.017l-4.858,0.008
			c-12.282,6.09-20.937,21.665-20.797,39.905c0.133,18.242,9.027,33.782,21.394,39.819l4.859-0.011l8.238-0.017
			c9.061-0.018,18.644-5.988,23.456-12.95c5.241-7.581,7.24-15.905,7.163-26.973C684.083-295.324,680.639-304.198,674.453-311.927z"
			/>
		<path fill="#7A97C8" d="M673.462-283.276c0.164,22.013-14.279,39.894-32.259,39.928c-17.977,0.042-32.684-17.781-32.854-39.794
			c-0.163-22.015,14.279-39.895,32.259-39.93C658.587-323.108,673.296-305.292,673.462-283.276z"/>
		<path fill="#456FAC" d="M640.645-318.168c-15.119,0.029-27.259,15.707-27.116,35.014c0.145,19.308,12.521,34.936,27.64,34.904
			c15.118-0.031,27.259-15.709,27.114-35.015C668.137-302.574,655.763-318.2,640.645-318.168z M641.141-251.862
			c-13.557,0.027-24.653-13.984-24.779-31.298c-0.131-17.312,10.752-31.369,24.313-31.397c13.555-0.03,24.651,13.985,24.779,31.296
			C665.582-265.949,654.696-251.888,641.141-251.862z"/>
		<g>
			<g>
				<path fill="#456FAC" d="M626.34-297.397l11.996-0.014l-0.324,4.112l-8.771,0.015l-0.276,7.862
					c1.053-1.764,2.463-2.651,4.234-2.652c1.926-0.002,3.473,0.827,4.645,2.489c1.172,1.663,1.769,3.987,1.787,6.972
					c0.027,3.188-0.656,5.671-2.033,7.439c-1.379,1.774-3.211,2.659-5.498,2.663c-1.816,0.003-3.387-0.612-4.711-1.844
					c-1.326-1.231-2.17-3.052-2.537-5.463l3.389-1.023c0.552,2.966,1.868,4.443,3.943,4.442c2.528-0.004,3.779-2.017,3.751-6.034
					c-0.013-1.817-0.338-3.229-0.968-4.238c-0.637-1.014-1.557-1.518-2.766-1.515c-1.701,0.003-2.902,1.045-3.602,3.123
					l-2.879-0.742L626.34-297.397z"/>
				<path fill="#456FAC" d="M657.388-283.604c0.035,5.298-0.575,9.13-1.838,11.5c-1.263,2.372-3.124,3.559-5.573,3.563
					c-5.014,0.01-7.555-4.775-7.617-14.351c-0.037-5.308,0.576-9.147,1.844-11.509c1.268-2.364,3.123-3.55,5.566-3.554
					C654.784-297.961,657.323-293.176,657.388-283.604z M653.457-283.272c-0.032-4.161-0.352-7.074-0.967-8.738
					c-0.612-1.662-1.511-2.492-2.694-2.492c-1.174,0.003-2.058,0.826-2.652,2.473c-0.596,1.644-0.881,4.565-0.852,8.769
					c0.033,4.521,0.385,7.524,1.055,9.007c0.681,1.484,1.543,2.223,2.605,2.222c1.205,0.001,2.098-0.843,2.676-2.529
					C653.209-276.246,653.483-279.155,653.457-283.272z"/>
			</g>
		</g>
	</g>
	<g>
		<path fill="#658F65" d="M779.485-311.286c-4.695-5.867-12.756-11.188-20.713-11.169l-9.018,0.017l-4.858,0.008
			c-12.283,6.09-20.937,21.665-20.797,39.905c0.133,18.242,9.025,33.782,21.393,39.819l4.861-0.011l8.236-0.017
			c9.062-0.018,18.645-5.988,23.457-12.95c5.241-7.581,7.24-15.905,7.163-26.973C789.117-294.684,785.672-303.558,779.485-311.286z"
			/>
		<path fill="#95C395" d="M778.496-282.636c0.164,22.013-14.279,39.894-32.259,39.928c-17.976,0.042-32.685-17.781-32.854-39.794
			c-0.162-22.015,14.281-39.895,32.26-39.93C763.621-322.468,778.33-304.651,778.496-282.636z"/>
		<path fill="#658F65" d="M745.679-317.527c-15.12,0.029-27.26,15.707-27.117,35.014c0.146,19.308,12.52,34.936,27.64,34.904
			c15.118-0.031,27.259-15.709,27.114-35.015C773.17-301.934,760.796-317.56,745.679-317.527z M746.173-251.222
			c-13.556,0.027-24.652-13.984-24.778-31.298c-0.131-17.312,10.753-31.369,24.313-31.397c13.556-0.03,24.651,13.985,24.779,31.296
			C770.615-265.309,759.73-251.247,746.173-251.222z"/>
		<g>
			<g>
				<path fill="#658F65" d="M731.373-296.757l11.998-0.014l-0.325,4.112l-8.771,0.015L734-284.781
					c1.053-1.764,2.463-2.651,4.233-2.652c1.927-0.002,3.474,0.827,4.645,2.489c1.171,1.663,1.769,3.987,1.787,6.972
					c0.028,3.188-0.655,5.671-2.034,7.439c-1.378,1.774-3.209,2.659-5.496,2.663c-1.816,0.003-3.387-0.612-4.713-1.844
					c-1.324-1.231-2.17-3.052-2.537-5.463l3.391-1.023c0.551,2.966,1.867,4.443,3.941,4.442c2.529-0.004,3.781-2.017,3.752-6.034
					c-0.012-1.817-0.338-3.229-0.969-4.238c-0.635-1.014-1.557-1.518-2.765-1.515c-1.702,0.003-2.902,1.045-3.603,3.123
					l-2.878-0.742L731.373-296.757z"/>
				<path fill="#658F65" d="M762.421-282.963c0.035,5.298-0.575,9.13-1.838,11.5c-1.264,2.372-3.123,3.559-5.574,3.563
					c-5.012,0.01-7.553-4.775-7.615-14.351c-0.039-5.308,0.574-9.147,1.843-11.509c1.267-2.364,3.123-3.55,5.565-3.554
					C759.816-297.32,762.356-292.535,762.421-282.963z M758.49-282.632c-0.033-4.161-0.352-7.074-0.967-8.738
					c-0.612-1.662-1.511-2.492-2.693-2.492c-1.175,0.003-2.059,0.826-2.653,2.473c-0.597,1.644-0.882,4.565-0.852,8.769
					c0.033,4.521,0.385,7.524,1.056,9.007c0.68,1.484,1.542,2.223,2.604,2.222c1.206,0.001,2.1-0.843,2.677-2.529
					C758.243-275.605,758.516-278.515,758.49-282.632z"/>
			</g>
		</g>
	</g>
	<g>
		<path fill="#C58A11" d="M886.302-311.666c-4.695-5.867-12.756-11.188-20.713-11.169l-9.019,0.017l-4.857,0.008
			c-12.283,6.09-20.938,21.665-20.798,39.905c0.133,18.242,9.026,33.782,21.394,39.819l4.86-0.011l8.237-0.017
			c9.062-0.018,18.644-5.988,23.456-12.95c5.242-7.581,7.241-15.905,7.163-26.973C895.933-295.063,892.49-303.938,886.302-311.666z"
			/>
		<path fill="#EFBB46" d="M885.312-283.016c0.165,22.013-14.278,39.894-32.258,39.928c-17.977,0.042-32.685-17.781-32.854-39.794
			c-0.164-22.015,14.279-39.895,32.258-39.93C870.437-322.848,885.146-305.031,885.312-283.016z"/>
		<path fill="#C58A11" d="M852.496-317.907c-15.119,0.029-27.26,15.707-27.117,35.014c0.146,19.308,12.521,34.936,27.641,34.904
			c15.118-0.031,27.258-15.709,27.113-35.015C879.987-302.313,867.614-317.939,852.496-317.907z M852.991-251.602
			c-13.556,0.027-24.653-13.984-24.778-31.298c-0.131-17.312,10.752-31.369,24.313-31.397c13.555-0.03,24.651,13.985,24.779,31.296
			C877.431-265.688,866.546-251.627,852.991-251.602z"/>
		<g>
			<path fill="#C58A11" d="M838.19-297.137l11.997-0.014l-0.324,4.112l-8.771,0.015l-0.275,7.862
				c1.053-1.764,2.463-2.651,4.234-2.652c1.926-0.002,3.473,0.827,4.644,2.489c1.172,1.663,1.77,3.987,1.788,6.972
				c0.027,3.188-0.656,5.671-2.033,7.439c-1.38,1.774-3.211,2.659-5.498,2.663c-1.816,0.003-3.387-0.612-4.712-1.844
				s-2.17-3.052-2.537-5.463l3.39-1.023c0.551,2.966,1.867,4.443,3.942,4.442c2.528-0.004,3.78-2.017,3.751-6.034
				c-0.012-1.817-0.338-3.229-0.968-4.238c-0.636-1.014-1.557-1.518-2.765-1.515c-1.702,0.003-2.902,1.045-3.603,3.123l-2.879-0.742
				L838.19-297.137z"/>
			<path fill="#C58A11" d="M869.239-283.343c0.034,5.298-0.575,9.13-1.839,11.5c-1.263,2.372-3.123,3.559-5.573,3.563
				c-5.013,0.01-7.554-4.775-7.616-14.351c-0.038-5.308,0.575-9.147,1.844-11.509c1.267-2.364,3.123-3.55,5.565-3.554
				C866.632-297.7,869.173-292.915,869.239-283.343z M865.306-283.012c-0.032-4.161-0.352-7.074-0.967-8.738
				c-0.611-1.662-1.51-2.492-2.693-2.492c-1.174,0.003-2.059,0.826-2.652,2.473c-0.597,1.644-0.882,4.565-0.852,8.769
				c0.033,4.521,0.384,7.524,1.055,9.007c0.68,1.484,1.543,2.223,2.604,2.222c1.206,0.001,2.099-0.843,2.677-2.529
				C865.06-275.985,865.333-278.895,865.306-283.012z"/>
		</g>
	</g>
	<g>
		<path fill="#707070" d="M992.37-312.271c-4.696-5.867-12.757-11.188-20.714-11.169l-9.018,0.017l-4.857,0.008
			c-12.283,6.09-20.938,21.665-20.798,39.905c0.134,18.242,9.026,33.782,21.394,39.819l4.86-0.011l8.237-0.017
			c9.061-0.018,18.644-5.988,23.457-12.95c5.24-7.581,7.24-15.905,7.162-26.973C1002.001-295.669,998.556-304.543,992.37-312.271z"
			/>
		<path fill="#B7B7B7" d="M991.379-283.621c0.165,22.013-14.278,39.894-32.259,39.928c-17.976,0.042-32.684-17.781-32.854-39.794
			c-0.162-22.015,14.281-39.895,32.259-39.93C976.505-323.453,991.213-305.637,991.379-283.621z"/>
		<path fill="#707070" d="M958.563-318.513c-15.12,0.029-27.26,15.707-27.117,35.014c0.146,19.308,12.521,34.936,27.64,34.904
			s27.26-15.709,27.115-35.015C986.054-302.919,973.681-318.545,958.563-318.513z M959.058-252.207
			c-13.557,0.027-24.652-13.984-24.779-31.298c-0.131-17.312,10.753-31.369,24.313-31.397c13.556-0.03,24.652,13.985,24.779,31.296
			C983.5-266.294,972.614-252.232,959.058-252.207z"/>
		<g>
			<path fill="#707070" d="M944.257-297.742l11.997-0.014l-0.325,4.112l-8.77,0.015l-0.277,7.862
				c1.054-1.764,2.464-2.651,4.234-2.652c1.927-0.002,3.475,0.827,4.645,2.489c1.172,1.663,1.77,3.987,1.787,6.972
				c0.028,3.188-0.655,5.671-2.033,7.439c-1.379,1.774-3.21,2.659-5.497,2.663c-1.816,0.003-3.386-0.612-4.712-1.844
				c-1.325-1.231-2.17-3.052-2.537-5.463l3.39-1.023c0.552,2.966,1.867,4.443,3.942,4.442c2.529-0.004,3.779-2.017,3.752-6.034
				c-0.012-1.817-0.338-3.229-0.969-4.238c-0.636-1.014-1.557-1.518-2.766-1.515c-1.701,0.003-2.902,1.045-3.602,3.123l-2.879-0.742
				L944.257-297.742z"/>
			<path fill="#707070" d="M975.306-283.948c0.033,5.298-0.576,9.13-1.838,11.5c-1.264,2.372-3.124,3.559-5.574,3.563
				c-5.014,0.01-7.555-4.775-7.616-14.351c-0.038-5.308,0.575-9.147,1.843-11.509c1.268-2.364,3.124-3.55,5.566-3.554
				C972.701-298.306,975.24-293.521,975.306-283.948z M971.375-283.617c-0.033-4.161-0.352-7.074-0.967-8.738
				c-0.613-1.662-1.512-2.492-2.694-2.492c-1.175,0.003-2.058,0.826-2.653,2.473c-0.596,1.644-0.881,4.565-0.852,8.769
				c0.033,4.521,0.385,7.524,1.056,9.007c0.68,1.484,1.542,2.223,2.604,2.222c1.205,0.001,2.1-0.843,2.676-2.529
				C971.126-276.591,971.4-279.5,971.375-283.617z"/>
		</g>
	</g>
	<g>
		<path d="M424.75-219.399h-10.924v2.27h9.584v14.834c0,0.802-0.187,1.434-0.561,1.894c-0.374,0.46-1.285,0.69-2.734,0.69
			c-0.456,0-1.048-0.014-1.777-0.041l-0.916-2.406c0.647,0.036,1.221,0.055,1.723,0.055c0.902,0,1.419-0.036,1.552-0.109
			c0.132-0.073,0.198-0.224,0.198-0.451v-12.086h-5.045l2.01,0.998c-0.228,0.692-0.629,1.468-1.203,2.324h2.748v2.324h-5.551v1.914
			h6.111v2.297h-6.111v4.498h-2.516v-4.498h-6.152v-2.297h6.152v-1.914h-5.51v-2.324h2.543c-0.255-0.665-0.684-1.468-1.285-2.406
			l2.064-0.916h-4.949v14.998h-2.516v-17.377h9.598v-2.27h-10.869v-2.324h10.869v-2.434h2.543v2.434h10.924V-219.399z
			 M415.536-214.751h-6.043c0.602,1.003,1.162,2.11,1.682,3.322h2.83C414.733-212.705,415.244-213.813,415.536-214.751z"/>
		<path d="M452.135-206.63h-10.951c-1.613,3.746-5.505,6.125-11.676,7.137l-1.203-2.406c5.432-0.957,8.782-2.534,10.049-4.73h-9.379
			v-2.051h10.09c0.127-0.593,0.191-1.208,0.191-1.846h2.516c-0.027,0.738-0.064,1.354-0.109,1.846h10.473V-206.63z M452.696-211.333
			h-24.309v-2.023h10.869v-1.791h-8.518v-1.982h8.518v-1.709h-9.721v-2.023h21.93v2.023h-9.666v1.709h8.49v1.982h-8.49v1.791h10.896
			V-211.333z M438.163-221.806l-2.598,0.697c-0.611-0.875-1.294-1.687-2.051-2.434l2.488-0.82
			C436.804-223.588,437.524-222.735,438.163-221.806z M453.01-201.421l-1.545,1.955c-2.935-1.741-6.417-3.167-10.445-4.279
			l1.518-2.078C446.949-204.475,450.44-203.007,453.01-201.421z M447.883-223.802c-0.52,0.829-1.162,1.69-1.928,2.584l-2.748-0.684
			c0.884-0.911,1.572-1.741,2.064-2.488L447.883-223.802z"/>
		<path d="M462.389-208.845c-1.039,3.464-2.42,6.571-4.143,9.324l-2.105-1.572c1.567-2.36,2.912-5.364,4.033-9.01L462.389-208.845z
			 M462.129-213.89l-1.531,2.051c-1.541-1.413-2.999-2.534-4.375-3.363l1.627-1.928C459.472-216.118,460.899-215.038,462.129-213.89
			z M463.004-220.274l-1.736,1.846c-1.267-1.477-2.78-2.839-4.539-4.088l1.764-1.873
			C460.407-222.977,461.911-221.605,463.004-220.274z M468.131-212.235c0,3.063-0.333,5.498-0.998,7.308
			c-0.666,1.81-1.837,3.63-3.514,5.462l-1.9-1.572c1.704-1.786,2.8-3.527,3.288-5.223c0.487-1.695,0.731-4.124,0.731-7.287v-10.609
			h2.393V-212.235z M465.014-209.966l-2.119,0.561c-0.037-2.516-0.273-5.187-0.711-8.012l2.133-0.533
			C464.754-215.016,464.987-212.354,465.014-209.966z M470.866-210.253l-1.818,0.848c-0.064-3.09-0.232-5.628-0.506-7.615
			l1.736-0.793C470.642-215.563,470.838-213.042,470.866-210.253z M473.833-200.724h-2.324v-22.627h2.324V-200.724z
			 M476.977-210.308l-1.914,0.82c-0.037-2.251-0.242-4.949-0.615-8.094l1.764-0.643
			C476.594-215.891,476.849-213.252,476.977-210.308z M479.807-199.78h-2.324v-24.35h2.324V-199.78z"/>
	</g>
	<g>
		<path d="M530.392-210.863c0,5.751-2.416,9.644-7.246,11.676l-1.463-2.188c3.172-1.267,5.067-3.104,5.688-5.51
			c-2.935,0.82-5.241,1.39-6.918,1.709l-0.752-2.365c3.5-0.647,6.234-1.345,8.203-2.092v-2.406h-7.164v-2.324h7.164v-3.582h-7.588
			v-2.379h7.588v-3.5h2.488V-210.863z M544.228-205.736h-8.039v6.207h-2.543v-24.295h2.543v3.527h7.533v2.379h-7.533v3.691h7.055
			v2.379h-7.055v3.76h8.039V-205.736z"/>
		<path d="M553.921-208.512c-1.039,3.464-2.42,6.571-4.143,9.324l-2.105-1.572c1.567-2.36,2.912-5.364,4.033-9.01L553.921-208.512z
			 M553.662-213.557l-1.531,2.051c-1.541-1.413-2.999-2.534-4.375-3.363l1.627-1.928
			C551.004-215.785,552.431-214.705,553.662-213.557z M554.537-219.941l-1.736,1.846c-1.267-1.477-2.78-2.839-4.539-4.088
			l1.764-1.873C551.939-222.644,553.443-221.272,554.537-219.941z M559.664-211.902c0,3.063-0.333,5.498-0.998,7.308
			c-0.666,1.81-1.837,3.63-3.514,5.462l-1.9-1.572c1.704-1.786,2.8-3.527,3.288-5.223c0.487-1.695,0.731-4.124,0.731-7.287v-10.609
			h2.393V-211.902z M556.546-209.633l-2.119,0.561c-0.037-2.516-0.273-5.187-0.711-8.012l2.133-0.533
			C556.287-214.683,556.519-212.021,556.546-209.633z M562.398-209.92l-1.818,0.848c-0.064-3.09-0.232-5.628-0.506-7.615
			l1.736-0.793C562.174-215.229,562.371-212.709,562.398-209.92z M565.365-200.391h-2.324v-22.627h2.324V-200.391z M568.509-209.975
			l-1.914,0.82c-0.037-2.251-0.242-4.949-0.615-8.094l1.764-0.643C568.126-215.558,568.381-212.919,568.509-209.975z
			 M571.339-199.447h-2.324v-24.35h2.324V-199.447z"/>
	</g>
	<g>
		<path d="M633.579-221.619h-10.869v18.211c0,0.118,0.065,0.251,0.197,0.396c0.133,0.146,0.254,0.219,0.363,0.219h9.064v2.146
			h-9.652c-0.647,0-1.192-0.226-1.635-0.677c-0.441-0.451-0.662-1.019-0.662-1.702v-18.594h-0.93v-2.174h14.124V-221.619z
			 M627.891-204.529h-4.088v-8.408h4.088V-204.529z M632.334-214.469h-7.779v-5.688h7.779V-214.469z M626.319-206.498v-4.443h-0.957
			v4.443H626.319z M630.038-216.574v-1.477h-3.213v1.477H630.038z M633.045-204.529h-4.033v-8.408h4.033V-204.529z M631.528-206.498
			v-4.443h-0.957v4.443H631.528z M643.655-220.854c-0.164,3.054-0.615,6.171-1.354,9.352l-2.201-0.902
			c0.455-1.649,0.82-3.691,1.094-6.125h-4.061c-0.803,1.905-1.654,3.509-2.557,4.813l-1.955-1.49
			c1.622-2.415,2.898-5.56,3.828-9.434l2.393,0.314c-0.237,1.112-0.557,2.27-0.957,3.473H643.655z M644.106-201.535l-1.736,1.709
			c-1.477-1.577-2.813-4.229-4.006-7.957c-1.021,3.427-2.247,6.052-3.678,7.875l-1.764-1.6c2.771-3.956,4.156-8.358,4.156-13.207
			c0-0.692-0.023-1.431-0.068-2.215h2.447c-0.037,0.547-0.055,1.08-0.055,1.6C639.403-210.153,640.97-205.555,644.106-201.535z"/>
		<path d="M653.512-209.178c-1.039,3.464-2.42,6.571-4.143,9.324l-2.105-1.572c1.567-2.36,2.912-5.364,4.033-9.01L653.512-209.178z
			 M653.252-214.223l-1.531,2.051c-1.541-1.413-2.999-2.534-4.375-3.363l1.627-1.928
			C650.595-216.451,652.022-215.371,653.252-214.223z M654.127-220.607l-1.736,1.846c-1.268-1.477-2.78-2.839-4.539-4.088
			l1.764-1.873C651.53-223.31,653.034-221.938,654.127-220.607z M659.253-212.568c0,3.063-0.332,5.498-0.998,7.308
			c-0.665,1.81-1.836,3.63-3.513,5.462l-1.9-1.572c1.704-1.786,2.8-3.527,3.288-5.223c0.487-1.695,0.73-4.124,0.73-7.287v-10.609
			h2.393V-212.568z M656.136-210.299l-2.118,0.561c-0.037-2.516-0.273-5.187-0.711-8.012l2.132-0.533
			C655.876-215.349,656.109-212.687,656.136-210.299z M661.988-210.586l-1.818,0.848c-0.063-3.09-0.232-5.628-0.506-7.615
			l1.736-0.793C661.765-215.896,661.96-213.375,661.988-210.586z M664.955-201.057h-2.324v-22.627h2.324V-201.057z M668.099-210.641
			l-1.914,0.82c-0.036-2.251-0.241-4.949-0.615-8.094l1.764-0.643C667.716-216.224,667.972-213.585,668.099-210.641z
			 M670.929-200.113h-2.324v-24.35h2.324V-200.113z"/>
	</g>
	<g>
		<path d="M722.175-203.859c-4.02,1.622-8.089,2.931-12.209,3.924l-0.725-2.406c2.816-0.675,5.25-1.367,7.301-2.078v-9.721h-6.768
			v-2.543h6.768v-7.779h2.584v19.141c0.784-0.265,1.782-0.634,2.994-1.107L722.175-203.859z M733.947-207.305
			c-0.063,1.513-0.228,2.885-0.492,4.115c-0.264,1.23-0.684,2.032-1.258,2.406s-1.822,0.561-3.746,0.561
			c-1.193,0-2.123-0.043-2.789-0.13c-0.665-0.087-1.18-0.349-1.545-0.786c-0.364-0.438-0.547-1.066-0.547-1.887v-21.438h2.584v7.779
			h7.246v2.543h-7.246v10.814c0,0.21,0.104,0.362,0.309,0.458s0.932,0.144,2.18,0.144c0.803,0,1.395-0.043,1.777-0.13
			s0.637-0.768,0.76-2.044s0.184-2.329,0.184-3.158L733.947-207.305z"/>
		<path d="M761.291-206.963h-10.951c-1.613,3.746-5.505,6.125-11.676,7.137l-1.203-2.406c5.433-0.957,8.782-2.534,10.049-4.73
			h-9.379v-2.051h10.09c0.128-0.593,0.191-1.208,0.191-1.846h2.516c-0.027,0.738-0.063,1.354-0.109,1.846h10.473V-206.963z
			 M761.851-211.666h-24.309v-2.023h10.869v-1.791h-8.518v-1.982h8.518v-1.709h-9.721v-2.023h21.93v2.023h-9.666v1.709h8.49v1.982
			h-8.49v1.791h10.896V-211.666z M747.318-222.139l-2.598,0.697c-0.61-0.875-1.294-1.687-2.051-2.434l2.488-0.82
			C745.96-223.921,746.68-223.068,747.318-222.139z M762.166-201.754l-1.545,1.955c-2.935-1.741-6.416-3.167-10.445-4.279
			l1.518-2.078C756.105-204.808,759.595-203.34,762.166-201.754z M757.039-224.135c-0.52,0.829-1.162,1.69-1.928,2.584l-2.748-0.684
			c0.885-0.911,1.572-1.741,2.064-2.488L757.039-224.135z"/>
		<path d="M771.544-209.178c-1.039,3.464-2.42,6.571-4.143,9.324l-2.105-1.572c1.568-2.36,2.912-5.364,4.033-9.01L771.544-209.178z
			 M771.285-214.223l-1.531,2.051c-1.54-1.413-2.998-2.534-4.375-3.363l1.627-1.928
			C768.628-216.451,770.054-215.371,771.285-214.223z M772.16-220.607l-1.736,1.846c-1.267-1.477-2.779-2.839-4.539-4.088
			l1.764-1.873C769.562-223.31,771.066-221.938,772.16-220.607z M777.287-212.568c0,3.063-0.332,5.498-0.998,7.308
			c-0.665,1.81-1.836,3.63-3.514,5.462l-1.9-1.572c1.705-1.786,2.801-3.527,3.289-5.223c0.487-1.695,0.73-4.124,0.73-7.287v-10.609
			h2.393V-212.568z M774.169-210.299l-2.119,0.561c-0.036-2.516-0.273-5.187-0.711-8.012l2.133-0.533
			C773.91-215.349,774.142-212.687,774.169-210.299z M780.021-210.586l-1.818,0.848c-0.063-3.09-0.232-5.628-0.506-7.615
			l1.736-0.793C779.798-215.896,779.994-213.375,780.021-210.586z M782.988-201.057h-2.324v-22.627h2.324V-201.057z
			 M786.132-210.641l-1.914,0.82c-0.036-2.251-0.241-4.949-0.615-8.094l1.764-0.643C785.75-216.224,786.005-213.585,786.132-210.641
			z M788.962-200.113h-2.324v-24.35h2.324V-200.113z"/>
	</g>
	<g>
		<path d="M842.826-201.543l-1.504,2.023c-5.533-3.527-9.129-8.222-10.787-14.082c-1.741,5.633-5.378,10.259-10.91,13.877
			l-1.49-2.174c5.715-3.728,9.196-8.294,10.445-13.699h-9.857l-0.027-2.516h10.213c0.2-1.96,0.314-3.956,0.342-5.988h2.516
			c-0.027,2.434-0.109,4.43-0.246,5.988h10.951v2.516h-10.145C833.693-209.582,837.193-204.897,842.826-201.543z"/>
		<path d="M852.232-209.213c-1.012,3.399-2.352,6.554-4.02,9.461l-2.16-1.504c1.485-2.616,2.803-5.679,3.951-9.188L852.232-209.213z
			 M852.464-213.629l-1.627,1.982c-1.34-1.367-2.871-2.598-4.594-3.691l1.518-2.023C849.703-216.14,851.27-214.896,852.464-213.629z
			 M853.271-220.301l-1.818,1.846c-1.213-1.403-2.854-2.767-4.922-4.088l1.873-1.846
			C850.163-223.259,851.785-221.896,853.271-220.301z M870.634-205.631h-7.424v5.879h-2.543v-5.879h-7.957v-2.434h7.957v-3.104
			h-6.248v-2.406h6.248v-2.885h-7v-2.324h16.598v2.324h-7.055v2.885h6.33v2.406h-6.33v3.104h7.424V-205.631z M860.162-220.355
			l-2.27,1.203c-0.729-1.403-1.691-2.775-2.885-4.115l2.27-1.285C858.47-223.186,859.432-221.786,860.162-220.355z M868.365-223.432
			c-0.666,1.422-1.618,2.866-2.857,4.334l-2.297-1.258c1.203-1.358,2.155-2.748,2.857-4.17L868.365-223.432z"/>
		<path d="M880.382-208.844c-1.039,3.464-2.42,6.571-4.143,9.324l-2.105-1.572c1.567-2.36,2.912-5.364,4.033-9.01L880.382-208.844z
			 M880.123-213.889l-1.531,2.051c-1.541-1.413-2.999-2.534-4.375-3.363l1.627-1.928
			C877.465-216.117,878.892-215.037,880.123-213.889z M880.998-220.273l-1.736,1.846c-1.268-1.477-2.78-2.839-4.539-4.088
			l1.764-1.873C878.4-222.976,879.904-221.604,880.998-220.273z M886.125-212.234c0,3.063-0.333,5.498-0.998,7.308
			c-0.666,1.81-1.837,3.63-3.514,5.462l-1.9-1.572c1.704-1.786,2.8-3.527,3.287-5.223c0.488-1.695,0.732-4.124,0.732-7.287v-10.609
			h2.393V-212.234z M883.007-209.965l-2.119,0.561c-0.037-2.516-0.273-5.187-0.711-8.012l2.133-0.533
			C882.748-215.015,882.98-212.353,883.007-209.965z M888.859-210.252l-1.818,0.848c-0.064-3.09-0.232-5.628-0.506-7.615
			l1.736-0.793C888.635-215.562,888.832-213.041,888.859-210.252z M891.826-200.723h-2.324v-22.627h2.324V-200.723z M894.97-210.307
			l-1.914,0.82c-0.037-2.251-0.242-4.949-0.615-8.094l1.764-0.643C894.587-215.89,894.842-213.251,894.97-210.307z M897.8-199.779
			h-2.324v-24.35h2.324V-199.779z"/>
	</g>
	<g>
		<path d="M954.328-219.732h-10.924v2.27h9.584v14.834c0,0.802-0.188,1.434-0.561,1.894c-0.374,0.46-1.285,0.69-2.734,0.69
			c-0.456,0-1.049-0.014-1.777-0.041L947-202.492c0.646,0.036,1.221,0.055,1.723,0.055c0.902,0,1.419-0.036,1.551-0.109
			c0.133-0.073,0.199-0.224,0.199-0.451v-12.086h-5.045l2.01,0.998c-0.229,0.692-0.629,1.468-1.203,2.324h2.748v2.324h-5.551v1.914
			h6.111v2.297h-6.111v4.498h-2.516v-4.498h-6.152v-2.297h6.152v-1.914h-5.51v-2.324h2.543c-0.256-0.665-0.684-1.468-1.285-2.406
			l2.064-0.916h-4.949v14.998h-2.516v-17.377h9.598v-2.27h-10.869v-2.324h10.869v-2.434h2.543v2.434h10.924V-219.732z
			 M945.113-215.084h-6.043c0.602,1.003,1.162,2.11,1.682,3.322h2.83C944.31-213.038,944.821-214.146,945.113-215.084z"/>
		<path d="M966.058-212.965l-1.654,1.887c-0.328-0.82-0.697-1.595-1.107-2.324v13.344h-2.365v-11.703
			c-0.42,1.586-1.08,3.126-1.982,4.621l-1.285-2.762c1.221-2.097,2.219-4.589,2.994-7.479h-2.83v-2.406h3.104v-4.771h2.365v4.771
			h2.598v2.406h-2.598v0.506C964.353-215.563,965.274-214.259,966.058-212.965z M982.355-200.578h-17.049v-2.352h17.049V-200.578z
			 M981.972-221.729h-7.684l-1.709,2.721h2.023v12.824c0,0.665-0.196,1.212-0.588,1.641c-0.393,0.429-0.801,0.69-1.225,0.786
			s-1.287,0.144-2.59,0.144l-0.779-2.297l2.105-0.027c0.592,0,0.889-0.323,0.889-0.971v-9.775h-2.598v-2.324l1.846-2.721h-5.879
			v-2.297h16.188V-221.729z M971.048-206.854h-4.785v-9.051h4.785V-206.854z M969.175-209.178v-4.402h-1.039v4.402H969.175z
			 M982.56-205.883l-2.023,1.271c-0.283-1.012-0.748-2.256-1.395-3.732c-0.812,1.531-1.646,2.83-2.502,3.896l-1.477-1.9
			c1.313-1.813,2.219-3.372,2.721-4.676c-0.729-1.485-1.6-2.999-2.611-4.539l1.463-1.313h-1.326v-2.215h6.029
			c0.072,2.297-0.328,4.936-1.203,7.916C980.983-209.743,981.757-207.979,982.56-205.883z M979.224-216.875h-2.16
			c0.355,0.556,0.925,1.518,1.709,2.885C979.037-215.248,979.187-216.21,979.224-216.875z"/>
		<path d="M991.966-209.178c-1.039,3.464-2.42,6.571-4.143,9.324l-2.105-1.572c1.567-2.36,2.912-5.364,4.033-9.01L991.966-209.178z
			 M991.707-214.223l-1.531,2.051c-1.541-1.413-2.999-2.534-4.375-3.363l1.627-1.928
			C989.049-216.451,990.476-215.371,991.707-214.223z M992.582-220.607l-1.736,1.846c-1.268-1.477-2.78-2.839-4.539-4.088
			l1.764-1.873C989.984-223.31,991.488-221.938,992.582-220.607z M997.708-212.568c0,3.063-0.333,5.498-0.998,7.308
			c-0.666,1.81-1.837,3.63-3.514,5.462l-1.9-1.572c1.704-1.786,2.8-3.527,3.287-5.223c0.488-1.695,0.732-4.124,0.732-7.287v-10.609
			h2.393V-212.568z M994.591-210.299l-2.119,0.561c-0.037-2.516-0.273-5.187-0.711-8.012l2.133-0.533
			C994.332-215.349,994.564-212.687,994.591-210.299z M1000.443-210.586l-1.818,0.848c-0.064-3.09-0.232-5.628-0.506-7.615
			l1.736-0.793C1000.219-215.896,1000.416-213.375,1000.443-210.586z M1003.41-201.057h-2.324v-22.627h2.324V-201.057z
			 M1006.554-210.641l-1.914,0.82c-0.037-2.251-0.242-4.949-0.615-8.094l1.764-0.643
			C1006.171-216.224,1006.426-213.585,1006.554-210.641z M1009.384-200.113h-2.324v-24.35h2.324V-200.113z"/>
	</g>
	<g>
		<g>
			<path d="M678.855-372.781l-1.189,2.324c-1.385-0.556-2.314-0.938-2.789-1.148v1.887h-7.123v3.91h6.891v2.406h-6.891v4.061h10.254
				v2.379h-23.187v-2.379h10.362v-4.061h-7.055v-2.406h7.055v-3.91h-7.164v-2.105c-0.848,0.383-1.791,0.774-2.829,1.176
				l-1.148-2.297c3.955-1.468,6.99-3.14,9.104-5.018h-2.215v-2.379h6.891C669.664-377.288,673.341-374.769,678.855-372.781z
				 M673.728-372.166c-3.135-1.559-5.555-3.396-7.26-5.51c-1.677,1.96-4.261,3.796-7.752,5.51H673.728z"/>
			<path d="M706.732-358.945l-0.697,2.352c-1.805,0.046-3.773,0.068-5.906,0.068c-2.314,0-4.206-0.019-5.674-0.055
				c-1.467-0.036-2.932-0.287-4.395-0.752s-2.71-1.189-3.74-2.174c-1.103,1.687-1.932,2.835-2.488,3.445l-1.9-1.627
				c2.225-2.598,3.551-5.209,3.979-7.834h-3.445v-2.379c1.295-1.668,2.32-3.245,3.076-4.73h-3.363v-2.365h6.057v2.365
				c-0.811,1.55-1.791,3.163-2.939,4.84h3.021c0.046,0.364,0.068,0.743,0.068,1.135c0,1.659-0.359,3.331-1.08,5.018
				c0.875,0.856,1.892,1.511,3.049,1.962c1.158,0.451,2.719,0.706,4.684,0.766c1.964,0.06,3.725,0.089,5.283,0.089
				C702.599-358.822,704.736-358.863,706.732-358.945z M688.166-377.512l-1.668,1.709c-1.029-1.203-2.283-2.37-3.76-3.5l1.709-1.682
				C686.224-379.544,687.464-378.387,688.166-377.512z M706.294-363.512h-17.336v-2.037h4.17v-1.654h-3.555v-2.078h3.555v-1.367
				h2.379v1.367h4.143v-1.367h2.379v1.367h3.527v2.078h-3.527v1.654h4.266V-363.512z M696.998-372.084l-7.178,1.408l-0.506-2.078
				c0.355-0.118,0.533-0.396,0.533-0.834v-6.945h6.863v5.182h-4.621v2.242c0.711-0.101,2.329-0.419,4.854-0.957L696.998-372.084z
				 M696.355-361.721c-1.23,0.774-2.957,1.468-5.182,2.078l-1.736-1.873c1.65-0.364,3.363-0.952,5.141-1.764L696.355-361.721z
				 M694.441-377.279v-1.354h-2.352v1.354H694.441z M699.65-365.549v-1.654h-4.143v1.654H699.65z M705.953-371.496h-5.51
				c-0.729,0-1.271-0.173-1.627-0.52s-0.533-0.984-0.533-1.914v-6.604h6.891v5.154h-4.621v1.449c0,0.319,0.16,0.479,0.479,0.479
				h4.922V-371.496z M706.089-361.242l-1.531,1.818c-1.786-0.829-3.582-1.49-5.387-1.982l1.518-1.818
				C702.248-362.778,704.048-362.117,706.089-361.242z M702.904-377.279v-1.354h-2.352v1.354H702.904z"/>
		</g>
		<ellipse fill="#C4C4C4" cx="623.852" cy="-366.532" rx="19.647" ry="19.067"/>
		<ellipse fill="#FFFFFF" cx="620.045" cy="-369.458" rx="19.647" ry="19.067"/>
	</g>
</g>
</svg>
