<?xml version="1.0" encoding="utf-8"?>
<!-- Generator: Adobe Illustrator 16.0.0, SVG Export Plug-In . SVG Version: 6.00 Build 0)  -->
<!DOCTYPE svg PUBLIC "-//W3C//DTD SVG 1.1//EN" "http://www.w3.org/Graphics/SVG/1.1/DTD/svg11.dtd">
<svg version="1.1" id="圖層_1" xmlns="http://www.w3.org/2000/svg" xmlns:xlink="http://www.w3.org/1999/xlink" x="0px" y="0px"
	 width="94px" height="92.668px" viewBox="0 0 94 92.668" enable-background="new 0 0 94 92.668" xml:space="preserve">
<g>
	<path fill="#C58A11" d="M74.07,17.629C69.375,11.762,61.314,6.44,53.357,6.46l-9.02,0.017L39.48,6.484
		c-12.283,6.09-20.938,21.665-20.797,39.905c0.133,18.242,9.025,33.782,21.393,39.819l4.861-0.011l8.236-0.017
		c9.063-0.018,18.645-5.988,23.457-12.95c5.242-7.581,7.24-15.905,7.162-26.973C83.701,34.231,80.258,25.357,74.07,17.629z"/>
	<path fill="#EFBB46" d="M73.08,46.279c0.164,22.013-14.279,39.894-32.258,39.928C22.846,86.249,8.137,68.426,7.969,46.413
		C7.805,24.398,22.248,6.519,40.227,6.483C58.205,6.447,72.914,24.264,73.08,46.279z"/>
	<path fill="#C58A11" d="M40.264,11.388c-15.119,0.029-27.26,15.707-27.117,35.014c0.146,19.308,12.52,34.936,27.641,34.904
		C55.904,81.274,68.045,65.597,67.9,46.291C67.754,26.981,55.381,11.355,40.264,11.388z M40.758,77.693
		C27.203,77.721,16.105,63.709,15.98,46.396C15.85,29.084,26.732,15.026,40.293,14.998c13.555-0.03,24.65,13.985,24.779,31.296
		C65.199,63.606,54.314,77.668,40.758,77.693z"/>
	<g>
		<path fill="#C58A11" d="M25.957,32.158l11.998-0.014l-0.324,4.112l-8.771,0.015l-0.275,7.862c1.053-1.764,2.463-2.651,4.234-2.652
			c1.926-0.002,3.473,0.827,4.643,2.489c1.172,1.663,1.77,3.987,1.789,6.972c0.027,3.188-0.656,5.671-2.033,7.439
			c-1.381,1.774-3.211,2.659-5.498,2.663c-1.816,0.003-3.387-0.612-4.713-1.844c-1.324-1.231-2.17-3.052-2.537-5.463l3.391-1.023
			c0.551,2.966,1.867,4.443,3.941,4.442c2.529-0.004,3.781-2.017,3.752-6.034c-0.012-1.817-0.338-3.229-0.969-4.238
			c-0.635-1.014-1.557-1.518-2.764-1.515c-1.703,0.003-2.902,1.045-3.604,3.123l-2.879-0.742L25.957,32.158z"/>
		<path fill="#C58A11" d="M57.006,45.952c0.035,5.298-0.574,9.13-1.838,11.5c-1.264,2.372-3.123,3.559-5.574,3.563
			c-5.012,0.01-7.553-4.775-7.615-14.351c-0.039-5.308,0.574-9.147,1.844-11.509c1.266-2.364,3.123-3.55,5.564-3.554
			C54.4,31.595,56.941,36.38,57.006,45.952z M53.074,46.283c-0.033-4.161-0.352-7.074-0.967-8.738
			c-0.611-1.662-1.51-2.492-2.693-2.492c-1.174,0.003-2.059,0.826-2.652,2.473c-0.598,1.644-0.883,4.565-0.852,8.769
			c0.033,4.521,0.383,7.524,1.055,9.007c0.68,1.484,1.543,2.223,2.604,2.222c1.207,0.001,2.1-0.843,2.678-2.529
			C52.828,53.31,53.102,50.4,53.074,46.283z"/>
	</g>
</g>
</svg>
