<?xml version="1.0" encoding="utf-8"?>
<!-- Generator: Adobe Illustrator 16.0.0, SVG Export Plug-In . SVG Version: 6.00 Build 0)  -->
<!DOCTYPE svg PUBLIC "-//W3C//DTD SVG 1.1//EN" "http://www.w3.org/Graphics/SVG/1.1/DTD/svg11.dtd">
<svg version="1.1" id="圖層_1" xmlns="http://www.w3.org/2000/svg" xmlns:xlink="http://www.w3.org/1999/xlink" x="0px" y="0px"
	 width="94px" height="92.668px" viewBox="0 0 94 92.668" enable-background="new 0 0 94 92.668" xml:space="preserve">
<g>
	<path fill="#707070" d="M74.522,17.628C69.827,11.761,61.766,6.439,53.809,6.459l-9.018,0.017l-4.857,0.008
		c-12.283,6.09-20.938,21.665-20.799,39.905c0.135,18.242,9.027,33.782,21.395,39.819l4.859-0.011l8.238-0.017
		c9.061-0.018,18.643-5.988,23.457-12.95c5.24-7.581,7.24-15.905,7.162-26.973C84.155,34.23,80.709,25.356,74.522,17.628z"/>
	<path fill="#B7B7B7" d="M73.532,46.278c0.166,22.013-14.277,39.894-32.258,39.928C23.297,86.248,8.59,68.425,8.42,46.412
		C8.258,24.397,22.702,6.518,40.678,6.482C58.659,6.446,73.366,24.263,73.532,46.278z"/>
	<path fill="#707070" d="M40.715,11.387C25.596,11.416,13.456,27.094,13.598,46.4c0.146,19.308,12.521,34.936,27.641,34.904
		s27.26-15.709,27.115-35.015C68.208,26.98,55.834,11.354,40.715,11.387z M41.211,77.692C27.655,77.72,16.559,63.708,16.432,46.395
		c-0.131-17.312,10.752-31.369,24.313-31.397c13.555-0.03,24.652,13.985,24.779,31.296C65.653,63.605,54.766,77.667,41.211,77.692z"
		/>
	<g>
		<path fill="#707070" d="M26.411,32.157l11.996-0.014l-0.324,4.112l-8.77,0.015l-0.277,7.862c1.053-1.764,2.463-2.651,4.234-2.652
			c1.926-0.002,3.475,0.827,4.645,2.489c1.172,1.663,1.77,3.987,1.787,6.972c0.027,3.188-0.656,5.671-2.033,7.439
			c-1.379,1.774-3.211,2.659-5.498,2.663c-1.816,0.003-3.385-0.612-4.711-1.844s-2.17-3.052-2.537-5.463l3.389-1.023
			c0.553,2.966,1.867,4.443,3.943,4.442c2.529-0.004,3.779-2.017,3.752-6.034c-0.012-1.817-0.338-3.229-0.969-4.238
			c-0.637-1.014-1.557-1.518-2.766-1.515c-1.701,0.003-2.902,1.045-3.602,3.123l-2.879-0.742L26.411,32.157z"/>
		<path fill="#707070" d="M57.459,45.951c0.033,5.298-0.576,9.13-1.838,11.5c-1.264,2.372-3.125,3.559-5.574,3.563
			c-5.014,0.01-7.555-4.775-7.617-14.351c-0.037-5.308,0.576-9.147,1.844-11.509c1.268-2.364,3.123-3.55,5.566-3.554
			C54.854,31.594,57.393,36.379,57.459,45.951z M53.528,46.282c-0.033-4.161-0.352-7.074-0.967-8.738
			c-0.613-1.662-1.512-2.492-2.695-2.492c-1.174,0.003-2.057,0.826-2.652,2.473c-0.596,1.644-0.881,4.565-0.852,8.769
			c0.033,4.521,0.385,7.524,1.055,9.007c0.68,1.484,1.543,2.223,2.605,2.222c1.205,0.001,2.1-0.843,2.676-2.529
			C53.28,53.309,53.553,50.399,53.528,46.282z"/>
	</g>
</g>
</svg>
