<?xml version="1.0" encoding="utf-8"?>
<!-- Generator: Adobe Illustrator 16.0.0, SVG Export Plug-In . SVG Version: 6.00 Build 0)  -->
<!DOCTYPE svg PUBLIC "-//W3C//DTD SVG 1.1//EN" "http://www.w3.org/Graphics/SVG/1.1/DTD/svg11.dtd">
<svg version="1.1" id="圖層_1" xmlns="http://www.w3.org/2000/svg" xmlns:xlink="http://www.w3.org/1999/xlink" x="0px" y="0px"
	 width="94px" height="92.668px" viewBox="0 0 94 92.668" enable-background="new 0 0 94 92.668" xml:space="preserve">
<g>
	<path fill="#456FAC" d="M75.738,17.628C71.041,11.761,62.98,6.439,55.023,6.459l-9.018,0.017l-4.857,0.008
		c-12.283,6.09-20.938,21.665-20.799,39.905c0.135,18.242,9.027,33.782,21.395,39.819l4.859-0.011l8.238-0.017
		c9.061-0.018,18.645-5.988,23.457-12.95c5.24-7.581,7.24-15.905,7.162-26.973C85.369,34.23,81.923,25.356,75.738,17.628z"/>
	<path fill="#7A97C8" d="M74.748,46.278c0.164,22.013-14.279,39.894-32.26,39.928C24.511,86.248,9.804,68.425,9.634,46.412
		C9.472,24.397,23.914,6.518,41.894,6.482C59.873,6.446,74.582,24.263,74.748,46.278z"/>
	<path fill="#456FAC" d="M41.929,11.387C26.81,11.416,14.669,27.094,14.814,46.4c0.145,19.308,12.52,34.936,27.639,34.904
		s27.26-15.709,27.115-35.015C69.421,26.98,57.048,11.354,41.929,11.387z M42.425,77.692C28.869,77.72,17.773,63.708,17.646,46.395
		c-0.131-17.312,10.752-31.369,24.313-31.397c13.555-0.03,24.652,13.985,24.779,31.296C66.867,63.605,55.98,77.667,42.425,77.692z"
		/>
	<g>
		<g>
			<path fill="#456FAC" d="M27.625,32.157l11.996-0.014l-0.324,4.112l-8.77,0.015l-0.277,7.862c1.053-1.764,2.463-2.651,4.234-2.652
				c1.926-0.002,3.473,0.827,4.645,2.489c1.172,1.663,1.77,3.987,1.787,6.972c0.027,3.188-0.656,5.671-2.033,7.439
				c-1.379,1.774-3.211,2.659-5.498,2.663c-1.816,0.003-3.387-0.612-4.711-1.844c-1.326-1.231-2.17-3.052-2.537-5.463l3.389-1.023
				c0.553,2.966,1.869,4.443,3.943,4.442c2.529-0.004,3.779-2.017,3.752-6.034c-0.014-1.817-0.338-3.229-0.969-4.238
				c-0.637-1.014-1.557-1.518-2.766-1.515c-1.701,0.003-2.902,1.045-3.602,3.123l-2.879-0.742L27.625,32.157z"/>
			<path fill="#456FAC" d="M58.673,45.951c0.035,5.298-0.576,9.13-1.838,11.5c-1.264,2.372-3.125,3.559-5.574,3.563
				c-5.014,0.01-7.555-4.775-7.617-14.351c-0.037-5.308,0.576-9.147,1.844-11.509c1.268-2.364,3.123-3.55,5.566-3.554
				C56.068,31.594,58.607,36.379,58.673,45.951z M54.742,46.282c-0.033-4.161-0.352-7.074-0.967-8.738
				c-0.613-1.662-1.512-2.492-2.695-2.492c-1.174,0.003-2.057,0.826-2.652,2.473c-0.596,1.644-0.881,4.565-0.852,8.769
				c0.033,4.521,0.385,7.524,1.055,9.007c0.682,1.484,1.543,2.223,2.605,2.222c1.205,0.001,2.098-0.843,2.676-2.529
				C54.494,53.309,54.767,50.399,54.742,46.282z"/>
		</g>
	</g>
</g>
</svg>
