<?xml version="1.0" encoding="utf-8"?>
<!-- Generator: Adobe Illustrator 16.0.0, SVG Export Plug-In . SVG Version: 6.00 Build 0)  -->
<!DOCTYPE svg PUBLIC "-//W3C//DTD SVG 1.1//EN" "http://www.w3.org/Graphics/SVG/1.1/DTD/svg11.dtd">
<svg version="1.1" id="圖層_1" xmlns="http://www.w3.org/2000/svg" xmlns:xlink="http://www.w3.org/1999/xlink" x="0px" y="0px"
	 width="94px" height="92.668px" viewBox="0 0 94 92.668" enable-background="new 0 0 94 92.668" xml:space="preserve">
<g>
	<path fill="#C55823" d="M75.189,18.294C70.493,12.427,62.433,7.106,54.476,7.125l-9.018,0.017L40.6,7.15
		c-12.283,6.09-20.937,21.665-20.797,39.905c0.133,18.242,9.026,33.782,21.394,39.819l4.86-0.011l8.237-0.017
		c9.061-0.018,18.644-5.988,23.457-12.95c5.241-7.581,7.241-15.905,7.163-26.973C84.82,34.897,81.376,26.023,75.189,18.294z"/>
	<path fill="#EE9C64" d="M74.199,46.945C74.364,68.958,59.92,86.838,41.94,86.873C23.964,86.915,9.256,69.091,9.087,47.079
		C8.924,25.064,23.367,7.184,41.346,7.149C59.324,7.113,74.033,24.929,74.199,46.945z"/>
	<path fill="#C55823" d="M41.382,12.053c-15.12,0.029-27.26,15.707-27.117,35.014c0.145,19.308,12.52,34.936,27.64,34.904
		C57.024,81.94,69.164,66.262,69.02,46.957C68.874,27.647,56.5,12.021,41.382,12.053z M41.877,78.359
		c-13.556,0.027-24.653-13.984-24.779-31.298C16.968,29.75,27.851,15.692,41.411,15.664c13.556-0.03,24.652,13.985,24.78,31.296
		C66.318,64.272,55.433,78.333,41.877,78.359z"/>
	<g>
		<path fill="#C55823" d="M27.077,32.824l11.997-0.014l-0.325,4.112l-8.771,0.015l-0.276,7.862c1.053-1.764,2.463-2.651,4.234-2.652
			c1.926-0.002,3.474,0.827,4.644,2.489c1.172,1.663,1.769,3.987,1.788,6.972c0.028,3.188-0.656,5.671-2.033,7.439
			c-1.379,1.774-3.21,2.659-5.498,2.663c-1.816,0.003-3.386-0.612-4.712-1.844c-1.325-1.231-2.17-3.052-2.537-5.463l3.39-1.023
			c0.551,2.966,1.868,4.443,3.942,4.442c2.529-0.004,3.78-2.017,3.751-6.034c-0.012-1.817-0.338-3.229-0.968-4.238
			c-0.636-1.014-1.557-1.518-2.765-1.515c-1.702,0.003-2.902,1.045-3.602,3.123l-2.878-0.742L27.077,32.824z"/>
		<path fill="#C55823" d="M58.125,46.618c0.034,5.298-0.576,9.13-1.839,11.5c-1.263,2.372-3.123,3.559-5.573,3.563
			c-5.013,0.01-7.554-4.775-7.616-14.351c-0.039-5.308,0.575-9.147,1.843-11.509c1.267-2.364,3.124-3.55,5.566-3.554
			C55.52,32.26,58.06,37.045,58.125,46.618z M54.193,46.949c-0.033-4.161-0.352-7.074-0.967-8.738
			c-0.612-1.662-1.511-2.492-2.694-2.492c-1.174,0.003-2.058,0.826-2.653,2.473c-0.596,1.644-0.881,4.565-0.852,8.769
			c0.033,4.521,0.384,7.524,1.055,9.007c0.68,1.484,1.542,2.223,2.604,2.222c1.206,0.001,2.099-0.843,2.676-2.529
			C53.946,53.975,54.22,51.066,54.193,46.949z"/>
	</g>
</g>
</svg>
