<?xml version="1.0" encoding="utf-8"?>
<!-- Generator: Adobe Illustrator 16.0.0, SVG Export Plug-In . SVG Version: 6.00 Build 0)  -->
<!DOCTYPE svg PUBLIC "-//W3C//DTD SVG 1.1//EN" "http://www.w3.org/Graphics/SVG/1.1/DTD/svg11.dtd">
<svg version="1.1" id="圖層_1" xmlns="http://www.w3.org/2000/svg" xmlns:xlink="http://www.w3.org/1999/xlink" x="0px" y="0px"
	 width="215px" height="50px" viewBox="0 0 215 50" enable-background="new 0 0 215 50" xml:space="preserve">
<g>
	<g>
		<path fill="#B2C8CB" d="M37.374,5.688c-3.843-3.038-8.687-4.861-13.955-4.861c-12.444,0-22.566,10.123-22.566,22.567
			c0,4.123,1.197,8.229,3.139,11.559l2.506-3.986c-0.997-2.266-1.476-4.593-1.476-7.222c0-10.189,8.291-18.478,18.478-18.478
			c3.478,0,6.731,0.969,9.51,2.649"/>
		<path fill="#B2C8CB" d="M40.189,15.867c1.143,2.39,1.789,5.057,1.789,7.877c0,10.187-8.29,18.476-18.479,18.476
			c-3.782,0-7.166-1.07-10.099-3.027c-1.514,0.646-2.901,1.072-4.26,1.672c3.893,3.193,8.86,5.098,14.278,5.098
			c12.443,0,22.567-10.125,22.567-22.568c0-4.14-1.123-8.019-3.077-11.357"/>
		<g>
			<g>
				<polygon fill="#D83841" points="18.602,18.522 45.352,4.535 27.854,28.953 				"/>
			</g>
			<polyline fill="#CF542E" points="27.501,29.369 19.336,17.421 19.336,17.421 			"/>
			<polyline fill="#FFFFFF" points="18.602,18.522 1.671,42.33 27.854,28.953 			"/>
		</g>
	</g>
	<g>
		<path fill="#FFFFFF" stroke="#FFFFFF" stroke-width="2" stroke-miterlimit="10" d="M80.576,22.372
			c0-9.188-8.21-16.661-18.302-16.661c-0.488,0-0.972,0.023-1.452,0.059v0.835v1.821V36.32v2.656v10.791h2.906v-0.744V38.977
			C73.142,38.299,80.576,31.115,80.576,22.372z M63.729,36.322V8.426c7.809,0.668,13.941,6.666,13.941,13.946
			C77.67,29.656,71.537,35.652,63.729,36.322z"/>
		<path fill="#FFFFFF" stroke="#FFFFFF" stroke-width="2" stroke-miterlimit="10" d="M210.991,8.357c0.49,0,0.975,0.026,1.452,0.068
			V5.769c-0.479-0.034-0.964-0.058-1.452-0.058c-10.091,0-18.301,7.473-18.301,16.661c0,9.187,8.21,16.661,18.301,16.661
			c0.488,0,0.973-0.021,1.452-0.057v-0.258V36.32V22.372h-2.906v13.95c-7.81-0.67-13.938-6.668-13.938-13.95
			C195.6,14.643,202.504,8.357,210.991,8.357z"/>
		<path fill="#FFFFFF" stroke="#FFFFFF" stroke-width="2" stroke-miterlimit="10" d="M85.661,39.033V6.312h2.908v30.075h7.418v2.646
			H85.661z"/>
		<path fill="#FFFFFF" stroke="#FFFFFF" stroke-width="2" stroke-miterlimit="10" d="M111.297,39.033V18.411h-6.708v20.622h-2.907
			V18.411h-1.543l-0.95-2.647h2.493c0-3.023,0.239-5.094,0.711-6.21c0.871-2.054,2.71-3.081,5.52-3.081
			c2.254,0,3.896,0.684,4.925,2.054c0.871,1.151,1.306,2.791,1.306,4.917v25.589H111.297z M111.297,12.526
			c0-0.975-0.278-1.784-0.833-2.434c-0.554-0.646-1.346-0.971-2.374-0.971c-1.108,0-1.969,0.316-2.581,0.946
			c-0.614,0.631-0.92,1.451-0.92,2.459v3.238h6.708V12.526z"/>
		<path fill="#FFFFFF" stroke="#FFFFFF" stroke-width="2" stroke-miterlimit="10" d="M131.851,39.033V13.816l-8.365-2.858v28.075
			h-2.909V6.312l11.274,4.532V6.961h2.908v32.072H131.851z"/>
		<path fill="#FFFFFF" stroke="#FFFFFF" stroke-width="2" stroke-miterlimit="10" d="M153.144,39.033V13.816l-8.368-2.858v28.075
			h-2.907V6.312l11.275,4.532V6.961h2.906v32.072H153.144z"/>
		<path fill="#FFFFFF" stroke="#FFFFFF" stroke-width="2" stroke-miterlimit="10" d="M163.159,39.033V6.961h2.91v32.072H163.159z"/>
		<path fill="#FFFFFF" stroke="#FFFFFF" stroke-width="2" stroke-miterlimit="10" d="M184.571,39.033l-0.095-25.307l-8.271-2.768
			v28.075h-2.907V6.312l11.179,4.441l0.095-3.792h2.908v32.072H184.571z"/>
	</g>
</g>
</svg>
