<?xml version="1.0" encoding="utf-8"?>
<!-- Generator: Adobe Illustrator 16.0.0, SVG Export Plug-In . SVG Version: 6.00 Build 0)  -->
<!DOCTYPE svg PUBLIC "-//W3C//DTD SVG 1.1//EN" "http://www.w3.org/Graphics/SVG/1.1/DTD/svg11.dtd">
<svg version="1.1" id="圖層_1" xmlns="http://www.w3.org/2000/svg" xmlns:xlink="http://www.w3.org/1999/xlink" x="0px" y="0px"
	 width="449.918px" height="334.075px" viewBox="0 0 449.918 334.075" enable-background="new 0 0 449.918 334.075"
	 xml:space="preserve">
<path fill="#D9ACCE" d="M44.49,288.626c76.096,74.996,271.486,54.029,368.812-39.715c74.756-72.004,23.374-174.748-49.814-184.739
	C271.332,51.589,315.6,0,315.6,0C308.729,2.438-140.051,106.752,44.49,288.626z"/>
<g>
	<g opacity="0.3">
		<path fill="#4C4C4C" d="M174.061,115.336c-1.681,0.492-3.403,1.025-5.125,1.517v10.742c0,1.969-0.41,2.952-1.599,3.485
			c-1.189,0.615-3.034,0.697-5.822,0.697c-0.123-0.943-0.656-2.501-1.107-3.444c1.763,0.041,3.526,0.041,4.018,0.041
			c0.574-0.041,0.779-0.205,0.779-0.819v-9.677l-4.961,1.353l-1.025-3.648c1.681-0.41,3.731-0.861,5.986-1.477v-8.077h-5.453v-3.525
			h5.453v-7.995h3.731v7.995h4.715v3.525h-4.715v7.094c1.517-0.41,3.116-0.82,4.674-1.271L174.061,115.336z M194.479,111.399
			c-1.681,3.772-4.223,7.463-7.216,10.701c1.313,3.116,2.993,5.003,5.002,5.249c1.025,0.082,1.64-2.051,1.968-6.479
			c0.738,0.86,2.419,1.804,3.198,2.173c-0.984,7.012-2.829,9.021-5.002,8.815c-3.608-0.328-6.273-2.747-8.241-6.766
			c-2.624,2.297-5.535,4.265-8.487,5.658c-0.738-0.983-1.968-2.214-3.075-2.993c3.649-1.435,7.093-3.689,10.086-6.478
			c-1.107-3.485-1.886-7.708-2.501-12.547l-5.74,0.574l-0.369-3.648l5.781-0.533c-0.287-3.321-0.492-6.807-0.656-10.455h3.854
			c0.123,3.525,0.287,6.888,0.615,10.045l12.382-1.271l0.369,3.608l-12.382,1.271c0.451,3.689,1.066,6.97,1.845,9.758
			c2.255-2.706,4.182-5.617,5.494-8.61L194.479,111.399z M190.707,103.241c-1.066-1.723-3.485-4.306-5.371-6.109l2.87-1.886
			c1.927,1.722,4.387,4.223,5.617,5.821L190.707,103.241z"/>
		<path fill="#4C4C4C" d="M223.999,101.149c-0.861,1.395-1.722,2.829-2.706,4.224v26.691h-4.141v-21.525
			c-3.936,4.387-8.692,8.282-13.981,11.07c-0.615-1.025-1.804-2.583-2.624-3.403c7.79-3.813,14.514-10.373,18.45-17.057h-17.302
			v-3.895h35.096v3.895H223.999z M224.327,107.382c4.592,3.075,10.824,7.708,13.817,10.865l-3.198,2.952
			c-2.747-3.157-8.815-8.036-13.489-11.357L224.327,107.382z"/>
		<path fill="#4C4C4C" d="M255.036,124.562c2.706-0.451,5.453-0.943,8.2-1.436l0.205,3.321c-7.216,1.394-14.924,2.829-20.336,3.854
			l-0.82-3.607c2.46-0.328,5.699-0.861,9.143-1.477v-6.313h-7.749v-3.321h7.749v-4.06h3.608v4.06h7.749v3.321h-7.749V124.562z
			 M242.654,97.009h21.033v3.321H252.74c-1.189,2.378-2.665,4.797-4.182,6.806l9.061-0.697c-0.902-1.312-1.804-2.624-2.706-3.73
			l2.747-1.6c2.214,2.665,4.797,6.355,5.986,8.733l-2.952,1.886c-0.328-0.655-0.697-1.476-1.189-2.255
			c-12.095,1.025-13.653,1.23-14.76,1.682c-0.246-0.779-0.779-2.543-1.23-3.485c0.656-0.164,1.271-0.861,1.968-1.845
			c0.492-0.697,1.886-2.911,3.034-5.494h-5.863V97.009z M269.181,122.675h-3.566V98.074h3.566V122.675z M277.258,95.041v31.734
			c0,2.173-0.492,3.28-1.804,3.854c-1.395,0.615-3.608,0.697-6.684,0.697c-0.164-0.984-0.778-2.706-1.353-3.69
			c2.296,0.082,4.551,0.082,5.207,0.041c0.697,0,0.902-0.204,0.902-0.901V95.041H277.258z"/>
		<path fill="#4C4C4C" d="M107.046,178.868c-6.15,1.436-12.833,2.829-17.589,3.854l-0.738-3.896
			c4.51-0.778,11.439-2.214,17.999-3.566L107.046,178.868z M123.119,161.156c-1.722,5.412-4.059,10.209-7.052,14.31
			c1.312,3.689,2.87,5.903,4.469,5.903c0.984,0,1.476-2.132,1.722-7.421c0.82,0.861,2.214,1.804,3.28,2.214
			c-0.656,7.298-2.009,9.226-5.412,9.226c-2.87,0-5.207-2.419-6.97-6.314c-2.255,2.501-4.838,4.633-7.667,6.396
			c-0.574-0.779-2.091-2.255-2.952-2.993c3.485-1.927,6.56-4.51,9.143-7.585c-1.476-4.756-2.378-10.783-2.87-17.221H88.924v-3.73
			h19.639c-0.123-2.05-0.164-4.142-0.205-6.191h4.1c0,2.091,0,4.182,0.123,6.191h8.118c-1.517-1.271-3.977-2.87-6.109-3.896
			l2.255-2.337c2.337,1.025,5.248,2.747,6.724,4.06l-1.968,2.173h2.993v3.73h-11.808c0.41,4.838,1.025,9.308,1.886,12.997
			c1.927-3.115,3.485-6.642,4.674-10.455L123.119,161.156z M105.611,160.869v12.546H91.097v-12.546H105.611z M101.921,164.108
			h-7.339v6.068h7.339V164.108z"/>
		<path fill="#4C4C4C" d="M152.434,154.351c-0.861,1.394-1.722,2.828-2.706,4.223v26.691h-4.141v-21.525
			c-3.936,4.387-8.692,8.282-13.981,11.07c-0.615-1.025-1.804-2.583-2.624-3.403c7.79-3.813,14.514-10.373,18.45-17.056h-17.302
			v-3.896h35.096v3.896H152.434z M152.762,160.582c4.592,3.075,10.824,7.708,13.817,10.865l-3.198,2.952
			c-2.747-3.157-8.815-8.036-13.489-11.357L152.762,160.582z"/>
		<path fill="#4C4C4C" d="M181.708,167.512c-0.123,0.778-0.205,1.558-0.369,2.337c2.05,2.009,6.765,7.339,7.954,8.691l-2.624,3.28
			c-1.353-2.05-4.1-5.576-6.273-8.077c-1.353,4.224-3.772,8.323-8.118,11.48c-0.533-0.82-1.927-2.337-2.706-2.911
			c5.781-4.101,7.667-9.676,8.282-14.801h-7.79v-3.608h8.036v-1.23v-6.108h-2.501c-0.861,2.255-1.927,4.305-3.034,5.944
			c-0.697-0.655-2.214-1.681-3.116-2.214c2.337-2.993,3.936-7.79,4.879-12.587l3.649,0.697c-0.328,1.558-0.697,3.116-1.107,4.592
			h11.193v3.567h-6.109v6.149c0,0.369,0,0.779,0,1.189h7.257v3.608H181.708z M205.406,151.193v32.472h-3.854v-2.624h-7.462v3.075
			h-3.69v-32.923H205.406z M201.552,177.475v-22.674h-7.462v22.674H201.552z"/>
		<path fill="#4C4C4C" d="M221.519,166.979c-0.779,3.648-1.886,7.503-3.321,10.578c0.738,0.41,1.64,1.106,2.952,1.927
			c2.87,1.722,6.601,1.968,11.398,1.968c5.002,0,11.89-0.369,16.441-0.942c-0.451,1.024-1.066,2.91-1.107,3.936
			c-3.198,0.205-10.701,0.451-15.499,0.451c-5.371,0-8.897-0.451-11.89-2.173c-1.64-0.943-3.116-2.378-4.018-2.378
			c-0.902,0-2.296,2.665-3.444,5.166l-2.583-3.526c1.435-1.845,2.87-3.444,4.141-4.264c1.107-2.215,2.05-5.166,2.706-7.954h-5.248
			c0.984-2.419,2.214-5.74,3.239-8.938h-4.141v-3.444h8.856c-0.902,2.911-2.05,6.273-3.075,9.103h2.296l0.574-0.164L221.519,166.979
			z M215.409,155.662c-0.492-1.804-1.476-4.674-2.132-6.847l3.321-1.025c0.779,2.132,1.722,4.879,2.255,6.643L215.409,155.662z
			 M231.728,158.655c0.246-0.861,0.451-1.804,0.656-2.706h-10.332v-3.116h6.191c-0.533-1.147-1.476-2.706-2.296-3.813l2.993-1.23
			c1.066,1.313,2.255,3.157,2.747,4.305l-1.64,0.738h6.929c1.025-1.517,2.214-3.607,2.829-5.125l3.731,1.025
			c-0.943,1.394-1.886,2.87-2.788,4.1h7.175v3.116h-11.398c-0.369,0.943-0.82,1.845-1.23,2.706h9.307v19.353h-19.311v-19.353
			H231.728z M240.871,161.484h-12.013v2.829h12.013V161.484z M240.871,166.855h-12.013v2.87h12.013V166.855z M240.871,172.309
			h-12.013v2.911h12.013V172.309z"/>
		<path fill="#4C4C4C" d="M269.529,168.208c-2.501,4.06-5.494,7.954-8.323,11.111l18.491-1.188c-1.599-2.297-3.32-4.634-5.002-6.561
			l3.444-1.558c3.648,4.018,7.544,9.389,9.389,13.038l-3.771,1.968c-0.451-1.025-1.107-2.214-1.887-3.485
			c-21.402,1.723-23.903,1.846-25.666,2.542c-0.205-0.819-0.82-2.747-1.312-3.771c0.943-0.246,1.845-1.148,3.034-2.542
			c1.107-1.107,4.264-5.207,6.765-9.554h-12.3v-3.813h16.277v-6.889h-13.079v-3.813h13.079v-6.068h4.019v6.068h13.448v3.813h-13.448
			v6.889h16.441v3.813H269.529z"/>
		<path fill="#4C4C4C" d="M297.122,174.604v3.936h-2.911v-27.101h8.979v23.165H297.122z M297.122,154.924v16.195h3.075v-16.195
			H297.122z M316.843,149.594c0,0,0,1.354-0.041,1.805c-0.082,22.714-0.082,30.094-1.106,31.898
			c-0.697,1.229-1.354,1.599-2.419,1.763c-1.025,0.205-2.338,0.205-3.731,0.123c-0.082-0.943-0.41-2.419-0.902-3.362
			c1.313,0.123,2.419,0.123,3.075,0.123c0.533,0,0.779-0.123,1.107-0.82c0.369-0.778,0.615-3.279,0.737-9.102h-3.566
			c-0.82,4.797-2.46,9.676-5.74,13.407c-0.451-0.697-1.64-1.928-2.296-2.337c2.747-3.239,4.223-7.135,4.961-11.07h-2.419v-3.239
			h2.87c0.246-2.255,0.328-4.428,0.328-6.437h-3.157v-3.239h3.157v-6.273h-3.157v-3.239H316.843z M313.604,168.782
			c0.041-1.886,0.041-4.018,0.082-6.437h-2.91c0,1.968-0.082,4.141-0.328,6.437H313.604z M310.775,159.106h2.91l0.041-6.273h-2.951
			V159.106z M330.168,150.824c-1.024,3.936-2.378,9.143-3.526,12.751c2.461,3.731,2.993,6.929,2.993,9.758
			c0,2.583-0.45,4.47-1.558,5.33c-0.533,0.451-1.189,0.697-2.05,0.82c-0.615,0.082-1.395,0.082-2.255,0.041
			c0-0.861-0.205-2.255-0.697-3.198c0.615,0.041,1.229,0.041,1.681,0.041c0.41-0.041,0.779-0.123,1.066-0.41
			c0.533-0.491,0.656-1.681,0.656-3.115c0-2.42-0.451-5.412-2.87-8.938c0.983-3.321,2.009-7.954,2.706-11.193h-4.06v32.637h-3.198
			v-35.753h8.282l0.492-0.123L330.168,150.824z"/>
		<path fill="#4C4C4C" d="M345.625,158.45c0-2.255-1.436-3.977-4.019-3.977c-1.927,0-3.607,0.983-4.961,2.501l-2.665-2.42
			c2.01-2.296,4.757-3.936,8.159-3.936c4.756,0,8.077,2.706,8.077,7.503c0,5.986-7.298,8.2-6.601,14.31h-4.142
			C338.491,165.543,345.625,162.919,345.625,158.45z M338.45,179.319c0-1.927,1.353-3.362,3.156-3.362
			c1.764,0,3.157,1.436,3.157,3.362s-1.394,3.28-3.157,3.28C339.803,182.6,338.45,181.246,338.45,179.319z"/>
		<path fill="#4C4C4C" d="M49.462,210.789H36.424v-3.074h13.038V210.789z M48.396,236.21h-7.831v1.804h-2.747v-13.776h10.578V236.21
			z M48.273,216.201H38.063v-2.993h10.209V216.201z M38.063,218.661h10.209v2.993H38.063V218.661z M42.492,207.633
			c-0.328-1.436-1.271-3.813-2.214-5.535l2.747-0.984c0.984,1.681,1.968,3.977,2.337,5.412L42.492,207.633z M40.565,227.23v5.986
			h5.002v-5.986H40.565z M73.406,230.388c-1.353,0.942-3.034,1.845-4.51,2.542c1.558,1.229,3.485,2.173,5.699,2.706
			c-0.697,0.656-1.599,1.886-2.009,2.747c-5.371-1.682-8.856-5.289-10.824-10.25h-0.574c-0.902,0.901-2.05,1.681-3.239,2.46v3.771
			l5.494-1.024c-0.041,0.901,0.041,2.132,0.123,2.87c-6.847,1.435-7.995,1.845-8.733,2.255c-0.287-0.656-1.066-1.764-1.599-2.296
			c0.697-0.492,1.763-1.641,1.763-3.567v-0.451c-1.394,0.656-2.911,1.189-4.305,1.682c-0.328-0.615-1.271-1.887-1.845-2.461
			c2.87-0.737,5.822-1.845,8.118-3.238h-7.339v-2.706h6.027v-1.805h-4.141v-2.46h4.141v-1.763h-4.797v-2.419h4.797v-2.05h-4.059
			v-6.971h9.348v6.971h-1.886v2.05h5.371v-2.05h-1.599v-6.971h9.512v6.971h-4.51v2.05h5.289v2.419H67.83v1.763h4.633v2.46H67.83
			v1.805h6.191v2.706H64.96c0.533,1.065,1.23,2.091,2.009,3.034c1.517-0.861,3.321-1.969,4.428-2.706L73.406,230.388z
			 M73.57,206.566H50.118v-2.829h10.086c-0.328-0.82-0.738-1.64-1.107-2.378l3.157-0.943c0.656,0.984,1.271,2.296,1.681,3.321h9.635
			V206.566z M54.423,212.799h3.526v-2.665h-3.526V212.799z M59.056,221.162h5.371v-1.763h-5.371V221.162z M59.056,225.427h5.371
			v-1.805h-5.371V225.427z M65.657,212.799h3.69v-2.665h-3.69V212.799z"/>
		<path fill="#4C4C4C" d="M98.211,200.99c-0.041,1.558-0.082,3.69-0.287,6.109c0.574,5.125,3.075,21.484,17.384,27.839
			c-1.107,0.861-2.255,2.214-2.788,3.239c-9.635-4.551-14.104-13.571-16.277-20.91c-2.05,7.708-6.396,15.99-15.662,21.115
			c-0.656-0.984-1.886-2.214-3.157-3.034c16.769-8.692,16.318-27.798,16.441-34.358H98.211z"/>
		<path fill="#4C4C4C" d="M148.805,212.553c-1.927,2.993-4.633,5.576-7.791,7.749c4.469,1.845,9.676,3.075,15.252,3.73
			c-0.82,0.902-1.927,2.583-2.46,3.649c-1.722-0.246-3.403-0.574-5.043-0.984v11.686h-3.936v-1.23h-15.047v1.313h-3.731v-11.521
			c-1.968,0.574-3.977,1.025-5.945,1.395c-0.328-0.984-1.148-2.501-1.804-3.362c5.248-0.861,10.701-2.378,15.375-4.592
			c-1.681-1.189-3.239-2.501-4.633-3.937c-1.681,1.23-3.608,2.378-5.781,3.403c-0.492-0.861-1.681-2.214-2.501-2.829
			c5.617-2.296,9.512-5.699,11.562-8.774l4.059,0.779c-0.492,0.738-1.066,1.394-1.64,2.091h10.824l0.615-0.164L148.805,212.553z
			 M123.713,212.594h-3.731v-8.159h15.744c-0.533-1.025-1.107-2.091-1.599-3.034l3.772-0.902c0.697,1.148,1.599,2.665,2.214,3.937
			h14.391v8.159h-3.854v-4.716h-26.937V212.594z M145.73,225.919c-3.075-0.902-5.863-2.01-8.487-3.362
			c-2.46,1.312-5.084,2.419-7.872,3.362H145.73z M144.828,233.995v-4.92h-15.047v4.92H144.828z M131.749,214.274
			c1.476,1.558,3.362,2.952,5.576,4.223c2.214-1.353,4.141-2.788,5.658-4.428h-10.988L131.749,214.274z"/>
		<path fill="#4C4C4C" d="M194.684,227.969c-2.091,1.435-4.633,2.87-6.929,3.895c2.583,1.477,5.699,2.542,9.307,3.116
			c-0.779,0.697-1.64,2.091-2.132,3.034c-8.2-1.599-13.571-5.453-16.646-11.768c-1.845,1.395-4.1,2.706-6.601,3.813v4.264
			l8.569-1.804c-0.123,0.861-0.205,2.173-0.164,2.829c-10.291,2.419-11.603,2.788-12.423,3.321v-0.287
			c-0.246-0.82-0.82-1.968-1.23-2.501c0.697-0.451,1.763-1.354,1.763-3.321v-1.148c-2.214,0.82-4.51,1.436-6.724,1.846
			c-0.451-0.779-1.353-2.091-2.05-2.747c4.92-0.779,10.25-2.419,14.022-4.51h-13.325v-3.034h16.892
			c-0.328-0.82-0.738-1.641-1.148-2.378l0.779-0.205c-0.656,0.041-1.353,0.041-2.214,0.041c-0.164-0.779-0.615-1.682-0.984-2.337
			c1.189,0.041,2.173,0.041,2.501,0.041c0.369-0.041,0.451-0.123,0.451-0.451v-2.419h-4.264v6.396h-3.28v-6.396h-4.018v5.371h-2.993
			v-7.831h7.011v-1.805h-8.897v-2.665h2.706c-0.656-0.451-1.763-1.024-2.378-1.271c1.394-1.641,2.542-3.896,3.239-6.109l2.911,0.738
			c-0.246,0.656-0.492,1.312-0.738,1.968h3.157v-2.788h3.28v2.788h6.97v2.583h-6.97v2.091h8.241v2.665h-8.241v1.805h7.38v4.838
			c0,1.147-0.164,1.722-0.779,2.173l0.697-0.205c0.615,1.025,1.271,2.255,1.722,3.362h15.252v3.034h-14.678
			c0.943,1.517,2.091,2.91,3.485,4.059c2.337-1.148,5.002-2.829,6.724-4.059L194.684,227.969z M168.854,208.329v-2.091h-4.469
			c-0.451,0.779-0.943,1.477-1.353,2.091H168.854z M186.648,216.324h-3.444v-13.407h3.444V216.324z M194.438,217.801
			c0,1.804-0.369,2.665-1.64,3.115c-1.23,0.533-3.157,0.574-6.027,0.574c-0.164-0.901-0.697-2.214-1.148-3.075
			c2.05,0.082,4.018,0.082,4.592,0.041c0.615,0,0.779-0.164,0.779-0.696v-16.523h3.444V217.801z"/>
		<path fill="#4C4C4C" d="M214.569,202.221c-1.107,2.624-2.501,5.248-4.018,7.749v28.495h-3.608v-23.247
			c-1.558,2.05-3.198,3.895-4.879,5.453c-0.328-0.902-1.394-2.952-2.091-3.854c4.346-3.731,8.569-9.676,11.111-15.744
			L214.569,202.221z M231.338,233.873c2.214,0,2.583-1.723,2.911-8.61c0.902,0.697,2.46,1.435,3.444,1.681
			c-0.533,7.667-1.476,10.373-6.109,10.373h-7.339c-4.51,0-5.781-1.353-5.781-6.272v-29.479h3.649v10.824h14.432v3.648h-14.432
			v15.089c0,2.296,0.41,2.747,2.46,2.747H231.338z"/>
		<path fill="#4C4C4C" d="M253.806,202.139c-1.107,2.911-2.501,5.821-4.059,8.609v27.717h-3.608v-22.059
			c-1.148,1.6-2.337,3.034-3.526,4.306c-0.369-0.943-1.476-2.993-2.091-3.854c3.854-3.813,7.503-9.799,9.717-15.785L253.806,202.139
			z M268.156,212.02v22.058c0,1.969-0.41,3.075-1.641,3.731c-1.229,0.615-3.075,0.738-5.658,0.738
			c-0.164-1.066-0.779-2.788-1.353-3.813c1.845,0.041,3.608,0.041,4.141,0c0.533,0,0.738-0.123,0.738-0.656V212.02h-5.535
			c-1.23,2.583-2.542,4.879-3.936,6.724c-0.697-0.696-2.214-1.927-3.116-2.501c3.075-3.607,5.412-9.389,6.806-15.17l3.772,0.82
			c-0.574,2.255-1.271,4.469-2.091,6.601h15.499l0.615-0.123l2.665,0.533c-0.533,3.116-1.271,6.724-1.805,9.021l-3.239-0.615
			c0.287-1.395,0.574-3.321,0.82-5.289H268.156z M261.432,219.317c-1.23,5.289-3.362,10.455-5.781,13.817
			c-0.697-0.615-2.378-1.6-3.239-2.05c2.419-3.034,4.264-7.749,5.289-12.465L261.432,219.317z M273.854,218.251
			c2.256,4.265,4.183,9.759,4.839,13.448l-3.649,1.313c-0.574-3.69-2.46-9.39-4.592-13.653L273.854,218.251z"/>
		<path fill="#4C4C4C" d="M318.873,207.223c0,0,0,1.312-0.041,1.804c-0.573,18.491-1.065,24.847-2.705,26.896
			c-1.025,1.353-2.01,1.722-3.567,1.927c-1.436,0.164-3.854,0.123-6.191,0c-0.082-1.025-0.533-2.624-1.229-3.69
			c2.624,0.205,5.002,0.246,6.026,0.246c0.82,0,1.271-0.123,1.723-0.696c1.312-1.354,1.845-7.545,2.378-23.002h-9.676
			c-1.148,2.624-2.42,5.002-3.731,6.889c-0.615-0.574-2.05-1.6-2.993-2.132v18.818h-11.111v3.116h-3.484v-29.971h4.592
			c0.574-1.969,1.188-4.675,1.435-6.643l4.142,0.697c-0.697,2.05-1.477,4.223-2.132,5.945h6.56v7.749
			c2.706-3.526,4.879-8.979,6.109-14.392l3.689,0.861c-0.491,1.886-1.024,3.771-1.681,5.576H318.873z M287.754,210.748v7.79h7.626
			v-7.79H287.754z M295.38,230.921v-9.062h-7.626v9.062H295.38z M309.033,227.723c-1.147-2.501-3.813-6.52-5.985-9.472l2.992-1.681
			c2.174,2.829,4.961,6.725,6.191,9.144L309.033,227.723z"/>
		<path fill="#4C4C4C" d="M337.774,210.953c-1.271,2.091-2.788,4.224-4.469,6.273v21.361h-3.813v-17.139
			c-1.353,1.354-2.747,2.624-4.059,3.69c-0.492-0.82-1.846-2.501-2.624-3.239c4.182-2.993,8.609-7.667,11.356-12.3L337.774,210.953z
			 M336.216,202.344c-2.787,3.648-7.052,7.708-10.823,10.373c-0.451-0.861-1.477-2.338-2.174-3.075
			c3.403-2.214,7.34-5.863,9.349-8.815L336.216,202.344z M360.816,218.088h-5.904v15.785c0,2.173-0.491,3.279-2.05,3.895
			c-1.517,0.574-3.936,0.615-7.749,0.615c-0.164-1.107-0.697-2.706-1.229-3.813c2.624,0.082,5.371,0.082,6.108,0.041
			c0.779,0,1.025-0.205,1.025-0.778v-15.744h-12.956v-3.649h22.755V218.088z M359.669,206.895h-19.886v-3.649h19.886V206.895z"/>
		<path fill="#4C4C4C" d="M377.012,226.533c-0.533-1.271-1.764-3.525-2.87-5.494v17.508h-3.608v-17.016
			c-1.353,3.937-3.034,7.749-4.838,10.209c-0.287-1.065-1.189-2.747-1.763-3.73c2.132-2.788,4.387-7.667,5.698-12.014h-5.084v-3.525
			h5.986v-5.822c-1.517,0.287-3.034,0.533-4.469,0.738c-0.164-0.82-0.574-2.133-1.025-2.952c4.101-0.779,8.733-1.928,11.563-3.28
			l2.132,3.116c-1.354,0.574-2.952,1.024-4.592,1.476v6.725h4.961v3.525h-4.961v0.861c1.106,1.313,4.305,5.535,5.002,6.561
			L377.012,226.533z M401.816,234.2v3.403h-23.452V234.2h10.168v-4.715h-7.995v-3.28h7.995v-4.223
			c-2.296,0.246-4.633,0.41-6.765,0.492c-0.041-0.82-0.533-2.132-0.902-2.952c5.74-0.369,12.505-1.107,16.4-2.255l2.419,2.87
			c-2.091,0.574-4.674,1.024-7.38,1.394v4.674h7.872v3.28h-7.872v4.715H401.816z M399.726,216.201h-18.901v-13.366h18.901V216.201z
			 M396.035,206.074h-11.644v6.889h11.644V206.074z"/>
	</g>
	<g>
		<g>
			<path fill="#FFFFFF" d="M173.777,115.052c-1.681,0.492-3.403,1.025-5.125,1.517v10.742c0,1.969-0.41,2.952-1.599,3.485
				c-1.189,0.615-3.034,0.697-5.822,0.697c-0.123-0.943-0.656-2.501-1.107-3.444c1.763,0.041,3.526,0.041,4.018,0.041
				c0.574-0.041,0.779-0.205,0.779-0.819v-9.677l-4.961,1.353l-1.025-3.649c1.681-0.41,3.731-0.861,5.986-1.476v-8.077h-5.453
				v-3.526h5.453v-7.995h3.731v7.995h4.715v3.526h-4.715v7.093c1.517-0.41,3.116-0.82,4.674-1.271L173.777,115.052z
				 M194.195,111.116c-1.681,3.772-4.223,7.462-7.216,10.701c1.313,3.116,2.993,5.002,5.002,5.249
				c1.025,0.082,1.64-2.051,1.968-6.479c0.738,0.861,2.419,1.804,3.198,2.173c-0.984,7.012-2.829,9.021-5.002,8.815
				c-3.608-0.328-6.273-2.747-8.241-6.766c-2.624,2.297-5.535,4.265-8.487,5.658c-0.738-0.983-1.968-2.214-3.075-2.993
				c3.649-1.435,7.093-3.689,10.086-6.478c-1.107-3.485-1.886-7.708-2.501-12.546l-5.74,0.574l-0.369-3.649l5.781-0.533
				c-0.287-3.321-0.492-6.806-0.656-10.455h3.854c0.123,3.526,0.287,6.888,0.615,10.045l12.382-1.271l0.369,3.608l-12.382,1.271
				c0.451,3.69,1.066,6.97,1.845,9.758c2.255-2.706,4.182-5.617,5.494-8.61L194.195,111.116z M190.423,102.958
				c-1.066-1.722-3.485-4.305-5.371-6.109l2.87-1.886c1.927,1.722,4.387,4.223,5.617,5.822L190.423,102.958z"/>
			<path fill="#FFFFFF" d="M223.715,100.866c-0.861,1.394-1.722,2.829-2.706,4.223v26.691h-4.141v-21.525
				c-3.936,4.387-8.692,8.282-13.981,11.07c-0.615-1.025-1.804-2.583-2.624-3.403c7.79-3.813,14.514-10.373,18.45-17.056h-17.302
				v-3.895h35.096v3.895H223.715z M224.043,107.098c4.592,3.075,10.824,7.708,13.817,10.865l-3.198,2.952
				c-2.747-3.157-8.815-8.036-13.489-11.357L224.043,107.098z"/>
			<path fill="#FFFFFF" d="M254.752,124.278c2.706-0.451,5.453-0.943,8.2-1.436l0.205,3.321c-7.216,1.394-14.924,2.829-20.336,3.854
				l-0.82-3.607c2.46-0.328,5.699-0.861,9.143-1.477v-6.313h-7.749v-3.321h7.749v-4.059h3.608v4.059h7.749v3.321h-7.749V124.278z
				 M242.37,96.725h21.033v3.321h-10.947c-1.189,2.378-2.665,4.797-4.182,6.806l9.061-0.697c-0.902-1.312-1.804-2.624-2.706-3.731
				l2.747-1.599c2.214,2.665,4.797,6.355,5.986,8.733l-2.952,1.886c-0.328-0.656-0.697-1.476-1.189-2.255
				c-12.095,1.025-13.653,1.23-14.76,1.681c-0.246-0.779-0.779-2.542-1.23-3.485c0.656-0.164,1.271-0.861,1.968-1.845
				c0.492-0.697,1.886-2.911,3.034-5.494h-5.863V96.725z M268.897,122.391h-3.566v-24.6h3.566V122.391z M276.974,94.757v31.734
				c0,2.173-0.492,3.28-1.804,3.854c-1.395,0.615-3.608,0.697-6.684,0.697c-0.164-0.984-0.778-2.706-1.353-3.69
				c2.296,0.082,4.551,0.082,5.207,0.041c0.697,0,0.902-0.204,0.902-0.901V94.757H276.974z"/>
			<path fill="#FFFFFF" d="M106.763,178.584c-6.15,1.436-12.833,2.829-17.589,3.854l-0.738-3.896
				c4.51-0.778,11.439-2.214,17.999-3.566L106.763,178.584z M122.835,160.873c-1.722,5.412-4.059,10.209-7.052,14.31
				c1.312,3.689,2.87,5.903,4.469,5.903c0.984,0,1.476-2.132,1.722-7.421c0.82,0.861,2.214,1.804,3.28,2.214
				c-0.656,7.298-2.009,9.226-5.412,9.226c-2.87,0-5.207-2.419-6.97-6.314c-2.255,2.501-4.838,4.633-7.667,6.396
				c-0.574-0.779-2.091-2.255-2.952-2.993c3.485-1.927,6.56-4.51,9.143-7.585c-1.476-4.756-2.378-10.783-2.87-17.221H88.641v-3.73
				h19.639c-0.123-2.05-0.164-4.142-0.205-6.191h4.1c0,2.091,0,4.182,0.123,6.191h8.118c-1.517-1.271-3.977-2.87-6.109-3.896
				l2.255-2.337c2.337,1.025,5.248,2.747,6.724,4.06l-1.968,2.173h2.993v3.73h-11.808c0.41,4.838,1.025,9.308,1.886,12.997
				c1.927-3.115,3.485-6.642,4.674-10.455L122.835,160.873z M105.328,160.585v12.546H90.813v-12.546H105.328z M101.638,163.825
				h-7.339v6.068h7.339V163.825z"/>
			<path fill="#FFFFFF" d="M152.15,154.067c-0.861,1.394-1.722,2.828-2.706,4.223v26.691h-4.141v-21.525
				c-3.936,4.387-8.692,8.282-13.981,11.07c-0.615-1.025-1.804-2.583-2.624-3.403c7.79-3.813,14.514-10.373,18.45-17.056h-17.302
				v-3.896h35.096v3.896H152.15z M152.478,160.298c4.592,3.075,10.824,7.708,13.817,10.865l-3.198,2.952
				c-2.747-3.157-8.815-8.036-13.489-11.357L152.478,160.298z"/>
			<path fill="#FFFFFF" d="M181.424,167.228c-0.123,0.778-0.205,1.558-0.369,2.337c2.05,2.009,6.765,7.339,7.954,8.691l-2.624,3.28
				c-1.353-2.05-4.1-5.576-6.273-8.077c-1.353,4.224-3.772,8.323-8.118,11.48c-0.533-0.82-1.927-2.337-2.706-2.911
				c5.781-4.101,7.667-9.676,8.282-14.801h-7.79v-3.608h8.036v-1.23v-6.108h-2.501c-0.861,2.255-1.927,4.305-3.034,5.944
				c-0.697-0.655-2.214-1.681-3.116-2.214c2.337-2.993,3.936-7.79,4.879-12.587l3.649,0.697c-0.328,1.558-0.697,3.116-1.107,4.592
				h11.193v3.567h-6.109v6.149c0,0.369,0,0.779,0,1.189h7.257v3.608H181.424z M205.122,150.91v32.472h-3.854v-2.624h-7.462v3.075
				h-3.69V150.91H205.122z M201.268,177.191v-22.674h-7.462v22.674H201.268z"/>
			<path fill="#FFFFFF" d="M221.235,166.695c-0.779,3.648-1.886,7.503-3.321,10.578c0.738,0.41,1.64,1.106,2.952,1.927
				c2.87,1.722,6.601,1.968,11.398,1.968c5.002,0,11.89-0.369,16.441-0.942c-0.451,1.024-1.066,2.91-1.107,3.936
				c-3.198,0.205-10.701,0.451-15.499,0.451c-5.371,0-8.897-0.451-11.89-2.173c-1.64-0.943-3.116-2.378-4.018-2.378
				c-0.902,0-2.296,2.665-3.444,5.166l-2.583-3.526c1.435-1.845,2.87-3.444,4.141-4.264c1.107-2.215,2.05-5.166,2.706-7.954h-5.248
				c0.984-2.419,2.214-5.74,3.239-8.938h-4.141V157.1h8.856c-0.902,2.911-2.05,6.273-3.075,9.103h2.296l0.574-0.164L221.235,166.695
				z M215.125,155.378c-0.492-1.804-1.476-4.674-2.132-6.847l3.321-1.025c0.779,2.132,1.722,4.879,2.255,6.643L215.125,155.378z
				 M231.444,158.372c0.246-0.861,0.451-1.804,0.656-2.706h-10.332v-3.116h6.191c-0.533-1.147-1.476-2.706-2.296-3.813l2.993-1.23
				c1.066,1.313,2.255,3.157,2.747,4.305l-1.64,0.738h6.929c1.025-1.517,2.214-3.607,2.829-5.125l3.731,1.025
				c-0.943,1.394-1.886,2.87-2.788,4.1h7.175v3.116h-11.398c-0.369,0.943-0.82,1.845-1.23,2.706h9.307v19.353h-19.311v-19.353
				H231.444z M240.587,161.201h-12.013v2.829h12.013V161.201z M240.587,166.572h-12.013v2.87h12.013V166.572z M240.587,172.025
				h-12.013v2.911h12.013V172.025z"/>
			<path fill="#FFFFFF" d="M269.246,167.924c-2.501,4.06-5.494,7.954-8.323,11.111l18.491-1.188
				c-1.599-2.297-3.32-4.634-5.002-6.561l3.444-1.558c3.648,4.018,7.544,9.389,9.389,13.038l-3.771,1.968
				c-0.451-1.025-1.107-2.214-1.887-3.485c-21.402,1.723-23.903,1.846-25.666,2.542c-0.205-0.819-0.82-2.747-1.312-3.771
				c0.943-0.246,1.845-1.148,3.034-2.542c1.107-1.107,4.264-5.207,6.765-9.554h-12.3v-3.813h16.277v-6.889h-13.079v-3.813h13.079
				v-6.068h4.019v6.068h13.448v3.813h-13.448v6.889h16.441v3.813H269.246z"/>
			<path fill="#FFFFFF" d="M296.838,174.321v3.936h-2.911v-27.101h8.979v23.165H296.838z M296.838,154.64v16.195h3.075V154.64
				H296.838z M316.559,149.31c0,0,0,1.354-0.041,1.805c-0.082,22.714-0.082,30.094-1.106,31.898
				c-0.697,1.229-1.354,1.599-2.419,1.763c-1.025,0.205-2.338,0.205-3.731,0.123c-0.082-0.943-0.41-2.419-0.902-3.362
				c1.313,0.123,2.419,0.123,3.075,0.123c0.533,0,0.779-0.123,1.107-0.82c0.369-0.778,0.615-3.279,0.737-9.102h-3.566
				c-0.82,4.797-2.46,9.676-5.74,13.407c-0.451-0.697-1.64-1.928-2.296-2.337c2.747-3.239,4.223-7.135,4.961-11.07h-2.419v-3.239
				h2.87c0.246-2.255,0.328-4.428,0.328-6.437h-3.157v-3.239h3.157v-6.273h-3.157v-3.239H316.559z M313.32,168.499
				c0.041-1.886,0.041-4.018,0.082-6.437h-2.91c0,1.968-0.082,4.141-0.328,6.437H313.32z M310.492,158.823h2.91l0.041-6.273h-2.951
				V158.823z M329.884,150.541c-1.024,3.936-2.378,9.143-3.526,12.751c2.461,3.731,2.993,6.929,2.993,9.758
				c0,2.583-0.45,4.47-1.558,5.33c-0.533,0.451-1.189,0.697-2.05,0.82c-0.615,0.082-1.395,0.082-2.255,0.041
				c0-0.861-0.205-2.255-0.697-3.198c0.615,0.041,1.229,0.041,1.681,0.041c0.41-0.041,0.779-0.123,1.066-0.41
				c0.533-0.491,0.656-1.681,0.656-3.115c0-2.42-0.451-5.412-2.87-8.938c0.983-3.321,2.009-7.954,2.706-11.193h-4.06v32.637h-3.198
				V149.31h8.282l0.492-0.123L329.884,150.541z"/>
			<path fill="#FFFFFF" d="M345.341,158.167c0-2.255-1.436-3.977-4.019-3.977c-1.927,0-3.607,0.983-4.961,2.501l-2.665-2.42
				c2.01-2.296,4.757-3.936,8.159-3.936c4.756,0,8.077,2.706,8.077,7.503c0,5.986-7.298,8.2-6.601,14.31h-4.142
				C338.208,165.259,345.341,162.635,345.341,158.167z M338.167,179.036c0-1.927,1.353-3.362,3.156-3.362
				c1.764,0,3.157,1.436,3.157,3.362s-1.394,3.28-3.157,3.28C339.519,182.316,338.167,180.962,338.167,179.036z"/>
			<path fill="#FFFFFF" d="M49.178,210.505H36.14v-3.074h13.038V210.505z M48.112,235.926h-7.831v1.804h-2.747v-13.776h10.578
				V235.926z M47.989,215.917H37.78v-2.993h10.209V215.917z M37.78,218.377h10.209v2.993H37.78V218.377z M42.208,207.349
				c-0.328-1.436-1.271-3.813-2.214-5.535l2.747-0.984c0.984,1.681,1.968,3.977,2.337,5.412L42.208,207.349z M40.281,226.947v5.986
				h5.002v-5.986H40.281z M73.123,230.104c-1.353,0.942-3.034,1.845-4.51,2.542c1.558,1.229,3.485,2.173,5.699,2.706
				c-0.697,0.656-1.599,1.886-2.009,2.747c-5.371-1.682-8.856-5.289-10.824-10.25h-0.574c-0.902,0.901-2.05,1.681-3.239,2.46v3.771
				l5.494-1.024c-0.041,0.901,0.041,2.132,0.123,2.87c-6.847,1.435-7.995,1.845-8.733,2.255c-0.287-0.656-1.066-1.764-1.599-2.296
				c0.697-0.492,1.763-1.641,1.763-3.567v-0.451c-1.394,0.656-2.911,1.189-4.305,1.682c-0.328-0.615-1.271-1.887-1.845-2.461
				c2.87-0.737,5.822-1.845,8.118-3.238h-7.339v-2.706h6.027v-1.805h-4.141v-2.46h4.141v-1.763h-4.797v-2.419h4.797v-2.05H51.31
				v-6.971h9.348v6.971h-1.886v2.05h5.371v-2.05h-1.599v-6.971h9.512v6.971h-4.51v2.05h5.289v2.419h-5.289v1.763h4.633v2.46h-4.633
				v1.805h6.191v2.706h-9.061c0.533,1.065,1.23,2.091,2.009,3.034c1.517-0.861,3.321-1.969,4.428-2.706L73.123,230.104z
				 M73.286,206.283H49.834v-2.829H59.92c-0.328-0.82-0.738-1.64-1.107-2.378l3.157-0.943c0.656,0.984,1.271,2.296,1.681,3.321
				h9.635V206.283z M54.139,212.515h3.526v-2.665h-3.526V212.515z M58.772,220.878h5.371v-1.763h-5.371V220.878z M58.772,225.143
				h5.371v-1.805h-5.371V225.143z M65.373,212.515h3.69v-2.665h-3.69V212.515z"/>
			<path fill="#FFFFFF" d="M97.927,200.707c-0.041,1.558-0.082,3.69-0.287,6.109c0.574,5.125,3.075,21.484,17.384,27.839
				c-1.107,0.861-2.255,2.214-2.788,3.239c-9.635-4.551-14.104-13.571-16.277-20.91c-2.05,7.708-6.396,15.99-15.662,21.115
				c-0.656-0.984-1.886-2.214-3.157-3.034c16.769-8.692,16.318-27.798,16.441-34.358H97.927z"/>
			<path fill="#FFFFFF" d="M148.521,212.269c-1.927,2.993-4.633,5.576-7.791,7.749c4.469,1.845,9.676,3.075,15.252,3.73
				c-0.82,0.902-1.927,2.583-2.46,3.649c-1.722-0.246-3.403-0.574-5.043-0.984v11.686h-3.936v-1.23h-15.047v1.313h-3.731V226.66
				c-1.968,0.574-3.977,1.025-5.945,1.395c-0.328-0.984-1.148-2.501-1.804-3.362c5.248-0.861,10.701-2.378,15.375-4.592
				c-1.681-1.189-3.239-2.501-4.633-3.937c-1.681,1.23-3.608,2.378-5.781,3.403c-0.492-0.861-1.681-2.214-2.501-2.829
				c5.617-2.296,9.512-5.699,11.562-8.774l4.059,0.779c-0.492,0.738-1.066,1.394-1.64,2.091h10.824l0.615-0.164L148.521,212.269z
				 M123.429,212.31h-3.731v-8.159h15.744c-0.533-1.025-1.107-2.091-1.599-3.034l3.772-0.902c0.697,1.148,1.599,2.665,2.214,3.937
				h14.391v8.159h-3.854v-4.716h-26.937V212.31z M145.446,225.635c-3.075-0.902-5.863-2.01-8.487-3.362
				c-2.46,1.312-5.084,2.419-7.872,3.362H145.446z M144.544,233.711v-4.92h-15.047v4.92H144.544z M131.465,213.991
				c1.476,1.558,3.362,2.952,5.576,4.223c2.214-1.353,4.141-2.788,5.658-4.428h-10.988L131.465,213.991z"/>
			<path fill="#FFFFFF" d="M194.4,227.685c-2.091,1.435-4.633,2.87-6.929,3.895c2.583,1.477,5.699,2.542,9.307,3.116
				c-0.779,0.697-1.64,2.091-2.132,3.034c-8.2-1.599-13.571-5.453-16.646-11.768c-1.845,1.395-4.1,2.706-6.601,3.813v4.264
				l8.569-1.804c-0.123,0.861-0.205,2.173-0.164,2.829c-10.291,2.419-11.603,2.788-12.423,3.321v-0.287
				c-0.246-0.82-0.82-1.968-1.23-2.501c0.697-0.451,1.763-1.354,1.763-3.321v-1.148c-2.214,0.82-4.51,1.436-6.724,1.846
				c-0.451-0.779-1.353-2.091-2.05-2.747c4.92-0.779,10.25-2.419,14.022-4.51h-13.325v-3.034h16.892
				c-0.328-0.82-0.738-1.641-1.148-2.378l0.779-0.205c-0.656,0.041-1.353,0.041-2.214,0.041c-0.164-0.779-0.615-1.682-0.984-2.337
				c1.189,0.041,2.173,0.041,2.501,0.041c0.369-0.041,0.451-0.123,0.451-0.451v-2.419h-4.264v6.396h-3.28v-6.396h-4.018v5.371
				h-2.993v-7.831h7.011v-1.805h-8.897v-2.665h2.706c-0.656-0.451-1.763-1.024-2.378-1.271c1.394-1.641,2.542-3.896,3.239-6.109
				l2.911,0.738c-0.246,0.656-0.492,1.312-0.738,1.968h3.157v-2.788h3.28v2.788h6.97v2.583h-6.97v2.091h8.241v2.665h-8.241v1.805
				h7.38v4.838c0,1.147-0.164,1.722-0.779,2.173l0.697-0.205c0.615,1.025,1.271,2.255,1.722,3.362h15.252v3.034h-14.678
				c0.943,1.517,2.091,2.91,3.485,4.059c2.337-1.148,5.002-2.829,6.724-4.059L194.4,227.685z M168.57,208.045v-2.091h-4.469
				c-0.451,0.779-0.943,1.477-1.353,2.091H168.57z M186.364,216.041h-3.444v-13.407h3.444V216.041z M194.154,217.517
				c0,1.804-0.369,2.665-1.64,3.115c-1.23,0.533-3.157,0.574-6.027,0.574c-0.164-0.901-0.697-2.214-1.148-3.075
				c2.05,0.082,4.018,0.082,4.592,0.041c0.615,0,0.779-0.164,0.779-0.696v-16.523h3.444V217.517z"/>
			<path fill="#FFFFFF" d="M214.285,201.937c-1.107,2.624-2.501,5.248-4.018,7.749v28.495h-3.608v-23.247
				c-1.558,2.05-3.198,3.895-4.879,5.453c-0.328-0.902-1.394-2.952-2.091-3.854c4.346-3.731,8.569-9.676,11.111-15.744
				L214.285,201.937z M231.054,233.589c2.214,0,2.583-1.723,2.911-8.61c0.902,0.697,2.46,1.435,3.444,1.681
				c-0.533,7.667-1.476,10.373-6.109,10.373h-7.339c-4.51,0-5.781-1.353-5.781-6.272v-29.479h3.649v10.824h14.432v3.648h-14.432
				v15.089c0,2.296,0.41,2.747,2.46,2.747H231.054z"/>
			<path fill="#FFFFFF" d="M253.522,201.855c-1.107,2.911-2.501,5.821-4.059,8.609v27.717h-3.608v-22.059
				c-1.148,1.6-2.337,3.034-3.526,4.306c-0.369-0.943-1.476-2.993-2.091-3.854c3.854-3.813,7.503-9.799,9.717-15.785
				L253.522,201.855z M267.873,211.736v22.058c0,1.969-0.41,3.075-1.641,3.731c-1.229,0.615-3.075,0.738-5.658,0.738
				c-0.164-1.066-0.779-2.788-1.353-3.813c1.845,0.041,3.608,0.041,4.141,0c0.533,0,0.738-0.123,0.738-0.656v-22.058h-5.535
				c-1.23,2.583-2.542,4.879-3.936,6.724c-0.697-0.696-2.214-1.927-3.116-2.501c3.075-3.607,5.412-9.389,6.806-15.17l3.772,0.82
				c-0.574,2.255-1.271,4.469-2.091,6.601h15.499l0.615-0.123l2.665,0.533c-0.533,3.116-1.271,6.724-1.805,9.021l-3.239-0.615
				c0.287-1.395,0.574-3.321,0.82-5.289H267.873z M261.148,219.034c-1.23,5.289-3.362,10.455-5.781,13.817
				c-0.697-0.615-2.378-1.6-3.239-2.05c2.419-3.034,4.264-7.749,5.289-12.465L261.148,219.034z M273.571,217.967
				c2.256,4.265,4.183,9.759,4.839,13.448l-3.649,1.313c-0.574-3.69-2.46-9.39-4.592-13.653L273.571,217.967z"/>
			<path fill="#FFFFFF" d="M318.589,206.939c0,0,0,1.312-0.041,1.804c-0.573,18.491-1.065,24.847-2.705,26.896
				c-1.025,1.353-2.01,1.722-3.567,1.927c-1.436,0.164-3.854,0.123-6.191,0c-0.082-1.025-0.533-2.624-1.229-3.69
				c2.624,0.205,5.002,0.246,6.026,0.246c0.82,0,1.271-0.123,1.723-0.696c1.312-1.354,1.845-7.545,2.378-23.002h-9.676
				c-1.148,2.624-2.42,5.002-3.731,6.889c-0.615-0.574-2.05-1.6-2.993-2.132v18.818H287.47v3.116h-3.484v-29.971h4.592
				c0.574-1.969,1.188-4.675,1.435-6.643l4.142,0.697c-0.697,2.05-1.477,4.223-2.132,5.945h6.56v7.749
				c2.706-3.526,4.879-8.979,6.109-14.392l3.689,0.861c-0.491,1.886-1.024,3.771-1.681,5.576H318.589z M287.47,210.464v7.79h7.626
				v-7.79H287.47z M295.096,230.637v-9.062h-7.626v9.062H295.096z M308.75,227.439c-1.147-2.501-3.813-6.52-5.985-9.472l2.992-1.681
				c2.174,2.829,4.961,6.725,6.191,9.144L308.75,227.439z"/>
			<path fill="#FFFFFF" d="M337.491,210.669c-1.271,2.091-2.788,4.224-4.469,6.273v21.361h-3.813v-17.139
				c-1.353,1.354-2.747,2.624-4.059,3.69c-0.492-0.82-1.846-2.501-2.624-3.239c4.182-2.993,8.609-7.667,11.356-12.3L337.491,210.669
				z M335.932,202.06c-2.787,3.648-7.052,7.708-10.823,10.373c-0.451-0.861-1.477-2.338-2.174-3.075
				c3.403-2.214,7.34-5.863,9.349-8.815L335.932,202.06z M360.533,217.804h-5.904v15.785c0,2.173-0.491,3.279-2.05,3.895
				c-1.517,0.574-3.936,0.615-7.749,0.615c-0.164-1.107-0.697-2.706-1.229-3.813c2.624,0.082,5.371,0.082,6.108,0.041
				c0.779,0,1.025-0.205,1.025-0.778v-15.744h-12.956v-3.649h22.755V217.804z M359.385,206.611H339.5v-3.649h19.886V206.611z"/>
			<path fill="#FFFFFF" d="M376.728,226.25c-0.533-1.271-1.764-3.525-2.87-5.494v17.508h-3.608v-17.016
				c-1.353,3.937-3.034,7.749-4.838,10.209c-0.287-1.065-1.189-2.747-1.763-3.73c2.132-2.788,4.387-7.667,5.698-12.014h-5.084
				v-3.525h5.986v-5.822c-1.517,0.287-3.034,0.533-4.469,0.738c-0.164-0.82-0.574-2.133-1.025-2.952
				c4.101-0.779,8.733-1.928,11.563-3.28l2.132,3.116c-1.354,0.574-2.952,1.024-4.592,1.476v6.725h4.961v3.525h-4.961v0.861
				c1.106,1.313,4.305,5.535,5.002,6.561L376.728,226.25z M401.533,233.917v3.403h-23.452v-3.403h10.168v-4.715h-7.995v-3.28h7.995
				v-4.223c-2.296,0.246-4.633,0.41-6.765,0.492c-0.041-0.82-0.533-2.132-0.902-2.952c5.74-0.369,12.505-1.107,16.4-2.255
				l2.419,2.87c-2.091,0.574-4.674,1.024-7.38,1.394v4.674h7.872v3.28h-7.872v4.715H401.533z M399.442,215.917h-18.901v-13.366
				h18.901V215.917z M395.751,205.791h-11.644v6.889h11.644V205.791z"/>
		</g>
	</g>
</g>
</svg>
