<?xml version="1.0" encoding="utf-8"?>
<!-- Generator: Adobe Illustrator 16.0.0, SVG Export Plug-In . SVG Version: 6.00 Build 0)  -->
<!DOCTYPE svg PUBLIC "-//W3C//DTD SVG 1.1//EN" "http://www.w3.org/Graphics/SVG/1.1/DTD/svg11.dtd">
<svg version="1.1" id="圖層_1" xmlns="http://www.w3.org/2000/svg" xmlns:xlink="http://www.w3.org/1999/xlink" x="0px" y="0px"
	 width="435.625px" height="337.222px" viewBox="0 0 435.625 337.222" enable-background="new 0 0 435.625 337.222"
	 xml:space="preserve">
<g>
	<path fill="#93CDA5" d="M6.135,242.607c0.015,0.116,0.019,0.205,0.028,0.259C6.154,242.816,6.149,242.727,6.135,242.607z"/>
	<path fill="#93CDA5" d="M6.163,242.867C6.174,242.96,6.174,242.957,6.163,242.867L6.163,242.867z"/>
	<path fill="#93CDA5" d="M5.901,240.576c0.118,1.031,0.194,1.684,0.234,2.031C6.087,242.204,5.999,241.467,5.901,240.576z"/>
	<path fill="#93CDA5" d="M5.824,239.912c0.027,0.229,0.052,0.451,0.076,0.664C5.876,240.368,5.851,240.154,5.824,239.912z"/>
	<path fill="#93CDA5" d="M5.582,237.79c-0.083-0.725-0.153-1.333-0.212-1.841C5.438,236.511,5.507,237.143,5.582,237.79z"/>
	<path fill="#93CDA5" d="M105.731,321.397c328.016,90.165,523.176-233.174,37.285-260.398C122.096,57.732,104.625,22.463,124.977,0
		C22.786,67.394-86.57,268.538,105.731,321.397z"/>
	<path fill="#93CDA5" d="M5.193,234.39C5.116,233.723,5.102,233.595,5.193,234.39L5.193,234.39z"/>
	<path fill="#93CDA5" d="M5.199,234.453c-0.002-0.024-0.005-0.043-0.006-0.063C5.195,234.412,5.198,234.429,5.199,234.453z"/>
	<path fill="#93CDA5" d="M5.37,235.949c-0.067-0.599-0.124-1.122-0.17-1.496C5.239,234.788,5.295,235.282,5.37,235.949z"/>
</g>
<g>
	<g opacity="0.3">
		<path fill="#4C4C4C" d="M74.029,153.38c-1.333,2.149-2.924,3.999-4.429,5.461c-0.559-0.646-1.935-1.979-2.709-2.623
			c2.58-2.236,4.988-5.719,6.364-9.202l3.612,1.032c-0.301,0.731-0.645,1.462-1.032,2.193h10.277v3.139h-7.224
			c1.247,1.032,2.494,2.279,3.225,3.182l-2.58,2.236c-0.774-1.118-2.537-2.881-3.913-4.085l1.591-1.333H74.029z M87.144,155.96
			c0.688,0.989,1.333,2.235,1.763,3.268h15.522v7.267h-4.042v-4.128h-27.52v4.128h-3.827v-7.267h15.824
			c-0.387-0.859-0.817-1.763-1.247-2.537L87.144,155.96z M77.942,176.126h23.521v10.664h-3.956v-1.246H77.942v1.333H73.9v-22.274
			h25.284v8.987H77.942V176.126z M77.942,167.612v3.01h17.372v-3.01H77.942z M77.942,179.137v3.354h19.564v-3.354H77.942z
			 M105.934,150.241v3.139h-8.428c1.462,1.118,3.096,2.494,3.913,3.525l-2.666,2.279c-0.946-1.161-3.01-3.01-4.601-4.3l1.849-1.505
			h-4.429c-0.946,1.333-2.021,2.494-3.053,3.439c-0.645-0.645-2.107-1.849-3.01-2.407c2.279-1.807,4.257-4.516,5.332-7.354
			l3.655,0.903c-0.301,0.774-0.645,1.505-1.032,2.279H105.934z"/>
		<path fill="#4C4C4C" d="M124.038,178.062c-4.687,1.634-9.675,3.312-13.544,4.558l-0.946-4.085c1.548-0.43,3.44-0.945,5.504-1.591
			v-10.922h-4.644v-3.698h4.644v-8.557h-5.074v-3.697h13.674v3.697h-4.773v8.557h4.085v3.698h-4.085v9.718
			c1.462-0.473,3.01-0.946,4.472-1.462L124.038,178.062z M149.45,181.803v3.654h-27.476v-3.654h12.469v-5.117h-9.33v-3.612h9.33
			v-4.429H125.5v-19.35h22.016v19.35h-8.987v4.429h9.546v3.612h-9.546v5.117H149.45z M129.155,157.336h5.633v-4.645h-5.633V157.336z
			 M129.155,165.248h5.633v-4.73h-5.633V165.248z M143.688,152.691h-5.504v4.645h5.504V152.691z M143.688,160.518h-5.504v4.73h5.504
			V160.518z"/>
		<path fill="#4C4C4C" d="M169.876,157.637h-17.113v-3.182h7.438c-0.215-1.678-1.032-4.042-1.935-5.806l2.924-1.117
			c1.031,1.763,1.935,4.257,2.192,5.848l-2.623,1.075h9.116V157.637z M168.113,184.512h-9.934v1.806h-3.482v-14.448h13.416V184.512z
			 M192.321,170.364h-9.287v16.469h-3.999v-16.469h-9.546v-3.827h9.546v-9.33h-3.612c-1.161,2.623-2.451,4.987-3.913,6.88
			c-0.688-0.603-2.278-1.591-3.268-2.15v1.505h-13.459v-3.139h13.459v1.247c2.881-3.483,5.03-8.858,6.148-14.276l3.999,0.817
			c-0.43,1.849-0.946,3.698-1.591,5.461h14.577v3.655h-8.342v9.33h9.287V170.364z M154.783,166.021h13.459v3.139h-13.459V166.021z
			 M158.179,175.052v6.234h6.364v-6.234H158.179z"/>
		<path fill="#4C4C4C" d="M206.942,167.612c-0.817,3.827-1.979,7.869-3.526,11.095c0.817,0.43,1.763,1.16,3.139,2.021
			c2.968,1.806,6.88,2.064,11.954,2.064c5.203,0,12.47-0.388,17.243-0.989c-0.474,1.075-1.118,3.053-1.204,4.128
			c-3.312,0.215-11.18,0.473-16.211,0.473c-5.633,0-9.331-0.473-12.47-2.278c-1.72-0.989-3.268-2.494-4.214-2.494
			s-2.451,2.795-3.612,5.418l-2.709-3.698c1.505-1.935,3.01-3.612,4.343-4.472c1.161-2.322,2.15-5.418,2.838-8.343h-5.504
			c1.032-2.536,2.279-6.02,3.397-9.373h-4.343v-3.612h9.288c-0.946,3.053-2.15,6.579-3.226,9.546h2.408l0.602-0.172L206.942,167.612
			z M200.535,155.745c-0.516-1.893-1.548-4.945-2.236-7.225l3.483-1.031c0.817,2.235,1.806,5.073,2.365,6.966L200.535,155.745z
			 M212.144,180.427h-3.482v-18.576h3.311v-13.114h17.888v13.114h3.226v14.878c0,1.677-0.302,2.623-1.419,3.139
			c-1.161,0.517-2.838,0.56-5.332,0.56c-0.129-0.946-0.56-2.279-0.946-3.183c1.548,0.087,3.01,0.087,3.44,0.044
			c0.473,0,0.645-0.173,0.645-0.56v-11.739h-17.329V180.427z M226.292,176.514h-8.127v1.505h-2.967v-10.707h11.094V176.514z
			 M215.456,161.851h3.311v-6.966h7.482v-3.096h-10.793V161.851z M223.325,170.021h-5.16v3.827h5.16V170.021z M226.249,157.551
			h-4.473v4.3h4.473V157.551z"/>
		<path fill="#4C4C4C" d="M276.989,154.024c0,0,0,1.376-0.043,1.893c-0.603,19.393-1.118,26.058-2.839,28.208
			c-1.074,1.419-2.106,1.806-3.74,2.021c-1.505,0.172-4.042,0.129-6.493,0c-0.086-1.075-0.559-2.752-1.29-3.87
			c2.752,0.215,5.246,0.258,6.321,0.258c0.859,0,1.333-0.129,1.806-0.73c1.376-1.419,1.935-7.912,2.494-24.123h-10.148
			c-1.203,2.752-2.536,5.246-3.913,7.224c-0.645-0.602-2.149-1.677-3.139-2.235v19.736h-11.652v3.269h-3.655V154.24h4.815
			c0.603-2.064,1.247-4.902,1.506-6.967l4.343,0.731c-0.731,2.15-1.548,4.429-2.236,6.235h6.88v8.126
			c2.838-3.697,5.117-9.416,6.407-15.093l3.87,0.903c-0.517,1.979-1.075,3.956-1.763,5.848H276.989z M244.352,157.723v8.17h7.997
			v-8.17H244.352z M252.349,178.879v-9.503h-7.997v9.503H252.349z M266.669,175.524c-1.204-2.623-3.999-6.837-6.278-9.933
			l3.14-1.763c2.278,2.967,5.203,7.052,6.493,9.588L266.669,175.524z"/>
		<path fill="#4C4C4C" d="M297.07,171.998v11.31c0,1.505-0.215,2.408-1.246,2.924c-1.032,0.516-2.451,0.559-4.516,0.559
			c-0.129-0.859-0.602-2.235-1.075-3.053c1.419,0.043,2.623,0.043,3.054,0.043c0.387-0.043,0.516-0.172,0.516-0.559v-11.224h-4.687
			v-15.437h3.912c0.216-1.247,0.431-2.666,0.603-3.913h-6.45v12.557c0,6.32-0.43,15.222-3.096,21.026
			c-0.559-0.645-2.107-1.763-2.881-2.106c2.365-5.332,2.537-13.029,2.537-18.877v-16.039h18.231v3.439h-4.472l-1.118,3.913h5.504
			v15.437H297.07z M292.512,174.535c-0.602,3.269-1.72,6.665-3.01,8.858c-0.646-0.473-1.979-1.204-2.795-1.462
			c1.29-2.107,2.192-5.117,2.752-7.998L292.512,174.535z M292.212,162.883h6.407v-3.483h-6.407V162.883z M292.212,169.16h6.407
			v-3.568h-6.407V169.16z M300.51,181.717c-0.344-1.807-1.419-4.773-2.365-6.967l2.58-0.945c1.075,2.192,2.15,5.031,2.623,6.794
			L300.51,181.717z M310.744,181.2c-1.978,2.15-5.245,4.43-7.954,5.677c-0.517-0.688-1.678-1.807-2.451-2.494
			c2.623-1.161,5.676-3.354,7.181-5.117L310.744,181.2z M309.282,156.261c0.172-1.161,0.388-2.451,0.56-3.655h-7.052v-3.396h18.146
			v3.396h-7.181c-0.302,1.247-0.646,2.537-0.946,3.655h7.052v22.403h-15.737v-22.403H309.282z M316.334,159.228h-8.814v3.569h8.814
			V159.228z M316.334,165.635h-8.814v3.568h8.814V165.635z M316.334,172.041h-8.814v3.612h8.814V172.041z M315.904,179.309
			c2.021,1.591,4.688,3.913,5.977,5.418l-3.01,2.106c-1.247-1.548-3.783-3.998-5.848-5.676L315.904,179.309z"/>
		<path fill="#4C4C4C" d="M328.59,155.1h-3.525v-3.396h8.643c-0.431-1.118-0.903-2.408-1.376-3.397l3.568-0.988
			c0.688,1.332,1.419,3.053,1.936,4.386h6.363v3.396h-11.953v7.009c0,1.29,0.258,1.764,1.333,1.764h6.148
			c0.989,0,2.451-0.087,3.269-0.259c0.043,0.989,0.215,2.494,0.344,3.312c-0.731,0.258-2.15,0.301-3.526,0.301h-6.234
			c-3.956,0-4.988-1.333-4.988-5.203V155.1z M346.434,182.662h16.984v3.312H325.58v-3.312h16.855v-3.268h-14.361v-3.226h14.361
			v-3.096c-4.515,0.258-9.115,0.431-13.33,0.474c-0.086-0.989-0.516-2.365-0.859-3.269c10.621-0.215,23.306-1.032,30.787-2.408
			l1.807,3.226c-4.042,0.73-9.073,1.29-14.405,1.72v3.354h14.749v3.226h-14.749V182.662z M364.322,150.972
			c-2.451,10.879-9.116,15.522-18.317,17.759c-0.431-0.903-1.204-2.279-1.936-3.01c2.15-0.43,4.214-1.032,6.021-1.892
			c-1.118-1.463-2.838-3.354-4.516-5.031c-0.387,0.387-0.859,0.73-1.376,1.118c-0.645-0.817-1.892-1.979-2.795-2.494
			c4.171-2.838,7.052-6.708,8.515-10.019l3.869,0.645c-0.344,0.774-0.773,1.462-1.16,2.236h8.557l0.73-0.172L364.322,150.972z
			 M352.799,162.366c0.988-0.688,1.935-1.419,2.795-2.235c-1.721-1.419-4.171-3.312-6.493-4.816
			c-0.473,0.56-0.946,1.118-1.462,1.591C349.401,158.626,351.466,160.732,352.799,162.366z M350.734,153.38
			c2.193,1.376,4.816,3.139,6.665,4.644c0.946-1.376,1.763-2.924,2.365-4.644H350.734z"/>
		<path fill="#4C4C4C" d="M54.077,230.878v12.126c0,1.979-0.387,3.053-1.548,3.655c-1.161,0.645-2.838,0.773-5.59,0.773
			c-0.086-0.945-0.559-2.665-1.075-3.697c1.72,0.043,3.311,0.043,3.784,0c0.559,0,0.774-0.129,0.774-0.731v-10.75
			c-1.634,0.646-3.182,1.247-4.601,1.721l-0.989-3.827c1.548-0.473,3.483-1.118,5.59-1.892v-8.213h-5.074v-3.698h5.074v-8.299h3.655
			v8.299h3.913v3.698h-3.913v6.923c1.161-0.474,2.408-0.903,3.612-1.376l0.731,3.611L54.077,230.878z M64.827,208.39h3.655v18.662
			c0,8.471-1.118,15.651-9.847,20.252c-0.602-0.859-1.892-2.235-2.795-2.838c5.848-2.967,7.955-7.052,8.686-11.953
			c-2.107,1.591-4.257,3.225-6.106,4.558l-2.107-3.354c2.15-1.247,5.332-3.397,8.514-5.548v-1.16v-4.73l-2.709,1.548
			c-0.645-2.45-2.494-6.148-4.257-8.9l3.01-1.634c1.548,2.235,3.053,5.159,3.956,7.438V208.39z M80.393,243.392
			c0.946,0,1.118-1.247,1.247-5.849c0.86,0.646,2.322,1.376,3.397,1.591c-0.387,5.763-1.29,7.869-4.343,7.869h-4.128
			c-3.44,0-4.386-1.204-4.386-5.805V208.39h3.784v13.76c1.548-2.451,3.526-6.45,4.601-9.331l3.569,1.85
			c-1.763,3.096-3.784,6.751-5.418,9.115l-2.752-1.505v5.117l0.989-1.032c2.924,2.408,6.321,5.633,8.041,7.74l-2.58,2.838
			c-1.419-1.806-3.956-4.558-6.45-6.88v11.18c0,1.849,0.172,2.15,1.161,2.15H80.393z"/>
		<path fill="#4C4C4C" d="M99.098,228.557c-0.688,3.697-1.806,7.481-3.354,10.62c0.86,0.474,1.763,1.204,3.354,2.15
			c2.924,1.806,6.88,2.064,11.911,2.064c5.246,0,12.513-0.388,17.243-0.989c-0.473,1.075-1.118,3.053-1.161,4.128
			c-3.311,0.215-11.223,0.473-16.254,0.473c-5.676,0-9.331-0.473-12.427-2.278c-1.763-0.989-3.311-2.494-4.257-2.494
			c-0.946,0-2.451,2.795-3.569,5.418l-2.752-3.698c1.161-1.505,2.279-2.795,3.354-3.741l-0.043-0.043
			c1.677-2.365,3.01-5.762,3.784-9.029h-5.418c1.075-2.537,2.322-6.021,3.397-9.374h-4.3v-3.612h9.288
			c-0.946,3.053-2.15,6.579-3.225,9.546h1.505l0.602-0.129L99.098,228.557z M93.551,216.474c-0.602-1.935-1.763-5.031-2.58-7.31
			l3.612-0.989c0.86,2.279,2.064,5.246,2.666,7.095L93.551,216.474z M111.567,236.512c-2.236,2.106-5.719,4.171-8.6,5.547
			c-0.688-0.731-2.064-1.893-2.967-2.451c2.967-1.075,6.02-2.623,7.955-4.214h-8.643v-3.054h7.138v-3.396h-5.504v-3.01h5.504v-2.709
			h3.655v2.709h5.977v-2.709h3.698v2.709h5.633v3.01h-5.633v3.396h7.396v3.054h-9.245c3.01,1.419,6.278,3.311,8.17,4.772
			l-3.483,1.72c-1.763-1.462-4.816-3.439-7.654-4.901l2.236-1.591H108.3L111.567,236.512z M111.955,218.667
			c-0.301,0.902-0.559,2.192-0.688,2.881c-8.428,1.419-9.761,1.72-10.492,2.106c-0.215-0.816-0.86-2.322-1.333-3.01
			c0.559-0.301,1.204-0.989,1.204-2.58v-8.557h11.696v7.653h-8.514v2.709L111.955,218.667z M103.828,212.088v2.451h5.16v-2.451
			H103.828z M110.105,232.34h5.977v-3.396h-5.977V232.34z M118.275,222.536c-3.311,0-4.128-1.247-4.128-4.429v-8.557h11.868v7.654
			h-8.643v0.945c0,1.161,0.129,1.591,1.118,1.591h4.988c0.817,0,2.15-0.086,2.795-0.258c0.086,0.86,0.172,2.064,0.301,2.795
			c-0.602,0.215-1.806,0.258-2.967,0.258H118.275z M117.373,212.131v2.451h5.203v-2.451H117.373z"/>
		<path fill="#4C4C4C" d="M170.348,231.91v3.096h-38.699v-3.096h10.362c-0.344-0.859-0.773-1.806-1.247-2.537l1.721-0.473h-4.559
			v-8.041h26.402v8.041h-3.483l0.731,0.129c-0.646,1.032-1.29,2.021-1.85,2.881H170.348z M148.848,213.679h-15.823v-2.881h15.823
			v-2.924h4.042v2.924h16.168v2.881H152.89v2.451h13.502v2.881h-30.4v-2.881h12.856V213.679z M137.153,237.027h27.992v10.362h-4.085
			v-1.203h-19.951v1.246h-3.956V237.027z M141.109,239.779v3.568h19.951v-3.568H141.109z M141.754,226.32h18.533v-2.881h-18.533
			V226.32z M144.72,228.9c0.646,0.989,1.161,2.107,1.419,3.01h9.503c0.474-0.945,0.989-2.063,1.376-3.01H144.72z"/>
		<path fill="#4C4C4C" d="M205.651,222.192c0,1.548-0.043,3.225-0.172,5.074c1.333,7.396,4.042,14.018,8.687,17.027
			c-0.86,0.774-2.021,2.236-2.58,3.354c-3.44-2.623-5.806-7.053-7.396-12.427c-1.161,4.257-3.225,8.643-6.923,12.427
			c-0.473-0.731-1.548-1.764-2.451-2.365v0.129h-13.932v2.021h-3.139v-13.932c-0.688,0.903-1.376,1.807-2.063,2.494
			c-0.345-0.602-1.247-2.106-1.807-2.709c2.279-2.278,4.473-5.59,5.762-8.943h-3.826v-7.826h8.557v7.826h-4.558l2.666,0.816
			c-0.345,0.817-0.688,1.591-1.118,2.408h4.687c-0.344-0.731-0.73-1.462-1.118-2.106l2.58-1.032c0.688,0.945,1.376,2.192,1.72,3.139
			h5.892v2.795h-6.106v2.15h5.246v2.666h-5.246v2.235h5.504v2.623h-5.504v2.537h5.805v1.978c6.794-7.224,7.311-16.296,7.311-22.445
			v-2.494h3.525V222.192z M179.895,213.378h-5.72v-2.967h5.72v-2.494h3.396v7.825h-3.396V213.378z M178.303,222.149h3.483v-3.439
			h-3.483V222.149z M185.743,230.362h-4.859v2.15h4.859V230.362z M185.743,235.179h-4.859v2.235h4.859V235.179z M180.884,242.574
			h4.859v-2.537h-4.859V242.574z M194.902,224.343h-8.472v-7.826h8.472V224.343z M190.903,215.742h-3.44v-7.825h3.44v2.494h5.633
			v2.924h-5.633V215.742z M192.365,218.753h-3.483v3.354h3.483V218.753z M201.136,217.936c-0.989,3.87-2.193,7.353-3.698,9.976
			c-0.688-0.645-2.278-1.892-3.139-2.45c2.623-4.129,4.085-10.75,4.859-17.544l3.697,0.602c-0.258,1.979-0.559,3.913-0.902,5.805
			h8.9l0.603-0.172l2.45,0.774c-0.816,3.956-1.935,8.514-3.053,11.395l-2.924-0.946c0.645-1.935,1.333-4.687,1.892-7.438H201.136z"
			/>
		<path fill="#4C4C4C" d="M255.488,214.625c0,0,0,1.376-0.043,1.892c-0.602,19.393-1.118,26.058-2.838,28.208
			c-1.075,1.419-2.106,1.806-3.74,2.021c-1.506,0.172-4.042,0.129-6.493,0c-0.086-1.075-0.56-2.752-1.29-3.87
			c2.752,0.215,5.246,0.258,6.32,0.258c0.86,0,1.333-0.129,1.807-0.73c1.376-1.419,1.935-7.912,2.494-24.123h-10.148
			c-1.204,2.752-2.537,5.246-3.913,7.225c-0.645-0.603-2.149-1.678-3.139-2.236v19.736h-11.652v3.269h-3.655V214.84h4.815
			c0.603-2.064,1.247-4.902,1.506-6.966l4.343,0.73c-0.731,2.15-1.548,4.429-2.236,6.235h6.88v8.127
			c2.838-3.698,5.117-9.417,6.407-15.093l3.87,0.902c-0.517,1.979-1.075,3.956-1.764,5.849H255.488z M222.852,218.322v8.17h7.997
			v-8.17H222.852z M230.849,239.479v-9.503h-7.997v9.503H230.849z M245.169,236.124c-1.204-2.623-3.999-6.837-6.278-9.933
			l3.14-1.763c2.278,2.967,5.202,7.052,6.492,9.589L245.169,236.124z"/>
		<path fill="#4C4C4C" d="M274.882,241.413c-1.031-1.763-3.268-4.815-5.116-7.181c-1.032,4.601-3.01,9.115-6.794,12.556
			c-0.603-0.817-1.893-2.107-2.882-2.752c4.816-4.085,6.364-10.147,6.881-15.694h-6.45v-3.655h6.622
			c0.043-0.946,0.043-1.806,0.043-2.666v-3.655h-5.848v-3.568h5.848v-6.364h3.741v6.364h5.762v3.568h-5.762v3.655
			c0,0.86,0,1.72-0.044,2.666h6.579v3.655h-6.794c-0.043,0.602-0.086,1.16-0.172,1.763c1.677,1.72,6.106,7.052,7.138,8.385
			L274.882,241.413z M295.737,243.133c0.688,0,0.902-0.387,0.988-3.225c0.688,0.602,2.236,1.204,3.269,1.462
			c-0.388,4.214-1.376,5.289-3.827,5.289h-3.312c-3.225,0-3.998-1.075-3.998-4.644v-8.386h-2.494
			c-0.731,6.364-2.795,11.095-10.191,13.803c-0.43-0.902-1.419-2.321-2.235-3.01c6.406-2.106,7.998-5.805,8.643-10.793h-3.698
			v-24.036h18.533v24.036h-4.859v8.386c0,1.031,0.129,1.117,0.903,1.117H295.737z M282.622,216.603h10.965v-3.439h-10.965V216.603z
			 M282.622,223.311h10.965v-3.483h-10.965V223.311z M282.622,230.062h10.965v-3.526h-10.965V230.062z"/>
		<path fill="#4C4C4C" d="M325.364,214.625h2.451v2.58h-2.451v4.343h-8.17v1.591h8.729v2.365h-8.729v1.677H327.6v2.666h-23.993
			v-2.666h9.933v-1.677h-7.955v-2.365h7.955v-1.591h-7.74v-2.365h7.74v-1.978h-10.191v-2.58h10.191v-1.764h-7.611v-2.321h7.611
			v-2.58h3.654v2.58h8.17V214.625z M303.348,243.219c5.978-0.172,15.438-0.559,24.424-0.988l-0.129,3.053
			c-8.686,0.43-17.931,0.903-24.036,1.161L303.348,243.219z M325.407,231.395v9.589h-19.479v-9.589H325.407z M309.154,235.179h4.772
			v-1.721h-4.772V235.179z M309.154,238.962h4.772v-1.806h-4.772V238.962z M317.194,214.625h4.73v-1.764h-4.73V214.625z
			 M321.925,217.205h-4.73v1.978h4.73V217.205z M322.096,233.458h-4.729v1.721h4.729V233.458z M322.096,237.156h-4.729v1.806h4.729
			V237.156z M332.889,236.855h-3.655V213.12h3.655V236.855z M341.102,208.819v33.798c0,2.236-0.474,3.354-1.85,4.042
			c-1.333,0.602-3.525,0.73-6.88,0.73c-0.172-1.074-0.73-2.795-1.246-3.912c2.364,0.043,4.558,0.043,5.245,0.043
			c0.646,0,0.946-0.216,0.946-0.903v-33.798H341.102z"/>
		<path fill="#4C4C4C" d="M351.594,230.019h9.933v13.2h-9.933v2.838h-3.568v-31.733h3.568c0.646-2.021,1.247-4.515,1.548-6.406
			l4.386,0.516c-0.73,1.979-1.548,4.128-2.364,5.891h5.977v12.255h-9.546V230.019z M357.572,217.721h-5.978v5.461h5.978V217.721z
			 M351.594,233.458v6.364h6.364v-6.364H351.594z M375.846,213.722v4.644h8.428v18.705c0,1.677-0.258,2.752-1.333,3.354
			c-1.118,0.56-2.58,0.603-4.816,0.603c-0.129-0.989-0.559-2.494-1.031-3.44c1.333,0.043,2.537,0.043,2.924,0
			c0.43,0,0.559-0.129,0.559-0.559v-15.093h-4.729v25.412h-3.741v-25.412h-4.343v19.006h-3.655v-22.575h7.998v-4.644h-9.503v-3.655
			h22.876v3.655H375.846z"/>
	</g>
	<g>
		<g>
			<path fill="#FFFFFF" d="M73.745,153.096c-1.333,2.15-2.924,3.999-4.429,5.461c-0.559-0.645-1.935-1.978-2.709-2.623
				c2.58-2.236,4.988-5.719,6.364-9.202l3.612,1.032c-0.301,0.731-0.645,1.462-1.032,2.193h10.277v3.139h-7.224
				c1.247,1.032,2.494,2.279,3.225,3.182l-2.58,2.236c-0.774-1.118-2.537-2.881-3.913-4.085l1.591-1.333H73.745z M86.86,155.676
				c0.688,0.989,1.333,2.236,1.763,3.268h15.522v7.267h-4.042v-4.128h-27.52v4.128h-3.827v-7.267h15.824
				c-0.387-0.86-0.817-1.763-1.247-2.537L86.86,155.676z M77.658,175.843h23.521v10.664h-3.956v-1.246H77.658v1.333h-4.042v-22.274
				H98.9v8.987H77.658V175.843z M77.658,167.329v3.01H95.03v-3.01H77.658z M77.658,178.853v3.354h19.564v-3.354H77.658z
				 M105.651,149.958v3.139h-8.428c1.462,1.118,3.096,2.494,3.913,3.526l-2.666,2.279c-0.946-1.161-3.01-3.01-4.601-4.3l1.849-1.505
				h-4.429c-0.946,1.333-2.021,2.494-3.053,3.44c-0.645-0.645-2.107-1.849-3.01-2.408c2.279-1.806,4.257-4.515,5.332-7.353
				l3.655,0.903c-0.301,0.774-0.645,1.505-1.032,2.279H105.651z"/>
			<path fill="#FFFFFF" d="M123.754,177.778c-4.687,1.634-9.675,3.312-13.544,4.558l-0.946-4.085c1.548-0.43,3.44-0.945,5.504-1.591
				v-10.921h-4.644v-3.698h4.644v-8.557h-5.074v-3.698h13.674v3.698h-4.773v8.557h4.085v3.698h-4.085v9.718
				c1.462-0.473,3.01-0.946,4.472-1.462L123.754,177.778z M149.167,181.519v3.654H121.69v-3.654h12.47v-5.117h-9.331v-3.612h9.331
				v-4.429h-8.944v-19.35h22.016v19.35h-8.987v4.429h9.546v3.612h-9.546v5.117H149.167z M128.871,157.052h5.633v-4.644h-5.633
				V157.052z M128.871,164.964h5.633v-4.73h-5.633V164.964z M143.405,152.408h-5.504v4.644h5.504V152.408z M143.405,160.234h-5.504
				v4.73h5.504V160.234z"/>
			<path fill="#FFFFFF" d="M169.592,157.353h-17.113v-3.182h7.438c-0.215-1.677-1.032-4.042-1.935-5.805l2.924-1.118
				c1.032,1.763,1.935,4.257,2.193,5.848l-2.623,1.075h9.116V157.353z M167.829,184.228h-9.933v1.806h-3.483v-14.448h13.416V184.228
				z M192.038,170.081h-9.288v16.468h-3.999v-16.468h-9.546v-3.827h9.546v-9.331h-3.612c-1.161,2.623-2.451,4.988-3.913,6.88
				c-0.688-0.602-2.279-1.591-3.268-2.15v1.505h-13.459v-3.139h13.459v1.247c2.881-3.483,5.031-8.858,6.149-14.276l3.999,0.817
				c-0.43,1.849-0.946,3.698-1.591,5.461h14.577v3.655h-8.342v9.331h9.288V170.081z M154.499,165.738h13.459v3.139h-13.459V165.738z
				 M157.896,174.768v6.234h6.364v-6.234H157.896z"/>
			<path fill="#FFFFFF" d="M206.658,167.329c-0.817,3.827-1.978,7.869-3.526,11.094c0.817,0.43,1.763,1.16,3.139,2.021
				c2.967,1.806,6.88,2.064,11.954,2.064c5.203,0,12.47-0.388,17.243-0.989c-0.473,1.075-1.118,3.053-1.204,4.128
				c-3.311,0.215-11.18,0.473-16.211,0.473c-5.633,0-9.331-0.473-12.47-2.278c-1.72-0.989-3.268-2.494-4.214-2.494
				c-0.946,0-2.451,2.795-3.612,5.418l-2.709-3.698c1.505-1.935,3.01-3.612,4.343-4.472c1.161-2.322,2.15-5.418,2.838-8.342h-5.504
				c1.032-2.537,2.279-6.02,3.397-9.374h-4.343v-3.612h9.288c-0.946,3.053-2.15,6.579-3.225,9.546h2.408l0.602-0.172
				L206.658,167.329z M200.251,155.461c-0.516-1.892-1.548-4.945-2.236-7.224l3.483-1.032c0.817,2.236,1.806,5.074,2.365,6.966
				L200.251,155.461z M211.861,180.143h-3.483v-18.576h3.311v-13.115h17.888v13.115h3.225v14.877c0,1.677-0.301,2.623-1.419,3.139
				c-1.161,0.517-2.838,0.56-5.332,0.56c-0.129-0.946-0.559-2.279-0.946-3.183c1.548,0.087,3.01,0.087,3.44,0.044
				c0.473,0,0.645-0.173,0.645-0.56v-11.739h-17.329V180.143z M226.008,176.23h-8.127v1.505h-2.967v-10.707h11.094V176.23z
				 M215.172,161.567h3.311v-6.966h7.482v-3.096h-10.793V161.567z M223.041,169.737h-5.16v3.827h5.16V169.737z M225.965,157.267
				h-4.472v4.3h4.472V157.267z"/>
			<path fill="#FFFFFF" d="M276.705,153.741c0,0,0,1.376-0.043,1.892c-0.603,19.393-1.118,26.058-2.839,28.208
				c-1.074,1.419-2.106,1.806-3.74,2.021c-1.505,0.172-4.042,0.129-6.493,0c-0.086-1.075-0.559-2.752-1.29-3.87
				c2.752,0.215,5.246,0.258,6.321,0.258c0.859,0,1.333-0.129,1.806-0.73c1.376-1.419,1.935-7.912,2.494-24.123h-10.148
				c-1.203,2.752-2.536,5.246-3.913,7.224c-0.645-0.602-2.15-1.677-3.139-2.236v19.736h-11.653v3.269h-3.655v-31.433h4.816
				c0.602-2.064,1.247-4.902,1.505-6.966l4.343,0.731c-0.731,2.15-1.548,4.429-2.236,6.235h6.88v8.126
				c2.838-3.698,5.117-9.417,6.407-15.093l3.87,0.903c-0.517,1.978-1.075,3.956-1.763,5.848H276.705z M244.069,157.439v8.169h7.998
				v-8.169H244.069z M252.066,178.595v-9.503h-7.998v9.503H252.066z M266.385,175.241c-1.204-2.623-3.999-6.836-6.278-9.933
				l3.14-1.763c2.278,2.967,5.203,7.052,6.493,9.588L266.385,175.241z"/>
			<path fill="#FFFFFF" d="M296.786,171.715v11.309c0,1.505-0.215,2.408-1.246,2.924c-1.032,0.516-2.451,0.559-4.516,0.559
				c-0.129-0.859-0.602-2.235-1.075-3.053c1.419,0.043,2.623,0.043,3.054,0.043c0.387-0.043,0.516-0.172,0.516-0.559v-11.223h-4.687
				v-15.437h3.912c0.216-1.247,0.431-2.666,0.603-3.913h-6.45v12.556c0,6.321-0.43,15.222-3.096,21.026
				c-0.559-0.645-2.107-1.763-2.881-2.106c2.365-5.332,2.537-13.029,2.537-18.877v-16.039h18.231v3.44h-4.472l-1.118,3.913h5.504
				v15.437H296.786z M292.229,174.252c-0.602,3.268-1.72,6.665-3.01,8.858c-0.646-0.473-1.979-1.204-2.795-1.462
				c1.29-2.107,2.192-5.117,2.752-7.998L292.229,174.252z M291.928,162.599h6.407v-3.483h-6.407V162.599z M291.928,168.877h6.407
				v-3.569h-6.407V168.877z M300.227,181.433c-0.344-1.807-1.419-4.773-2.365-6.966l2.58-0.946c1.075,2.193,2.15,5.031,2.623,6.794
				L300.227,181.433z M310.46,180.917c-1.978,2.15-5.245,4.43-7.954,5.677c-0.517-0.688-1.678-1.807-2.451-2.494
				c2.623-1.161,5.676-3.354,7.181-5.117L310.46,180.917z M308.998,155.977c0.172-1.161,0.388-2.451,0.56-3.655h-7.052v-3.397
				h18.146v3.397h-7.181c-0.302,1.247-0.646,2.537-0.946,3.655h7.052v22.403h-15.737v-22.403H308.998z M316.05,158.944h-8.814v3.569
				h8.814V158.944z M316.05,165.351h-8.814v3.569h8.814V165.351z M316.05,171.758h-8.814v3.612h8.814V171.758z M315.62,179.025
				c2.021,1.591,4.688,3.913,5.977,5.418l-3.01,2.106c-1.247-1.548-3.783-3.998-5.848-5.676L315.62,179.025z"/>
			<path fill="#FFFFFF" d="M328.306,154.816h-3.525v-3.397h8.643c-0.431-1.118-0.903-2.408-1.376-3.397l3.568-0.989
				c0.688,1.333,1.419,3.053,1.936,4.386h6.363v3.397h-11.953v7.009c0,1.29,0.258,1.763,1.333,1.763h6.148
				c0.989,0,2.451-0.086,3.269-0.258c0.043,0.989,0.215,2.494,0.344,3.311c-0.731,0.258-2.15,0.301-3.526,0.301h-6.234
				c-3.956,0-4.988-1.333-4.988-5.203V154.816z M346.151,182.378h16.984v3.312h-37.839v-3.312h16.855v-3.268H327.79v-3.225h14.361
				v-3.096c-4.515,0.258-9.115,0.43-13.33,0.473c-0.086-0.989-0.516-2.365-0.859-3.268c10.621-0.215,23.306-1.032,30.787-2.408
				l1.807,3.225c-4.042,0.731-9.073,1.29-14.405,1.72v3.354H360.9v3.225h-14.749V182.378z M364.038,150.688
				c-2.451,10.879-9.116,15.522-18.317,17.759c-0.431-0.903-1.204-2.279-1.936-3.01c2.15-0.43,4.214-1.032,6.021-1.892
				c-1.118-1.462-2.838-3.354-4.516-5.031c-0.387,0.387-0.859,0.731-1.376,1.118c-0.645-0.817-1.892-1.978-2.795-2.494
				c4.171-2.838,7.052-6.708,8.515-10.019l3.869,0.645c-0.344,0.774-0.773,1.462-1.16,2.236h8.557l0.73-0.172L364.038,150.688z
				 M352.515,162.083c0.988-0.688,1.935-1.419,2.795-2.236c-1.721-1.419-4.171-3.311-6.493-4.816
				c-0.473,0.559-0.946,1.118-1.462,1.591C349.117,158.342,351.182,160.449,352.515,162.083z M350.45,153.096
				c2.193,1.376,4.816,3.139,6.665,4.644c0.946-1.376,1.763-2.924,2.365-4.644H350.45z"/>
			<path fill="#FFFFFF" d="M53.793,230.594v12.126c0,1.979-0.387,3.053-1.548,3.655c-1.161,0.645-2.838,0.773-5.59,0.773
				c-0.086-0.945-0.559-2.665-1.075-3.697c1.72,0.043,3.311,0.043,3.784,0c0.559,0,0.774-0.129,0.774-0.731v-10.75
				c-1.634,0.646-3.182,1.247-4.601,1.721l-0.989-3.827c1.548-0.473,3.483-1.118,5.59-1.892v-8.213h-5.074v-3.698h5.074v-8.299
				h3.655v8.299h3.913v3.698h-3.913v6.923c1.161-0.474,2.408-0.903,3.612-1.376l0.731,3.611L53.793,230.594z M64.543,208.106h3.655
				v18.662c0,8.471-1.118,15.651-9.847,20.252c-0.602-0.859-1.892-2.235-2.795-2.838c5.848-2.967,7.955-7.052,8.686-11.953
				c-2.107,1.591-4.257,3.225-6.106,4.558l-2.107-3.354c2.15-1.247,5.332-3.397,8.514-5.548v-1.16v-4.73l-2.709,1.548
				c-0.645-2.45-2.494-6.148-4.257-8.9l3.01-1.634c1.548,2.235,3.053,5.159,3.956,7.438V208.106z M80.109,243.108
				c0.946,0,1.118-1.247,1.247-5.849c0.86,0.646,2.322,1.376,3.397,1.591c-0.387,5.763-1.29,7.869-4.343,7.869h-4.128
				c-3.44,0-4.386-1.204-4.386-5.805v-32.809h3.784v13.76c1.548-2.451,3.526-6.45,4.601-9.331l3.569,1.85
				c-1.763,3.096-3.784,6.751-5.418,9.115l-2.752-1.505v5.117l0.989-1.032c2.924,2.408,6.321,5.633,8.041,7.74l-2.58,2.838
				c-1.419-1.806-3.956-4.558-6.45-6.88v11.18c0,1.849,0.172,2.15,1.161,2.15H80.109z"/>
			<path fill="#FFFFFF" d="M98.814,228.273c-0.688,3.697-1.806,7.481-3.354,10.62c0.86,0.474,1.763,1.204,3.354,2.15
				c2.924,1.806,6.88,2.064,11.911,2.064c5.246,0,12.513-0.388,17.243-0.989c-0.473,1.075-1.118,3.053-1.161,4.128
				c-3.311,0.215-11.223,0.473-16.254,0.473c-5.676,0-9.331-0.473-12.427-2.278c-1.763-0.989-3.311-2.494-4.257-2.494
				c-0.946,0-2.451,2.795-3.569,5.418l-2.752-3.698c1.161-1.505,2.279-2.795,3.354-3.741l-0.043-0.043
				c1.677-2.365,3.01-5.762,3.784-9.029h-5.418c1.075-2.537,2.322-6.021,3.397-9.374h-4.3v-3.612h9.288
				c-0.946,3.053-2.15,6.579-3.225,9.546h1.505l0.602-0.129L98.814,228.273z M93.267,216.19c-0.602-1.935-1.763-5.031-2.58-7.31
				l3.612-0.989c0.86,2.279,2.064,5.246,2.666,7.095L93.267,216.19z M111.284,236.228c-2.236,2.106-5.719,4.171-8.6,5.547
				c-0.688-0.731-2.064-1.893-2.967-2.451c2.967-1.075,6.02-2.623,7.955-4.214H99.03v-3.054h7.138v-3.396h-5.504v-3.01h5.504v-2.709
				h3.655v2.709h5.977v-2.709h3.698v2.709h5.633v3.01h-5.633v3.396h7.396v3.054h-9.245c3.01,1.419,6.278,3.311,8.17,4.772
				l-3.483,1.72c-1.763-1.462-4.816-3.439-7.654-4.901l2.236-1.591h-8.901L111.284,236.228z M111.671,218.383
				c-0.301,0.902-0.559,2.192-0.688,2.881c-8.428,1.419-9.761,1.72-10.492,2.106c-0.215-0.816-0.86-2.322-1.333-3.01
				c0.559-0.301,1.204-0.989,1.204-2.58v-8.557h11.696v7.653h-8.514v2.709L111.671,218.383z M103.544,211.804v2.451h5.16v-2.451
				H103.544z M109.822,232.056h5.977v-3.396h-5.977V232.056z M117.992,222.252c-3.311,0-4.128-1.247-4.128-4.429v-8.557h11.868
				v7.654h-8.643v0.945c0,1.161,0.129,1.591,1.118,1.591h4.988c0.817,0,2.15-0.086,2.795-0.258c0.086,0.86,0.172,2.064,0.301,2.795
				c-0.602,0.215-1.806,0.258-2.967,0.258H117.992z M117.089,211.847v2.451h5.203v-2.451H117.089z"/>
			<path fill="#FFFFFF" d="M170.065,231.626v3.096h-38.699v-3.096h10.363c-0.344-0.859-0.774-1.806-1.247-2.537l1.72-0.473h-4.558
				v-8.041h26.402v8.041h-3.483l0.731,0.129c-0.645,1.032-1.29,2.021-1.849,2.881H170.065z M148.565,213.395h-15.824v-2.881h15.824
				v-2.924h4.042v2.924h16.167v2.881h-16.167v2.451h13.502v2.881h-30.401v-2.881h12.857V213.395z M136.869,236.744h27.993v10.362
				h-4.085v-1.203h-19.952v1.246h-3.956V236.744z M140.825,239.496v3.568h19.952v-3.568H140.825z M141.47,226.037h18.533v-2.881
				H141.47V226.037z M144.437,228.617c0.645,0.989,1.161,2.107,1.419,3.01h9.503c0.473-0.945,0.989-2.063,1.376-3.01H144.437z"/>
			<path fill="#FFFFFF" d="M205.368,221.909c0,1.548-0.043,3.225-0.172,5.074c1.333,7.396,4.042,14.018,8.686,17.027
				c-0.86,0.774-2.021,2.236-2.58,3.354c-3.44-2.623-5.805-7.053-7.396-12.427c-1.161,4.257-3.225,8.643-6.923,12.427
				c-0.473-0.731-1.548-1.764-2.451-2.365v0.129H180.6v2.021h-3.139v-13.932c-0.688,0.903-1.376,1.807-2.064,2.494
				c-0.344-0.602-1.247-2.106-1.806-2.709c2.279-2.278,4.472-5.59,5.762-8.943h-3.827v-7.826h8.557v7.826h-4.558l2.666,0.816
				c-0.344,0.817-0.688,1.591-1.118,2.408h4.687c-0.344-0.731-0.731-1.462-1.118-2.106l2.58-1.032
				c0.688,0.945,1.376,2.192,1.72,3.139h5.891v2.795h-6.106v2.15h5.246v2.666h-5.246v2.235h5.504v2.623h-5.504v2.537h5.805v1.978
				c6.794-7.224,7.31-16.296,7.31-22.445v-2.494h3.526V221.909z M179.612,213.094h-5.719v-2.967h5.719v-2.494h3.397v7.825h-3.397
				V213.094z M178.02,221.866h3.483v-3.439h-3.483V221.866z M185.459,230.079H180.6v2.15h4.859V230.079z M185.459,234.895H180.6
				v2.235h4.859V234.895z M180.6,242.291h4.859v-2.537H180.6V242.291z M194.618,224.059h-8.471v-7.826h8.471V224.059z
				 M190.619,215.458h-3.44v-7.825h3.44v2.494h5.633v2.924h-5.633V215.458z M192.081,218.469h-3.483v3.354h3.483V218.469z
				 M200.853,217.652c-0.989,3.87-2.193,7.353-3.698,9.976c-0.688-0.645-2.279-1.892-3.139-2.45
				c2.623-4.129,4.085-10.75,4.859-17.544l3.698,0.602c-0.258,1.979-0.559,3.913-0.903,5.805h8.901l0.602-0.172l2.451,0.774
				c-0.817,3.956-1.935,8.514-3.053,11.395l-2.924-0.946c0.645-1.935,1.333-4.687,1.892-7.438H200.853z"/>
			<path fill="#FFFFFF" d="M255.205,214.341c0,0,0,1.376-0.043,1.892c-0.602,19.393-1.118,26.058-2.838,28.208
				c-1.075,1.419-2.107,1.806-3.741,2.021c-1.505,0.172-4.042,0.129-6.493,0c-0.086-1.075-0.559-2.752-1.29-3.87
				c2.752,0.215,5.246,0.258,6.321,0.258c0.86,0,1.333-0.129,1.806-0.73c1.376-1.419,1.935-7.912,2.494-24.123h-10.148
				c-1.204,2.752-2.537,5.246-3.913,7.225c-0.645-0.603-2.15-1.678-3.139-2.236v19.736h-11.653v3.269h-3.655v-31.433h4.816
				c0.602-2.064,1.247-4.902,1.505-6.966l4.343,0.73c-0.731,2.15-1.548,4.429-2.236,6.235h6.88v8.127
				c2.838-3.698,5.117-9.417,6.407-15.093l3.87,0.902c-0.516,1.979-1.075,3.956-1.763,5.849H255.205z M222.569,218.039v8.17h7.998
				v-8.17H222.569z M230.566,239.195v-9.503h-7.998v9.503H230.566z M244.885,235.84c-1.204-2.623-3.999-6.837-6.278-9.933
				l3.139-1.763c2.279,2.967,5.203,7.052,6.493,9.589L244.885,235.84z"/>
			<path fill="#FFFFFF" d="M274.598,241.129c-1.031-1.763-3.268-4.815-5.116-7.181c-1.032,4.601-3.01,9.115-6.794,12.556
				c-0.603-0.817-1.893-2.107-2.881-2.752c4.816-4.085,6.364-10.147,6.88-15.694h-6.45v-3.655h6.622
				c0.043-0.946,0.043-1.806,0.043-2.666v-3.655h-5.848v-3.568h5.848v-6.364h3.741v6.364h5.762v3.568h-5.762v3.655
				c0,0.86,0,1.72-0.044,2.666h6.579v3.655h-6.794c-0.043,0.602-0.086,1.16-0.172,1.763c1.677,1.72,6.106,7.052,7.138,8.385
				L274.598,241.129z M295.453,242.849c0.688,0,0.902-0.387,0.988-3.225c0.688,0.602,2.236,1.204,3.269,1.462
				c-0.388,4.214-1.376,5.289-3.827,5.289h-3.312c-3.225,0-3.998-1.075-3.998-4.644v-8.386h-2.494
				c-0.731,6.364-2.795,11.095-10.191,13.803c-0.43-0.902-1.419-2.321-2.235-3.01c6.406-2.106,7.998-5.805,8.643-10.793h-3.698
				V209.31h18.533v24.036h-4.859v8.386c0,1.031,0.129,1.117,0.903,1.117H295.453z M282.338,216.319h10.965v-3.439h-10.965V216.319z
				 M282.338,223.027h10.965v-3.483h-10.965V223.027z M282.338,229.778h10.965v-3.526h-10.965V229.778z"/>
			<path fill="#FFFFFF" d="M325.08,214.341h2.451v2.58h-2.451v4.343h-8.17v1.591h8.729v2.365h-8.729v1.677h10.406v2.666h-23.993
				v-2.666h9.933v-1.677h-7.955v-2.365h7.955v-1.591h-7.74v-2.365h7.74v-1.978h-10.191v-2.58h10.191v-1.764h-7.611v-2.321h7.611
				v-2.58h3.654v2.58h8.17V214.341z M303.065,242.935c5.978-0.172,15.438-0.559,24.424-0.988L327.36,245
				c-8.686,0.43-17.931,0.903-24.036,1.161L303.065,242.935z M325.123,231.111v9.589h-19.479v-9.589H325.123z M308.87,234.895h4.772
				v-1.721h-4.772V234.895z M308.87,238.678h4.772v-1.806h-4.772V238.678z M316.91,214.341h4.73v-1.764h-4.73V214.341z
				 M321.641,216.921h-4.73v1.978h4.73V216.921z M321.813,233.174h-4.729v1.721h4.729V233.174z M321.813,236.873h-4.729v1.806h4.729
				V236.873z M332.606,236.572h-3.655v-23.735h3.655V236.572z M340.819,208.536v33.798c0,2.236-0.474,3.354-1.85,4.042
				c-1.333,0.602-3.525,0.73-6.88,0.73c-0.172-1.074-0.73-2.795-1.246-3.912c2.364,0.043,4.558,0.043,5.245,0.043
				c0.646,0,0.946-0.216,0.946-0.903v-33.798H340.819z"/>
			<path fill="#FFFFFF" d="M351.311,229.735h9.933v13.2h-9.933v2.838h-3.568V214.04h3.568c0.646-2.021,1.247-4.515,1.548-6.406
				l4.386,0.516c-0.73,1.979-1.548,4.128-2.364,5.891h5.977v12.255h-9.546V229.735z M357.288,217.437h-5.978v5.461h5.978V217.437z
				 M351.311,233.174v6.364h6.364v-6.364H351.311z M375.563,213.438v4.644h8.428v18.705c0,1.677-0.258,2.752-1.333,3.354
				c-1.118,0.56-2.58,0.603-4.816,0.603c-0.129-0.989-0.559-2.494-1.031-3.44c1.333,0.043,2.537,0.043,2.924,0
				c0.43,0,0.559-0.129,0.559-0.559v-15.093h-4.729v25.412h-3.741v-25.412h-4.343v19.006h-3.655v-22.575h7.998v-4.644h-9.503v-3.655
				h22.876v3.655H375.563z"/>
		</g>
	</g>
</g>
</svg>
