<?xml version="1.0" encoding="utf-8"?>
<!-- Generator: Adobe Illustrator 16.0.0, SVG Export Plug-In . SVG Version: 6.00 Build 0)  -->
<!DOCTYPE svg PUBLIC "-//W3C//DTD SVG 1.1//EN" "http://www.w3.org/Graphics/SVG/1.1/DTD/svg11.dtd">
<svg version="1.1" id="圖層_1" xmlns="http://www.w3.org/2000/svg" xmlns:xlink="http://www.w3.org/1999/xlink" x="0px" y="0px"
	 width="994.342px" height="813.776px" viewBox="0 0 994.342 813.776" enable-background="new 0 0 994.342 813.776"
	 xml:space="preserve">
<g>
	<ellipse opacity="0.4" fill="#5D5E5E" cx="488.936" cy="744.532" rx="380.795" ry="44.286"/>
</g>
<g>
	<path fill="#878787" d="M390.571,726.154v26.416c0,0,85.255,33.537,184.334,0v-26.416"/>
	<ellipse fill="#999999" cx="482.738" cy="726.154" rx="92.167" ry="22.158"/>
</g>
<path fill="#666666" d="M435.866,604.727c0,0,22.604,2.878,47.938,4.134c20.424,1.012,42.104-1.142,52.305-2.134
	c0,0-37.775,54.465-16.189,121.282c0,0-35.204,17.52-69.248-0.198C450.672,727.811,474.91,673.483,435.866,604.727z"/>
<path fill="#989898" d="M922.88,358.551c-41.002,0-45.431,25.946-45.431,25.946l-1.493,5.581h-122.29
	c-2.406-14.8-17.262-28.42-44.636-28.42c-27.384,0-42.22,13.62-44.627,28.42H541.055c-2.005-15.103-16.909-29.199-44.762-29.199
	c-27.867,0-42.77,14.097-44.765,29.199H326.328c-0.236-16.22-15.218-32.316-44.995-32.316c-29.771,0-44.756,16.097-44.992,32.316
	H118.378l-1.486-5.581c0,0-4.432-25.946-45.425-25.946c-41.002,0-38.229,36.102-38.229,36.102
	c8.762-16.703,52.026-15.633,52.026,7.616c0,1.346,0.187,2.612,0.456,3.837c9.434,125.614,189.999,225.816,411.449,225.816
	c221.452,0,402.021-100.202,411.454-225.816c0.267-1.225,0.454-2.491,0.454-3.837c0-23.249,43.273-24.319,52.028-7.616
	C961.104,394.652,963.875,358.551,922.88,358.551z"/>
<path opacity="0.3" fill="#989898" d="M922.863,355.46c-41.002,0-45.415,24.078-45.415,24.078l-1.493,5.692H811.48
	c-17.867,128.145-163.036,232.654-341.545,246.111c9.011,0.346,18.071,0.58,27.233,0.58c221.452,0,402.021-102.211,411.454-230.343
	c0.267-1.249,0.454-2.541,0.454-3.913c0-23.716,43.273-24.808,52.028-7.77C961.104,389.896,963.858,355.46,922.863,355.46z"/>
<g>
	<path fill="#666767" d="M817.07,446.407c-38.594,0-69.984-20.397-69.984-45.48c0-13.166-16.488-23.877-36.749-23.877
		c-20.263,0-36.74,10.711-36.74,23.877c0,25.083-31.393,45.48-69.99,45.48c-38.585,0-69.973-20.397-69.973-45.48
		c0-13.166-16.488-23.877-36.746-23.877c-20.26,0-36.741,10.711-36.741,23.877c0,25.083-31.403,45.48-69.991,45.48
		c-38.589,0-69.979-20.397-69.979-45.48c0-13.166-16.482-23.877-36.742-23.877c-20.262,0-36.74,10.711-36.74,23.877
		c0,25.083-31.397,45.48-69.985,45.48c-38.586,0-69.982-20.397-69.982-45.48c0-13.166-16.49-23.877-36.742-23.877
		c-20.258,0-36.747,10.711-36.747,23.877c0,5.966-7.446,10.803-16.62,10.803C7.443,411.729,0,406.893,0,400.927
		c0-25.081,31.397-45.48,69.985-45.48c38.589,0,69.988,20.399,69.988,45.48c0,13.166,16.474,23.879,36.737,23.879
		c20.264,0,36.737-10.713,36.737-23.879c0-25.081,31.401-45.48,69.988-45.48c38.589,0,69.986,20.399,69.986,45.48
		c0,13.166,16.479,23.879,36.736,23.879c20.264,0,36.746-10.713,36.746-23.879c0-25.081,31.397-45.48,69.986-45.48
		c38.596,0,69.982,20.399,69.982,45.48c0,13.166,16.485,23.879,36.737,23.879c20.264,0,36.754-10.713,36.754-23.879
		c0-25.081,31.394-45.48,69.976-45.48c38.593,0,69.987,20.399,69.987,45.48c0,13.166,16.488,23.879,36.746,23.879
		c20.26,0,36.742-10.713,36.742-23.879c-0.174-12.073,6.838-23.441,19.758-31.919c13.333-8.742,31.367-13.562,50.79-13.562
		c38.593,0,69.982,20.399,69.982,45.48c0,5.966-7.436,10.803-16.619,10.803c-9.182,0-16.619-4.837-16.619-10.803
		c0-13.166-16.486-23.877-36.744-23.877c-10.482,0-20.135,2.547-27.176,7.165c-4.683,3.075-10.246,8.448-10.136,16.612
		C887.048,426.01,855.654,446.407,817.07,446.407z"/>
</g>
<path fill="#989898" d="M922.88,358.551c-41.002,0-45.431,25.946-45.431,25.946l-1.493,5.581h-122.29
	c-2.406-14.8-17.262-28.42-44.636-28.42c-27.384,0-42.22,13.62-44.627,28.42H541.055c-2.005-15.103-16.909-29.199-44.762-29.199
	c-27.867,0-42.77,14.097-44.765,29.199H326.328c-0.236-16.22-15.218-32.316-44.995-32.316c-29.771,0-44.756,16.097-44.992,32.316
	H118.378l-1.486-5.581c0,0-4.432-25.946-45.425-25.946c-41.002,0-38.229,36.102-38.229,36.102
	c8.762-16.703,52.026-15.633,52.026,7.616c0,1.346,0.187,2.612,0.456,3.837c9.434,125.614,189.999,225.816,411.449,225.816
	c221.452,0,402.021-100.202,411.454-225.816c0.267-1.225,0.454-2.491,0.454-3.837c0-23.249,43.273-24.319,52.028-7.616
	C961.104,394.652,963.875,358.551,922.88,358.551z"/>
<path fill="#878787" d="M922.863,355.46c-41.002,0-45.415,24.078-45.415,24.078l-1.493,5.692H811.48
	c-17.867,128.145-163.036,232.654-341.545,246.111c9.011,0.346,18.071,0.58,27.233,0.58c221.452,0,402.021-102.211,411.454-230.343
	c0.267-1.249,0.454-2.541,0.454-3.913c0-23.716,43.273-24.808,52.028-7.77C961.104,389.896,963.858,355.46,922.863,355.46z"/>
<g>
	<path fill="#B2B2B2" d="M436.458,399.062c0,15.777-20.944,28.561-46.764,28.561l0,0c-25.824,0-46.761-12.783-46.761-28.561v-10.717
		c0-15.776,20.938-28.563,46.761-28.563l0,0c25.82,0,46.764,12.787,46.764,28.563V399.062z"/>
	<path fill="#999999" d="M362.813,410.685c-5.84,0-11.304-0.354-16.477-0.95c6.933,10.485,23.714,17.888,43.358,17.888
		c25.82,0,46.764-12.783,46.764-28.561v-10.717c0-2.937-0.729-5.764-2.076-8.434C424.981,396.979,401.144,410.685,362.813,410.685z"
		/>
</g>
<g>
	<path fill="#B2B2B2" d="M224.825,399.062c0,15.777-20.939,28.561-46.762,28.561l0,0c-25.823,0-46.765-12.783-46.765-28.561v-10.717
		c0-15.776,20.942-28.563,46.765-28.563l0,0c25.823,0,46.762,12.787,46.762,28.563V399.062z"/>
	<path fill="#999999" d="M156.228,408.819c-8.429,0-16.082-0.718-23.108-1.929c5.579,11.966,23.566,20.731,44.943,20.731
		c25.823,0,46.762-12.783,46.762-28.561v-10.717c0-1.64-0.271-3.238-0.714-4.795C212.911,397.951,190.324,408.819,156.228,408.819z"
		/>
</g>
<g>
	<path fill="#B2B2B2" d="M651.641,399.062c0,15.777-20.939,28.561-46.768,28.561l0,0c-25.815,0-46.758-12.783-46.758-28.561v-10.717
		c0-15.776,20.942-28.563,46.758-28.563l0,0c25.828,0,46.768,12.787,46.768,28.563V399.062z"/>
	<path fill="#999999" d="M578.594,414.427c-4.86,0-9.403-0.283-13.794-0.705c8.179,8.315,23.042,13.9,40.074,13.9
		c25.828,0,46.768-12.783,46.768-28.561v-10.717c0-1.979-0.33-3.914-0.959-5.781C641.708,400.129,617.722,414.427,578.594,414.427z"
		/>
</g>
<g>
	<path fill="#B2B2B2" d="M865.212,399.062c0,15.777-20.944,28.561-46.771,28.561l0,0c-25.817,0-46.753-12.783-46.753-28.561v-10.717
		c0-15.776,20.937-28.563,46.753-28.563l0,0c25.827,0,46.771,12.787,46.771,28.563V399.062z"/>
	<path fill="#999999" d="M861.789,377.649c-7.655,18.929-32.168,34.909-73.554,34.909c-3.965,0-7.719-0.194-11.378-0.475
		c7.762,9.22,23.441,15.538,41.584,15.538c25.827,0,46.771-12.783,46.771-28.561v-10.717
		C865.212,384.561,863.981,380.954,861.789,377.649z"/>
</g>
<g>
	<path fill="#666767" d="M817.07,446.407c-38.594,0-69.984-20.397-69.984-45.48c0-13.166-16.488-23.877-36.749-23.877
		c-20.263,0-36.74,10.711-36.74,23.877c0,25.083-31.393,45.48-69.99,45.48c-38.585,0-69.973-20.397-69.973-45.48
		c0-13.166-16.488-23.877-36.746-23.877c-20.26,0-36.741,10.711-36.741,23.877c0,25.083-31.403,45.48-69.991,45.48
		c-38.589,0-69.979-20.397-69.979-45.48c0-13.166-16.482-23.877-36.742-23.877c-20.262,0-36.74,10.711-36.74,23.877
		c0,25.083-31.397,45.48-69.985,45.48c-38.586,0-69.982-20.397-69.982-45.48c0-13.166-16.49-23.877-36.742-23.877
		c-20.258,0-36.747,10.711-36.747,23.877c0,5.966-7.446,10.803-16.62,10.803C7.443,411.729,0,406.893,0,400.927
		c0-25.081,31.397-45.48,69.985-45.48c38.589,0,69.988,20.399,69.988,45.48c0,13.166,16.474,23.879,36.737,23.879
		c20.264,0,36.737-10.713,36.737-23.879c0-25.081,31.401-45.48,69.988-45.48c38.589,0,69.986,20.399,69.986,45.48
		c0,13.166,16.479,23.879,36.736,23.879c20.264,0,36.746-10.713,36.746-23.879c0-25.081,31.397-45.48,69.986-45.48
		c38.596,0,69.982,20.399,69.982,45.48c0,13.166,16.485,23.879,36.737,23.879c20.264,0,36.754-10.713,36.754-23.879
		c0-25.081,31.394-45.48,69.976-45.48c38.593,0,69.987,20.399,69.987,45.48c0,13.166,16.488,23.879,36.746,23.879
		c20.26,0,36.742-10.713,36.742-23.879c-0.174-12.073,6.838-23.441,19.758-31.919c13.333-8.742,31.367-13.562,50.79-13.562
		c38.593,0,69.982,20.399,69.982,45.48c0,5.966-7.436,10.803-16.619,10.803c-9.182,0-16.619-4.837-16.619-10.803
		c0-13.166-16.486-23.877-36.744-23.877c-10.482,0-20.135,2.547-27.176,7.165c-4.683,3.075-10.246,8.448-10.136,16.612
		C887.048,426.01,855.654,446.407,817.07,446.407z"/>
</g>
<line fill="#767777" x1="524.167" y1="630.248" x2="447.897" y2="630.248"/>
<path fill="#767777" d="M428.033,665.284"/>
</svg>
