<?xml version="1.0" encoding="utf-8"?>
<!-- Generator: Adobe Illustrator 16.0.0, SVG Export Plug-In . SVG Version: 6.00 Build 0)  -->
<!DOCTYPE svg PUBLIC "-//W3C//DTD SVG 1.1//EN" "http://www.w3.org/Graphics/SVG/1.1/DTD/svg11.dtd">
<svg version="1.1" id="圖層_1" xmlns="http://www.w3.org/2000/svg" xmlns:xlink="http://www.w3.org/1999/xlink" x="0px" y="0px"
	 width="994.342px" height="813.776px" viewBox="0 0 994.342 813.776" enable-background="new 0 0 994.342 813.776"
	 xml:space="preserve">
<g>
	<ellipse opacity="0.4" fill="#5D5E5E" cx="488.936" cy="744.532" rx="380.795" ry="44.286"/>
</g>
<g>
	<path fill="#878787" d="M390.571,726.154v26.416c0,0,85.255,33.537,184.334,0v-26.416"/>
	<ellipse fill="#999999" cx="482.738" cy="726.154" rx="92.167" ry="22.158"/>
</g>
<path fill="#656666" d="M435.866,604.727c0,0,22.604,2.878,47.938,4.134c20.424,1.012,42.104-1.142,52.305-2.134
	c0,0-37.775,54.465-16.189,121.282c0,0-35.204,17.52-69.248-0.198C450.672,727.811,474.91,673.483,435.866,604.727z"/>
<g>
	<path fill="#989898" d="M943.929,349.325c0,0,4.54,3.377,12.426,11.157s-2.634-0.532-2.634-0.532L943.929,349.325z"/>
	<path fill="#989898" d="M954.022,359.736c0,16.935-47.019,23.813-67.236,23.813H130.15c-20.217,0-48.034-9.515-48.034-26.448
		l-15.604-1.6c101.354-109.336,788.896-81.531,877.417-6.177L954.022,359.736z"/>
</g>
<path fill="#8AD1EE" d="M938.933,356.44c0,16.935-33.132,33.554-53.349,33.554H128.947c-20.217,0-48.034-9.515-48.034-26.448h-6.717
	C167.017,258.606,857.35,281.587,938.933,356.44L938.933,356.44z"/>
<path fill="#989898" d="M922.88,358.551c-41.002,0-45.431,25.946-45.431,25.946l-1.493,5.581h-122.29
	c-2.406-14.8-17.262-28.42-44.636-28.42c-27.384,0-42.22,13.62-44.627,28.42H541.055c-2.005-15.103-16.909-29.199-44.762-29.199
	c-27.867,0-42.77,14.097-44.765,29.199H326.328c-0.236-16.22-15.218-32.316-44.995-32.316c-29.771,0-44.756,16.097-44.992,32.316
	H118.378l-1.486-5.581c0,0-4.432-25.946-45.425-25.946c-41.002,0-38.229,36.102-38.229,36.102
	c8.762-16.703,52.026-15.633,52.026,7.616c0,1.346,0.187,2.612,0.456,3.837c9.434,125.614,189.999,225.816,411.449,225.816
	c221.452,0,402.021-100.202,411.454-225.816c0.267-1.225,0.454-2.491,0.454-3.837c0-23.249,43.273-24.319,52.028-7.616
	C961.104,394.652,963.875,358.551,922.88,358.551z"/>
<path opacity="0.3" fill="#989898" d="M922.863,355.46c-41.002,0-45.415,24.078-45.415,24.078l-1.493,5.692H811.48
	c-17.867,128.145-163.036,232.654-341.545,246.111c9.011,0.346,18.071,0.58,27.233,0.58c221.452,0,402.021-102.211,411.454-230.343
	c0.267-1.249,0.454-2.541,0.454-3.913c0-23.716,43.273-24.808,52.028-7.77C961.104,389.896,963.858,355.46,922.863,355.46z"/>
<g>
	<path fill="#666767" d="M817.07,446.407c-38.594,0-69.984-20.397-69.984-45.48c0-13.166-16.488-23.877-36.749-23.877
		c-20.263,0-36.74,10.711-36.74,23.877c0,25.083-31.393,45.48-69.99,45.48c-38.585,0-69.973-20.397-69.973-45.48
		c0-13.166-16.488-23.877-36.746-23.877c-20.26,0-36.741,10.711-36.741,23.877c0,25.083-31.403,45.48-69.991,45.48
		c-38.589,0-69.979-20.397-69.979-45.48c0-13.166-16.482-23.877-36.742-23.877c-20.262,0-36.74,10.711-36.74,23.877
		c0,25.083-31.397,45.48-69.985,45.48c-38.586,0-69.982-20.397-69.982-45.48c0-13.166-16.49-23.877-36.742-23.877
		c-20.258,0-36.747,10.711-36.747,23.877c0,5.966-7.446,10.803-16.62,10.803C7.443,411.729,0,406.893,0,400.927
		c0-25.081,31.397-45.48,69.985-45.48c38.589,0,69.988,20.399,69.988,45.48c0,13.166,16.474,23.879,36.737,23.879
		c20.264,0,36.737-10.713,36.737-23.879c0-25.081,31.401-45.48,69.988-45.48c38.589,0,69.986,20.399,69.986,45.48
		c0,13.166,16.479,23.879,36.736,23.879c20.264,0,36.746-10.713,36.746-23.879c0-25.081,31.397-45.48,69.986-45.48
		c38.596,0,69.982,20.399,69.982,45.48c0,13.166,16.485,23.879,36.737,23.879c20.264,0,36.754-10.713,36.754-23.879
		c0-25.081,31.394-45.48,69.976-45.48c38.593,0,69.987,20.399,69.987,45.48c0,13.166,16.488,23.879,36.746,23.879
		c20.26,0,36.742-10.713,36.742-23.879c-0.174-12.073,6.838-23.441,19.758-31.919c13.333-8.742,31.367-13.562,50.79-13.562
		c38.593,0,69.982,20.399,69.982,45.48c0,5.966-7.436,10.803-16.619,10.803c-9.182,0-16.619-4.837-16.619-10.803
		c0-13.166-16.486-23.877-36.744-23.877c-10.482,0-20.135,2.547-27.176,7.165c-4.683,3.075-10.246,8.448-10.136,16.612
		C887.048,426.01,855.654,446.407,817.07,446.407z"/>
</g>
<g>
	<path fill="#8AD1EE" d="M493.167,147.037c0,0-23.092-99.515-98.816-103.647c-81.71-4.454-103.471,32.128-91.608,54.223
		c0,0-29.738,12.783-10.449,38.481c19.282,25.701,51.449,1.378,51.449,1.378s-4.894,17.848,17.216,20.166
		c22.104,2.322,37.921-53.275,81.835-43.567c35.278,7.796,39.259,32.967,39.259,32.967H493.167z"/>
	<path opacity="0.3" fill="#96C6DB" d="M424.616,104.19c-15.829,1.438-35.398,8.73-46.457,20.236
		c-3.894,4.052-9.92,12.492-16.729,11.691c-6.19-0.724-8.352-3.512-9.708-9.338c-3.16-13.584-20.573,3.808-24.934,6.904
		c-9.669,6.868-22.568,6.91-33.906,3.134c19.341,24.464,50.86,0.653,50.86,0.653s-4.894,17.848,17.216,20.166
		c22.104,2.322,37.921-53.275,81.835-43.567c35.278,7.796,39.259,32.967,39.259,32.967h11.114c0,0-1.004-4.27-3.226-11.02
		C473.62,118.566,449.153,101.955,424.616,104.19z"/>
	<g>
		<path fill="#8AD1EE" d="M481.07,147.037c0,0,23.09-99.515,98.813-103.647c81.708-4.454,103.473,32.128,91.611,54.223
			c0,0,29.734,12.783,10.448,38.481c-19.282,25.701-51.453,1.378-51.453,1.378s4.891,17.848-17.212,20.166
			c-22.109,2.322-37.927-53.275-81.841-43.567c-35.272,7.796-39.257,32.967-39.257,32.967H481.07z"/>
		<path opacity="0.3" fill="#96C6DB" d="M549.616,104.19c15.836,1.438,35.396,8.73,46.456,20.236
			c3.894,4.052,9.92,12.492,16.732,11.691c6.186-0.724,8.349-3.512,9.709-9.338c3.161-13.584,20.574,3.808,24.932,6.904
			c9.667,6.868,22.564,6.91,33.909,3.134c-19.344,24.464-50.865,0.653-50.865,0.653s4.891,17.848-17.212,20.166
			c-22.109,2.322-37.927-53.275-81.841-43.567c-35.272,7.796-39.257,32.967-39.257,32.967H481.07c0,0,1.002-4.27,3.222-11.02
			C500.617,118.566,525.079,101.955,549.616,104.19z"/>
	</g>
	<g>
		<path fill="#FAF2E2" d="M622.651,20.04c-2.812-4.772-6.755-8.716-10.855-10.924c-6.255-3.572-16.864-4.174-16.864-4.174
			s-11.445-8.721-12.259-2.993l-0.806,5.06c-4.523,2.226-9.342,5.836-13.248,11.502c-8.669,10.73-7.729,23.407-7.729,23.407
			c0.459,2.823,1.265,5.434,2.341,7.833l-0.3-0.525c0,0-5.467,6.151-2.979,8.673c2.487,2.524,6.684-2.23,6.684-2.23l-0.729-1.294
			c6.829,9.564,18.897,15.401,29.31,16.486c0,0,2.082,11.577,5.634,4.72l2.263-4.712c2.648-0.303,5.058-0.926,7.087-1.869
			c10.483-6.428,15.517-25.354,16.633-34.943c0.035,0.046,0.067,0.084,0.098,0.117c1.409,1.42,6.693,0.762,6.693,0.762
			C644.542,32.745,624.77,21.249,622.651,20.04z"/>
		<path fill="#0A0506" stroke="#0B0205" stroke-width="0.1663" stroke-miterlimit="10" d="M592.875,16.271
			c-0.246,1.347-1.53,2.24-2.867,1.994c-1.339-0.249-2.227-1.539-1.983-2.887c0.246-1.35,1.528-2.242,2.869-1.995
			C592.232,13.63,593.12,14.922,592.875,16.271z"/>
		<path fill="#0A0506" stroke="#0B0205" stroke-width="0.1663" stroke-miterlimit="10" d="M612.503,27.335
			c-0.244,1.35-1.525,2.24-2.864,1.993c-1.341-0.247-2.228-1.537-1.986-2.887c0.246-1.348,1.532-2.239,2.872-1.993
			C611.865,24.692,612.748,25.987,612.503,27.335z"/>
		<g>
			<path fill="#E8BFB0" stroke="#211512" stroke-width="0.499" stroke-miterlimit="10" d="M599.641,27.95
				c-1.318-1.067-2.272-3.414-2.272-3.414c-0.939,1.467-2.852,0.683-3.477,0.375l1.336,0.705c-0.095,1.125-0.275,5.942,3.929,2.08
				L599.641,27.95z"/>
			<path fill="#E8BFB0" stroke="#211512" stroke-width="0.499" stroke-miterlimit="10" d="M593.891,24.911l-0.201-0.109
				C593.69,24.802,593.765,24.847,593.891,24.911z"/>
			<path fill="#E8BFB0" stroke="#211512" stroke-width="0.499" stroke-miterlimit="10" d="M599.641,27.95
				c0.286,0.233,0.591,0.409,0.905,0.48L599.641,27.95z"/>
		</g>
		<path fill="#F4E0CE" d="M584.057,0.307c0,0,3.791,4.888,2.239,5.507c-1.552,0.619-4.417,1.541-4.417,1.541
			S582.482-1.427,584.057,0.307z"/>
		<path fill="#F4E0CE" d="M627.271,35.005c0,0-0.272-5.221-2.04-6.646c-0.564-0.454,6.644,3.039,9.347,2.13
			C636.651,29.787,640.672,38.429,627.271,35.005z"/>
		<g>
			<g>
				<g>
					<path opacity="0.1091" fill="#EECBB9" d="M608.047,33.784c-0.229,0.784-0.238,1.059,0.264,1.725
						c0.155,0.206,0.51-0.129,0.576-0.277c0.076-0.186,0.168-0.359,0.279-0.527c-0.113-0.033-0.227-0.067-0.342-0.101
						c-0.02,0.246-0.039,0.492-0.058,0.739c-0.042,0.147,0.208,0.21,0.295,0.159c0.583-0.335,0.591-0.393,0.65-1.091
						c0.011-0.116-0.146-0.052-0.174,0.003c-0.315,0.604-0.219,0.841-0.342,0.193c-0.017-0.086-0.29-0.188-0.342-0.101
						c-0.17,0.249-0.341,0.498-0.512,0.745c0.17-0.061,0.339-0.121,0.508-0.183c-0.075-0.404-0.151-0.808-0.226-1.212
						C608.735,33.466,608.112,33.56,608.047,33.784z"/>
					<path opacity="0.1091" fill="#EECBB9" d="M607.399,33.499c-0.228,0.808-0.177,1.003,0.361,1.599
						c0.18,0.199,0.562-0.19,0.634-0.349c0.066-0.158,0.148-0.308,0.246-0.447c-0.113-0.037-0.227-0.073-0.34-0.109
						c-0.021,0.246-0.043,0.494-0.065,0.74c-0.049,0.159,0.213,0.205,0.3,0.153c0.587-0.342,0.609-0.378,0.659-1.085
						c0.008-0.116-0.126-0.043-0.152,0.004c-0.349,0.604-0.241,0.82-0.371,0.202c-0.018-0.084-0.285-0.197-0.339-0.11
						c-0.176,0.242-0.352,0.484-0.527,0.727c0.186-0.08,0.371-0.162,0.556-0.242c-0.324-0.412-0.364-0.832-0.12-1.257
						C608.349,32.979,607.467,33.261,607.399,33.499z"/>
					<path opacity="0.1091" fill="#EECBB9" d="M607.578,32.577c-0.202,0.783-0.18,1.066,0.374,1.639
						c0.117,0.122,0.25,0.091,0.349-0.052c0.156-0.228,0.312-0.455,0.465-0.685c-0.116-0.037-0.234-0.075-0.352-0.112
						c0.022,0.232,0.01,0.435-0.039,0.663c-0.023,0.109,0.14,0.318,0.263,0.242c0.576-0.359,0.568-0.392,0.633-1.075
						c0.012-0.119-0.116-0.03-0.14,0.01c-0.122,0.33-0.342,0.57-0.661,0.72c0.092,0.062,0.183,0.124,0.274,0.186
						c0.039-0.234,0.05-0.438,0.029-0.675c-0.01-0.106-0.285-0.209-0.352-0.112c-0.152,0.237-0.318,0.466-0.496,0.682
						c0.132,0.008,0.263,0.015,0.396,0.023c-0.065-0.457-0.129-0.912-0.192-1.367C608.235,32.283,607.636,32.353,607.578,32.577z"/>
					<path opacity="0.1091" fill="#EECBB9" d="M608.054,33.188c-0.21,0.778-0.187,1.063,0.313,1.674
						c0.116,0.143,0.306,0.05,0.392-0.089c0.137-0.226,0.28-0.448,0.426-0.669c-0.119-0.03-0.239-0.059-0.358-0.09
						c-0.017,0.24-0.032,0.48-0.047,0.722c-0.026,0.114,0.195,0.229,0.282,0.176c0.533-0.332,0.548-0.36,0.601-1.015
						c0.01-0.126-0.112-0.176-0.173-0.053c-0.076,0.331-0.267,0.563-0.575,0.697c0.094,0.059,0.188,0.118,0.283,0.176
						c0.017-0.23,0.027-0.432-0.004-0.66c-0.011-0.08-0.278-0.212-0.332-0.13c-0.154,0.248-0.321,0.486-0.505,0.713
						c0.131-0.029,0.262-0.06,0.393-0.089c-0.066-0.418-0.133-0.836-0.198-1.254C608.645,32.958,608.116,32.956,608.054,33.188z"/>
					<path opacity="0.1091" fill="#EECBB9" d="M608.155,32.468c-0.226,0.873-0.144,1.064,0.406,1.679
						c0.052,0.06,0.104,0.06,0.148-0.001c0.173-0.238,0.343-0.478,0.508-0.722c-0.116-0.037-0.232-0.076-0.35-0.113
						c0.021,0.226,0.01,0.427-0.025,0.649c-0.012,0.08,0.177,0.295,0.263,0.242c0.529-0.33,0.523-0.368,0.598-0.991
						c0.015-0.129-0.085-0.165-0.151-0.05c-0.108,0.339-0.324,0.583-0.646,0.73c0.087,0.08,0.176,0.161,0.263,0.241
						c0.051-0.256,0.072-0.486,0.055-0.746c-0.007-0.1-0.288-0.202-0.35-0.113c-0.155,0.21-0.304,0.425-0.448,0.642
						c0.086,0.045,0.171,0.089,0.257,0.133c-0.393-0.442-0.465-0.906-0.216-1.391C608.513,32.484,608.216,32.23,608.155,32.468z"/>
					<path opacity="0.1091" fill="#EECBB9" d="M607.01,33.226c-0.235,0.82-0.179,1.015,0.388,1.598
						c0.191,0.196,0.559-0.186,0.642-0.349c0.086-0.175,0.181-0.341,0.291-0.501c-0.12-0.027-0.241-0.056-0.361-0.082
						c-0.023,0.254-0.048,0.506-0.073,0.759c-0.047,0.149,0.208,0.216,0.296,0.16c0.584-0.355,0.631-0.431,0.667-1.105
						c0.005-0.115-0.105-0.032-0.131,0.01c-0.364,0.597-0.269,0.862-0.391,0.212c-0.015-0.081-0.284-0.207-0.336-0.123
						c-0.184,0.249-0.369,0.496-0.555,0.745c0.187-0.08,0.375-0.161,0.562-0.242c-0.291-0.433-0.314-0.863-0.072-1.291
						C608.048,32.67,607.081,32.981,607.01,33.226z"/>
					<path opacity="0.1091" fill="#EECBB9" d="M607.536,33.978c-0.227,0.806-0.177,0.999,0.348,1.607
						c0.183,0.211,0.604-0.25,0.675-0.4c0.062-0.146,0.141-0.282,0.234-0.411c-0.114-0.036-0.227-0.07-0.34-0.106
						c-0.028,0.249-0.054,0.497-0.081,0.746c-0.026,0.08,0.152,0.233,0.227,0.192c0.656-0.365,0.703-0.372,0.757-1.134
						c0.008-0.116-0.124-0.043-0.151,0.004c-0.352,0.593-0.245,0.796-0.382,0.201c-0.019-0.086-0.284-0.198-0.34-0.106
						c-0.181,0.242-0.363,0.485-0.545,0.728c0.197-0.094,0.393-0.189,0.591-0.283c-0.355-0.388-0.408-0.792-0.16-1.21
						C608.476,33.463,607.603,33.738,607.536,33.978z"/>
					<path opacity="0.1091" fill="#EECBB9" d="M608.479,33.063c-0.22,0.819-0.173,1.038,0.296,1.65
						c0.084,0.107,0.192,0.13,0.277,0.005c0.156-0.233,0.317-0.466,0.478-0.697c-0.119-0.034-0.238-0.069-0.356-0.103
						c0.022,0.246,0.003,0.464-0.04,0.707c-0.015,0.089,0.195,0.234,0.274,0.185c0.515-0.321,0.499-0.351,0.568-0.981
						c0.015-0.14-0.144-0.159-0.195-0.044c-0.181,0.229-0.361,0.455-0.541,0.684c0.091,0.063,0.183,0.123,0.274,0.186
						c0.039-0.237,0.047-0.443,0.025-0.68c-0.011-0.123-0.282-0.205-0.354-0.103c-0.331,0.644-0.462,0.438-0.393-0.619
						C608.837,33.081,608.542,32.826,608.479,33.063z"/>
					<path opacity="0.1091" fill="#EECBB9" d="M607.273,32.936c-0.223,0.829-0.151,1.028,0.388,1.596
						c0.174,0.186,0.458-0.086,0.547-0.249c0.101-0.196,0.213-0.388,0.335-0.573c-0.119-0.029-0.24-0.06-0.358-0.089
						c-0.017,0.25-0.036,0.5-0.053,0.749c-0.033,0.126,0.195,0.232,0.285,0.175c0.587-0.378,0.591-0.404,0.634-1.102
						c0.007-0.117-0.119-0.039-0.146,0.007c-0.106,0.323-0.311,0.559-0.616,0.708c0.094,0.059,0.191,0.115,0.285,0.174
						c0.008-0.233,0.013-0.439-0.023-0.669c-0.02-0.122-0.29-0.198-0.358-0.089c-0.169,0.237-0.339,0.474-0.508,0.71
						c0.161-0.054,0.323-0.106,0.483-0.16c-0.305-0.443-0.338-0.889-0.105-1.339C608.163,32.438,607.335,32.703,607.273,32.936z"/>
					<path opacity="0.1091" fill="#EECBB9" d="M607.835,32.771c-0.203,0.776-0.18,1.063,0.346,1.648
						c0.113,0.128,0.26,0.085,0.354-0.057c0.148-0.227,0.3-0.454,0.454-0.68c-0.118-0.034-0.235-0.07-0.354-0.106
						c0.025,0.255,0.004,0.472-0.05,0.722c-0.022,0.1,0.194,0.233,0.277,0.181c0.561-0.353,0.546-0.395,0.594-1.063
						c0.008-0.119-0.14-0.033-0.164,0.014c-0.084,0.328-0.281,0.561-0.588,0.694c0.093,0.06,0.186,0.121,0.277,0.182
						c0.028-0.234,0.042-0.435,0.017-0.667c-0.011-0.119-0.281-0.212-0.353-0.106c-0.151,0.233-0.314,0.459-0.489,0.677
						c0.119-0.019,0.237-0.038,0.354-0.056c-0.054-0.426-0.109-0.853-0.165-1.279C608.444,32.522,607.895,32.542,607.835,32.771z"/>
					<path opacity="0.1091" fill="#EECBB9" d="M608.364,33.44c-0.21,0.76-0.195,1.041,0.282,1.682
						c0.108,0.146,0.295,0.057,0.376-0.076c0.129-0.212,0.262-0.422,0.4-0.63c-0.112-0.041-0.223-0.083-0.335-0.124
						c-0.016,0.239-0.031,0.479-0.046,0.718c-0.026,0.115,0.197,0.228,0.284,0.174c0.533-0.325,0.536-0.364,0.6-1.011
						c0.014-0.133-0.134-0.175-0.19-0.053c-0.186,0.231-0.372,0.464-0.558,0.695c0.094,0.058,0.189,0.116,0.284,0.174
						c0.018-0.232,0.028-0.434-0.005-0.661c-0.013-0.083-0.281-0.208-0.335-0.125c-0.151,0.244-0.314,0.478-0.492,0.703
						c0.126-0.026,0.252-0.051,0.376-0.076c-0.075-0.416-0.149-0.832-0.224-1.247C608.859,33.308,608.43,33.2,608.364,33.44z"/>
					<path opacity="0.1091" fill="#EECBB9" d="M607.039,33.54c-0.236,0.818-0.181,1.011,0.386,1.595
						c0.194,0.2,0.623-0.256,0.698-0.419c0.06-0.141,0.134-0.273,0.224-0.397c-0.112-0.04-0.224-0.079-0.336-0.118
						c-0.029,0.251-0.057,0.503-0.084,0.753c-0.026,0.079,0.152,0.237,0.227,0.194c0.656-0.378,0.714-0.367,0.753-1.134
						c0.007-0.116-0.106-0.033-0.133,0.008c-0.245,0.394-0.299,0.618-0.393,0.202c-0.02-0.081-0.281-0.206-0.337-0.117
						c-0.186,0.245-0.371,0.491-0.557,0.736c0.202-0.1,0.406-0.201,0.609-0.301c-0.302-0.412-0.329-0.823-0.082-1.232
						C608.128,32.966,607.113,33.287,607.039,33.54z"/>
				</g>
			</g>
		</g>
		<g>
			<g>
				<g>
					<path opacity="0.1091" fill="#EECBB9" d="M608.811,34.093c0.075,0.159,0.149,0.318,0.224,0.476
						c0.212,0.448,0.526-0.425,0.423-0.638c-0.077-0.159-0.153-0.318-0.231-0.478C609.013,33.008,608.711,33.881,608.811,34.093z"/>
					<path opacity="0.1091" fill="#EECBB9" d="M608.293,33.616c0.077,0.175,0.156,0.349,0.234,0.521
						c0.173,0.387,0.515-0.26,0.407-0.481c-0.084-0.173-0.169-0.346-0.252-0.519C608.498,32.76,608.195,33.399,608.293,33.616z"/>
					<path opacity="0.1091" fill="#EECBB9" d="M608.375,32.568c0.082,0.168,0.163,0.335,0.246,0.503
						c0.029,0.06,0.381,0.098,0.354,0.044c-0.082-0.17-0.163-0.339-0.245-0.509C608.703,32.549,608.353,32.524,608.375,32.568z"/>
					<path opacity="0.1091" fill="#EECBB9" d="M608.805,33.381c0.081,0.166,0.161,0.332,0.241,0.498
						c0.144,0.3,0.486-0.102,0.374-0.33c-0.083-0.171-0.167-0.342-0.25-0.514C609.022,32.736,608.695,33.152,608.805,33.381z"/>
					<path opacity="0.1091" fill="#EECBB9" d="M607.957,33.278c0.08,0.169,0.159,0.337,0.239,0.506
						c0.143,0.302,0.489-0.104,0.375-0.334c-0.083-0.169-0.167-0.338-0.25-0.507C608.174,32.65,607.85,33.05,607.957,33.278z"/>
					<path opacity="0.1091" fill="#EECBB9" d="M608.429,34.188c0.074,0.158,0.147,0.316,0.22,0.475
						c0.217,0.471,0.533-0.483,0.429-0.696c-0.075-0.154-0.149-0.309-0.224-0.463C608.629,33.041,608.331,33.977,608.429,34.188z"/>
					<path opacity="0.1091" fill="#EECBB9" d="M609.142,33.252c0.082,0.165,0.164,0.331,0.244,0.496
						c0.115,0.235,0.468-0.007,0.356-0.239c-0.084-0.174-0.167-0.345-0.25-0.517C609.375,32.753,609.028,33.019,609.142,33.252z"/>
					<path opacity="0.1091" fill="#EECBB9" d="M608.178,32.922c0.081,0.167,0.161,0.336,0.242,0.504
						c0.091,0.189,0.458,0.047,0.345-0.188c-0.083-0.169-0.167-0.338-0.25-0.507C608.425,32.551,608.068,32.69,608.178,32.922z"/>
					<path opacity="0.1091" fill="#EECBB9" d="M608.592,32.804c0.082,0.166,0.163,0.334,0.245,0.5
						c0.061,0.123,0.459,0.155,0.371-0.029c-0.082-0.17-0.165-0.339-0.246-0.511C608.901,32.641,608.502,32.621,608.592,32.804z"/>
					<path opacity="0.1091" fill="#EECBB9" d="M609.067,33.694c0.078,0.171,0.158,0.344,0.235,0.516
						c0.167,0.365,0.504-0.22,0.397-0.442c-0.083-0.175-0.167-0.351-0.25-0.524C609.277,32.88,608.966,33.474,609.067,33.694z"/>
					<path opacity="0.1091" fill="#EECBB9" d="M607.99,33.653c0.078,0.175,0.155,0.35,0.232,0.525
						c0.174,0.393,0.519-0.275,0.411-0.497c-0.084-0.172-0.167-0.345-0.252-0.517C608.195,32.782,607.895,33.438,607.99,33.653z"/>
				</g>
			</g>
		</g>
		<g>
			<g>
				<g>
					<path opacity="0.1091" fill="#EECBB9" d="M609.993,33.885c-0.101,0.676-0.016,1.327,0.26,1.953
						c0.104,0.367,0.71-0.126,0.649-0.338c-0.265-0.597-0.346-1.217-0.248-1.861C610.659,33.277,609.997,33.653,609.993,33.885z"/>
					<path opacity="0.1091" fill="#EECBB9" d="M609.413,33.516c-0.098,0.667-0.001,1.305,0.291,1.914
						c0.118,0.378,0.766-0.196,0.708-0.411c-0.243-0.593-0.314-1.204-0.21-1.835C610.213,32.806,609.415,33.276,609.413,33.516z"/>
					<path opacity="0.1091" fill="#EECBB9" d="M609.604,32.549c0.004,1.267-0.079,0.763,0.307,1.973
						c0.086,0.271,0.461,0.113,0.401-0.117c-0.073-0.61-0.146-1.22-0.22-1.83C610.097,32.237,609.603,32.315,609.604,32.549z"/>
					<path opacity="0.1091" fill="#EECBB9" d="M610.036,33.181c-0.004,1.271-0.083,0.77,0.283,1.994
						c0.091,0.309,0.536,0.04,0.473-0.183c-0.08-0.603-0.161-1.204-0.241-1.807C610.554,32.83,610.037,32.946,610.036,33.181z"/>
					<path opacity="0.1091" fill="#EECBB9" d="M610.159,32.425c-0.093,0.66-0.001,1.293,0.272,1.9
						c0.022,0.077,0.318,0.332,0.27,0.16c-0.269-0.608-0.353-1.242-0.253-1.9C610.45,32.466,610.159,32.204,610.159,32.425z"/>
					<path opacity="0.1091" fill="#EECBB9" d="M609.045,33.241c-0.101,0.669-0.001,1.306,0.299,1.911
						c0.122,0.378,0.767-0.196,0.714-0.412c-0.234-0.601-0.299-1.218-0.192-1.854C609.878,32.509,609.045,32.999,609.045,33.241z"/>
					<path opacity="0.1091" fill="#EECBB9" d="M609.539,34.007c-0.1,0.668-0.004,1.308,0.285,1.918
						c0.118,0.389,0.821-0.259,0.763-0.472c-0.253-0.58-0.327-1.184-0.222-1.808C610.374,33.265,609.541,33.766,609.539,34.007z"/>
					<path opacity="0.1091" fill="#EECBB9" d="M610.448,33.041c-0.095,0.662-0.008,1.302,0.259,1.918
						c0.051,0.182,0.424,0.293,0.36,0.079c-0.275-0.603-0.362-1.229-0.264-1.883C610.805,32.962,610.45,32.796,610.448,33.041z"/>
					<path opacity="0.1091" fill="#EECBB9" d="M609.32,32.927c-0.1,0.67,0,1.312,0.296,1.922c0.109,0.347,0.646-0.066,0.591-0.285
						c-0.241-0.61-0.312-1.24-0.212-1.891C610.004,32.313,609.32,32.693,609.32,32.927z"/>
					<path opacity="0.1091" fill="#EECBB9" d="M609.842,32.747c0,1.268-0.078,0.763,0.297,1.979
						c0.084,0.276,0.472,0.103,0.411-0.128c-0.076-0.607-0.152-1.213-0.227-1.821C610.327,32.449,609.842,32.511,609.842,32.747z"/>
					<path opacity="0.1091" fill="#EECBB9" d="M610.324,33.438c-0.011,1.272-0.082,0.769,0.271,2.002
						c0.085,0.303,0.524,0.051,0.459-0.172c-0.083-0.601-0.167-1.2-0.252-1.801C610.805,33.142,610.325,33.197,610.324,33.438z"/>
					<path opacity="0.1091" fill="#EECBB9" d="M609.067,33.563c-0.103,0.669-0.003,1.306,0.299,1.91
						c0.126,0.391,0.839-0.273,0.785-0.49c-0.235-0.589-0.3-1.197-0.192-1.824C609.972,32.776,609.067,33.317,609.067,33.563z"/>
				</g>
			</g>
		</g>
		<g>
			<g>
				<g>
					<path opacity="0.1091" fill="#EECBB9" d="M611.244,34.538c0.08,0.454,0.161,0.908,0.241,1.36
						c-0.014,0.388,0.497-0.263,0.49-0.537c0.087-0.528-0.015-1.015-0.309-1.457C611.468,33.454,611.151,34.321,611.244,34.538z"/>
					<path opacity="0.1091" fill="#EECBB9" d="M610.725,34.063c0.082,0.475,0.162,0.947,0.242,1.423
						c-0.01,0.35,0.474-0.168,0.466-0.44c-0.026-0.872,0.044-0.64-0.313-1.459C610.954,33.204,610.634,33.841,610.725,34.063z"/>
					<path opacity="0.1091" fill="#EECBB9" d="M610.803,33c0.095,0.468,0.191,0.937,0.285,1.404c0,0.106,0.355,0.188,0.355,0.121
						c0.011-1.025,0.105-0.567-0.27-1.454C611.135,32.979,610.81,33.015,610.803,33z"/>
					<path opacity="0.1091" fill="#EECBB9" d="M611.239,33.825c0.087,0.437,0.173,0.872,0.259,1.309
						c-0.003,0.313,0.413,0.199,0.41-0.098c-0.005-1.005,0.079-0.667-0.3-1.55C611.478,33.185,611.139,33.592,611.239,33.825z"/>
					<path opacity="0.1091" fill="#EECBB9" d="M610.39,33.726c0.083,0.475,0.165,0.949,0.248,1.425
						c-0.005,0.299,0.431-0.064,0.427-0.325c-0.011-0.897,0.059-0.599-0.306-1.433C610.627,33.092,610.293,33.494,610.39,33.726z"/>
					<path opacity="0.1091" fill="#EECBB9" d="M610.861,34.634c0.079,0.452,0.156,0.905,0.235,1.357
						c-0.018,0.41,0.518-0.326,0.509-0.61c0.084-0.519-0.02-0.993-0.312-1.427C611.083,33.486,610.77,34.419,610.861,34.634z"/>
					<path opacity="0.1091" fill="#EECBB9" d="M611.578,33.698c0.086,0.439,0.173,0.879,0.26,1.318c0,0.218,0.39,0.227,0.389-0.037
						c-0.003-1.021,0.08-0.64-0.299-1.536C611.827,33.204,611.474,33.459,611.578,33.698z"/>
					<path opacity="0.1091" fill="#EECBB9" d="M610.612,33.368c0.084,0.453,0.168,0.907,0.253,1.359
						c-0.002,0.234,0.395,0.225,0.393-0.047c-0.005-1.008,0.079-0.616-0.306-1.5C610.871,32.993,610.512,33.132,610.612,33.368z"/>
					<path opacity="0.1091" fill="#EECBB9" d="M611.027,33.25c0.288,0.429,0.381,0.897,0.278,1.407
						c-0.001,0.142,0.374,0.231,0.374,0.008c0.103-0.524,0.008-1.007-0.281-1.451C611.344,33.088,610.945,33.06,611.027,33.25z"/>
					<path opacity="0.1091" fill="#EECBB9" d="M611.5,34.138c0.086,0.464,0.17,0.93,0.255,1.393
						c-0.005,0.317,0.438-0.093,0.433-0.35c-0.012-0.909,0.06-0.643-0.3-1.486C611.733,33.33,611.406,33.913,611.5,34.138z"/>
					<path opacity="0.1091" fill="#EECBB9" d="M610.423,34.101c0.078,0.474,0.156,0.947,0.235,1.422
						c-0.014,0.361,0.483-0.195,0.475-0.473c0.082-0.521-0.022-1-0.314-1.437C610.647,33.225,610.332,33.881,610.423,34.101z"/>
				</g>
			</g>
		</g>
		<g>
			<g>
				<g>
					<path opacity="0.1091" fill="#EECBB9" d="M607.59,35.135c0.03,0.14,0.059,0.278,0.09,0.417
						c-0.017,0.35,0.506-0.234,0.475-0.557c0.022-0.189-0.026-0.355-0.146-0.5C607.755,34.061,607.478,34.934,607.59,35.135z"/>
					<path opacity="0.1091" fill="#EECBB9" d="M607.072,34.657c0.031,0.16,0.061,0.319,0.092,0.479
						c-0.01,0.313,0.484-0.13,0.45-0.444c0.017-0.192-0.033-0.362-0.152-0.513C607.256,33.808,606.963,34.445,607.072,34.657z"/>
					<path opacity="0.1091" fill="#EECBB9" d="M607.154,33.61c0.042,0.148,0.082,0.298,0.122,0.446
						c0.005,0.099,0.361,0.166,0.36,0.11c-0.005-0.371,0.036-0.224-0.126-0.519C607.478,33.589,607.132,33.572,607.154,33.61z"/>
					<path opacity="0.1091" fill="#EECBB9" d="M607.584,34.422c0.035,0.122,0.069,0.243,0.104,0.365
						c0.007,0.365,0.421,0.122,0.403-0.195c-0.015-0.266-0.011-0.275-0.143-0.515C607.787,33.782,607.461,34.2,607.584,34.422z"/>
					<path opacity="0.1091" fill="#EECBB9" d="M606.736,34.319c0.032,0.129,0.063,0.256,0.097,0.384
						c-0.005,0.399,0.443,0.109,0.414-0.231c-0.021-0.246-0.018-0.26-0.147-0.485C606.936,33.696,606.616,34.1,606.736,34.319z"/>
					<path opacity="0.1091" fill="#EECBB9" d="M607.255,35.313c0.012,0.11,0.023,0.222,0.034,0.331
						c-0.025,0.358,0.532-0.285,0.493-0.63c-0.035-0.305-0.043-0.307-0.195-0.553C607.403,34.167,607.138,35.105,607.255,35.313z"/>
					<path opacity="0.1091" fill="#EECBB9" d="M607.922,34.295c0.035,0.126,0.07,0.252,0.105,0.378
						c0.007,0.224,0.401,0.213,0.389-0.053c-0.015-0.345,0.008-0.304-0.146-0.587C608.144,33.799,607.795,34.066,607.922,34.295z"/>
					<path opacity="0.1091" fill="#EECBB9" d="M606.958,33.962c0.033,0.139,0.066,0.277,0.1,0.414
						c0.003,0.222,0.404,0.218,0.389-0.051c-0.018-0.338,0.004-0.274-0.152-0.551C607.193,33.596,606.833,33.738,606.958,33.962z"/>
					<path opacity="0.1091" fill="#EECBB9" d="M607.395,33.887c0.033,0.141,0.066,0.28,0.101,0.42
						c0.004,0.139,0.382,0.222,0.372,0.002c-0.014-0.338,0.013-0.249-0.127-0.503C607.662,33.663,607.268,33.661,607.395,33.887z"/>
					<path opacity="0.1091" fill="#EECBB9" d="M607.846,34.736c0.033,0.15,0.068,0.302,0.101,0.452c0,0.298,0.447-0.083,0.425-0.368
						c-0.021-0.257-0.017-0.302-0.143-0.535C608.037,33.928,607.733,34.521,607.846,34.736z"/>
					<path opacity="0.1091" fill="#EECBB9" d="M606.77,34.696c0.029,0.16,0.058,0.322,0.085,0.484
						c-0.012,0.316,0.497-0.146,0.459-0.471c0.014-0.188-0.036-0.357-0.153-0.503C606.952,33.831,606.663,34.484,606.77,34.696z"/>
				</g>
			</g>
		</g>
		<g>
			<g>
				<g>
					<path opacity="0.1091" fill="#EECBB9" d="M584.82,19.467c-1.083,1.26-0.293,1.925,1.29,1.646
						c-0.083-0.072-0.167-0.146-0.252-0.217c-0.089,0.223-0.176,0.446-0.265,0.67c-0.1,0.252,0.299,0.365,0.396,0.095
						c0.087-0.243,0.174-0.487,0.262-0.729c0.043-0.119-0.151-0.236-0.252-0.217c-0.758,0.375-1.058,0.07-0.894-0.914
						C585.314,19.594,584.973,19.288,584.82,19.467z"/>
					<path opacity="0.1091" fill="#EECBB9" d="M584.062,19.1c-1.068,1.409,0.067,1.936,1.524,1.628
						c-0.082-0.074-0.162-0.149-0.244-0.225c-0.091,0.214-0.184,0.428-0.275,0.643c-0.115,0.27,0.302,0.355,0.407,0.08
						c0.086-0.221,0.171-0.444,0.257-0.665c0.042-0.112-0.146-0.245-0.245-0.226c-0.779,0.368-0.999,0.045-0.657-0.968
						C585.083,19.112,584.214,18.899,584.062,19.1z"/>
					<path opacity="0.1091" fill="#EECBB9" d="M584.117,18.289c-0.981,1.406,0.174,1.937,1.553,1.609
						c-0.084-0.07-0.169-0.142-0.253-0.21c-0.093,0.229-0.186,0.456-0.278,0.685c-0.066,0.161,0.259,0.38,0.347,0.154
						c0.096-0.244,0.192-0.489,0.288-0.732c0.032-0.083-0.188-0.222-0.253-0.211c-0.216-0.342-0.432-0.684-0.647-1.026
						C585.126,18.294,584.26,18.087,584.117,18.289z"/>
					<path opacity="0.1091" fill="#EECBB9" d="M584.712,18.94c-1.019,1.279-0.036,1.869,1.383,1.604
						c-0.083-0.074-0.167-0.146-0.25-0.219c-0.091,0.227-0.184,0.455-0.277,0.684c-0.082,0.2,0.273,0.379,0.368,0.133
						c0.096-0.248,0.19-0.494,0.285-0.74c0.039-0.102-0.163-0.234-0.249-0.219c-0.285-0.318-0.572-0.637-0.858-0.955
						C585.379,18.954,584.887,18.721,584.712,18.94z"/>
					<path opacity="0.1091" fill="#EECBB9" d="M584.711,18.251c-0.96,1.319,0.065,1.88,1.42,1.582
						c-0.08-0.081-0.161-0.164-0.241-0.247c-0.096,0.24-0.192,0.48-0.288,0.721c-0.045,0.113,0.248,0.368,0.324,0.178
						c0.093-0.231,0.187-0.461,0.279-0.692c0.042-0.104-0.137-0.263-0.242-0.248c-0.279-0.333-0.559-0.668-0.839-1.003
						C585.391,18.257,584.873,18.028,584.711,18.251z"/>
					<path opacity="0.1091" fill="#EECBB9" d="M583.634,18.798c-1.088,1.475,0.239,1.96,1.609,1.632
						c-0.083-0.073-0.166-0.146-0.248-0.22c-0.094,0.226-0.188,0.451-0.282,0.678c-0.105,0.252,0.294,0.37,0.396,0.1
						c0.089-0.234,0.176-0.47,0.265-0.705c0.039-0.104-0.159-0.238-0.248-0.221c-0.785,0.365-0.959,0.042-0.524-0.972
						C584.87,18.83,583.791,18.586,583.634,18.798z"/>
					<path opacity="0.1091" fill="#EECBB9" d="M584.268,19.574c-1.094,1.364-0.032,1.91,1.46,1.614
						c-0.083-0.073-0.166-0.146-0.249-0.22c-0.088,0.214-0.177,0.43-0.264,0.645c-0.137,0.335,0.336,0.288,0.444-0.014
						c0.072-0.201,0.144-0.401,0.216-0.603c0.044-0.121-0.144-0.239-0.249-0.22c-0.775,0.374-1.029,0.056-0.761-0.955
						C585.103,19.587,584.423,19.382,584.268,19.574z"/>
					<path opacity="0.1091" fill="#EECBB9" d="M585.186,18.812c-1.024,1.252-0.234,1.9,1.246,1.64
						c-0.083-0.071-0.167-0.143-0.252-0.215c-0.09,0.226-0.18,0.451-0.271,0.676c-0.064,0.16,0.26,0.378,0.349,0.153
						c0.096-0.246,0.192-0.491,0.29-0.738c0.037-0.092-0.176-0.226-0.25-0.213c-0.316-0.328-0.628-0.656-0.944-0.982
						C585.482,19,585.333,18.635,585.186,18.812z"/>
					<path opacity="0.1091" fill="#EECBB9" d="M583.885,18.536c-1.045,1.448,0.201,1.943,1.572,1.615
						c-0.084-0.071-0.167-0.144-0.25-0.216c-0.096,0.232-0.191,0.466-0.287,0.699c-0.088,0.216,0.28,0.379,0.376,0.125
						c0.094-0.247,0.188-0.494,0.281-0.741c0.038-0.097-0.168-0.232-0.25-0.216c-0.184-0.328-0.368-0.654-0.554-0.981
						C585.036,18.559,584.036,18.329,583.885,18.536z"/>
					<path opacity="0.1091" fill="#EECBB9" d="M584.43,18.511c-1.007,1.364,0.089,1.896,1.462,1.6
						c-0.084-0.07-0.169-0.143-0.252-0.213c-0.091,0.229-0.184,0.455-0.275,0.684c-0.071,0.176,0.264,0.381,0.355,0.146
						c0.094-0.245,0.19-0.49,0.285-0.736c0.035-0.091-0.178-0.226-0.252-0.214c-0.238-0.339-0.476-0.677-0.714-1.016
						C585.275,18.516,584.577,18.313,584.43,18.511z"/>
					<path opacity="0.1091" fill="#EECBB9" d="M585.121,19.165c-1.114,1.3-0.189,1.881,1.236,1.645
						c-0.083-0.072-0.166-0.145-0.25-0.216c-0.088,0.228-0.178,0.455-0.267,0.684c-0.08,0.204,0.277,0.38,0.37,0.131
						c0.093-0.252,0.187-0.502,0.28-0.753c0.04-0.107-0.162-0.23-0.25-0.216c-0.313-0.318-0.627-0.637-0.94-0.955
						C585.435,19.349,585.273,18.986,585.121,19.165z"/>
					<path opacity="0.1091" fill="#EECBB9" d="M583.699,19.106c-1.096,1.439,0.133,1.97,1.584,1.641
						c-0.082-0.075-0.163-0.149-0.245-0.225c-0.091,0.212-0.183,0.425-0.275,0.637c-0.144,0.334,0.333,0.288,0.447-0.011
						c0.072-0.189,0.144-0.379,0.217-0.57c0.042-0.11-0.145-0.245-0.245-0.225c-0.775,0.364-0.966,0.043-0.569-0.962
						C584.878,19.135,583.857,18.899,583.699,19.106z"/>
				</g>
			</g>
		</g>
		<g>
			<g>
				<g>
					<path opacity="0.1091" fill="#EECBB9" d="M584.29,20.03c-0.09,0.508-0.306,0.956-0.647,1.341
						c-0.223,0.328,0.5,0.198,0.635-0.018c0.34-0.411,0.556-0.881,0.65-1.406C585.06,19.532,584.363,19.802,584.29,20.03z"/>
					<path opacity="0.1091" fill="#EECBB9" d="M583.721,19.653c-0.082,0.5-0.293,0.936-0.634,1.31
						c-0.26,0.378,0.634,0.109,0.771-0.112c0.321-0.397,0.523-0.847,0.607-1.352C584.61,19.022,583.792,19.432,583.721,19.653z"/>
					<path opacity="0.1091" fill="#EECBB9" d="M583.89,18.776c-0.091,0.518-0.312,0.97-0.662,1.357
						c-0.183,0.266,0.388,0.271,0.527,0.044c0.325-0.405,0.533-0.863,0.622-1.377C584.474,18.491,583.968,18.536,583.89,18.776z"/>
					<path opacity="0.1091" fill="#EECBB9" d="M584.322,19.407c-0.088,0.511-0.302,0.959-0.642,1.347
						c-0.179,0.267,0.379,0.27,0.518,0.05c0.333-0.408,0.545-0.871,0.638-1.391C584.939,19.083,584.398,19.168,584.322,19.407z"/>
					<path opacity="0.1091" fill="#EECBB9" d="M584.452,18.608c-0.089,0.514-0.303,0.968-0.641,1.362
						c-0.08,0.123,0.152,0.441,0.273,0.257c0.337-0.399,0.551-0.857,0.642-1.374C584.759,18.744,584.506,18.439,584.452,18.608z"/>
					<path opacity="0.1091" fill="#EECBB9" d="M583.356,19.377c-0.081,0.504-0.296,0.94-0.644,1.313
						c-0.274,0.391,0.679,0.087,0.819-0.14c0.314-0.396,0.513-0.845,0.594-1.346C584.272,18.714,583.425,19.155,583.356,19.377z"/>
					<path opacity="0.1091" fill="#EECBB9" d="M583.849,20.142c-0.082,0.499-0.292,0.934-0.63,1.306
						c-0.264,0.384,0.645,0.097,0.782-0.12c0.329-0.398,0.537-0.853,0.623-1.362C584.776,19.474,583.92,19.921,583.849,20.142z"/>
					<path opacity="0.1091" fill="#EECBB9" d="M584.731,19.268c-0.202,0.435-0.405,0.869-0.607,1.304
						c-0.098,0.152,0.161,0.448,0.293,0.243c0.539-0.827,0.367-0.472,0.671-1.433C585.144,19.206,584.809,19.023,584.731,19.268z"/>
					<path opacity="0.1091" fill="#EECBB9" d="M583.618,19.071c-0.087,0.51-0.306,0.956-0.658,1.335
						c-0.242,0.347,0.565,0.163,0.703-0.063c0.318-0.401,0.521-0.854,0.605-1.36C584.396,18.556,583.691,18.845,583.618,19.071z"/>
					<path opacity="0.1091" fill="#EECBB9" d="M584.128,18.974c-0.089,0.516-0.308,0.967-0.653,1.355
						c-0.175,0.256,0.365,0.282,0.506,0.058c0.327-0.406,0.537-0.867,0.627-1.382C584.703,18.701,584.206,18.733,584.128,18.974z"/>
					<path opacity="0.1091" fill="#EECBB9" d="M584.608,19.665c-0.087,0.506-0.297,0.955-0.632,1.344
						c-0.157,0.236,0.325,0.296,0.465,0.079c0.338-0.407,0.554-0.872,0.648-1.395C585.183,19.394,584.686,19.421,584.608,19.665z"/>
					<path opacity="0.1091" fill="#EECBB9" d="M583.383,19.695c-0.214,0.438-0.429,0.874-0.642,1.312
						c-0.288,0.41,0.731,0.057,0.869-0.17c0.474-0.769,0.373-0.57,0.634-1.45C584.338,19.066,583.444,19.506,583.383,19.695z"/>
				</g>
			</g>
		</g>
		<g>
			<g>
				<g>
					<path opacity="0.1091" fill="#EECBB9" d="M585.165,20.69c-0.093,0.232-0.186,0.466-0.277,0.7
						c-0.159,0.402,0.562,0.163,0.646-0.065c0.09-0.239,0.178-0.479,0.268-0.718C585.954,20.203,585.252,20.468,585.165,20.69z"/>
					<path opacity="0.1091" fill="#EECBB9" d="M584.596,20.313c-0.086,0.222-0.172,0.441-0.258,0.663
						c-0.18,0.464,0.681,0.064,0.763-0.159c0.079-0.219,0.159-0.438,0.238-0.657C585.508,19.695,584.681,20.095,584.596,20.313z"/>
					<path opacity="0.1091" fill="#EECBB9" d="M584.764,19.437c-0.09,0.232-0.18,0.466-0.27,0.698
						c-0.121,0.312,0.418,0.271,0.505,0.029c0.084-0.233,0.169-0.469,0.253-0.703C585.36,19.156,584.854,19.202,584.764,19.437z"/>
					<path opacity="0.1091" fill="#EECBB9" d="M585.195,20.067c-0.087,0.232-0.176,0.464-0.263,0.695
						c-0.123,0.323,0.432,0.257,0.519,0.019c0.086-0.236,0.172-0.472,0.258-0.708C585.827,19.752,585.284,19.833,585.195,20.067z"/>
					<path opacity="0.1091" fill="#EECBB9" d="M585.325,19.269c-0.087,0.234-0.173,0.467-0.26,0.7
						c-0.044,0.119,0.206,0.43,0.274,0.247c0.087-0.234,0.173-0.468,0.26-0.702C585.64,19.407,585.389,19.1,585.325,19.269z"/>
					<path opacity="0.1091" fill="#EECBB9" d="M584.229,20.035c-0.087,0.221-0.173,0.44-0.26,0.66
						c-0.188,0.478,0.717,0.036,0.798-0.189c0.078-0.213,0.155-0.428,0.232-0.641C585.172,19.388,584.315,19.819,584.229,20.035z"/>
					<path opacity="0.1091" fill="#EECBB9" d="M584.723,20.803c-0.085,0.218-0.171,0.438-0.256,0.657
						c-0.186,0.476,0.705,0.041,0.788-0.183c0.082-0.218,0.163-0.435,0.244-0.652C585.676,20.149,584.809,20.584,584.723,20.803z"/>
					<path opacity="0.1091" fill="#EECBB9" d="M585.606,19.928c-0.086,0.231-0.173,0.464-0.259,0.696
						c-0.065,0.174,0.266,0.365,0.354,0.124c0.087-0.235,0.173-0.471,0.26-0.706C586.024,19.872,585.695,19.688,585.606,19.928z"/>
					<path opacity="0.1091" fill="#EECBB9" d="M584.492,19.731c-0.096,0.233-0.189,0.468-0.285,0.703
						c-0.169,0.418,0.597,0.145,0.68-0.085c0.086-0.235,0.17-0.471,0.254-0.707C585.292,19.228,584.58,19.514,584.492,19.731z"/>
					<path opacity="0.1091" fill="#EECBB9" d="M585.003,19.634c-0.09,0.232-0.179,0.466-0.269,0.699
						c-0.115,0.302,0.406,0.278,0.493,0.036c0.086-0.235,0.17-0.47,0.255-0.704C585.59,19.368,585.093,19.398,585.003,19.634z"/>
					<path opacity="0.1091" fill="#EECBB9" d="M585.483,20.325c-0.087,0.23-0.173,0.462-0.26,0.693
						c-0.109,0.292,0.389,0.286,0.478,0.045c0.087-0.236,0.174-0.473,0.261-0.71C586.07,20.062,585.572,20.087,585.483,20.325z"/>
					<path opacity="0.1091" fill="#EECBB9" d="M584.257,20.355c-0.087,0.219-0.173,0.438-0.26,0.657
						c-0.201,0.504,0.775-0.011,0.858-0.236c0.077-0.212,0.155-0.423,0.232-0.635C585.271,19.64,584.343,20.14,584.257,20.355z"/>
				</g>
			</g>
		</g>
		<g>
			<g>
				<g>
					<path opacity="0.1091" fill="#EECBB9" d="M585.678,21.281c-0.044,0.206-0.087,0.412-0.13,0.618
						c-0.091,0.442,0.604,0.143,0.647-0.085c0.041-0.204,0.081-0.408,0.119-0.612C586.401,20.768,585.726,21.052,585.678,21.281z"/>
					<path opacity="0.1091" fill="#EECBB9" d="M585.086,20.995c-0.036,0.193-0.073,0.387-0.109,0.581
						c-0.063,0.338,0.743-0.12,0.791-0.361c0.036-0.183,0.072-0.367,0.109-0.551C585.943,20.326,585.132,20.75,585.086,20.995z"/>
					<path opacity="0.1091" fill="#EECBB9" d="M585.274,20.03c-0.036,0.202-0.074,0.404-0.111,0.605
						c-0.061,0.328,0.446,0.271,0.49,0.025c0.038-0.202,0.075-0.404,0.112-0.606C585.825,19.727,585.32,19.783,585.274,20.03z"/>
					<path opacity="0.1091" fill="#EECBB9" d="M585.709,20.66c-0.038,0.202-0.075,0.405-0.114,0.607
						c-0.063,0.349,0.471,0.25,0.515,0.007c0.039-0.202,0.075-0.404,0.112-0.607C586.288,20.319,585.753,20.416,585.709,20.66z"/>
					<path opacity="0.1091" fill="#EECBB9" d="M585.831,19.904c-0.037,0.202-0.075,0.404-0.111,0.606
						c-0.022,0.113,0.25,0.386,0.291,0.161c0.036-0.202,0.073-0.403,0.11-0.605C586.141,19.951,585.871,19.679,585.831,19.904z"/>
					<path opacity="0.1091" fill="#EECBB9" d="M584.715,20.72c-0.036,0.193-0.073,0.387-0.109,0.579
						c-0.065,0.338,0.774-0.145,0.824-0.389c0.038-0.181,0.073-0.361,0.111-0.542C585.608,20.03,584.764,20.472,584.715,20.72z"/>
					<path opacity="0.1091" fill="#EECBB9" d="M585.21,21.484c-0.037,0.194-0.075,0.388-0.111,0.58
						c-0.063,0.338,0.778-0.152,0.828-0.397c0.036-0.18,0.073-0.359,0.109-0.539C586.106,20.79,585.258,21.235,585.21,21.484z"/>
					<path opacity="0.1091" fill="#EECBB9" d="M586.12,20.52c-0.038,0.202-0.075,0.404-0.112,0.606
						c-0.033,0.188,0.31,0.365,0.357,0.116c0.036-0.202,0.074-0.404,0.111-0.606C586.509,20.448,586.166,20.27,586.12,20.52z"/>
					<path opacity="0.1091" fill="#EECBB9" d="M585.003,20.323c-0.043,0.206-0.086,0.413-0.129,0.619
						c-0.093,0.449,0.619,0.134,0.663-0.093c0.039-0.205,0.079-0.408,0.119-0.612C585.742,19.792,585.05,20.095,585.003,20.323z"/>
					<path opacity="0.1091" fill="#EECBB9" d="M585.515,20.227c-0.039,0.203-0.076,0.405-0.114,0.607
						c-0.058,0.321,0.438,0.278,0.483,0.03c0.037-0.202,0.073-0.404,0.112-0.607C586.055,19.938,585.56,19.98,585.515,20.227z"/>
					<path opacity="0.1091" fill="#EECBB9" d="M585.995,20.917c-0.037,0.202-0.075,0.406-0.112,0.607
						c-0.058,0.318,0.435,0.278,0.48,0.031c0.038-0.204,0.075-0.406,0.112-0.608C586.534,20.631,586.041,20.669,585.995,20.917z"/>
					<path opacity="0.1091" fill="#EECBB9" d="M584.737,21.043c-0.036,0.192-0.073,0.384-0.111,0.576
						c-0.063,0.336,0.843-0.202,0.897-0.456c0.036-0.174,0.072-0.349,0.109-0.521C585.703,20.306,584.787,20.783,584.737,21.043z"/>
				</g>
			</g>
		</g>
		<path fill="#E0AF2F" d="M601.026,38.011c-0.784,4.311-4.89,7.171-9.173,6.383c-4.286-0.788-7.124-4.925-6.339-9.236
			c0.781-4.313,4.887-7.173,9.174-6.383C598.972,29.562,601.81,33.697,601.026,38.011z"/>
		<path fill="#E09127" d="M592.074,43.172c-3.608-0.665-6.005-4.159-5.345-7.792c0.66-3.632,4.129-6.046,7.736-5.381
			c3.609,0.664,6.008,4.156,5.348,7.789C599.152,41.42,595.681,43.836,592.074,43.172z M594.271,31.067
			c-3.021-0.557-5.928,1.467-6.479,4.508c-0.552,3.043,1.455,5.968,4.478,6.523c3.022,0.559,5.927-1.464,6.479-4.504
			C599.301,34.552,597.294,31.623,594.271,31.067z"/>
		<path fill="#E09127" d="M594.963,35.402c-0.324-0.419-0.626-0.653-1.022-0.728c-0.462-0.084-0.71,0.005-0.789,0.437
			c-0.151,0.824,2.612,1.377,2.254,3.347c-0.19,1.05-0.887,1.77-2.063,1.83l-0.142,0.78l-1.203-0.222l0.128-0.714
			c-0.6-0.187-1.314-0.588-1.764-1.171l1.023-1.109c0.503,0.537,0.922,0.795,1.373,0.878c0.539,0.099,0.784-0.047,0.859-0.468
			c0.158-0.865-2.591-1.493-2.248-3.387c0.199-1.094,0.948-1.738,2.033-1.771l0.137-0.756l1.204,0.223l-0.13,0.731
			c0.655,0.233,1.109,0.671,1.456,1.207L594.963,35.402L594.963,35.402z"/>
		<path fill="#EAF0DA" stroke="#211512" stroke-width="0.499" stroke-miterlimit="10" d="M604.303,39.269
			c0,0-8.878-8.726-3.32,2.056"/>
		<path fill="#EAF0DA" stroke="#211512" stroke-width="0.499" stroke-miterlimit="10" d="M585.603,29.337c0,0,4.191,1.63,3.208,3.04
			c-0.981,1.412-3.198,2.336-4.147,1.903"/>
	</g>
</g>
<ellipse fill="#B2B2B2" cx="485.889" cy="284.112" rx="48.434" ry="32.521"/>
<polygon fill="#B2B2B2" points="528.399,323.143 444.297,323.143 462.014,238.857 473.486,156.802 499.742,156.802 511.109,238.857 
	"/>
<g>
	<path fill="#666767" d="M527.118,246.162c0,4.581-4.425,8.294-13.033,8.294h-57.598c-8.613,0-12.19-3.713-12.19-8.294l0,0
		c0-4.577,3.578-8.286,12.19-8.286h57.598C522.693,237.876,527.118,241.585,527.118,246.162L527.118,246.162z"/>
</g>
<path opacity="0.3" fill="#666767" d="M444.297,246.162c0.212,4.904,3.495,8.745,15.835,8.283h52.429
	c11.316,0.255,14.317-4.122,14.557-8.283H444.297z"/>
<g>
	<path fill="#666767" d="M505.209,151.298c0,3.951-3.183,7.156-7.104,7.156H474.59c-3.924,0-7.102-3.205-7.102-7.156l0,0
		c0-3.947,3.178-7.15,7.102-7.15h23.515C502.026,144.147,505.209,147.351,505.209,151.298L505.209,151.298z"/>
	<path opacity="0.3" fill="#666767" d="M467.708,152.986c0.756,3.132,3.542,5.468,6.882,5.468h23.515
		c3.339,0,6.125-2.336,6.882-5.468H467.708z"/>
</g>
<path fill="#989898" d="M922.88,358.551c-41.002,0-45.431,25.946-45.431,25.946l-1.493,5.581h-122.29
	c-2.406-14.8-17.262-28.42-44.636-28.42c-27.384,0-42.22,13.62-44.627,28.42H541.055c-2.005-15.103-16.909-29.199-44.762-29.199
	c-27.867,0-42.77,14.097-44.765,29.199H326.328c-0.236-16.22-15.218-32.316-44.995-32.316c-29.771,0-44.756,16.097-44.992,32.316
	H118.378l-1.486-5.581c0,0-4.432-25.946-45.425-25.946c-41.002,0-38.229,36.102-38.229,36.102
	c8.762-16.703,52.026-15.633,52.026,7.616c0,1.346,0.187,2.612,0.456,3.837c9.434,125.614,189.999,225.816,411.449,225.816
	c221.452,0,402.021-100.202,411.454-225.816c0.267-1.225,0.454-2.491,0.454-3.837c0-23.249,43.273-24.319,52.028-7.616
	C961.104,394.652,963.875,358.551,922.88,358.551z"/>
<path fill="#878787" d="M922.863,355.46c-41.002,0-45.415,24.078-45.415,24.078l-1.493,5.692H811.48
	c-17.867,128.145-163.036,232.654-341.545,246.111c9.011,0.346,18.071,0.58,27.233,0.58c221.452,0,402.021-102.211,411.454-230.343
	c0.267-1.249,0.454-2.541,0.454-3.913c0-23.716,43.273-24.808,52.028-7.77C961.104,389.896,963.858,355.46,922.863,355.46z"/>
<g>
	<path fill="#B2B2B2" d="M436.458,399.062c0,15.777-20.944,28.561-46.764,28.561l0,0c-25.824,0-46.761-12.783-46.761-28.561v-10.717
		c0-15.776,20.938-28.563,46.761-28.563l0,0c25.82,0,46.764,12.787,46.764,28.563V399.062z"/>
	<path fill="#999999" d="M362.813,410.685c-5.84,0-11.304-0.354-16.477-0.95c6.933,10.485,23.714,17.888,43.358,17.888
		c25.82,0,46.764-12.783,46.764-28.561v-10.717c0-2.937-0.729-5.764-2.076-8.434C424.981,396.979,401.144,410.685,362.813,410.685z"
		/>
</g>
<g>
	<path fill="#B2B2B2" d="M224.825,399.062c0,15.777-20.939,28.561-46.762,28.561l0,0c-25.823,0-46.765-12.783-46.765-28.561v-10.717
		c0-15.776,20.942-28.563,46.765-28.563l0,0c25.823,0,46.762,12.787,46.762,28.563V399.062z"/>
	<path fill="#999999" d="M156.228,408.819c-8.429,0-16.082-0.718-23.108-1.929c5.579,11.966,23.566,20.731,44.943,20.731
		c25.823,0,46.762-12.783,46.762-28.561v-10.717c0-1.64-0.271-3.238-0.714-4.795C212.911,397.951,190.324,408.819,156.228,408.819z"
		/>
</g>
<g>
	<path fill="#B2B2B2" d="M651.641,399.062c0,15.777-20.939,28.561-46.768,28.561l0,0c-25.815,0-46.758-12.783-46.758-28.561v-10.717
		c0-15.776,20.942-28.563,46.758-28.563l0,0c25.828,0,46.768,12.787,46.768,28.563V399.062z"/>
	<path fill="#999999" d="M578.594,414.427c-4.86,0-9.403-0.283-13.794-0.705c8.179,8.315,23.042,13.9,40.074,13.9
		c25.828,0,46.768-12.783,46.768-28.561v-10.717c0-1.979-0.33-3.914-0.959-5.781C641.708,400.129,617.722,414.427,578.594,414.427z"
		/>
</g>
<g>
	<path fill="#B2B2B2" d="M865.212,399.062c0,15.777-20.944,28.561-46.771,28.561l0,0c-25.817,0-46.753-12.783-46.753-28.561v-10.717
		c0-15.776,20.937-28.563,46.753-28.563l0,0c25.827,0,46.771,12.787,46.771,28.563V399.062z"/>
	<path fill="#999999" d="M861.789,377.649c-7.655,18.929-32.168,34.909-73.554,34.909c-3.965,0-7.719-0.194-11.378-0.475
		c7.762,9.22,23.441,15.538,41.584,15.538c25.827,0,46.771-12.783,46.771-28.561v-10.717
		C865.212,384.561,863.981,380.954,861.789,377.649z"/>
</g>
<g>
	<path fill="#666767" d="M817.07,446.407c-38.594,0-69.984-20.397-69.984-45.48c0-13.166-16.488-23.877-36.749-23.877
		c-20.263,0-36.74,10.711-36.74,23.877c0,25.083-31.393,45.48-69.99,45.48c-38.585,0-69.973-20.397-69.973-45.48
		c0-13.166-16.488-23.877-36.746-23.877c-20.26,0-36.741,10.711-36.741,23.877c0,25.083-31.403,45.48-69.991,45.48
		c-38.589,0-69.979-20.397-69.979-45.48c0-13.166-16.482-23.877-36.742-23.877c-20.262,0-36.74,10.711-36.74,23.877
		c0,25.083-31.397,45.48-69.985,45.48c-38.586,0-69.982-20.397-69.982-45.48c0-13.166-16.49-23.877-36.742-23.877
		c-20.258,0-36.747,10.711-36.747,23.877c0,5.966-7.446,10.803-16.62,10.803C7.443,411.729,0,406.893,0,400.927
		c0-25.081,31.397-45.48,69.985-45.48c38.589,0,69.988,20.399,69.988,45.48c0,13.166,16.474,23.879,36.737,23.879
		c20.264,0,36.737-10.713,36.737-23.879c0-25.081,31.401-45.48,69.988-45.48c38.589,0,69.986,20.399,69.986,45.48
		c0,13.166,16.479,23.879,36.736,23.879c20.264,0,36.746-10.713,36.746-23.879c0-25.081,31.397-45.48,69.986-45.48
		c38.596,0,69.982,20.399,69.982,45.48c0,13.166,16.485,23.879,36.737,23.879c20.264,0,36.754-10.713,36.754-23.879
		c0-25.081,31.394-45.48,69.976-45.48c38.593,0,69.987,20.399,69.987,45.48c0,13.166,16.488,23.879,36.746,23.879
		c20.26,0,36.742-10.713,36.742-23.879c-0.174-12.073,6.838-23.441,19.758-31.919c13.333-8.742,31.367-13.562,50.79-13.562
		c38.593,0,69.982,20.399,69.982,45.48c0,5.966-7.436,10.803-16.619,10.803c-9.182,0-16.619-4.837-16.619-10.803
		c0-13.166-16.486-23.877-36.744-23.877c-10.482,0-20.135,2.547-27.176,7.165c-4.683,3.075-10.246,8.448-10.136,16.612
		C887.048,426.01,855.654,446.407,817.07,446.407z"/>
</g>
<ellipse fill="#B2B2B2" cx="486.185" cy="323.21" rx="41.888" ry="5.574"/>
<line fill="#767777" x1="524.167" y1="630.248" x2="447.897" y2="630.248"/>
<path fill="#767777" d="M428.033,665.284"/>
</svg>
