<?xml version="1.0" encoding="utf-8"?>
<!-- Generator: Adobe Illustrator 16.0.0, SVG Export Plug-In . SVG Version: 6.00 Build 0)  -->
<!DOCTYPE svg PUBLIC "-//W3C//DTD SVG 1.1//EN" "http://www.w3.org/Graphics/SVG/1.1/DTD/svg11.dtd">
<svg version="1.1" id="圖層_1" xmlns="http://www.w3.org/2000/svg" xmlns:xlink="http://www.w3.org/1999/xlink" x="0px" y="0px"
	 width="1556px" height="1590.256px" viewBox="0 0 1556 1590.256" enable-background="new 0 0 1556 1590.256" xml:space="preserve">
<g>
	<defs>
		<rect id="SVGID_5_" x="-506.25" y="-1458.162" width="2506.69" height="1261.916"/>
	</defs>
	<clipPath id="SVGID_2_">
		<use xlink:href="#SVGID_5_"  overflow="visible"/>
	</clipPath>
	<g clip-path="url(#SVGID_2_)">
		<g>
		</g>
	</g>
</g>
<g>
	<defs>
		<rect id="SVGID_13_" width="1556" height="1626.26"/>
	</defs>
	<clipPath id="SVGID_4_">
		<use xlink:href="#SVGID_13_"  overflow="visible"/>
	</clipPath>
	<g clip-path="url(#SVGID_4_)">
		<path fill="#567C34" d="M1488.277,940.822c0.012-0.46,0.039-0.915,0.039-1.38c0-36.274-31.33-65.679-69.98-65.679
			c-38.646,0-69.976,29.404-69.976,65.679c0,0.465,0.031,0.92,0.041,1.38H1488.277z"/>
		<path fill="#3D7837" d="M1396.229,940.917c0.007-0.288,0.022-0.574,0.022-0.858c0-22.623-19.951-40.964-44.561-40.964
			s-44.558,18.341-44.558,40.964c0,0.284,0.018,0.57,0.023,0.858H1396.229z"/>
	</g>
	<rect x="-494.21" clip-path="url(#SVGID_4_)" fill="#EEF7F8" width="2503.725" height="982.881"/>
	<rect x="-514.286" y="940.791" clip-path="url(#SVGID_4_)" fill="#96BB55" width="2508.011" height="707.578"/>
	
		<path clip-path="url(#SVGID_4_)" fill="none" stroke="#96C6DB" stroke-width="27" stroke-linecap="round" stroke-miterlimit="10" d="
		M531.927,846.154"/>
	<rect x="-20.251" y="215.416" clip-path="url(#SVGID_4_)" fill="none" width="1407.763" height="1306.36"/>
	<rect x="-32.881" y="162.084" clip-path="url(#SVGID_4_)" fill="none" width="1871.304" height="1205.779"/>
	<rect x="-503.98" y="162.084" clip-path="url(#SVGID_4_)" fill="none" width="2342.403" height="1205.779"/>
	<rect x="-503.98" y="162.084" clip-path="url(#SVGID_4_)" fill="none" width="2504.42" height="1205.779"/>
	<rect x="-503.98" y="162.084" clip-path="url(#SVGID_4_)" fill="none" width="2504.42" height="1261.916"/>
	<rect x="-503.98" y="162.084" clip-path="url(#SVGID_4_)" fill="none" width="2504.42" height="1261.916"/>
	<rect x="-506.25" y="162.084" clip-path="url(#SVGID_4_)" fill="none" width="2506.69" height="1261.916"/>
	<rect x="66" y="153.442" clip-path="url(#SVGID_4_)" fill="none" width="1362" height="1616.558"/>
	<rect clip-path="url(#SVGID_4_)" fill="none" width="1556" height="1590.256"/>
</g>
</svg>
