<?xml version="1.0" encoding="utf-8"?>
<!-- Generator: Adobe Illustrator 16.0.0, SVG Export Plug-In . SVG Version: 6.00 Build 0)  -->
<!DOCTYPE svg PUBLIC "-//W3C//DTD SVG 1.1//EN" "http://www.w3.org/Graphics/SVG/1.1/DTD/svg11.dtd">
<svg version="1.1" id="圖層_1" xmlns="http://www.w3.org/2000/svg" xmlns:xlink="http://www.w3.org/1999/xlink" x="0px" y="0px"
	 width="549.258px" height="431.365px" viewBox="0 0 549.258 431.365" enable-background="new 0 0 549.258 431.365"
	 xml:space="preserve">
<path fill="#E08794" d="M191.325,431.285c360.925-9.839,173.991-329.983,357.933-386.031
	C-106.974-167.491-105.693,439.382,191.325,431.285z"/>
<g>
	<g opacity="0.3">
		<path fill="#4C4C4C" d="M178.026,109.519c1.71-1.846,2.61-5.04,3.015-8.01l2.88,0.765c-0.495,3.285-1.26,6.705-3.15,8.729
			L178.026,109.519z M178.836,96.424c2.295-0.09,5.13-0.18,8.235-0.315v-2.925h-7.2v-3.239h7.2v-2.565h-7.02V71.18h18.089v16.199
			h-7.334v2.565h7.469v3.239h-7.469v2.745c2.7-0.135,5.49-0.27,8.234-0.405l-0.135,3.33c-7.155,0.495-14.625,0.855-19.889,1.17
			L178.836,96.424z M183.201,84.454h4.365v-10.35h-4.365V84.454z M185.451,75.68c0.72,2.069,1.35,4.859,1.44,6.569l-2.025,0.63
			c-0.09-1.8-0.585-4.59-1.305-6.704L185.451,75.68z M187.476,101.373c0.675,2.431,1.125,5.625,1.125,7.74l-2.79,0.36
			c0-2.115-0.405-5.311-0.945-7.83L187.476,101.373z M191.751,100.969c0.99,2.25,1.89,5.22,2.205,7.199l-2.7,0.63
			c-0.225-1.979-1.125-4.994-2.07-7.334L191.751,100.969z M194.856,74.104h-4.59v10.35h4.59V74.104z M190.626,82.43
			c0.675-1.846,1.485-4.905,1.845-6.885l2.295,0.854c-0.855,2.25-1.71,4.995-2.475,6.66L190.626,82.43z M196.026,99.979
			c1.575,2.07,3.104,4.905,3.735,6.795l-2.745,1.17c-0.585-1.936-2.07-4.86-3.51-6.975L196.026,99.979z M210.56,83.104v7.694h7.47
			v19.979h-3.96v-1.755h-9.989v1.935h-3.825V90.799h6.255V69.74h4.05v9.494h9.18v3.87H210.56z M214.07,94.624h-9.989v10.574h9.989
			V94.624z"/>
		<path fill="#4C4C4C" d="M234.726,91.249c-0.72,3.87-1.89,7.829-3.51,11.114c0.9,0.495,1.845,1.26,3.51,2.25
			c3.06,1.89,7.2,2.16,12.464,2.16c5.49,0,13.095-0.405,18.044-1.035c-0.495,1.125-1.17,3.195-1.215,4.32
			c-3.465,0.225-11.744,0.494-17.009,0.494c-5.939,0-9.764-0.494-13.004-2.385c-1.845-1.035-3.465-2.609-4.455-2.609
			c-0.99,0-2.565,2.925-3.735,5.67l-2.88-3.87c1.215-1.575,2.385-2.925,3.51-3.915l-0.045-0.045c1.755-2.475,3.15-6.029,3.96-9.449
			h-5.67c1.125-2.655,2.43-6.3,3.555-9.81h-4.5v-3.78h9.719c-0.99,3.195-2.25,6.885-3.375,9.989h1.575l0.63-0.135L234.726,91.249z
			 M228.921,78.604c-0.63-2.025-1.845-5.265-2.7-7.649l3.78-1.035c0.9,2.385,2.16,5.489,2.79,7.425L228.921,78.604z M247.775,99.573
			c-2.34,2.205-5.985,4.365-9,5.805c-0.72-0.765-2.16-1.979-3.105-2.564c3.105-1.125,6.3-2.745,8.325-4.41h-9.044v-3.194h7.47
			v-3.555h-5.76v-3.15h5.76v-2.835h3.825v2.835h6.254v-2.835h3.87v2.835h5.895v3.15h-5.895v3.555h7.74v3.194h-9.675
			c3.15,1.485,6.57,3.465,8.55,4.995l-3.645,1.8c-1.845-1.53-5.04-3.6-8.01-5.13l2.34-1.665h-9.315L247.775,99.573z M248.181,80.899
			c-0.315,0.945-0.585,2.295-0.72,3.015c-8.82,1.485-10.214,1.8-10.979,2.205c-0.225-0.855-0.9-2.43-1.395-3.15
			c0.585-0.314,1.26-1.034,1.26-2.699v-8.955h12.24v8.01h-8.91v2.835L248.181,80.899z M239.676,74.015v2.564h5.4v-2.564H239.676z
			 M246.246,95.209h6.254v-3.555h-6.254V95.209z M254.795,84.949c-3.465,0-4.32-1.305-4.32-4.635v-8.955h12.42v8.01h-9.045v0.99
			c0,1.215,0.135,1.665,1.17,1.665h5.22c0.855,0,2.25-0.09,2.925-0.271c0.09,0.9,0.18,2.16,0.315,2.925
			c-0.63,0.226-1.89,0.271-3.105,0.271H254.795z M253.85,74.06v2.564h5.445V74.06H253.85z"/>
		<path fill="#4C4C4C" d="M128.796,142.449h-17.91v-3.33h7.785c-0.225-1.755-1.08-4.229-2.025-6.074l3.06-1.17
			c1.08,1.845,2.025,4.455,2.295,6.119l-2.745,1.125h9.54V142.449z M126.951,170.573h-10.395v1.89h-3.645v-15.119h14.04V170.573z
			 M152.285,155.769h-9.72v17.234h-4.185v-17.234h-9.99v-4.005h9.99v-9.765h-3.78c-1.215,2.745-2.565,5.22-4.095,7.2
			c-0.72-0.63-2.385-1.665-3.42-2.25v1.575h-14.084v-3.285h14.084v1.305c3.015-3.645,5.265-9.27,6.435-14.939l4.185,0.855
			c-0.45,1.935-0.99,3.87-1.665,5.715h15.254v3.824h-8.73v9.765h9.72V155.769z M113.001,151.224h14.084v3.285h-14.084V151.224z
			 M116.556,160.674v6.524h6.66v-6.524H116.556z"/>
		<path fill="#4C4C4C" d="M171.906,157.479v11.835c0,1.575-0.225,2.52-1.305,3.06c-1.08,0.54-2.564,0.585-4.725,0.585
			c-0.135-0.899-0.63-2.34-1.125-3.194c1.485,0.045,2.745,0.045,3.195,0.045c0.405-0.045,0.54-0.181,0.54-0.585v-11.745h-4.905
			v-16.154h4.095c0.225-1.305,0.45-2.79,0.63-4.095h-6.75v13.14c0,6.614-0.45,15.93-3.24,22.004
			c-0.585-0.675-2.205-1.845-3.015-2.205c2.475-5.579,2.655-13.634,2.655-19.754V133.63h19.079v3.6h-4.68l-1.17,4.095h5.76v16.154
			H171.906z M167.136,160.134c-0.63,3.42-1.8,6.975-3.149,9.27c-0.675-0.495-2.07-1.26-2.925-1.53
			c1.35-2.205,2.295-5.354,2.88-8.369L167.136,160.134z M166.821,147.939h6.705v-3.646h-6.705V147.939z M166.821,154.509h6.705
			v-3.734h-6.705V154.509z M175.506,167.648c-0.36-1.89-1.485-4.995-2.475-7.29l2.7-0.989c1.125,2.294,2.25,5.265,2.745,7.109
			L175.506,167.648z M186.215,167.108c-2.07,2.25-5.49,4.635-8.325,5.939c-0.54-0.72-1.755-1.89-2.565-2.609
			c2.745-1.215,5.94-3.51,7.515-5.355L186.215,167.108z M184.685,141.01c0.18-1.215,0.405-2.565,0.585-3.825h-7.379v-3.555h18.989
			v3.555h-7.515c-0.315,1.305-0.675,2.655-0.99,3.825h7.38v23.443h-16.469V141.01H184.685z M192.065,144.114h-9.225v3.735h9.225
			V144.114z M192.065,150.819h-9.225v3.734h9.225V150.819z M192.065,157.523h-9.225v3.78h9.225V157.523z M191.615,165.129
			c2.115,1.664,4.905,4.095,6.255,5.669l-3.15,2.205c-1.305-1.62-3.96-4.185-6.12-5.939L191.615,165.129z"/>
		<path fill="#4C4C4C" d="M208.491,152.034c-1.665-1.17-5.175-3.15-7.605-4.455l2.25-3.104c2.385,1.17,5.94,3.015,7.695,4.095
			L208.491,152.034z M202.417,169.673c2.25-3.465,5.445-9.134,7.919-14.264l3.195,2.654c-2.16,4.68-4.995,9.99-7.47,14.22
			L202.417,169.673z M211.326,139.975c-1.8-1.26-5.355-3.285-7.965-4.68l2.385-3.016c2.52,1.216,6.12,3.105,7.965,4.32
			L211.326,139.975z M235.13,168.863c2.655,0,3.105-1.17,3.51-6.345c0.99,0.675,2.61,1.35,3.78,1.575
			c-0.675,6.39-1.935,8.504-7.065,8.504h-11.069c-5.76,0-7.38-1.395-7.38-6.93v-13.679l-3.96,1.529l-1.62-3.689l5.58-2.205v-11.159
			h3.915v9.629l5.76-2.249v-11.97h3.735v10.484l7.379-2.88l0.045-0.045h0.045l3.104,1.035l-0.18,0.675
			c-0.18,6.435-0.63,14.939-1.485,20.294l-3.51-0.945c0.54-4.005,0.81-10.529,0.945-16.289l-6.345,2.475v16.155h-3.735v-14.715
			l-5.76,2.295v15.3c0,2.609,0.54,3.149,3.645,3.149H235.13z"/>
		<path fill="#4C4C4C" d="M252.816,167.469v3.465h-3.555v-14.984c-0.675,1.079-1.305,2.069-2.07,3.015
			c-0.225-1.08-1.08-3.69-1.665-4.86c2.97-4.005,4.905-9.989,6.165-16.379h-5.445v-3.78h15.434v3.78h-6.03
			c-0.72,3.42-1.53,6.795-2.655,9.944h8.505v19.8H252.816z M257.991,151.359h-5.175v12.419h5.175V151.359z M276.17,158.063
			c-0.404,2.79-1.17,5.445-2.744,7.74c3.555,2.069,8.324,3.194,14.084,3.689c-0.855,0.855-1.89,2.52-2.43,3.6
			c-5.805-0.72-10.53-2.069-14.175-4.409c-1.935,1.755-4.545,3.284-7.964,4.409c-0.495-0.854-1.665-2.52-2.475-3.284
			c3.285-0.855,5.67-2.025,7.38-3.465c-1.845-1.71-3.375-3.825-4.545-6.345l3.555-0.811c0.855,1.71,1.98,3.195,3.42,4.455
			c1.125-1.71,1.62-3.6,1.89-5.58h-8.685v-17.009h8.955v-3.69h-9.765v-3.734h24.119v3.734h-10.35v3.69h9.404v17.009H276.17z
			 M267.171,147.984h5.265v-3.69h-5.265V147.984z M272.436,154.824c0-0.45,0-0.945,0-1.351v-2.43h-5.265v3.78H272.436z
			 M276.44,144.294v3.69h5.579v-3.69H276.44z M282.02,151.044h-5.579v2.43c0,0.405,0,0.9,0,1.351h5.579V151.044z"/>
		<path fill="#4C4C4C" d="M329.271,139.39c-0.99,3.285-2.521,5.984-4.545,8.234c2.115,1.89,4.68,3.375,7.604,4.229
			c-0.81,0.721-1.8,2.025-2.295,2.971c-2.97-1.125-5.58-2.79-7.784-4.86c-2.16,1.755-4.726,3.15-7.65,4.23
			c-0.359-0.766-1.395-2.431-2.069-3.15c2.835-0.9,5.265-2.115,7.289-3.734c-1.26-1.62-2.34-3.42-3.239-5.4
			c-0.766,0.855-1.485,1.62-2.295,2.34c-0.405-0.54-1.351-1.574-2.16-2.25v11.564h-3.149V141.55h-4.995v12.689h-2.745V141.55h-5.04
			v13.139h-3.06v-15.749h2.835c-0.54-1.35-1.665-3.465-2.79-5.04l2.925-1.26c1.215,1.485,2.476,3.51,2.97,4.905l-3.015,1.395h4.68
			v-7.199h3.69v7.199h7.694v2.34c2.7-2.34,4.77-5.805,5.85-9.585l3.51,0.766c-0.404,1.26-0.854,2.52-1.35,3.689h11.609v3.24H329.271
			z M327.785,166.658c0,1.936-0.495,3.015-2.024,3.555c-1.575,0.585-3.96,0.54-7.56,0.54c-0.226-0.989-0.855-2.475-1.351-3.42
			c2.565,0.09,5.175,0.09,5.85,0.045c0.721-0.045,0.945-0.18,0.945-0.765v-6.165h-10.17v12.51h-4.14v-12.51h-9.359v10.395h-4.05
			v-13.904h13.409v-2.654h4.14v2.654h14.31V166.658z M300.246,143.484c-0.359,2.655-1.079,5.535-1.979,7.425
			c-0.36-0.315-1.395-0.811-1.979-1.035c0.944-1.935,1.439-4.41,1.71-6.885L300.246,143.484z M306.682,142.989
			c0.854,2.25,1.619,5.265,1.8,7.154l-2.025,0.631c-0.18-1.936-0.854-4.95-1.71-7.245L306.682,142.989z M312.531,133.765
			c-1.305,1.89-2.655,3.915-3.735,5.175l-2.52-1.08c0.99-1.484,2.205-3.779,2.835-5.354L312.531,133.765z M318.786,139.39
			c0.854,2.069,1.979,3.96,3.42,5.67c1.35-1.62,2.475-3.465,3.194-5.67H318.786z"/>
		<path fill="#4C4C4C" d="M129.065,200.984h-5.355v28.438c0,2.7-0.675,4.096-2.565,4.726c-1.935,0.765-5.084,0.81-9.584,0.81
			c-0.225-1.215-1.08-3.285-1.755-4.5c3.42,0.181,7.155,0.136,8.234,0.136c0.99-0.046,1.305-0.315,1.305-1.261v-28.349H89.106V196.8
			h39.958V200.984z M97.566,223.799v3.51h-4.05v-20.43h18.54v16.92H97.566z M97.566,210.839v9h10.35v-9H97.566z"/>
		<path fill="#4C4C4C" d="M152.421,222.269c-6.12,2.79-12.735,5.625-17.729,7.739l-1.53-4.364c1.71-0.63,3.825-1.44,6.12-2.34
			l-0.855-27.044l4.365-0.18l0.765,25.469c2.61-1.08,5.265-2.205,7.875-3.33L152.421,222.269z M171.635,234.913
			c-1.935-3.015-5.715-7.47-9.314-11.385c-3.375,4.995-8.1,8.774-14.625,11.564c-0.585-0.899-2.295-2.835-3.375-3.689
			c14.939-5.535,19.62-16.38,21.464-35.323l4.59,0.449c-1.035,9.45-2.7,17.01-5.715,23.039c3.825,3.96,8.325,8.775,10.484,11.97
			L171.635,234.913z M154.581,212.009c-1.17-3.06-4.05-7.739-6.84-11.024l3.825-1.845c2.925,3.24,5.76,7.604,7.064,10.71
			L154.581,212.009z"/>
		<path fill="#4C4C4C" d="M218.885,202.739H205.88c4.77,2.925,10.035,6.345,13.004,8.865l-2.655,3.015
			c-3.33-2.925-9.81-7.38-15.254-10.665v7.56h-4.14v-8.145c-3.959,5.085-10.034,9.405-15.974,11.79
			c-0.585-0.99-1.8-2.521-2.655-3.375c5.22-1.71,10.709-5.175,14.354-9.045h-13.32v-3.645h17.594v-5.4h4.14v5.4h17.909V202.739z
			 M179.872,229.918h38.518v3.735h-38.518V229.918z M211.55,212.864v14.669h-25.199v-14.669H211.55z M207.23,215.744h-16.74v3.015
			h16.74V215.744z M207.23,221.549h-16.74v3.06h16.74V221.549z"/>
		<path fill="#4C4C4C" d="M239.226,210.839c-0.495,0.9-0.945,1.755-1.485,2.61h21.689v21.688h-4.185v-1.71h-17.999v1.71h-4.005
			v-15.794c-2.16,2.295-4.68,4.365-7.56,6.029c-0.54-0.989-1.755-2.52-2.565-3.284c4.86-2.745,8.595-6.705,11.34-11.25h-10.125
			v-3.33h11.924c0.45-0.854,0.855-1.8,1.26-2.699h-9.989v-3.285h11.114c0.315-0.854,0.54-1.71,0.765-2.564
			c-3.96,0.135-7.919,0.225-11.654,0.225c-0.045-0.945-0.405-2.34-0.81-3.195c10.89-0.045,24.164-0.675,31.454-2.024l2.52,3.015
			c-4.635,0.811-10.62,1.396-16.875,1.755c-0.27,0.945-0.585,1.845-0.9,2.79h18.089v3.285h-19.214
			c-0.36,0.899-0.765,1.845-1.17,2.699h22.904v3.33H239.226z M255.245,216.688h-17.999v2.565h17.999V216.688z M237.246,224.608
			h17.999v-2.564h-17.999V224.608z M255.245,230.144v-2.745h-17.999v2.745H255.245z"/>
		<path fill="#4C4C4C" d="M284.406,219.479v11.835c0,1.575-0.225,2.52-1.305,3.06s-2.565,0.585-4.725,0.585
			c-0.136-0.899-0.631-2.34-1.125-3.194c1.484,0.045,2.744,0.045,3.194,0.045c0.405-0.045,0.54-0.181,0.54-0.585v-11.745h-4.904
			v-16.154h4.095c0.225-1.305,0.449-2.79,0.63-4.095h-6.75v13.14c0,6.614-0.45,15.93-3.24,22.004
			c-0.585-0.675-2.204-1.845-3.015-2.205c2.475-5.579,2.655-13.634,2.655-19.754V195.63h19.079v3.6h-4.68l-1.17,4.095h5.76v16.154
			H284.406z M279.637,222.134c-0.63,3.42-1.8,6.975-3.15,9.27c-0.675-0.495-2.069-1.26-2.925-1.53
			c1.351-2.205,2.295-5.354,2.88-8.369L279.637,222.134z M279.321,209.939h6.705v-3.646h-6.705V209.939z M279.321,216.509h6.705
			v-3.734h-6.705V216.509z M288.006,229.648c-0.359-1.89-1.484-4.995-2.475-7.29l2.7-0.989c1.125,2.294,2.25,5.265,2.744,7.109
			L288.006,229.648z M298.716,229.108c-2.07,2.25-5.49,4.635-8.325,5.939c-0.54-0.72-1.755-1.89-2.564-2.609
			c2.745-1.215,5.939-3.51,7.515-5.355L298.716,229.108z M297.186,203.01c0.181-1.215,0.405-2.565,0.585-3.825h-7.38v-3.555h18.989
			v3.555h-7.515c-0.314,1.305-0.675,2.655-0.989,3.825h7.379v23.443h-16.469V203.01H297.186z M304.565,206.114h-9.225v3.735h9.225
			V206.114z M304.565,212.819h-9.225v3.734h9.225V212.819z M304.565,219.523h-9.225v3.78h9.225V219.523z M304.115,227.129
			c2.115,1.664,4.905,4.095,6.255,5.669l-3.149,2.205c-1.306-1.62-3.96-4.185-6.12-5.939L304.115,227.129z"/>
		<path fill="#4C4C4C" d="M317.392,201.795h-3.689v-3.556h9.044c-0.449-1.17-0.944-2.52-1.439-3.555l3.734-1.035
			c0.721,1.396,1.485,3.195,2.025,4.59h6.66v3.556h-12.51v7.334c0,1.351,0.27,1.845,1.395,1.845h6.435c1.035,0,2.565-0.09,3.42-0.27
			c0.045,1.035,0.226,2.61,0.36,3.465c-0.765,0.27-2.25,0.315-3.689,0.315h-6.525c-4.14,0-5.22-1.396-5.22-5.445V201.795z
			 M336.066,230.639h17.773v3.465h-39.598v-3.465h17.639v-3.42h-15.029v-3.375h15.029v-3.24c-4.725,0.271-9.539,0.45-13.949,0.495
			c-0.09-1.035-0.54-2.475-0.899-3.42c11.114-0.225,24.389-1.08,32.218-2.52l1.891,3.375c-4.23,0.765-9.495,1.35-15.074,1.8v3.51
			H351.5v3.375h-15.434V230.639z M354.785,197.475c-2.564,11.385-9.539,16.244-19.169,18.584c-0.45-0.944-1.26-2.385-2.025-3.149
			c2.25-0.45,4.41-1.08,6.3-1.98c-1.17-1.529-2.97-3.51-4.725-5.265c-0.405,0.405-0.9,0.766-1.439,1.17
			c-0.676-0.854-1.98-2.069-2.926-2.609c4.365-2.97,7.38-7.02,8.91-10.484l4.05,0.675c-0.36,0.81-0.81,1.529-1.215,2.34h8.954
			l0.766-0.181L354.785,197.475z M342.726,209.399c1.035-0.721,2.025-1.485,2.925-2.34c-1.8-1.485-4.364-3.465-6.795-5.04
			c-0.494,0.585-0.989,1.17-1.529,1.665C339.171,205.484,341.331,207.689,342.726,209.399z M340.565,199.994
			c2.295,1.44,5.04,3.285,6.975,4.86c0.99-1.44,1.846-3.06,2.476-4.86H340.565z"/>
		<path fill="#4C4C4C" d="M54.726,277.249c-0.72,3.87-1.89,7.829-3.51,11.114c0.9,0.495,1.845,1.26,3.51,2.25
			c3.06,1.89,7.2,2.16,12.464,2.16c5.49,0,13.095-0.405,18.044-1.035c-0.495,1.125-1.17,3.195-1.215,4.32
			c-3.465,0.225-11.744,0.494-17.009,0.494c-5.939,0-9.764-0.494-13.004-2.385c-1.845-1.035-3.465-2.609-4.455-2.609
			c-0.99,0-2.565,2.925-3.735,5.67l-2.88-3.87c1.215-1.575,2.385-2.925,3.51-3.915l-0.045-0.045c1.755-2.475,3.15-6.029,3.96-9.449
			h-5.67c1.125-2.655,2.43-6.3,3.555-9.81h-4.5v-3.78h9.719c-0.99,3.195-2.25,6.885-3.375,9.989h1.575l0.63-0.135L54.726,277.249z
			 M48.921,264.604c-0.63-2.025-1.845-5.265-2.7-7.649l3.78-1.035c0.9,2.385,2.16,5.489,2.79,7.425L48.921,264.604z M67.775,285.573
			c-2.34,2.205-5.985,4.365-9,5.805c-0.72-0.765-2.16-1.979-3.105-2.564c3.105-1.125,6.3-2.745,8.325-4.41h-9.044v-3.194h7.47
			v-3.555h-5.76v-3.15h5.76v-2.835h3.825v2.835H72.5v-2.835h3.87v2.835h5.895v3.15H76.37v3.555h7.74v3.194h-9.675
			c3.15,1.485,6.57,3.465,8.55,4.995l-3.645,1.8c-1.845-1.53-5.04-3.6-8.01-5.13l2.34-1.665h-9.315L67.775,285.573z M68.181,266.899
			c-0.315,0.945-0.585,2.295-0.72,3.015c-8.82,1.485-10.214,1.8-10.979,2.205c-0.225-0.855-0.9-2.43-1.395-3.15
			c0.585-0.314,1.26-1.034,1.26-2.699v-8.955h12.24v8.01h-8.91v2.835L68.181,266.899z M59.676,260.015v2.564h5.4v-2.564H59.676z
			 M66.246,281.209H72.5v-3.555h-6.254V281.209z M74.795,270.949c-3.465,0-4.32-1.305-4.32-4.635v-8.955h12.42v8.01H73.85v0.99
			c0,1.215,0.135,1.665,1.17,1.665h5.22c0.855,0,2.25-0.09,2.925-0.271c0.09,0.9,0.18,2.16,0.315,2.925
			c-0.63,0.226-1.89,0.271-3.105,0.271H74.795z M73.85,260.06v2.564h5.445v-2.564H73.85z"/>
		<path fill="#4C4C4C" d="M129.2,290.613v4.229H88.926v-4.229h16.424v-34.288h4.5v13.364h16.244v4.185h-16.244v16.739H129.2z"/>
		<path fill="#4C4C4C" d="M155.886,262.444c-0.54,1.665-1.08,3.42-1.53,4.95h17.549v29.653h-4.275v-2.34h-27.404v2.34h-4.05v-29.653
			h13.859c0.36-1.53,0.72-3.33,0.99-4.95h-16.785v-3.96h39.778v3.96H155.886z M140.226,290.838h5.625v-19.619h-5.625V290.838z
			 M157.956,271.219h-8.37v4.23h8.37V271.219z M157.956,278.779h-8.37v4.274h8.37V278.779z M149.586,290.838h8.37v-4.454h-8.37
			V290.838z M167.63,271.219h-5.895v19.619h5.895V271.219z"/>
		<path fill="#4C4C4C" d="M195.711,280.534c0.135,1.17,0.405,2.835,0.675,3.734c-10.53,4.77-12.104,5.625-13.095,6.524
			c-0.315-1.034-1.215-2.835-1.935-3.734c0.9-0.45,2.115-1.575,2.115-3.465v-11.205l-4.905,0.99l-0.675-3.824l5.58-1.125v-10.935
			h4.05v10.124l7.965-1.62l0.675,3.78l-8.64,1.755v12.465L195.711,280.534z M218.795,259.385c0,0,0,1.62-0.045,2.205
			c-0.585,22.544-1.08,30.148-2.88,32.533c-1.035,1.53-2.115,2.025-3.69,2.25c-1.53,0.225-3.96,0.18-6.345,0.045
			c-0.045-1.17-0.585-3.015-1.305-4.229c2.52,0.18,4.725,0.225,5.715,0.225c0.855,0,1.26-0.18,1.755-0.854
			c1.35-1.575,1.98-8.955,2.43-28.214h-8.145c-0.315,14.039-1.305,26.773-12.689,33.703c-0.63-1.08-1.98-2.564-3.015-3.33
			c10.62-6.029,11.294-17.594,11.52-30.373h-6.75v-3.96H218.795z"/>
		<path fill="#4C4C4C" d="M251.555,286.563c-1.71,5.22-5.535,8.595-14.354,10.484c-0.36-0.989-1.305-2.475-2.07-3.284
			c7.2-1.306,10.485-3.601,12.149-7.2h-10.799v-3.375h3.51v-13.095c-0.27,0.226-0.54,0.495-0.81,0.721
			c-0.495-0.811-1.575-2.115-2.43-2.745v0.27h-4.185v7.605l3.96-1.261l0.675,3.735l-4.635,1.575v11.924
			c0,2.115-0.405,3.33-1.575,4.005c-1.26,0.675-3.015,0.855-5.76,0.855c-0.09-1.08-0.585-2.925-1.125-4.095
			c1.665,0.045,3.24,0.045,3.735,0.045c0.54,0,0.72-0.181,0.72-0.766v-10.574c-1.575,0.54-3.15,1.035-4.5,1.485l-1.035-4.005
			c1.575-0.45,3.465-0.99,5.535-1.62v-8.91h-4.995v-3.869h4.995v-8.775h4.005v8.775h4.185v3.465
			c4.365-3.51,7.155-8.325,8.595-12.194l3.915,0.585c-0.36,0.944-0.81,1.89-1.26,2.834h6.3l0.63-0.135l2.475,1.575
			c-0.855,1.845-2.205,4.005-3.42,5.85h7.875v16.739h2.79v3.375H251.555z M246.155,262.489c-0.81,1.351-1.709,2.655-2.745,3.96h6.57
			c0.81-1.17,1.665-2.564,2.34-3.96H246.155z M248.315,283.188c0.27-1.215,0.405-2.609,0.54-4.095h4.05
			c-0.135,1.44-0.315,2.835-0.54,4.095h5.94v-6.074l-1.665,1.979c-1.305-1.305-3.735-3.06-5.94-4.455c-1.35,1.8-2.97,3.42-4.5,4.635
			c-0.585-0.54-1.935-1.529-2.7-1.935c2.655-1.8,5.04-4.545,6.39-7.515h-6.435v13.364H248.315z M258.305,269.824h-5.985l1.035,0.27
			c-0.315,0.766-0.72,1.485-1.17,2.25c2.205,1.261,4.68,2.925,6.12,4.186V269.824z M254.705,286.608
			c3.33,2.385,7.965,5.85,10.305,7.92l-2.7,2.654c-2.205-2.159-6.75-5.76-10.125-8.324L254.705,286.608z"/>
		<path fill="#4C4C4C" d="M275.767,275.674c-1.62-1.305-4.995-3.285-7.515-4.59l2.385-3.06c2.43,1.17,5.85,3.015,7.604,4.229
			L275.767,275.674z M269.106,294.258c1.801-3.465,4.23-9.134,6.03-14.264l3.42,2.204c-1.62,4.726-3.78,10.035-5.67,14.22
			L269.106,294.258z M277.342,264.02c-1.53-1.396-4.771-3.465-7.2-4.86l2.43-3.015c2.386,1.215,5.715,3.15,7.38,4.5L277.342,264.02z
			 M291.111,269.149c1.35,3.104,2.609,7.199,3.149,9.81l-3.015,1.17c-0.405-2.43-1.485-6.12-2.655-9.135v1.035
			c0,8.774-0.63,17.819-6.164,24.929c-0.811-0.765-2.431-1.935-3.511-2.43c3.511-4.41,4.905-9.54,5.4-14.895l-2.79,1.035
			c-0.315-2.88-1.62-7.29-2.88-10.575l3.015-1.079c1.125,2.699,2.205,6.074,2.835,8.774c0.09-1.936,0.135-3.825,0.135-5.76v-15.255
			h3.96v13.319L291.111,269.149z M307.851,256.729v40.229h-4.005v-17.774l-2.25,1.08c-0.585-2.295-1.98-5.625-3.42-8.505v24.119
			h-3.87v-38.429h3.87v11.835l1.8-0.81c1.44,2.475,2.925,5.534,3.87,8.055v-19.8H307.851z"/>
		<path fill="#4C4C4C" d="M334.086,277.023c0,0,0,1.171-0.045,1.71c-0.495,10.98-0.945,15.165-2.16,16.56
			c-0.81,1.035-1.71,1.305-3.06,1.44c-1.17,0.18-3.285,0.18-5.444,0.09c-0.091-1.125-0.495-2.655-1.17-3.69
			c2.069,0.226,4.05,0.226,4.814,0.226c0.72,0,1.17-0.045,1.484-0.495c0.766-0.81,1.216-4.005,1.575-12.104h-6.3
			c-1.035,6.345-3.104,12.329-7.829,16.289c-0.63-0.989-1.846-2.295-2.88-2.925c6.029-4.859,7.02-13.589,7.425-21.419h-4.681
			v-14.939h17.955v14.939h-9.18c-0.091,1.439-0.181,2.88-0.36,4.319H334.086z M319.642,269.015h10.08v-7.561h-10.08V269.015z
			 M341.826,285.934h-4.05v-24.839h4.05V285.934z M352.715,256.595v35.099c0,2.609-0.63,3.825-2.204,4.59
			c-1.665,0.63-4.365,0.765-8.46,0.72c-0.225-1.125-0.855-3.06-1.485-4.274c3.061,0.135,5.896,0.09,6.795,0.09
			c0.855-0.045,1.17-0.315,1.17-1.125v-35.099H352.715z"/>
		<path fill="#4C4C4C" d="M363.741,285.259v4.14h-3.824V259.79h11.789v25.469H363.741z M363.741,263.659v17.729h4.141v-17.729
			H363.741z M399.516,292.773v3.33h-23.805v-3.33h10.215v-4.275h-7.649v-3.239h7.649v-3.51c-4.725,0.404-5.76,0.54-6.524,0.854
			c-0.09-0.72-0.721-2.564-1.17-3.465c0.675-0.135,1.35-0.72,2.114-1.484c0.54-0.495,1.936-2.16,3.285-4.141h-5.625
			c-0.18,7.38-1.125,17.189-5.76,23.715c-0.675-0.721-2.25-1.846-3.194-2.205c4.77-6.795,5.22-16.515,5.22-23.579v-13.995h23.534
			v10.215h-19.8v2.61h21.374v3.239h-11.339c-1.215,1.801-2.7,3.601-4.14,5.085l8.729-0.54c-0.766-0.944-1.53-1.979-2.295-2.79
			l2.835-1.26c2.069,2.115,4.229,5.13,5.175,7.2l-3.061,1.439c-0.18-0.45-0.404-0.989-0.765-1.574l-4.814,0.359v3.825h8.145v3.239
			h-8.145v4.275H399.516z M378.006,260.734v3.6h15.93v-3.6H378.006z"/>
	</g>
	<g>
		<g>
			<path fill="#FFFFFF" d="M177.743,109.235c1.71-1.846,2.61-5.04,3.015-8.01l2.88,0.765c-0.495,3.285-1.26,6.705-3.15,8.729
				L177.743,109.235z M178.553,96.14c2.295-0.09,5.13-0.18,8.235-0.315V92.9h-7.2v-3.239h7.2v-2.565h-7.02V70.896h18.089v16.199
				h-7.334v2.565h7.469V92.9h-7.469v2.745c2.7-0.135,5.49-0.27,8.234-0.405l-0.135,3.33c-7.155,0.495-14.625,0.855-19.889,1.17
				L178.553,96.14z M182.917,84.17h4.365v-10.35h-4.365V84.17z M185.167,75.396c0.72,2.069,1.35,4.859,1.44,6.569l-2.025,0.63
				c-0.09-1.8-0.585-4.59-1.305-6.704L185.167,75.396z M187.192,101.089c0.675,2.431,1.125,5.625,1.125,7.74l-2.79,0.36
				c0-2.115-0.405-5.311-0.945-7.83L187.192,101.089z M191.467,100.685c0.99,2.25,1.89,5.22,2.205,7.199l-2.7,0.63
				c-0.225-1.979-1.125-4.994-2.07-7.334L191.467,100.685z M194.572,73.821h-4.59v10.35h4.59V73.821z M190.342,82.146
				c0.675-1.846,1.485-4.905,1.845-6.885l2.295,0.854c-0.855,2.25-1.71,4.995-2.475,6.66L190.342,82.146z M195.742,99.695
				c1.575,2.07,3.104,4.905,3.735,6.795l-2.745,1.17c-0.585-1.936-2.07-4.86-3.51-6.975L195.742,99.695z M210.276,82.821v7.694h7.47
				v19.979h-3.96v-1.755h-9.989v1.935h-3.825V90.515h6.255V69.457h4.05v9.494h9.18v3.87H210.276z M213.786,94.34h-9.989v10.574
				h9.989V94.34z"/>
			<path fill="#FFFFFF" d="M234.442,90.965c-0.72,3.87-1.89,7.829-3.51,11.114c0.9,0.495,1.845,1.26,3.51,2.25
				c3.06,1.89,7.2,2.16,12.464,2.16c5.49,0,13.095-0.405,18.044-1.035c-0.495,1.125-1.17,3.195-1.215,4.32
				c-3.465,0.225-11.744,0.494-17.009,0.494c-5.939,0-9.764-0.494-13.004-2.385c-1.845-1.035-3.465-2.609-4.455-2.609
				c-0.99,0-2.565,2.925-3.735,5.67l-2.88-3.87c1.215-1.575,2.385-2.925,3.51-3.915l-0.045-0.045c1.755-2.475,3.15-6.029,3.96-9.449
				h-5.67c1.125-2.655,2.43-6.3,3.555-9.81h-4.5v-3.78h9.719c-0.99,3.195-2.25,6.885-3.375,9.989h1.575l0.63-0.135L234.442,90.965z
				 M228.638,78.321c-0.63-2.025-1.845-5.265-2.7-7.649l3.78-1.035c0.9,2.385,2.16,5.489,2.79,7.425L228.638,78.321z M247.492,99.29
				c-2.34,2.205-5.985,4.365-9,5.805c-0.72-0.765-2.16-1.979-3.105-2.564c3.105-1.125,6.3-2.745,8.325-4.41h-9.044v-3.194h7.47
				v-3.555h-5.76v-3.15h5.76v-2.835h3.825v2.835h6.254v-2.835h3.87v2.835h5.895v3.15h-5.895v3.555h7.74v3.194h-9.675
				c3.15,1.485,6.57,3.465,8.55,4.995l-3.645,1.8c-1.845-1.53-5.04-3.6-8.01-5.13l2.34-1.665h-9.315L247.492,99.29z M247.897,80.616
				c-0.315,0.945-0.585,2.295-0.72,3.015c-8.82,1.485-10.214,1.8-10.979,2.205c-0.225-0.855-0.9-2.43-1.395-3.15
				c0.585-0.314,1.26-1.034,1.26-2.699v-8.955h12.24v8.01h-8.91v2.835L247.897,80.616z M239.392,73.731v2.564h5.4v-2.564H239.392z
				 M245.962,94.925h6.254v-3.555h-6.254V94.925z M254.511,84.666c-3.465,0-4.32-1.305-4.32-4.635v-8.955h12.42v8.01h-9.045v0.99
				c0,1.215,0.135,1.665,1.17,1.665h5.22c0.855,0,2.25-0.09,2.925-0.271c0.09,0.9,0.18,2.16,0.315,2.925
				c-0.63,0.226-1.89,0.271-3.105,0.271H254.511z M253.566,73.776v2.564h5.445v-2.564H253.566z"/>
			<path fill="#FFFFFF" d="M128.512,142.166h-17.91v-3.33h7.785c-0.225-1.755-1.08-4.229-2.025-6.074l3.06-1.17
				c1.08,1.845,2.025,4.455,2.295,6.119l-2.745,1.125h9.54V142.166z M126.667,170.29h-10.395v1.89h-3.645V157.06h14.04V170.29z
				 M152.001,155.485h-9.72v17.234h-4.185v-17.234h-9.99v-4.005h9.99v-9.765h-3.78c-1.215,2.745-2.565,5.22-4.095,7.2
				c-0.72-0.63-2.385-1.665-3.42-2.25v1.575h-14.084v-3.285h14.084v1.305c3.015-3.645,5.265-9.27,6.435-14.939l4.185,0.855
				c-0.45,1.935-0.99,3.87-1.665,5.715h15.254v3.824h-8.73v9.765h9.72V155.485z M112.718,150.94h14.084v3.285h-14.084V150.94z
				 M116.272,160.39v6.524h6.66v-6.524H116.272z"/>
			<path fill="#FFFFFF" d="M171.622,157.195v11.835c0,1.575-0.225,2.52-1.305,3.06c-1.08,0.54-2.564,0.585-4.725,0.585
				c-0.135-0.899-0.63-2.34-1.125-3.194c1.485,0.045,2.745,0.045,3.195,0.045c0.405-0.045,0.54-0.181,0.54-0.585v-11.745h-4.905
				v-16.154h4.095c0.225-1.305,0.45-2.79,0.63-4.095h-6.75v13.14c0,6.614-0.45,15.93-3.24,22.004
				c-0.585-0.675-2.205-1.845-3.015-2.205c2.475-5.579,2.655-13.634,2.655-19.754v-16.784h19.079v3.6h-4.68l-1.17,4.095h5.76v16.154
				H171.622z M166.852,159.85c-0.63,3.42-1.8,6.975-3.149,9.27c-0.675-0.495-2.07-1.26-2.925-1.53
				c1.35-2.205,2.295-5.354,2.88-8.369L166.852,159.85z M166.537,147.656h6.705v-3.646h-6.705V147.656z M166.537,154.225h6.705
				v-3.734h-6.705V154.225z M175.222,167.365c-0.36-1.89-1.485-4.995-2.475-7.29l2.7-0.989c1.125,2.294,2.25,5.265,2.745,7.109
				L175.222,167.365z M185.932,166.825c-2.07,2.25-5.49,4.635-8.325,5.939c-0.54-0.72-1.755-1.89-2.565-2.609
				c2.745-1.215,5.94-3.51,7.515-5.355L185.932,166.825z M184.401,140.726c0.18-1.215,0.405-2.565,0.585-3.825h-7.379v-3.555h18.989
				v3.555h-7.515c-0.315,1.305-0.675,2.655-0.99,3.825h7.38v23.443h-16.469v-23.443H184.401z M191.781,143.831h-9.225v3.735h9.225
				V143.831z M191.781,150.536h-9.225v3.734h9.225V150.536z M191.781,157.24h-9.225v3.78h9.225V157.24z M191.331,164.845
				c2.115,1.664,4.905,4.095,6.255,5.669l-3.15,2.205c-1.305-1.62-3.96-4.185-6.12-5.939L191.331,164.845z"/>
			<path fill="#FFFFFF" d="M208.208,151.75c-1.665-1.17-5.175-3.15-7.605-4.455l2.25-3.104c2.385,1.17,5.94,3.015,7.695,4.095
				L208.208,151.75z M202.133,169.389c2.25-3.465,5.445-9.134,7.919-14.264l3.195,2.654c-2.16,4.68-4.995,9.99-7.47,14.22
				L202.133,169.389z M211.042,139.691c-1.8-1.26-5.355-3.285-7.965-4.68l2.385-3.016c2.52,1.216,6.12,3.105,7.965,4.32
				L211.042,139.691z M234.846,168.58c2.655,0,3.105-1.17,3.51-6.345c0.99,0.675,2.61,1.35,3.78,1.575
				c-0.675,6.39-1.935,8.504-7.065,8.504h-11.069c-5.76,0-7.38-1.395-7.38-6.93v-13.679l-3.96,1.529l-1.62-3.689l5.58-2.205v-11.159
				h3.915v9.629l5.76-2.249v-11.97h3.735v10.484l7.379-2.88l0.045-0.045h0.045l3.104,1.035l-0.18,0.675
				c-0.18,6.435-0.63,14.939-1.485,20.294l-3.51-0.945c0.54-4.005,0.81-10.529,0.945-16.289l-6.345,2.475v16.155h-3.735v-14.715
				l-5.76,2.295v15.3c0,2.609,0.54,3.149,3.645,3.149H234.846z"/>
			<path fill="#FFFFFF" d="M252.532,167.185v3.465h-3.555v-14.984c-0.675,1.079-1.305,2.069-2.07,3.015
				c-0.225-1.08-1.08-3.69-1.665-4.86c2.97-4.005,4.905-9.989,6.165-16.379h-5.445v-3.78h15.434v3.78h-6.03
				c-0.72,3.42-1.53,6.795-2.655,9.944h8.505v19.8H252.532z M257.707,151.076h-5.175v12.419h5.175V151.076z M275.886,157.78
				c-0.404,2.79-1.17,5.445-2.744,7.74c3.555,2.069,8.324,3.194,14.084,3.689c-0.855,0.855-1.89,2.52-2.43,3.6
				c-5.805-0.72-10.53-2.069-14.175-4.409c-1.935,1.755-4.545,3.284-7.964,4.409c-0.495-0.854-1.665-2.52-2.475-3.284
				c3.285-0.855,5.67-2.025,7.38-3.465c-1.845-1.71-3.375-3.825-4.545-6.345l3.555-0.811c0.855,1.71,1.98,3.195,3.42,4.455
				c1.125-1.71,1.62-3.6,1.89-5.58h-8.685v-17.009h8.955v-3.69h-9.765v-3.734h24.119v3.734h-10.35v3.69h9.404v17.009H275.886z
				 M266.887,147.701h5.265v-3.69h-5.265V147.701z M272.152,154.541c0-0.45,0-0.945,0-1.351v-2.43h-5.265v3.78H272.152z
				 M276.157,144.01v3.69h5.579v-3.69H276.157z M281.736,150.76h-5.579v2.43c0,0.405,0,0.9,0,1.351h5.579V150.76z"/>
			<path fill="#FFFFFF" d="M328.987,139.106c-0.99,3.285-2.521,5.984-4.545,8.234c2.115,1.89,4.68,3.375,7.604,4.229
				c-0.81,0.721-1.8,2.025-2.295,2.971c-2.97-1.125-5.58-2.79-7.784-4.86c-2.16,1.755-4.726,3.15-7.65,4.23
				c-0.359-0.766-1.395-2.431-2.069-3.15c2.835-0.9,5.265-2.115,7.289-3.734c-1.26-1.62-2.34-3.42-3.239-5.4
				c-0.766,0.855-1.485,1.62-2.295,2.34c-0.405-0.54-1.351-1.574-2.16-2.25v11.564h-3.149v-12.014h-4.995v12.689h-2.745v-12.689
				h-5.04v13.139h-3.06v-15.749h2.835c-0.54-1.35-1.665-3.465-2.79-5.04l2.925-1.26c1.215,1.485,2.476,3.51,2.97,4.905l-3.015,1.395
				h4.68v-7.199h3.69v7.199h7.694v2.34c2.7-2.34,4.77-5.805,5.85-9.585l3.51,0.766c-0.404,1.26-0.854,2.52-1.35,3.689h11.609v3.24
				H328.987z M327.501,166.375c0,1.936-0.495,3.015-2.024,3.555c-1.575,0.585-3.96,0.54-7.56,0.54
				c-0.226-0.989-0.855-2.475-1.351-3.42c2.565,0.09,5.175,0.09,5.85,0.045c0.721-0.045,0.945-0.18,0.945-0.765v-6.165h-10.17v12.51
				h-4.14v-12.51h-9.359v10.395h-4.05v-13.904h13.409V154h4.14v2.654h14.31V166.375z M299.962,143.201
				c-0.359,2.655-1.079,5.535-1.979,7.425c-0.36-0.315-1.395-0.811-1.979-1.035c0.944-1.935,1.439-4.41,1.71-6.885L299.962,143.201z
				 M306.398,142.706c0.854,2.25,1.619,5.265,1.8,7.154l-2.025,0.631c-0.18-1.936-0.854-4.95-1.71-7.245L306.398,142.706z
				 M312.248,133.481c-1.305,1.89-2.655,3.915-3.735,5.175l-2.52-1.08c0.99-1.484,2.205-3.779,2.835-5.354L312.248,133.481z
				 M318.502,139.106c0.854,2.069,1.979,3.96,3.42,5.67c1.35-1.62,2.475-3.465,3.194-5.67H318.502z"/>
			<path fill="#FFFFFF" d="M128.781,200.701h-5.355v28.438c0,2.7-0.675,4.096-2.565,4.726c-1.935,0.765-5.084,0.81-9.584,0.81
				c-0.225-1.215-1.08-3.285-1.755-4.5c3.42,0.181,7.155,0.136,8.234,0.136c0.99-0.046,1.305-0.315,1.305-1.261v-28.349H88.823
				v-4.185h39.958V200.701z M97.282,223.515v3.51h-4.05v-20.43h18.54v16.92H97.282z M97.282,210.555v9h10.35v-9H97.282z"/>
			<path fill="#FFFFFF" d="M152.137,221.985c-6.12,2.79-12.735,5.625-17.729,7.739l-1.53-4.364c1.71-0.63,3.825-1.44,6.12-2.34
				l-0.855-27.044l4.365-0.18l0.765,25.469c2.61-1.08,5.265-2.205,7.875-3.33L152.137,221.985z M171.351,234.629
				c-1.935-3.015-5.715-7.47-9.314-11.385c-3.375,4.995-8.1,8.774-14.625,11.564c-0.585-0.899-2.295-2.835-3.375-3.689
				c14.939-5.535,19.62-16.38,21.464-35.323l4.59,0.449c-1.035,9.45-2.7,17.01-5.715,23.039c3.825,3.96,8.325,8.775,10.484,11.97
				L171.351,234.629z M154.297,211.725c-1.17-3.06-4.05-7.739-6.84-11.024l3.825-1.845c2.925,3.24,5.76,7.604,7.064,10.71
				L154.297,211.725z"/>
			<path fill="#FFFFFF" d="M218.601,202.456h-13.004c4.77,2.925,10.035,6.345,13.004,8.865l-2.655,3.015
				c-3.33-2.925-9.81-7.38-15.254-10.665v7.56h-4.14v-8.145c-3.959,5.085-10.034,9.405-15.974,11.79
				c-0.585-0.99-1.8-2.521-2.655-3.375c5.22-1.71,10.709-5.175,14.354-9.045h-13.32v-3.645h17.594v-5.4h4.14v5.4h17.909V202.456z
				 M179.588,229.634h38.518v3.735h-38.518V229.634z M211.267,212.581v14.669h-25.199v-14.669H211.267z M206.947,215.46h-16.74
				v3.015h16.74V215.46z M206.947,221.265h-16.74v3.06h16.74V221.265z"/>
			<path fill="#FFFFFF" d="M238.942,210.555c-0.495,0.9-0.945,1.755-1.485,2.61h21.689v21.688h-4.185v-1.71h-17.999v1.71h-4.005
				V219.06c-2.16,2.295-4.68,4.365-7.56,6.029c-0.54-0.989-1.755-2.52-2.565-3.284c4.86-2.745,8.595-6.705,11.34-11.25h-10.125
				v-3.33h11.924c0.45-0.854,0.855-1.8,1.26-2.699h-9.989v-3.285h11.114c0.315-0.854,0.54-1.71,0.765-2.564
				c-3.96,0.135-7.919,0.225-11.654,0.225c-0.045-0.945-0.405-2.34-0.81-3.195c10.89-0.045,24.164-0.675,31.454-2.024l2.52,3.015
				c-4.635,0.811-10.62,1.396-16.875,1.755c-0.27,0.945-0.585,1.845-0.9,2.79h18.089v3.285h-19.214
				c-0.36,0.899-0.765,1.845-1.17,2.699h22.904v3.33H238.942z M254.961,216.405h-17.999v2.565h17.999V216.405z M236.962,224.325
				h17.999v-2.564h-17.999V224.325z M254.961,229.86v-2.745h-17.999v2.745H254.961z"/>
			<path fill="#FFFFFF" d="M284.123,219.195v11.835c0,1.575-0.225,2.52-1.305,3.06s-2.565,0.585-4.725,0.585
				c-0.136-0.899-0.631-2.34-1.125-3.194c1.484,0.045,2.744,0.045,3.194,0.045c0.405-0.045,0.54-0.181,0.54-0.585v-11.745h-4.904
				v-16.154h4.095c0.225-1.305,0.449-2.79,0.63-4.095h-6.75v13.14c0,6.614-0.45,15.93-3.24,22.004
				c-0.585-0.675-2.204-1.845-3.015-2.205c2.475-5.579,2.655-13.634,2.655-19.754v-16.784h19.079v3.6h-4.68l-1.17,4.095h5.76v16.154
				H284.123z M279.353,221.85c-0.63,3.42-1.8,6.975-3.15,9.27c-0.675-0.495-2.069-1.26-2.925-1.53
				c1.351-2.205,2.295-5.354,2.88-8.369L279.353,221.85z M279.038,209.656h6.705v-3.646h-6.705V209.656z M279.038,216.225h6.705
				v-3.734h-6.705V216.225z M287.722,229.365c-0.359-1.89-1.484-4.995-2.475-7.29l2.7-0.989c1.125,2.294,2.25,5.265,2.744,7.109
				L287.722,229.365z M298.432,228.825c-2.07,2.25-5.49,4.635-8.325,5.939c-0.54-0.72-1.755-1.89-2.564-2.609
				c2.745-1.215,5.939-3.51,7.515-5.355L298.432,228.825z M296.902,202.726c0.181-1.215,0.405-2.565,0.585-3.825h-7.38v-3.555
				h18.989v3.555h-7.515c-0.314,1.305-0.675,2.655-0.989,3.825h7.379v23.443h-16.469v-23.443H296.902z M304.282,205.831h-9.225
				v3.735h9.225V205.831z M304.282,212.536h-9.225v3.734h9.225V212.536z M304.282,219.24h-9.225v3.78h9.225V219.24z
				 M303.832,226.845c2.115,1.664,4.905,4.095,6.255,5.669l-3.149,2.205c-1.306-1.62-3.96-4.185-6.12-5.939L303.832,226.845z"/>
			<path fill="#FFFFFF" d="M317.108,201.511h-3.689v-3.556h9.044c-0.449-1.17-0.944-2.52-1.439-3.555l3.734-1.035
				c0.721,1.396,1.485,3.195,2.025,4.59h6.66v3.556h-12.51v7.334c0,1.351,0.27,1.845,1.395,1.845h6.435
				c1.035,0,2.565-0.09,3.42-0.27c0.045,1.035,0.226,2.61,0.36,3.465c-0.765,0.27-2.25,0.315-3.689,0.315h-6.525
				c-4.14,0-5.22-1.396-5.22-5.445V201.511z M335.783,230.355h17.773v3.465h-39.598v-3.465h17.639v-3.42h-15.029v-3.375h15.029
				v-3.24c-4.725,0.271-9.539,0.45-13.949,0.495c-0.09-1.035-0.54-2.475-0.899-3.42c11.114-0.225,24.389-1.08,32.218-2.52
				l1.891,3.375c-4.23,0.765-9.495,1.35-15.074,1.8v3.51h15.434v3.375h-15.434V230.355z M354.501,197.191
				c-2.564,11.385-9.539,16.244-19.169,18.584c-0.45-0.944-1.26-2.385-2.025-3.149c2.25-0.45,4.41-1.08,6.3-1.98
				c-1.17-1.529-2.97-3.51-4.725-5.265c-0.405,0.405-0.9,0.766-1.439,1.17c-0.676-0.854-1.98-2.069-2.926-2.609
				c4.365-2.97,7.38-7.02,8.91-10.484l4.05,0.675c-0.36,0.81-0.81,1.529-1.215,2.34h8.954l0.766-0.181L354.501,197.191z
				 M342.442,209.116c1.035-0.721,2.025-1.485,2.925-2.34c-1.8-1.485-4.364-3.465-6.795-5.04c-0.494,0.585-0.989,1.17-1.529,1.665
				C338.887,205.201,341.047,207.406,342.442,209.116z M340.282,199.71c2.295,1.44,5.04,3.285,6.975,4.86
				c0.99-1.44,1.846-3.06,2.476-4.86H340.282z"/>
			<path fill="#FFFFFF" d="M54.442,276.965c-0.72,3.87-1.89,7.829-3.51,11.114c0.9,0.495,1.845,1.26,3.51,2.25
				c3.06,1.89,7.2,2.16,12.464,2.16c5.49,0,13.095-0.405,18.044-1.035c-0.495,1.125-1.17,3.195-1.215,4.32
				c-3.465,0.225-11.744,0.494-17.009,0.494c-5.939,0-9.764-0.494-13.004-2.385c-1.845-1.035-3.465-2.609-4.455-2.609
				c-0.99,0-2.565,2.925-3.735,5.67l-2.88-3.87c1.215-1.575,2.385-2.925,3.51-3.915l-0.045-0.045c1.755-2.475,3.15-6.029,3.96-9.449
				h-5.67c1.125-2.655,2.43-6.3,3.555-9.81h-4.5v-3.78h9.719c-0.99,3.195-2.25,6.885-3.375,9.989h1.575l0.63-0.135L54.442,276.965z
				 M48.638,264.321c-0.63-2.025-1.845-5.265-2.7-7.649l3.78-1.035c0.9,2.385,2.16,5.489,2.79,7.425L48.638,264.321z M67.492,285.29
				c-2.34,2.205-5.985,4.365-9,5.805c-0.72-0.765-2.16-1.979-3.105-2.564c3.105-1.125,6.3-2.745,8.325-4.41h-9.044v-3.194h7.47
				v-3.555h-5.76v-3.15h5.76v-2.835h3.825v2.835h6.254v-2.835h3.87v2.835h5.895v3.15h-5.895v3.555h7.74v3.194h-9.675
				c3.15,1.485,6.57,3.465,8.55,4.995l-3.645,1.8c-1.845-1.53-5.04-3.6-8.01-5.13l2.34-1.665h-9.315L67.492,285.29z M67.897,266.616
				c-0.315,0.945-0.585,2.295-0.72,3.015c-8.82,1.485-10.214,1.8-10.979,2.205c-0.225-0.855-0.9-2.43-1.395-3.15
				c0.585-0.314,1.26-1.034,1.26-2.699v-8.955h12.24v8.01h-8.91v2.835L67.897,266.616z M59.392,259.731v2.564h5.4v-2.564H59.392z
				 M65.962,280.925h6.254v-3.555h-6.254V280.925z M74.511,270.666c-3.465,0-4.32-1.305-4.32-4.635v-8.955h12.42v8.01h-9.045v0.99
				c0,1.215,0.135,1.665,1.17,1.665h5.22c0.855,0,2.25-0.09,2.925-0.271c0.09,0.9,0.18,2.16,0.315,2.925
				c-0.63,0.226-1.89,0.271-3.105,0.271H74.511z M73.566,259.776v2.564h5.445v-2.564H73.566z"/>
			<path fill="#FFFFFF" d="M128.916,290.33v4.229H88.643v-4.229h16.424v-34.288h4.5v13.364h16.244v4.185h-16.244v16.739H128.916z"/>
			<path fill="#FFFFFF" d="M155.602,262.161c-0.54,1.665-1.08,3.42-1.53,4.95h17.549v29.653h-4.275v-2.34h-27.404v2.34h-4.05
				v-29.653h13.859c0.36-1.53,0.72-3.33,0.99-4.95h-16.785v-3.96h39.778v3.96H155.602z M139.942,290.554h5.625v-19.619h-5.625
				V290.554z M157.672,270.935h-8.37v4.23h8.37V270.935z M157.672,278.496h-8.37v4.274h8.37V278.496z M149.302,290.554h8.37V286.1
				h-8.37V290.554z M167.346,270.935h-5.895v19.619h5.895V270.935z"/>
			<path fill="#FFFFFF" d="M195.427,280.25c0.135,1.17,0.405,2.835,0.675,3.734c-10.53,4.77-12.104,5.625-13.095,6.524
				c-0.315-1.034-1.215-2.835-1.935-3.734c0.9-0.45,2.115-1.575,2.115-3.465v-11.205l-4.905,0.99l-0.675-3.824l5.58-1.125v-10.935
				h4.05v10.124l7.965-1.62l0.675,3.78l-8.64,1.755v12.465L195.427,280.25z M218.511,259.101c0,0,0,1.62-0.045,2.205
				c-0.585,22.544-1.08,30.148-2.88,32.533c-1.035,1.53-2.115,2.025-3.69,2.25c-1.53,0.225-3.96,0.18-6.345,0.045
				c-0.045-1.17-0.585-3.015-1.305-4.229c2.52,0.18,4.725,0.225,5.715,0.225c0.855,0,1.26-0.18,1.755-0.854
				c1.35-1.575,1.98-8.955,2.43-28.214h-8.145c-0.315,14.039-1.305,26.773-12.689,33.703c-0.63-1.08-1.98-2.564-3.015-3.33
				c10.62-6.029,11.294-17.594,11.52-30.373h-6.75v-3.96H218.511z"/>
			<path fill="#FFFFFF" d="M251.271,286.28c-1.71,5.22-5.535,8.595-14.354,10.484c-0.36-0.989-1.305-2.475-2.07-3.284
				c7.2-1.306,10.485-3.601,12.149-7.2h-10.799v-3.375h3.51V269.81c-0.27,0.226-0.54,0.495-0.81,0.721
				c-0.495-0.811-1.575-2.115-2.43-2.745v0.27h-4.185v7.605l3.96-1.261l0.675,3.735l-4.635,1.575v11.924
				c0,2.115-0.405,3.33-1.575,4.005c-1.26,0.675-3.015,0.855-5.76,0.855c-0.09-1.08-0.585-2.925-1.125-4.095
				c1.665,0.045,3.24,0.045,3.735,0.045c0.54,0,0.72-0.181,0.72-0.766v-10.574c-1.575,0.54-3.15,1.035-4.5,1.485l-1.035-4.005
				c1.575-0.45,3.465-0.99,5.535-1.62v-8.91h-4.995v-3.869h4.995v-8.775h4.005v8.775h4.185v3.465
				c4.365-3.51,7.155-8.325,8.595-12.194l3.915,0.585c-0.36,0.944-0.81,1.89-1.26,2.834h6.3l0.63-0.135l2.475,1.575
				c-0.855,1.845-2.205,4.005-3.42,5.85h7.875v16.739h2.79v3.375H251.271z M245.872,262.206c-0.81,1.351-1.709,2.655-2.745,3.96
				h6.57c0.81-1.17,1.665-2.564,2.34-3.96H245.872z M248.032,282.905c0.27-1.215,0.405-2.609,0.54-4.095h4.05
				c-0.135,1.44-0.315,2.835-0.54,4.095h5.94v-6.074l-1.665,1.979c-1.305-1.305-3.735-3.06-5.94-4.455
				c-1.35,1.8-2.97,3.42-4.5,4.635c-0.585-0.54-1.935-1.529-2.7-1.935c2.655-1.8,5.04-4.545,6.39-7.515h-6.435v13.364H248.032z
				 M258.021,269.541h-5.985l1.035,0.27c-0.315,0.766-0.72,1.485-1.17,2.25c2.205,1.261,4.68,2.925,6.12,4.186V269.541z
				 M254.421,286.325c3.33,2.385,7.965,5.85,10.305,7.92l-2.7,2.654c-2.205-2.159-6.75-5.76-10.125-8.324L254.421,286.325z"/>
			<path fill="#FFFFFF" d="M275.483,275.39c-1.62-1.305-4.995-3.285-7.515-4.59l2.385-3.06c2.43,1.17,5.85,3.015,7.604,4.229
				L275.483,275.39z M268.823,293.974c1.801-3.465,4.23-9.134,6.03-14.264l3.42,2.204c-1.62,4.726-3.78,10.035-5.67,14.22
				L268.823,293.974z M277.058,263.736c-1.53-1.396-4.771-3.465-7.2-4.86l2.43-3.015c2.386,1.215,5.715,3.15,7.38,4.5
				L277.058,263.736z M290.828,268.866c1.35,3.104,2.609,7.199,3.149,9.81l-3.015,1.17c-0.405-2.43-1.485-6.12-2.655-9.135v1.035
				c0,8.774-0.63,17.819-6.164,24.929c-0.811-0.765-2.431-1.935-3.511-2.43c3.511-4.41,4.905-9.54,5.4-14.895l-2.79,1.035
				c-0.315-2.88-1.62-7.29-2.88-10.575l3.015-1.079c1.125,2.699,2.205,6.074,2.835,8.774c0.09-1.936,0.135-3.825,0.135-5.76v-15.255
				h3.96v13.319L290.828,268.866z M307.567,256.446v40.229h-4.005V278.9l-2.25,1.08c-0.585-2.295-1.98-5.625-3.42-8.505v24.119
				h-3.87v-38.429h3.87V269l1.8-0.81c1.44,2.475,2.925,5.534,3.87,8.055v-19.8H307.567z"/>
			<path fill="#FFFFFF" d="M333.802,276.74c0,0,0,1.171-0.045,1.71c-0.495,10.98-0.945,15.165-2.16,16.56
				c-0.81,1.035-1.71,1.305-3.06,1.44c-1.17,0.18-3.285,0.18-5.444,0.09c-0.091-1.125-0.495-2.655-1.17-3.69
				c2.069,0.226,4.05,0.226,4.814,0.226c0.72,0,1.17-0.045,1.484-0.495c0.766-0.81,1.216-4.005,1.575-12.104h-6.3
				c-1.035,6.345-3.104,12.329-7.829,16.289c-0.63-0.989-1.846-2.295-2.88-2.925c6.029-4.859,7.02-13.589,7.425-21.419h-4.681
				v-14.939h17.955v14.939h-9.18c-0.091,1.439-0.181,2.88-0.36,4.319H333.802z M319.358,268.731h10.08v-7.561h-10.08V268.731z
				 M341.542,285.65h-4.05v-24.839h4.05V285.65z M352.431,256.311v35.099c0,2.609-0.63,3.825-2.204,4.59
				c-1.665,0.63-4.365,0.765-8.46,0.72c-0.225-1.125-0.855-3.06-1.485-4.274c3.061,0.135,5.896,0.09,6.795,0.09
				c0.855-0.045,1.17-0.315,1.17-1.125v-35.099H352.431z"/>
			<path fill="#FFFFFF" d="M363.458,284.975v4.14h-3.824v-29.608h11.789v25.469H363.458z M363.458,263.375v17.729h4.141v-17.729
				H363.458z M399.232,292.49v3.33h-23.805v-3.33h10.215v-4.275h-7.649v-3.239h7.649v-3.51c-4.725,0.404-5.76,0.54-6.524,0.854
				c-0.09-0.72-0.721-2.564-1.17-3.465c0.675-0.135,1.35-0.72,2.114-1.484c0.54-0.495,1.936-2.16,3.285-4.141h-5.625
				c-0.18,7.38-1.125,17.189-5.76,23.715c-0.675-0.721-2.25-1.846-3.194-2.205c4.77-6.795,5.22-16.515,5.22-23.579v-13.995h23.534
				v10.215h-19.8v2.61h21.374v3.239h-11.339c-1.215,1.801-2.7,3.601-4.14,5.085l8.729-0.54c-0.766-0.944-1.53-1.979-2.295-2.79
				l2.835-1.26c2.069,2.115,4.229,5.13,5.175,7.2l-3.061,1.439c-0.18-0.45-0.404-0.989-0.765-1.574l-4.814,0.359v3.825h8.145v3.239
				h-8.145v4.275H399.232z M377.722,260.451v3.6h15.93v-3.6H377.722z"/>
		</g>
	</g>
</g>
</svg>
