<?xml version="1.0" encoding="utf-8"?>
<!-- Generator: Adobe Illustrator 16.0.0, SVG Export Plug-In . SVG Version: 6.00 Build 0)  -->
<!DOCTYPE svg PUBLIC "-//W3C//DTD SVG 1.1//EN" "http://www.w3.org/Graphics/SVG/1.1/DTD/svg11.dtd">
<svg version="1.1" id="圖層_1" xmlns="http://www.w3.org/2000/svg" xmlns:xlink="http://www.w3.org/1999/xlink" x="0px" y="0px"
	 width="843.907px" height="1375.164px" viewBox="0 0 843.907 1375.164" enable-background="new 0 0 843.907 1375.164"
	 xml:space="preserve">
<g>
	<g>
		<g>
			<path fill="#EABCA8" d="M555.986,482.578c0,0,91.386-4.846,99.908,326.24l-32.027,0.223
				c-4.707-38.717-44.778-244.082-84.047-255.043L555.986,482.578z"/>
			<path fill="#EABCA8" d="M609.72,879.784c0.298-17.066,11.063-67.295,16.912-74.741l29.113,0.849
				c0.626,19.028,8.788,33.731,0.971,52.34c-6.292,15.01-16.486,27.869-26.775,40.278
				C614.811,916.765,609.467,894.747,609.72,879.784z"/>
		</g>
		<g>
			<path fill="#D94E4C" d="M612.635,746.45c13.1-5.106,26.201-10.16,39.384-14.996c-19.542-252.884-96.033-248.876-96.033-248.876
				l-16.167,71.42C568.243,561.931,597.093,671.738,612.635,746.45z"/>
		</g>
		<polygon fill="#BE3E3C" points="669.614,757.541 609.796,774.14 602.339,746.601 662.166,730.007 		"/>
	</g>
	<path fill="#D39379" d="M401.948,333.849c1.658,10.939-4.423,20.948-13.583,22.36l0,0c-9.161,1.408-17.938-6.325-19.593-17.266
		l-2.075-13.712c-1.669-10.939,4.426-20.96,13.583-22.358l0,0c9.154-1.418,17.935,6.324,19.586,17.256L401.948,333.849z"/>
	<path fill="#D39379" d="M549.965,332.549c-1.656,10.941,4.42,20.949,13.599,22.357l0,0c9.142,1.41,17.917-6.324,19.575-17.264
		l2.08-13.712c1.666-10.949-4.422-20.945-13.589-22.369l0,0c-9.159-1.408-17.929,6.336-19.583,17.275L549.965,332.549z"/>
	<g>
		<rect x="442.898" y="396.745" fill="#D39379" width="32.817" height="78.622"/>
		<rect x="475.715" y="396.745" fill="#E1AE9F" width="32.809" height="78.622"/>
	</g>
	<g>
		<path fill="#DDA88D" d="M475.532,240.824l-94.726,27.294c0,0-15.857,171.615,94.726,172.775V240.824z"/>
		<path fill="#EABCA8" d="M475.528,233.088l95.097,38.92c0,0,15.847,167.725-95.097,168.954V233.088z"/>
	</g>
	<g>
		<path fill="#CD211C" d="M442.056,469.164c-0.331,0.021-0.646,0.03-0.987,0.049c-29.244,1.56-68.708,8.41-85.261,31.135
			c-19.456,26.716,32.016,231.285,25.097,310.861c-3.56,40.834,54.548,57.273,93.633,58.09V469.671
			c-1.275-0.172-3.377-0.349-6.01-0.508H442.056z"/>
		<path fill="#D94E4C" d="M594.189,509.593c-17.5-27.019-57.413-38.959-86.741-40.429h-26.634c-2.613,0.148-4.654,0.336-5.928,0.508
			v399.627c39.08-0.816,98.2-17.354,93.633-58.09C560.758,742.029,612.154,537.33,594.189,509.593z"/>
	</g>
	<path fill="#0A5B9B" d="M465.317,868.421l-83.072-87.488c0,0-33.083,118.66,40.476,551.359h27.104L465.317,868.421z"/>
	<path fill="#1C74BC" d="M486.103,868.421l83.071-87.488c0,0,33.084,118.66-40.476,551.359h-27.112L486.103,868.421z"/>
	<polygon fill="#C12420" points="444.355,395.446 505.689,395.446 493.17,387.719 475.308,384.4 458.553,387.719 	"/>
	<g>
		<g>
			<path fill="#D39379" d="M386.437,480.314c0,0-96.19,2.978-87.61,334.205l31.997-1.463c2.701-38.935,35.887-250.178,74.52-263.208
				L386.437,480.314z"/>
			<path fill="#D39379" d="M348.583,882.975c-1.162-17.027-14.517-66.643-20.738-73.767l-29.002,2.392
				c0.352,19.046-7.028,34.163,1.722,52.335c7.055,14.672,17.9,26.968,28.811,38.83
				C345.419,920.203,349.616,897.922,348.583,882.975z"/>
		</g>
		<g>
			<path fill="#CD211C" d="M339.951,746.553c12.892-76.544,37.747-187.385,65.393-196.705l-18.907-69.534
				c0,0-80.769,2.549-87.668,257.916C312.531,740.899,326.309,743.434,339.951,746.553z"/>
		</g>
		<polygon fill="#AF1F24" points="346.997,768.164 285.428,760.726 288.726,732.351 350.287,739.787 		"/>
	</g>
	<polygon fill="#AF1F24" points="440.665,453.276 475.887,470.671 449.697,503.949 399.364,474.065 	"/>
	<polygon fill="#BE3E3C" points="509.441,453.276 474.221,470.671 500.403,503.949 550.734,474.065 	"/>
	<g>
		<path fill="#0A5B9B" d="M381.506,769.021c1.153,16.52,1.438,31.254,0.398,43.188c-3.56,40.834,54.548,57.273,93.633,58.09V769.021
			H381.506z"/>
		<path fill="#1C74BC" d="M569.885,769.021h-93.998v101.277c39.08-0.816,98.2-17.354,93.633-58.09
			C568.277,801.097,568.583,786.244,569.885,769.021z"/>
	</g>
	<g>
		<rect x="377.433" y="757.324" fill="#40220E" width="98.095" height="25.992"/>
		<rect x="475.528" y="757.324" fill="#5D3819" width="98.081" height="25.992"/>
	</g>
	<path fill="#714B23" d="M384.555,347.938c0,0-0.446-1.687,3.07-49.322c5.143-69.726,55.012-22.042,91.379-21.593
		c35.452,0.436,77.742-49.028,85.671,22.485c4.541,41.052,3.89,37.469,3.89,37.469s41.753-152.349-91.888-152.315
		C332.506,184.689,384.555,347.938,384.555,347.938z"/>
	<path fill="#5D3819" d="M475.512,184.681c-142.701,0.931-90.958,163.257-90.958,163.257s-0.446-1.687,3.07-49.322
		c4.985-67.522,51.894-24.949,87.888-21.773V184.681z"/>
	<path fill="#1F1E25" d="M437.735,301.75c2.396-0.028,16.36,0.608,23.475,5.481c0.898,0.605,2.53,0.279,3.821,0.279
		c6.577,0.029,13.154,0.048,19.732-0.011c1.432-0.009,3.126,0.108,4.265-0.535c11.554-6.603,23.979-4.646,36.186-3.408
		c7.988,0.816,15.848,2.872,23.807,4.032c3.736,0.558,6.418,1.988,6.852,5.697c0.419,3.449-1.567,5.75-4.949,6.874
		c-4.004,1.328-5.443,4.307-5.636,8.168c-0.206,3.854-0.276,7.717-0.794,11.527c-1.33,10.038-6.766,17.195-16.99,19.581
		c-5.809,1.357-12.14,1.963-18.057,1.299c-14.506-1.619-21.696-9.57-24.456-25.487c-0.483-2.847-0.71-5.746-1.312-8.567
		c-0.955-4.486-3.795-7.047-8.619-7.118c-4.84-0.061-7.746,2.503-8.787,6.922c-0.812,3.434-1.088,6.986-1.821,10.452
		c-4.291,20.403-15.903,25.478-35.26,23.49c-17.504-1.787-24.574-10.424-24.41-27.837c0.066-6.038-0.692-11.06-7.645-13.473
		c-1.596-0.558-3.313-4.032-2.977-5.808c0.388-1.998,2.761-4.697,4.737-5.152c6.391-1.45,12.658-3.277,19.166-4.32
		C424.522,302.803,435.363,301.77,437.735,301.75z M437.036,308.672c-4.232,0.107-8.235,0.327-12.08,1.051
		c-10.699,2.056-15.583,7.754-15.932,18.278c-0.065,2.066,0.507,4.141,0.518,6.215c0.08,16.89,20.333,26.141,35.321,18.557
		c10.956-5.551,18.363-21.653,15.227-33.348c-1.38-5.133-4.89-8.4-10.136-9.422C445.623,309.167,441.187,308.881,437.036,308.672z
		 M511.931,308.94L511.931,308.94c-2.638,0-5.285-0.14-7.909,0.021c-9.215,0.616-15.047,5.104-15.6,13.085
		c-0.696,10.146,2.17,19.527,9.791,26.824c5.454,5.243,12.461,7.091,20.031,6.067c17.283-2.323,24.088-13.624,20.508-33.27
		c-0.994-5.49-4.88-9.273-10.285-10.704C523.133,309.565,517.493,309.356,511.931,308.94z"/>
	<path fill="#40220E" d="M450.125,1332.292h-27.108c0,0-70.03,27.283-62.288,42.871h90.989L450.125,1332.292z"/>
	<path fill="#5D3819" d="M502.168,1332.292h27.108c0,0,70.034,27.283,62.284,42.871h-90.979L502.168,1332.292z"/>
	
		<line fill="none" stroke="#1D1D24" stroke-width="5" stroke-linecap="round" stroke-miterlimit="10" x1="422.355" y1="331.378" x2="445.355" y2="331.378"/>
	
		<line fill="none" stroke="#1D1D24" stroke-width="5" stroke-linecap="round" stroke-miterlimit="10" x1="504.855" y1="331.489" x2="527.855" y2="331.489"/>
	<g>
		<g>
			<path fill="#E5F4FC" d="M314.914,285.691c-20.106-34.8-65.638-46.732-101.696-26.659c-6.582,3.663-12.384,8.146-17.364,13.226
				c-16.018-19.749-45.047-25.528-68.497-12.474c-19.398,10.798-29.482,31.419-27.277,51.597
				c-10.077,1.712-20.049,5.135-29.482,10.391c-43.271,24.087-58.792,77.469-34.668,119.227c17.32,29.97,50.35,45.807,83.618,43.454
				c13.996,18.295,40.271,23.848,61.431,12.068c13.312-7.412,21.659-20.051,23.833-33.683c15.339,4.071,32.357,2.402,47.398-5.968
				c2.776-1.549,5.376-3.283,7.816-5.157c8.295,5.697,19.623,6.532,29.14,1.237c13.113-7.302,17.818-23.474,10.506-36.132
				c-0.686-1.185-1.449-2.293-2.286-3.331c0.38-0.187,0.759-0.361,1.13-0.568c11.802-6.57,16.034-21.127,9.455-32.52
				c-1.621-2.799-3.743-5.142-6.194-6.992C325.415,350.701,331.736,314.809,314.914,285.691z"/>
		</g>
	</g>
	<g>
		
			<ellipse transform="matrix(0.8441 -0.5362 0.5362 0.8441 -193.7925 251.5233)" fill="#E5F4FC" cx="335.61" cy="458.997" rx="21.765" ry="20.023"/>
		
			<ellipse transform="matrix(0.8441 -0.5362 0.5362 0.8441 -185.8761 260.9252)" fill="#E5F4FC" cx="355.733" cy="450.084" rx="11.731" ry="11.092"/>
	</g>
	<g>
		<g>
			<g id="XMLID_497_">
				<g id="XMLID_502_">
					<polygon id="XMLID_507_" fill-rule="evenodd" clip-rule="evenodd" fill="#E7BA5A" points="195.991,294.42 237.618,341.103 
						279.243,387.784 194.965,386.847 110.688,385.913 153.34,340.167 					"/>
					
						<linearGradient id="XMLID_2_" gradientUnits="userSpaceOnUse" x1="104.7505" y1="300.9619" x2="189.032" y2="300.9619" gradientTransform="matrix(0.9999 0.0111 -0.0111 0.9999 9.7993 37.5923)">
						<stop  offset="0" style="stop-color:#D69F2D"/>
						<stop  offset="0.3835" style="stop-color:#D69C2D"/>
						<stop  offset="0.7781" style="stop-color:#D6942C"/>
						<stop  offset="1" style="stop-color:#D68C2B"/>
					</linearGradient>
					<polygon id="XMLID_506_" fill-rule="evenodd" clip-rule="evenodd" fill="url(#XMLID_2_)" points="170.855,386.58 
						110.688,385.913 153.34,340.167 195.991,294.42 					"/>
					<path id="XMLID_505_" fill-rule="evenodd" clip-rule="evenodd" fill="#D7A627" d="M210.317,325.521
						c-8.633,1.929-26.491,0.947-9.204,3.887c9.604,1.634,1.627-0.305-1.03,3.904c-1.131,1.79-18.808,2.509-1.915,4.735
						c1.58,0.209,39.391-0.158,32.94,0.003c-0.595,0.016-24.813-2.997-10.197-2.546c4.024,0.125,2.979-2.911-1.996-2.725
						c-9.819,0.368,16.757-3.334,0.754-3.236c-13.334,0.085,0.396-1.752-7.251-3.863
						C211.627,325.459,211.182,325.328,210.317,325.521z"/>
					<path id="XMLID_504_" fill-rule="evenodd" clip-rule="evenodd" fill="#D7A627" d="M232.839,354.826
						c-0.276-0.018-39.581-1.919-26.201-0.089c25.324,3.462,4.415,0.125,8.489,2.619c-3.32-0.533-39.431,3.744-18.484,3.037
						c16.612-0.56,30.677-1.21,47.298-0.577c12.635,0.481-7.861-3.103-8.107-3.241c0.355-1.38,8.015-0.926-1.074-1.975
						C233.3,354.432,234.604,354.951,232.839,354.826z"/>
					<path id="XMLID_503_" fill-rule="evenodd" clip-rule="evenodd" fill="#D7A627" d="M231.9,367.521
						c-0.035,0.006-11.863-0.436-12.174,0.767c0.377,0.327,12.394,0.521,3.769,1.007c-0.206,0.013-11.906,2.286-12.195,2.368
						c-0.18,0.698,39.443-0.508,44.037-2.061c0.028-2.562-13.526-0.709-9.614-2.539c3.588-1.676-13.139-2.345-12.664-0.635
						C233.333,367.421,232.43,367.407,231.9,367.521z"/>
				</g>
				<g id="XMLID_499_">
					<path id="XMLID_501_" fill-rule="evenodd" clip-rule="evenodd" fill="#CE9324" d="M151.591,342.043l1.749-1.876l8.977-9.626
						c0.266,0.007,0.498,0.018,0.68,0.036c5.196,0.506,14.995-0.283,4.804,2.756c-0.018,1.597,17.008,2.32,12.306,4.688
						c-2.607,1.313-16.999-1.266-7.929,2.934c8.903,4.122-8.792-0.087-12.49,1.208C159.634,342.181,155.924,342.162,151.591,342.043
						z"/>
					<path id="XMLID_500_" fill-rule="evenodd" clip-rule="evenodd" fill="#CE9324" d="M151.591,342.043l1.749-1.876l8.977-9.626
						c0.266,0.007,0.498,0.018,0.68,0.036c5.196,0.506,14.995-0.283,4.804,2.756c-0.018,1.597,17.008,2.32,12.306,4.688
						c-2.607,1.313-16.999-1.266-7.929,2.934c8.903,4.122-8.792-0.087-12.49,1.208C159.634,342.181,155.924,342.162,151.591,342.043
						z"/>
				</g>
				<path id="XMLID_498_" fill-rule="evenodd" clip-rule="evenodd" fill="#CE9324" d="M141.703,352.647l-9.397,10.081
					c0.714,0.064,1.458,0.121,2.211,0.169c4.83,0.313,10.021,0.346,10.065,0.292c1.025-1.267,5.51-0.126,4.511-0.909
					c-2.406-1.88,3.959-1.299,2.178-2.117c-3.128-1.435-2.627-1.961-0.543-2.112c3.739-0.274,12.58,0.652,14.713-0.328
					c4.087-1.874-9.782-1.699-10.274-1.766c-18.329-2.528,9.121-1.468-4.677-3.087C146.208,352.367,143.756,352.43,141.703,352.647z
					"/>
			</g>
			<g id="XMLID_17_">
				<g id="XMLID_900_">
					<polygon id="XMLID_905_" fill-rule="evenodd" clip-rule="evenodd" fill="#E7BA5A" points="126.586,338.25 157.846,373.306 
						189.107,408.364 125.815,407.662 62.525,406.958 94.556,372.603 					"/>
					
						<linearGradient id="XMLID_3_" gradientUnits="userSpaceOnUse" x1="56.8237" y1="334.0503" x2="120.1174" y2="334.0503" gradientTransform="matrix(0.9999 0.0111 -0.0111 0.9999 9.7993 37.5923)">
						<stop  offset="0" style="stop-color:#D69F2D"/>
						<stop  offset="0.3835" style="stop-color:#D69C2D"/>
						<stop  offset="0.7781" style="stop-color:#D6942C"/>
						<stop  offset="1" style="stop-color:#D68C2B"/>
					</linearGradient>
					<polygon id="XMLID_904_" fill-rule="evenodd" clip-rule="evenodd" fill="url(#XMLID_3_)" points="107.708,407.46 
						62.525,406.958 94.556,372.603 126.586,338.25 					"/>
					<path id="XMLID_903_" fill-rule="evenodd" clip-rule="evenodd" fill="#D7A627" d="M137.345,361.605
						c-6.484,1.447-19.894,0.711-6.913,2.918c7.211,1.226,1.222-0.23-0.774,2.931c-0.847,1.344-14.124,1.885-1.438,3.558
						c1.186,0.157,29.583-0.119,24.738,0.001c-0.446,0.011-18.634-2.251-7.658-1.912c3.023,0.094,2.238-2.187-1.5-2.046
						c-7.372,0.276,12.586-2.504,0.569-2.43c-10.013,0.064,0.296-1.317-5.445-2.902C138.328,361.56,137.994,361.458,137.345,361.605
						z"/>
					<path id="XMLID_902_" fill-rule="evenodd" clip-rule="evenodd" fill="#D7A627" d="M154.259,383.613
						c-0.208-0.015-29.725-1.442-19.677-0.068c19.018,2.601,3.315,0.095,6.374,1.968c-2.492-0.4-29.611,2.811-13.88,2.281
						c12.474-0.42,23.037-0.911,35.52-0.435c9.487,0.36-5.904-2.33-6.088-2.435c0.267-1.036,6.018-0.694-0.806-1.481
						C154.604,383.317,155.584,383.708,154.259,383.613z"/>
					<path id="XMLID_901_" fill-rule="evenodd" clip-rule="evenodd" fill="#D7A627" d="M153.553,393.146
						c-0.025,0.005-8.909-0.327-9.142,0.576c0.283,0.245,9.307,0.391,2.829,0.757c-0.154,0.009-8.941,1.717-9.159,1.776
						c-0.134,0.526,29.622-0.38,33.071-1.546c0.021-1.924-10.158-0.533-7.219-1.906c2.695-1.259-9.867-1.76-9.511-0.477
						C154.63,393.071,153.95,393.061,153.553,393.146z"/>
				</g>
				<g id="XMLID_897_">
					<path id="XMLID_899_" fill-rule="evenodd" clip-rule="evenodd" fill="#CE9324" d="M93.242,374.013l1.313-1.41l6.74-7.229
						c0.201,0.005,0.375,0.015,0.513,0.027c3.902,0.38,11.26-0.211,3.607,2.07c-0.013,1.199,12.771,1.744,9.241,3.521
						c-1.958,0.984-12.767-0.951-5.955,2.201c6.686,3.097-6.602-0.063-9.38,0.908C99.283,374.116,96.496,374.102,93.242,374.013z"/>
					<path id="XMLID_898_" fill-rule="evenodd" clip-rule="evenodd" fill="#CE9324" d="M93.242,374.013l1.313-1.41l6.74-7.229
						c0.201,0.005,0.375,0.015,0.513,0.027c3.902,0.38,11.26-0.211,3.607,2.07c-0.013,1.199,12.771,1.744,9.241,3.521
						c-1.958,0.984-12.767-0.951-5.955,2.201c6.686,3.097-6.602-0.063-9.38,0.908C99.283,374.116,96.496,374.102,93.242,374.013z"/>
				</g>
				<path id="XMLID_326_" fill-rule="evenodd" clip-rule="evenodd" fill="#CE9324" d="M85.818,381.976l-7.059,7.572
					c0.535,0.046,1.095,0.088,1.661,0.126c3.627,0.236,7.525,0.26,7.557,0.22c0.771-0.952,4.139-0.096,3.389-0.683
					c-1.806-1.413,2.974-0.977,1.635-1.59c-2.349-1.078-1.973-1.472-0.408-1.586c2.808-0.207,9.447,0.488,11.049-0.245
					c3.068-1.408-7.346-1.277-7.716-1.327c-13.764-1.899,6.849-1.102-3.512-2.319C89.198,381.767,87.359,381.813,85.818,381.976z"/>
			</g>
		</g>
		<g>
			
				<ellipse transform="matrix(0.9996 -0.0291 0.0291 0.9996 -12.0525 7.1636)" fill="#DBB95A" cx="239.92" cy="417.376" rx="36.579" ry="1.403"/>
			<path fill="#C4822E" d="M181.183,376.605c-0.151-0.48,0.366-0.932,0.366-0.932c1.173-0.498,1.416-0.315,2.226-1.295
				c0.806-0.986,3.047-1.391,5.245-1.211c2.2,0.181,2.834,0.217,5.727-0.837c2.894-1.056,5.145-0.567,5.145-0.567
				c0.403-0.52,1.808-0.464,1.808-0.464c0.184,0.245-0.117,2.173-0.117,2.173s1.606,0.403,2.968,1.199
				c1.365,0.801,1.357,2.01,1.851,2.854c0.492,0.835-0.324,2.189-0.709,2.395c-0.386,0.199-0.003,1.211,0.498,2.89
				c0.495,1.683,1.528,2.413,1.528,2.413s1.028,0.767,1.869,0.743c2.563-0.074,4.152-1.229,4.858-1.998
				c1.456-1.591,2.205-6.402,7.091-7.059c2.853-0.385,5.019-3.477,8.544-6.944c3.454-3.4,11.257-2.696,13.813,0.642
				c1.786,2.337,6.064,6.607,10.773,8.841c4.709,2.232,4.027,4.776,4.35,6.416c0.318,1.637,3.271,6.701,3.354,7.371
				c0.086,0.666-2.086,0.935-2.086,0.935c0.56,0.5-0.625,4.449,1.02,6.874c1.638,2.427,0.434,5.239,0.434,5.239
				s0.017,5.618,0.186,6.746c0.171,1.131-1.095,2.144-1.768,2.576c-0.667,0.432-0.896,2.035-0.896,2.035l-6.071,0.177
				c0,0,1.792-1.75,3.273-2.618c1.473-0.869,2.087-3.204,2.14-6.092c0.052-2.886-0.029-5.665-1.779-7.26
				c-1.759-1.599-3.907-5.142-3.907-5.142s-0.091,3.971,0.764,5.182c0.857,1.21,0.544,2.252-0.235,3.61
				c-0.78,1.366-4.108,6.611-3.945,7.586c0.168,0.971-0.494,1.766-1.153,2.455c-0.666,0.688-1.171,2.096-1.171,2.096l-5.592,0.163
				c0,0,0.981-1.472,2.728-2.399c1.751-0.927,2.36-3.365,3.531-5.355c1.171-1.992,2.597-4.561,2.277-6.252
				c-0.324-1.688-1.224-2.125-2.878-4.908c-1.647-2.79-2.572-6.314-2.572-6.314c-1.573-0.109-5.417,1.445-8.742,2.21
				c-3.324,0.769-6,0.33-6.398,0.69c-0.398,0.368-0.825,4.416,0.089,5.366c0.915,0.955,1.787,5.155,2.04,6.792
				c0.255,1.642,1.002,3.938,1.51,4.852c0.504,0.91,0.265,2.156,0.072,2.469c-0.195,0.315-0.213,2.117-0.213,2.117l-5.659,0.165
				c0.7-1.67,3.098-1.379,3.234-3.595c0.144-2.219-0.598-4.261-1.744-6.13c-1.147-1.873-2.01-3.292-2.676-5.075
				c-0.667-1.781-2.532-2.605-2.468-0.391c0.063,2.214-1.19,6.012-1.437,6.843c-0.253,0.833-1.122,3.741-0.693,4.396
				c0.427,0.658,0.813,2.141,0.067,2.318c-0.745,0.174-1.466,1.486-1.466,1.486c-0.128,0.569-0.828,1.722-0.828,1.722l-5.12,0.149
				c0,0,0.169-1.242,1.863-1.705c1.694-0.458,2.027-0.726,3.029-3.899c0.999-3.169,0.493-4.03,0.255-5.207
				c-0.24-1.181,0.289-1.763,0.403-2.69c0.109-0.934-0.13-4.48-0.13-4.48c-0.253-1.536-0.155-5.327-0.155-5.327
				c-1.971-0.792-4.054-2.044-4.054-2.044c-18.791,1.852-18.734-6.907-19.896-7.923c-2.21-1.927-1.815-4.355-1.727-5.848
				c-0.478,0.502-3.785,1.092-5.005,0.149c-1.286-0.996-4.298-1.862-5.041-2.098c-0.738-0.233-2.417,0.372-2.384-0.027
				c0.03-0.397,0.718-0.525,0.792-0.69C182.264,376.989,181.337,377.091,181.183,376.605z"/>
		</g>
	</g>
</g>
</svg>
