<?xml version="1.0" encoding="utf-8"?>
<!-- Generator: Adobe Illustrator 16.0.0, SVG Export Plug-In . SVG Version: 6.00 Build 0)  -->
<!DOCTYPE svg PUBLIC "-//W3C//DTD SVG 1.1//EN" "http://www.w3.org/Graphics/SVG/1.1/DTD/svg11.dtd">
<svg version="1.1" id="圖層_1" xmlns="http://www.w3.org/2000/svg" xmlns:xlink="http://www.w3.org/1999/xlink" x="0px" y="0px"
	 width="2506.69px" height="1261.916px" viewBox="0 0 2506.69 1261.916" enable-background="new 0 0 2506.69 1261.916"
	 xml:space="preserve">
<g>
	<defs>
		<rect id="SVGID_5_" x="-2462" y="-1788" width="2506.69" height="1261.916"/>
	</defs>
	<clipPath id="SVGID_2_">
		<use xlink:href="#SVGID_5_"  overflow="visible"/>
	</clipPath>
</g>
<g>
	<defs>
		<rect id="SVGID_7_" width="2506.69" height="1261.916"/>
	</defs>
	<clipPath id="SVGID_4_">
		<use xlink:href="#SVGID_7_"  overflow="visible"/>
	</clipPath>
	<g clip-path="url(#SVGID_4_)">
		<path fill="#567C34" d="M1994.528,778.738c0.012-0.46,0.039-0.915,0.039-1.38c0-36.274-31.33-65.679-69.98-65.679
			c-38.646,0-69.976,29.404-69.976,65.679c0,0.465,0.031,0.92,0.041,1.38H1994.528z"/>
		<path fill="#3D7837" d="M1902.48,778.833c0.007-0.288,0.022-0.574,0.022-0.858c0-22.623-19.951-40.964-44.561-40.964
			s-44.558,18.341-44.558,40.964c0,0.284,0.018,0.57,0.023,0.858H1902.48z"/>
	</g>
	<rect x="-3.75" y="2.592" clip-path="url(#SVGID_4_)" fill="#EEF7F8" width="2503.725" height="800.661"/>
	<rect x="-8.036" y="778.707" clip-path="url(#SVGID_4_)" fill="#96BB55" width="2519.873" height="483.209"/>
	
		<path clip-path="url(#SVGID_4_)" fill="none" stroke="#96C6DB" stroke-width="27" stroke-linecap="round" stroke-miterlimit="10" d="
		M1038.177,684.07"/>
	<rect x="485.999" y="53.332" clip-path="url(#SVGID_4_)" fill="none" width="1407.763" height="1306.36"/>
	<rect x="473.37" clip-path="url(#SVGID_4_)" fill="none" width="1871.304" height="1205.779"/>
	<rect x="2.27" clip-path="url(#SVGID_4_)" fill="none" width="2342.403" height="1205.779"/>
	<rect x="2.27" clip-path="url(#SVGID_4_)" fill="none" width="2504.42" height="1205.779"/>
	<rect x="2.27" clip-path="url(#SVGID_4_)" fill="none" width="2504.42" height="1261.916"/>
	<rect x="2.27" clip-path="url(#SVGID_4_)" fill="none" width="2504.42" height="1261.916"/>
</g>
<g>
	<defs>
		<rect id="SVGID_13_" x="-1955.75" y="-329.838" width="1556" height="1626.26"/>
	</defs>
	<clipPath id="SVGID_6_">
		<use xlink:href="#SVGID_13_"  overflow="visible"/>
	</clipPath>
	<rect x="-2449.96" y="-329.838" clip-path="url(#SVGID_6_)" fill="#EEF7F8" width="2503.725" height="982.881"/>
	<rect x="-2470.036" y="610.953" clip-path="url(#SVGID_6_)" fill="#96BB55" width="2508.011" height="707.578"/>
	<rect x="-2459.73" y="-167.754" clip-path="url(#SVGID_6_)" fill="none" width="2504.42" height="1205.779"/>
	<rect x="-2459.73" y="-167.754" clip-path="url(#SVGID_6_)" fill="none" width="2504.42" height="1261.916"/>
	<rect x="-2459.73" y="-167.754" clip-path="url(#SVGID_6_)" fill="none" width="2504.42" height="1261.916"/>
	<rect x="-2462" y="-167.754" clip-path="url(#SVGID_6_)" fill="none" width="2506.69" height="1261.916"/>
</g>
</svg>
