<?xml version="1.0" encoding="utf-8"?>
<!-- Generator: Adobe Illustrator 16.0.0, SVG Export Plug-In . SVG Version: 6.00 Build 0)  -->
<!DOCTYPE svg PUBLIC "-//W3C//DTD SVG 1.1//EN" "http://www.w3.org/Graphics/SVG/1.1/DTD/svg11.dtd">
<svg version="1.1" id="圖層_1" xmlns="http://www.w3.org/2000/svg" xmlns:xlink="http://www.w3.org/1999/xlink" x="0px" y="0px"
	 width="2499.137px" height="1262.916px" viewBox="0 0 2499.137 1262.916" enable-background="new 0 0 2499.137 1262.916"
	 xml:space="preserve">
<g>
	<defs>
		<rect id="SVGID_5_" x="-1.222" y="1" width="2506.69" height="1261.916"/>
	</defs>
	<clipPath id="SVGID_2_">
		<use xlink:href="#SVGID_5_"  overflow="visible"/>
	</clipPath>
	<rect x="-2.294" y="-1" clip-path="url(#SVGID_2_)" fill="#EEF7F8" width="2503.725" height="800.661"/>
	<g clip-path="url(#SVGID_2_)">
		<polygon fill="#004C29" points="2517.705,780.828 2459.928,664.379 2496.021,664.379 2450.566,572.758 2477.298,572.758 
			2433.253,483.977 2458.384,483.977 2423.826,414.328 2389.27,483.977 2414.404,483.977 2370.355,572.758 2397.094,572.758 
			2351.637,664.379 2387.735,664.379 2329.959,780.828 		"/>
		<polygon opacity="0.1" fill="#FFFFFF" points="2423.826,780.828 2423.826,414.328 2389.27,483.977 2414.404,483.977 
			2370.355,572.758 2397.094,572.758 2351.637,664.379 2387.735,664.379 2329.959,780.828 		"/>
	</g>
	<g clip-path="url(#SVGID_2_)">
		<rect x="2205.638" y="661.16" fill="#7E5624" width="10.616" height="64.652"/>
		<g>
			<path fill="#4B8D37" d="M2255.303,624.441c-2.173-57.332-44.352-119.895-44.352-119.895s-42.182,62.563-44.35,119.895
				c-1.122,29.479,8.881,75.076,44.35,75.076C2246.418,699.518,2256.419,653.921,2255.303,624.441z"/>
			<path opacity="0.1" fill="#FFFFFF" d="M2210.951,504.547c0,0-42.182,62.563-44.35,119.895
				c-1.122,29.479,8.881,75.076,44.35,75.076V504.547z"/>
		</g>
	</g>
	<g clip-path="url(#SVGID_2_)">
		<polygon fill="#004C29" points="2181.215,778.859 2139.396,703.967 2165.523,703.967 2132.62,645.037 2151.972,645.037 
			2120.09,587.938 2138.281,587.938 2113.271,543.141 2088.26,587.938 2106.451,587.938 2074.573,645.037 2093.918,645.037 
			2061.015,703.967 2087.145,703.967 2045.325,778.859 		"/>
		<polygon opacity="0.1" fill="#FFFFFF" points="2113.271,778.859 2113.271,543.141 2088.26,587.938 2106.451,587.938 
			2074.573,645.037 2093.918,645.037 2061.015,703.967 2087.145,703.967 2045.325,778.859 		"/>
	</g>
	<path clip-path="url(#SVGID_2_)" fill="#567C34" d="M2084.852,780.224c0.008-0.354,0.026-0.705,0.026-1.054
		c0-27.793-24.005-50.325-53.616-50.325c-29.611,0-53.613,22.532-53.613,50.325c0,0.349,0.022,0.7,0.028,1.054H2084.852z"/>
	<path clip-path="url(#SVGID_2_)" fill="#567C34" d="M2344.591,780.224c0.02-0.771,0.065-1.532,0.065-2.31
		c0-60.722-52.444-109.943-117.144-109.943c-64.692,0-117.137,49.222-117.137,109.943c0,0.777,0.052,1.539,0.067,2.31H2344.591z"/>
	<path clip-path="url(#SVGID_2_)" fill="#567C34" d="M2344.591,780.224c0.02-0.771,0.065-1.532,0.065-2.31
		c0-60.722-52.444-109.943-117.144-109.943c-64.692,0-117.137,49.222-117.137,109.943c0,0.777,0.052,1.539,0.067,2.31H2344.591z"/>
	<path clip-path="url(#SVGID_2_)" fill="#598435" d="M2180.664,780.224c0.009-0.497,0.032-0.973,0.032-1.47
		c0-38.73-33.453-70.135-74.718-70.135c-41.269,0-74.716,31.404-74.716,70.135c0,0.497,0.029,0.973,0.043,1.47H2180.664z"/>
	<path clip-path="url(#SVGID_2_)" fill="#598435" d="M2403.668,780.224c0.003-0.391,0.025-0.783,0.025-1.184
		c0-31.063-26.824-56.244-59.921-56.244c-33.097,0-59.925,25.182-59.925,56.244c0,0.4,0.021,0.793,0.028,1.184H2403.668z"/>
	<g clip-path="url(#SVGID_2_)">
		<rect x="2297.05" y="693.4" fill="#7E5624" width="14.577" height="85.981"/>
		<g>
			<path fill="#4B8D37" d="M2365.249,644.567c-2.987-76.248-60.909-159.455-60.909-159.455s-57.925,83.207-60.909,159.455
				c-1.533,39.21,12.2,99.844,60.909,99.844C2353.048,744.411,2366.78,683.777,2365.249,644.567z"/>
			<path opacity="0.1" fill="#FFFFFF" d="M2304.34,485.112c0,0-57.925,83.207-60.909,159.455
				c-1.533,39.21,12.2,99.844,60.909,99.844V485.112z"/>
		</g>
	</g>
	<g clip-path="url(#SVGID_2_)">
		<polygon fill="#004C29" points="212.083,570.238 183.006,520.595 201.171,520.595 178.293,481.535 191.746,481.535 
			169.579,443.681 182.229,443.681 164.834,413.988 147.443,443.681 160.093,443.681 137.922,481.535 151.38,481.535 
			128.501,520.595 146.67,520.595 117.592,570.238 		"/>
		<polygon opacity="0.1" fill="#FFFFFF" points="212.079,619.7 212.079,463.45 194.688,493.143 207.339,493.143 185.168,530.997 
			198.625,530.997 175.746,570.057 193.915,570.057 164.838,619.7 		"/>
		<path fill="#7DAE3B" d="M-4.101,780.766h400.584c0,0-150.583-372.24-400.584-372.24V780.766z"/>
		<path fill="#70A431" d="M2.542,780.766h313.15c0,0-165.155-336.542-313.15-336.542V780.766z"/>
		<g>
			<g>
				<path fill="#567C34" d="M140.381,779.469c0.008-0.47,0.037-0.936,0.037-1.399c0-36.787-31.777-66.608-70.97-66.608
					c-39.191,0-70.962,29.821-70.962,66.608c0,0.464,0.03,0.93,0.037,1.399H140.381z"/>
				<path fill="#567C34" d="M484.17,779.469c0.027-1.023,0.087-2.033,0.087-3.06c0-80.371-69.414-145.524-155.049-145.524
					c-85.628,0-155.044,65.153-155.044,145.524c0,1.026,0.067,2.036,0.089,3.06H484.17z"/>
			</g>
			<path fill="#567C34" d="M484.17,779.469c0.027-1.023,0.087-2.033,0.087-3.06c0-80.371-69.414-145.524-155.049-145.524
				c-85.628,0-155.044,65.153-155.044,145.524c0,1.026,0.067,2.036,0.089,3.06H484.17z"/>
			<path fill="#598435" d="M267.195,779.469c0.015-0.66,0.045-1.293,0.045-1.949c0-51.263-44.279-92.829-98.897-92.829
				c-54.623,0-98.895,41.566-98.895,92.829c0,0.656,0.039,1.289,0.061,1.949H267.195z"/>
			<path fill="#598435" d="M562.361,779.469c0.011-0.522,0.04-1.039,0.04-1.57c0-41.112-35.506-74.445-79.315-74.445
				c-43.807,0-79.316,33.333-79.316,74.445c0,0.531,0.028,1.048,0.037,1.57H562.361z"/>
		</g>
		<g>
			<rect x="108.451" y="701.121" fill="#7E5624" width="12.323" height="77.113"/>
			<g>
				<path fill="#4B8D37" d="M166.123,657.326c-2.521-68.381-51.508-143.009-51.508-143.009s-48.99,74.628-51.508,143.009
					c-1.299,35.16,10.316,89.544,51.508,89.544C155.801,746.87,167.423,692.486,166.123,657.326z"/>
				<path opacity="0.1" fill="#FFFFFF" d="M114.615,514.317c0,0-48.99,74.628-51.508,143.009
					c-1.299,35.16,10.316,89.544,51.508,89.544V514.317z"/>
			</g>
		</g>
		<g>
			<rect x="301.145" y="700.681" fill="#7E5624" width="12.34" height="75.155"/>
			<g>
				<path fill="#4B8D37" d="M358.875,657.991c-2.527-66.648-51.561-139.382-51.561-139.382s-49.036,72.733-51.56,139.382
					c-1.299,34.271,10.328,87.274,51.56,87.274C348.543,745.266,360.172,692.263,358.875,657.991z"/>
				<path opacity="0.1" fill="#FFFFFF" d="M307.314,518.609c0,0-49.036,72.733-51.56,139.382
					c-1.299,34.271,10.328,87.274,51.56,87.274V518.609z"/>
			</g>
		</g>
		<g>
			<rect x="235.282" y="710.766" fill="#7E5624" width="10.683" height="65.07"/>
			<g>
				<path fill="#4B8D37" d="M285.262,673.805c-2.18-57.706-44.635-120.679-44.635-120.679s-42.462,62.973-44.645,120.679
					c-1.122,29.675,8.945,75.565,44.645,75.565C276.32,749.37,286.387,703.479,285.262,673.805z"/>
				<path opacity="0.1" fill="#FFFFFF" d="M240.627,553.126c0,0-42.462,62.973-44.645,120.679
					c-1.122,29.675,8.945,75.565,44.645,75.565V553.126z"/>
			</g>
		</g>
	</g>
	<rect x="-9.258" y="779.707" clip-path="url(#SVGID_2_)" fill="#96BB55" width="2519.873" height="483.209"/>
	
		<path clip-path="url(#SVGID_2_)" fill="none" stroke="#96C6DB" stroke-width="27" stroke-linecap="round" stroke-miterlimit="10" d="
		M1036.955,685.07"/>
	<rect x="484.777" y="54.332" clip-path="url(#SVGID_2_)" fill="none" width="1407.763" height="1306.36"/>
	<rect x="472.147" y="1" clip-path="url(#SVGID_2_)" fill="none" width="1871.304" height="1205.779"/>
	<rect x="1.048" y="1" clip-path="url(#SVGID_2_)" fill="none" width="2342.403" height="1205.779"/>
	<rect x="1.048" y="1" clip-path="url(#SVGID_2_)" fill="none" width="2504.42" height="1205.779"/>
	<rect x="1.048" y="1" clip-path="url(#SVGID_2_)" fill="none" width="2504.42" height="1261.916"/>
	<rect x="1.048" y="1" clip-path="url(#SVGID_2_)" fill="none" width="2504.42" height="1261.916"/>
	<g clip-path="url(#SVGID_2_)">
		<path fill="#567C34" d="M1993.306,779.738c0.012-0.46,0.039-0.915,0.039-1.38c0-36.274-31.33-65.679-69.98-65.679
			c-38.646,0-69.976,29.404-69.976,65.679c0,0.465,0.031,0.92,0.041,1.38H1993.306z"/>
		<path fill="#3D7837" d="M1901.258,779.833c0.007-0.288,0.022-0.574,0.022-0.858c0-22.623-19.951-40.964-44.561-40.964
			s-44.558,18.341-44.558,40.964c0,0.284,0.018,0.57,0.023,0.858H1901.258z"/>
	</g>
	<g clip-path="url(#SVGID_2_)">
		<rect x="1967.959" y="685.908" fill="#7E5624" width="16.966" height="93.808"/>
		<g>
			<path fill="#4B8D37" d="M2047.334,632.631c-3.476-83.188-70.891-173.968-70.891-173.968s-67.417,90.78-70.89,173.968
				c-1.784,42.779,14.2,108.932,70.89,108.932S2049.117,675.41,2047.334,632.631z"/>
			<path opacity="0.1" fill="#FFFFFF" d="M1976.444,458.663c0,0-67.417,90.78-70.89,173.968
				c-1.784,42.779,14.2,108.932,70.89,108.932V458.663z"/>
		</g>
	</g>
</g>
</svg>
