<?xml version="1.0" encoding="utf-8"?>
<!-- Generator: Adobe Illustrator 16.0.0, SVG Export Plug-In . SVG Version: 6.00 Build 0)  -->
<!DOCTYPE svg PUBLIC "-//W3C//DTD SVG 1.1//EN" "http://www.w3.org/Graphics/SVG/1.1/DTD/svg11.dtd">
<svg version="1.1" id="圖層_1" xmlns="http://www.w3.org/2000/svg" xmlns:xlink="http://www.w3.org/1999/xlink" x="0px" y="0px"
	 width="482.558px" height="596.484px" viewBox="0 0 482.558 596.484" enable-background="new 0 0 482.558 596.484"
	 xml:space="preserve">
<g>
	<g>
		<path fill="#0D0D0D" d="M274.22,577.398h-11.852c0,0-30.628,11.932-27.238,18.754h39.79L274.22,577.398z"/>
		<path fill="#525252" d="M295.63,577.398h11.85c0,0,30.632,11.932,27.244,18.754h-39.79L295.63,577.398z"/>
		<g>
			<path fill="#E94218" d="M286.069,77.515c-80.314-6.011-52.88,119.146-53.618,147.173l51.361,1.046L286.069,77.515z"/>
			<path fill="#E55927" d="M286.082,77.515c78.267-2.029,49.497,121.232,49.104,149.264l-51.359-1.045L286.082,77.515z"/>
		</g>
		<g>
			<path fill="#DA987C" d="M252.582,142.584c0.729,4.784-1.937,9.16-5.938,9.778l0,0c-4.008,0.615-7.842-2.765-8.571-7.554
				l-0.904-5.993c-0.729-4.784,1.932-9.164,5.939-9.78l0,0c4.003-0.616,7.841,2.764,8.565,7.55L252.582,142.584z"/>
			<path fill="#E7B3A2" d="M317.312,142.013c-0.725,4.788,1.935,9.165,5.943,9.779l0,0c4.004,0.613,7.842-2.764,8.567-7.549
				l0.907-5.997c0.724-4.786-1.933-9.165-5.939-9.78l0,0c-4.01-0.615-7.844,2.767-8.568,7.553L317.312,142.013z"/>
		</g>
		<g>
			<rect x="273.987" y="169.521" fill="#DA987C" width="10.96" height="34.383"/>
			<rect x="284.947" y="169.521" fill="#E7B3A2" width="10.963" height="34.383"/>
		</g>
		<g>
			<path fill="#E4AC90" d="M284.949,111.562h-41.426c0,0-6.932,75.052,41.426,75.562V111.562z"/>
			<path fill="#EFC0AC" d="M284.945,111.562h41.426c0,0,6.933,75.052-41.426,75.562V111.562z"/>
		</g>
		<path fill="#E4AC90" d="M284.961,201.849c-5.393-0.717-31.065-4.184-42.28,11.224c-8.511,11.682,10.105,56.179,12.929,78.34
			c2.678,21.058-21.218,39.728-13.296,59.791c6.578,16.661,25.552,25.052,42.646,25.407V201.849z"/>
		<path fill="#EFC0AC" d="M284.963,201.849c5.39-0.716,33.286-3.808,44.51,11.599c8.51,11.684-12.338,55.806-15.16,77.968
			c-2.683,21.055,21.219,39.725,13.295,59.788c-6.584,16.665-25.551,25.052-42.646,25.407V201.849z"/>
		<path fill="#583F34" d="M277.665,374.832l-36.328-38.256c0,0-11.082,51.9,21.091,241.119h11.851L277.665,374.832z"/>
		<path fill="#775448" d="M292.216,374.832l36.331-38.256c0,0,11.079,51.9-21.092,241.119h-11.854L292.216,374.832z"/>
		<g>
			<path fill="#E55927" d="M284.941,82.883c-25.198,0.295-45.554,23.907-45.706,48.851h45.706V82.883z"/>
			<path fill="#ED7955" d="M284.953,82.883c25.205,0.295,45.555,23.907,45.711,48.851h-45.711V82.883z"/>
		</g>
		<path fill="#1A1A1A" d="M267.18,141.962c0,2.121-1.705,3.839-3.81,3.839c-2.107,0-3.81-1.718-3.81-3.839
			c0-2.118,1.703-3.834,3.81-3.834C265.475,138.128,267.18,139.844,267.18,141.962z"/>
		<ellipse fill="#1A1A1A" cx="304.049" cy="141.962" rx="3.809" ry="3.839"/>
		<g>
			<g>
				<polygon fill="#CD211C" points="277.954,173.926 284.132,175.236 284.132,168.814 272.917,168.814 				"/>
				<polygon fill="#CD211C" points="284.152,168.83 284.152,175.255 290.332,173.941 295.368,168.83 				"/>
			</g>
			<polygon fill="#E64F4D" points="295.351,168.83 288.622,165.422 284.132,167.126 284.132,167.109 279.645,165.403 
				272.917,168.814 284.132,170.455 284.132,170.471 			"/>
		</g>
		<path fill="#583F34" d="M246.805,322.095c-4.568,9.664-8.396,19.217-4.49,29.108c6.578,16.661,25.552,25.052,42.646,25.407
			v-54.516H246.805z"/>
		<g>
			<g>
				<path fill="#EFC0AC" d="M237.795,222.397c0,0-32.336,20.542-113.571-99.867l11.705-7.64
					c10.859,13.201,73.874,86.469,90.071,83.39L237.795,222.397z"/>
				<path fill="#EFC0AC" d="M127.13,88.74c3.918,6.376,11.816,27.495,11.421,31.624l-10.885,6.551
					c-4.719-6.885-11.182-10.396-12.704-19.12c-1.232-7.039-0.522-14.194,0.332-21.209C116.54,76.265,123.693,83.145,127.13,88.74z"
					/>
			</g>
			<g>
				<path fill="#F29318" d="M186.207,170.548c-4.026,5.55-8.365,10.925-12.816,16.207c17.865,19.089,38.383,33.638,46.867,39.809
					c3.134,2.279,19.823,12.616,23.841,19.759c1.125,2,2.921-3.17,3.563-3.17c5.313,0,0.769-19.739,0.769-19.739l-1.383-15.34
					C248.452,207.641,215.712,198.666,186.207,170.548z"/>
			</g>
		</g>
		<path fill="#775448" d="M284.963,322.095v54.516c17.095-0.355,36.062-8.742,42.646-25.407c3.904-9.889,0.074-19.442-4.489-29.108
			H284.963z"/>
		<path fill="#F29318" d="M242.939,331.182h42.022V219.945c-0.065,0-0.132,0.007-0.193,0.007h-0.563
			c-7.047,0-13.877-2.849-18.856-7.861c-2.707-2.724-4.754-6.009-6.078-9.567c-4.982,1.04-8.76,2.055-12.816,4.428
			c-2.08,1.216-6.274,35.59-1.759,46.561c5.597,13.605,9.696,28.339,10.915,37.901C257.384,305.349,247.521,318.242,242.939,331.182
			z"/>
		<path fill="#F6B556" d="M327.032,331.182h-42.02V219.945c0.067,0,0.13,0.007,0.195,0.007h0.562c7.044,0,13.878-2.849,18.854-7.861
			c2.706-2.724,4.756-6.009,6.079-9.567c4.984,1.04,8.762,2.055,12.816,4.428c2.078,1.216,5.965,35.436,1.45,46.406
			c-5.598,13.605-9.387,28.493-10.605,38.056C312.587,305.349,322.453,318.242,327.032,331.182z"/>
		<path fill="#E32C1B" d="M273.29,304.191v-71.194c-3.551-1.337-6.828-3.4-9.545-6.134c-4.978-5.014-7.81-11.892-7.81-18.985
			c0-1.625,0.167-3.239,0.456-4.822c-3.843,0.894-7.035,1.924-10.409,3.896c-2.08,1.216-4.699,35.067-1.759,46.561
			c3.917,15.312,9.696,28.339,10.915,37.901c0.555,4.352-0.028,8.598-1.227,12.778H273.29z"/>
		<g>
			<g>
				<path fill="#EFC0AC" d="M317.842,220.271c0,0-6.659,36.492,126.625,68.56l2.591-13.279
					c-15.296-5.288-101.585-38.062-105.499-53.056L317.842,220.271z"/>
				<path fill="#EFC0AC" d="M472.929,274.483c-6.922-1.347-28.09-1.205-31.557,0.581l-1.926,12.158
					c7.646,1.902,12.96,6.56,21.099,4.915c6.568-1.317,12.562-4.442,18.381-7.647C487.494,279.78,479.004,275.666,472.929,274.483z"
					/>
			</g>
			<g>
				<path fill="#F6B556" d="M381.741,248.882c-3.438,5.577-6.617,11.381-9.676,17.253c-16.793-7.061-33.531-15.915-45.766-18.164
					c-4.424-0.813-5.441-7.356-7.761-8.646c-14.432-8.027-0.696-19.055-0.696-19.055l4.958-13.564
					C322.687,205.282,346.953,231.823,381.741,248.882z"/>
			</g>
		</g>
		<path fill="#E64F4D" d="M325.275,253.511c3.574-12.813,0.321-45.345-1.757-46.561c-4.055-2.373-7.832-3.388-12.816-4.428
			c-0.145,0.377-0.322,0.74-0.481,1.112c0.224,1.4,0.368,2.813,0.368,4.242c0,7.094-2.83,13.972-7.808,18.985
			c-2.498,2.513-5.48,4.419-8.701,5.748v71.58h21.513c-1.201-4.181-1.783-8.427-1.229-12.778
			C315.581,281.85,321.322,267.683,325.275,253.511z"/>
	</g>
	<g>
		<g>
			<polygon fill="#FBFBFB" points="154.997,57.572 102.922,151.109 67.844,161.057 0,122.773 64.674,6.604 			"/>
			<polygon fill="#BEBDBD" points="134.309,74.078 82.956,45.1 85.089,41.267 136.445,70.244 			"/>
			<polygon fill="#757575" points="128.455,59.361 77.1,30.382 79.234,26.546 130.588,55.527 			"/>
			<polygon fill="#BEBDBD" points="130.504,80.919 79.147,51.941 81.282,48.105 132.636,77.086 			"/>
			<g>
				<path fill="#E0E0E0" d="M128.053,34.465L98.315,17.683c-0.593-0.332-1.335-0.123-1.664,0.474l-4.197,7.538
					c-0.33,0.592-0.12,1.342,0.468,1.673l29.741,16.783c0.587,0.332,1.333,0.12,1.663-0.474l4.195-7.536
					C128.851,35.547,128.641,34.799,128.053,34.465z"/>
				<path fill="#E0E0E0" d="M117.28,18.713L117.28,18.713c-3.116-1.76-7.061-0.641-8.808,2.498l-1.379,2.476l11.291,6.37
					l1.377-2.476C121.51,24.443,120.399,20.474,117.28,18.713z M114.264,24.129c-0.733-0.413-0.993-1.348-0.582-2.088
					c0.409-0.738,1.34-1.001,2.074-0.587c0.733,0.415,0.994,1.349,0.584,2.088C115.928,24.282,114.998,24.545,114.264,24.129z"/>
				<polygon opacity="0.3" fill="#BEBDBD" points="107.538,22.889 118.829,29.259 119.362,28.303 108.071,21.933 				"/>
				<g>
					<path fill="#D4D3D3" d="M125.508,34.662L99.563,20.023c-0.35-0.198-0.792-0.073-0.988,0.28
						c-0.196,0.353-0.071,0.798,0.277,0.994l25.945,14.642c0.347,0.194,0.791,0.07,0.987-0.282
						C125.98,35.306,125.855,34.86,125.508,34.662z"/>
					<path fill="#D4D3D3" d="M124.326,36.781L98.383,22.146c-0.351-0.198-0.794-0.072-0.989,0.277
						c-0.196,0.352-0.071,0.798,0.279,0.994l25.941,14.64c0.351,0.196,0.793,0.071,0.99-0.28
						C124.799,37.425,124.675,36.981,124.326,36.781z"/>
					<path fill="#D4D3D3" d="M123.145,38.902L97.203,24.263c-0.35-0.197-0.794-0.072-0.988,0.277
						c-0.196,0.355-0.072,0.799,0.278,0.997l25.942,14.639c0.351,0.198,0.794,0.073,0.989-0.28
						C123.62,39.544,123.496,39.1,123.145,38.902z"/>
				</g>
				<polygon fill="#EEEEEE" points="67.844,161.057 102.922,151.109 80.445,138.425 				"/>
				<polygon fill="#BEBDBD" points="126.696,87.759 75.339,58.781 77.475,54.947 128.829,83.926 				"/>
				<polygon fill="#BEBDBD" points="118.465,102.539 67.113,73.561 69.246,69.725 120.6,98.705 				"/>
				<polygon fill="#BEBDBD" points="114.66,109.378 63.303,80.4 65.438,76.568 116.792,105.544 				"/>
				<polygon fill="#BEBDBD" points="110.851,116.218 59.496,87.242 61.63,83.404 112.985,112.386 				"/>
				<polygon fill="#BEBDBD" points="102.622,130.998 51.268,102.018 53.402,98.184 104.757,127.165 				"/>
				<polygon fill="#BEBDBD" points="98.815,137.837 47.459,108.859 49.595,105.027 100.949,134.005 				"/>
				<polygon fill="#BEBDBD" points="95.006,144.679 43.652,115.699 45.789,111.867 97.141,140.843 				"/>
				<path opacity="0.3" fill="#BEBDBD" d="M124.654,43.087l-0.328,0.59c-0.33,0.594-1.074,0.806-1.662,0.474L92.921,27.368
					c-0.587-0.331-0.796-1.081-0.467-1.675l0.328-0.59L124.654,43.087z"/>
				<polygon opacity="0.3" fill="#BEBDBD" points="124.326,43.677 130.85,38.786 127.957,37.151 				"/>
				<polygon fill="#E0E0E0" points="71.069,56.681 52.933,47.134 62.231,29.225 80.369,38.77 				"/>
				<polygon fill="#E0E0E0" points="55.687,86.084 37.551,76.54 46.849,58.628 64.984,68.175 				"/>
				<polygon fill="#E0E0E0" points="40.289,113.538 22.151,103.993 31.449,86.084 49.587,95.629 				"/>
			</g>
		</g>
	</g>
</g>
</svg>
