<?xml version="1.0" encoding="utf-8"?>
<!-- Generator: Adobe Illustrator 16.0.0, SVG Export Plug-In . SVG Version: 6.00 Build 0)  -->
<!DOCTYPE svg PUBLIC "-//W3C//DTD SVG 1.1//EN" "http://www.w3.org/Graphics/SVG/1.1/DTD/svg11.dtd">
<svg version="1.1" id="圖層_1" xmlns="http://www.w3.org/2000/svg" xmlns:xlink="http://www.w3.org/1999/xlink" x="0px" y="0px"
	 width="2506.69px" height="1261.916px" viewBox="0 0 2506.69 1261.916" enable-background="new 0 0 2506.69 1261.916"
	 xml:space="preserve">
<g>
	<defs>
		<rect id="SVGID_7_" x="2507" y="-1661" width="2506.69" height="1261.916"/>
	</defs>
	<clipPath id="SVGID_2_">
		<use xlink:href="#SVGID_7_"  overflow="visible"/>
	</clipPath>
</g>
<g>
	<defs>
		<rect id="SVGID_9_" x="0" width="2506.69" height="1261.916"/>
	</defs>
	<clipPath id="SVGID_4_">
		<use xlink:href="#SVGID_9_"  overflow="visible"/>
	</clipPath>
	<rect x="1.483" clip-path="url(#SVGID_4_)" fill="#EEF7F8" width="2503.725" height="800.661"/>
	<g clip-path="url(#SVGID_4_)">
		<polygon fill="#004C29" points="2518.927,779.828 2461.15,663.379 2497.243,663.379 2451.789,571.758 2478.521,571.758 
			2434.475,482.977 2459.606,482.977 2425.048,413.328 2390.492,482.977 2415.626,482.977 2371.578,571.758 2398.316,571.758 
			2352.859,663.379 2388.957,663.379 2331.181,779.828 		"/>
		<polygon opacity="0.1" fill="#FFFFFF" points="2425.048,779.828 2425.048,413.328 2390.492,482.977 2415.626,482.977 
			2371.578,571.758 2398.316,571.758 2352.859,663.379 2388.957,663.379 2331.181,779.828 		"/>
	</g>
	<g clip-path="url(#SVGID_4_)">
		<rect x="1969.181" y="684.908" fill="#7E5624" width="16.966" height="93.808"/>
		<g>
			<path fill="#4B8D37" d="M2048.557,631.631c-3.476-83.188-70.891-173.968-70.891-173.968s-67.417,90.78-70.89,173.968
				c-1.784,42.779,14.2,108.932,70.89,108.932S2050.339,674.41,2048.557,631.631z"/>
			<path opacity="0.1" fill="#FFFFFF" d="M1977.666,457.663c0,0-67.417,90.78-70.89,173.968
				c-1.784,42.779,14.2,108.932,70.89,108.932V457.663z"/>
		</g>
	</g>
	<g clip-path="url(#SVGID_4_)">
		<rect x="2206.861" y="660.16" fill="#7E5624" width="10.616" height="64.652"/>
		<g>
			<path fill="#4B8D37" d="M2256.525,623.441c-2.173-57.332-44.352-119.895-44.352-119.895s-42.182,62.563-44.35,119.895
				c-1.122,29.479,8.881,75.076,44.35,75.076C2247.641,698.518,2257.642,652.921,2256.525,623.441z"/>
			<path opacity="0.1" fill="#FFFFFF" d="M2212.173,503.547c0,0-42.182,62.563-44.35,119.895
				c-1.122,29.479,8.881,75.076,44.35,75.076V503.547z"/>
		</g>
	</g>
	<g clip-path="url(#SVGID_4_)">
		<polygon fill="#004C29" points="2182.437,777.859 2140.618,702.967 2166.746,702.967 2133.842,644.037 2153.194,644.037 
			2121.313,586.938 2139.503,586.938 2114.493,542.141 2089.482,586.938 2107.673,586.938 2075.795,644.037 2095.141,644.037 
			2062.237,702.967 2088.367,702.967 2046.547,777.859 		"/>
		<polygon opacity="0.1" fill="#FFFFFF" points="2114.493,777.859 2114.493,542.141 2089.482,586.938 2107.673,586.938 
			2075.795,644.037 2095.141,644.037 2062.237,702.967 2088.367,702.967 2046.547,777.859 		"/>
	</g>
	<path clip-path="url(#SVGID_4_)" fill="#567C34" d="M2086.074,779.224c0.008-0.354,0.026-0.705,0.026-1.054
		c0-27.793-24.005-50.325-53.616-50.325c-29.611,0-53.613,22.532-53.613,50.325c0,0.349,0.022,0.7,0.028,1.054H2086.074z"/>
	<path clip-path="url(#SVGID_4_)" fill="#567C34" d="M2345.813,779.224c0.02-0.771,0.065-1.532,0.065-2.31
		c0-60.722-52.444-109.943-117.144-109.943c-64.692,0-117.137,49.222-117.137,109.943c0,0.777,0.052,1.539,0.067,2.31H2345.813z"/>
	<path clip-path="url(#SVGID_4_)" fill="#567C34" d="M2345.813,779.224c0.02-0.771,0.065-1.532,0.065-2.31
		c0-60.722-52.444-109.943-117.144-109.943c-64.692,0-117.137,49.222-117.137,109.943c0,0.777,0.052,1.539,0.067,2.31H2345.813z"/>
	<path clip-path="url(#SVGID_4_)" fill="#598435" d="M2181.886,779.224c0.009-0.497,0.032-0.972,0.032-1.47
		c0-38.73-33.453-70.135-74.718-70.135c-41.269,0-74.716,31.404-74.716,70.135c0,0.498,0.029,0.973,0.043,1.47H2181.886z"/>
	<path clip-path="url(#SVGID_4_)" fill="#598435" d="M2404.89,779.224c0.003-0.39,0.025-0.783,0.025-1.183
		c0-31.063-26.824-56.245-59.921-56.245c-33.097,0-59.925,25.182-59.925,56.245c0,0.399,0.021,0.793,0.028,1.183H2404.89z"/>
	<g clip-path="url(#SVGID_4_)">
		<rect x="2298.272" y="692.4" fill="#7E5624" width="14.577" height="85.981"/>
		<g>
			<path fill="#4B8D37" d="M2366.471,643.567c-2.987-76.248-60.909-159.455-60.909-159.455s-57.925,83.207-60.909,159.455
				c-1.533,39.21,12.2,99.844,60.909,99.844C2354.27,743.411,2368.002,682.777,2366.471,643.567z"/>
			<path opacity="0.1" fill="#FFFFFF" d="M2305.562,484.112c0,0-57.925,83.207-60.909,159.455
				c-1.533,39.21,12.2,99.844,60.909,99.844V484.112z"/>
		</g>
	</g>
	<g clip-path="url(#SVGID_4_)">
		<polygon fill="#004C29" points="213.305,569.238 184.228,519.595 202.394,519.595 179.516,480.535 192.968,480.535 
			170.801,442.681 183.451,442.681 166.056,412.988 148.665,442.681 161.315,442.681 139.144,480.535 152.602,480.535 
			129.723,519.595 147.892,519.595 118.814,569.238 		"/>
		<polygon opacity="0.1" fill="#FFFFFF" points="213.301,618.7 213.301,462.45 195.911,492.143 208.561,492.143 186.39,529.997 
			199.847,529.997 176.968,569.057 195.137,569.057 166.06,618.7 		"/>
		<path fill="#7DAE3B" d="M-2.878,779.766h400.584c0,0-150.583-372.24-400.584-372.24V779.766z"/>
		<path fill="#70A431" d="M3.764,779.766h313.15c0,0-165.155-336.542-313.15-336.542V779.766z"/>
		<g>
			<g>
				<path fill="#567C34" d="M141.603,778.469c0.008-0.469,0.037-0.936,0.037-1.399c0-36.787-31.777-66.608-70.97-66.608
					c-39.191,0-70.962,29.821-70.962,66.608c0,0.464,0.03,0.931,0.037,1.399H141.603z"/>
				<path fill="#567C34" d="M485.392,778.469c0.027-1.023,0.087-2.033,0.087-3.06c0-80.371-69.414-145.524-155.049-145.524
					c-85.628,0-155.044,65.153-155.044,145.524c0,1.026,0.067,2.036,0.089,3.06H485.392z"/>
			</g>
			<path fill="#567C34" d="M485.392,778.469c0.027-1.023,0.087-2.033,0.087-3.06c0-80.371-69.414-145.524-155.049-145.524
				c-85.628,0-155.044,65.153-155.044,145.524c0,1.026,0.067,2.036,0.089,3.06H485.392z"/>
			<path fill="#598435" d="M268.417,778.469c0.015-0.66,0.045-1.293,0.045-1.949c0-51.263-44.279-92.829-98.897-92.829
				c-54.623,0-98.895,41.566-98.895,92.829c0,0.656,0.039,1.289,0.061,1.949H268.417z"/>
			<path fill="#598435" d="M563.583,778.469c0.011-0.522,0.04-1.039,0.04-1.57c0-41.112-35.506-74.445-79.315-74.445
				c-43.807,0-79.316,33.333-79.316,74.445c0,0.531,0.028,1.048,0.037,1.57H563.583z"/>
		</g>
		<g>
			<rect x="109.673" y="700.121" fill="#7E5624" width="12.323" height="77.113"/>
			<g>
				<path fill="#4B8D37" d="M167.345,656.326c-2.521-68.381-51.508-143.009-51.508-143.009s-48.99,74.628-51.508,143.009
					c-1.299,35.16,10.316,89.544,51.508,89.544C157.023,745.87,168.645,691.486,167.345,656.326z"/>
				<path opacity="0.1" fill="#FFFFFF" d="M115.837,513.317c0,0-48.99,74.628-51.508,143.009
					c-1.299,35.16,10.316,89.544,51.508,89.544V513.317z"/>
			</g>
		</g>
		<g>
			<rect x="302.367" y="699.681" fill="#7E5624" width="12.34" height="75.155"/>
			<g>
				<path fill="#4B8D37" d="M360.097,656.991c-2.527-66.648-51.561-139.382-51.561-139.382s-49.036,72.733-51.56,139.382
					c-1.299,34.271,10.328,87.274,51.56,87.274C349.765,744.266,361.394,691.263,360.097,656.991z"/>
				<path opacity="0.1" fill="#FFFFFF" d="M308.537,517.609c0,0-49.036,72.733-51.56,139.382
					c-1.299,34.271,10.328,87.274,51.56,87.274V517.609z"/>
			</g>
		</g>
		<g>
			<rect x="236.504" y="709.766" fill="#7E5624" width="10.683" height="65.07"/>
			<g>
				<path fill="#4B8D37" d="M286.484,672.805c-2.18-57.706-44.635-120.679-44.635-120.679s-42.462,62.973-44.645,120.679
					c-1.122,29.675,8.945,75.565,44.645,75.565C277.542,748.37,287.609,702.479,286.484,672.805z"/>
				<path opacity="0.1" fill="#FFFFFF" d="M241.849,552.126c0,0-42.462,62.973-44.645,120.679
					c-1.122,29.675,8.945,75.565,44.645,75.565V552.126z"/>
			</g>
		</g>
	</g>
	<rect x="-8.036" y="778.707" clip-path="url(#SVGID_4_)" fill="#96BB55" width="2519.873" height="483.209"/>
	
		<path clip-path="url(#SVGID_4_)" fill="none" stroke="#96C6DB" stroke-width="27" stroke-linecap="round" stroke-miterlimit="10" d="
		M1038.177,684.07"/>
	<rect x="485.999" y="53.332" clip-path="url(#SVGID_4_)" fill="none" width="1407.763" height="1306.36"/>
	<rect x="473.37" clip-path="url(#SVGID_4_)" fill="none" width="1871.304" height="1205.779"/>
	<rect x="2.27" clip-path="url(#SVGID_4_)" fill="none" width="2342.403" height="1205.779"/>
	<rect x="2.27" clip-path="url(#SVGID_4_)" fill="none" width="2504.42" height="1205.779"/>
	<rect x="2.27" clip-path="url(#SVGID_4_)" fill="none" width="2504.42" height="1261.916"/>
	<rect x="2.27" clip-path="url(#SVGID_4_)" fill="none" width="2504.42" height="1261.916"/>
	<g clip-path="url(#SVGID_4_)">
		<path fill="#567C34" d="M1994.528,778.738c0.012-0.46,0.039-0.915,0.039-1.38c0-36.274-31.33-65.679-69.98-65.679
			c-38.646,0-69.976,29.404-69.976,65.679c0,0.465,0.031,0.92,0.041,1.38H1994.528z"/>
		<path fill="#3D7837" d="M1902.48,778.834c0.007-0.289,0.022-0.575,0.022-0.859c0-22.623-19.951-40.964-44.561-40.964
			s-44.558,18.341-44.558,40.964c0,0.284,0.018,0.57,0.023,0.859H1902.48z"/>
	</g>
</g>
</svg>
